M48
;Layer_Color=9474304
;FILE_FORMAT=4:4
METRIC,TZ
;TYPE=PLATED
T1F00S00C0.7112
T2F00S00C0.7500
T3F00S00C0.8000
T4F00S00C0.8500
T5F00S00C0.9000
T6F00S00C1.2000
T7F00S00C3.8100
%
T01
X899160Y1010322
X1525270Y1043940
X1980565Y1132205
X1867935Y1237615
X1762760Y1361440
X1525905Y1409700
X1403985Y1409065
X1422400Y1449070
X1405890Y1502410
X1405890Y1553210
X1361440Y1540510
X1361440Y1489710
X1339215Y1409115
X1494790Y1515110
X1532890Y1527810
X1008145Y1379430
X859790Y1347470
X1361440Y1591310
X1361440Y1642110
X1405890Y1654810
X1405890Y1604010
X1494790Y1616710
X1494790Y1565910
X1532890Y1578610
X1532890Y1629410
X1532890Y1680210
X1494790Y1667510
T02
X1792370Y770890
X1151890Y1001630
X1814830Y957180
X1936750Y962260
X1794910Y845820
X1812290Y1293260
X1888490Y1293260
X1687830Y1248494
X1046880Y1327150
X970280Y1321670
T03
X1842370Y770890
X1068070Y746760
X1068070Y734060
X1068070Y721360
X951230Y721360
X951230Y734060
X951230Y746760
X874160Y1148080
X924160Y1148080
X1151890Y951630
X1814830Y907180
X1844910Y845820
X1936750Y912260
X1888490Y1343260
X1812290Y1343260
X1687830Y1198494
X990200Y1209040
X940200Y1209040
X970280Y1271670
X1096880Y1327150
T04
X866140Y1043342
X942340Y1043342
X967740Y834390
X967740Y798830
X1037590Y800100
X1037590Y835660
X1113790Y835660
X1113790Y800100
X891540Y798830
X891540Y834390
X1209040Y974090
X1209040Y1050290
X1209040Y1085850
X1209040Y1162050
X1649730Y1163320
X1649730Y1087120
X1649730Y1051560
X1649730Y975360
X1733550Y960120
X1733550Y883920
X1753870Y1168400
X1753870Y1244600
X1551940Y1311910
X1551940Y1342390
X1475740Y1342390
X1475740Y1311910
X1389380Y1311910
X1389380Y1342390
X1313180Y1342390
X1313180Y1311910
T05
X1356500Y744220
X1504950Y740410
X1654950Y740410
X1206500Y744220
X873760Y924560
X899160Y924560
X924560Y924560
X995680Y1023620
X995680Y1049020
X995680Y1074420
X995680Y1099820
X1071880Y1099820
X1071880Y1074420
X1071880Y1049020
X1071880Y1023620
X1206500Y844220
X1206500Y794220
X1356500Y844220
X1504950Y840410
X1504950Y790410
X1654950Y840410
X1736090Y1016000
X1761490Y1016000
X1786890Y1016000
X1812290Y1016000
X1837690Y1016000
X1863090Y1016000
X1888490Y1016000
X1888490Y1092200
X1863090Y1092200
X1837690Y1092200
X1812290Y1092200
X1786890Y1092200
X1761490Y1092200
X1736090Y1092200
X1931670Y835660
X1931670Y810260
X1931670Y784860
X1893570Y1170940
X1868170Y1170940
X1842770Y1170940
X1722120Y1489710
X1696720Y1489710
X1696720Y1515110
X1722120Y1515110
X1722120Y1540510
X1696720Y1540510
X1569720Y1253490
X1493520Y1253490
X1329690Y1252600
X1253490Y1252600
X1193800Y1489710
X1168400Y1489710
X1168400Y1515110
X1193800Y1515110
X1193800Y1540510
X1168400Y1540510
X1168400Y1565910
X1193800Y1565910
X1193800Y1591310
X1168400Y1591310
X1168400Y1616710
X1193800Y1616710
X1193800Y1642110
X1168400Y1642110
X1168400Y1667510
X1193800Y1667510
X1193800Y1692910
X1168400Y1692910
X1168400Y1718310
X1193800Y1718310
X1696720Y1718310
X1696720Y1692910
X1696720Y1667510
X1696720Y1642110
X1696720Y1616710
X1696720Y1591310
X1696720Y1565910
X1722120Y1565910
X1722120Y1591310
X1722120Y1616710
X1722120Y1642110
X1722120Y1667510
X1722120Y1692910
X1722120Y1718310
T06
X843050Y1099820
X947650Y1099820
X1293900Y1103630
X1293900Y1037590
X1293900Y966470
X1398500Y966470
X1398500Y1037590
X1398500Y1103630
X1479406Y1104392
X1479406Y1037843
X1479406Y971295
X1584006Y971295
X1584006Y1037843
X1584006Y1104392
X1584006Y1170940
X1479406Y1170940
X1398500Y1174750
X1293900Y1174750
T07
X1960880Y675640
X839470Y675640
X839470Y1732280
X1963420Y1731010
M30
