%FSLAX44Y44*%
%MOMM*%
G71*
G01*
G75*
G04 Layer_Physical_Order=2*
G04 Layer_Color=16711680*
%ADD10C,0.2540*%
%ADD11C,0.7620*%
%ADD12C,1.2700*%
%ADD13C,0.5080*%
%ADD14R,1.7780X1.5000*%
%ADD15O,1.7780X1.5000*%
%ADD16R,1.7780X1.5000*%
%ADD17O,1.7780X1.5000*%
%ADD18R,2.5400X2.5400*%
%ADD19R,2.2860X2.2860*%
%ADD20C,2.2860*%
%ADD21R,2.2860X1.5000*%
%ADD22O,2.2860X1.5000*%
%ADD23C,1.7780*%
%ADD24C,2.0000*%
%ADD25R,2.0000X2.0000*%
%ADD26O,2.0000X1.0000*%
%ADD27O,1.5000X2.2860*%
%ADD28R,1.5000X2.2860*%
%ADD29R,2.2860X2.2860*%
%ADD30O,2.2860X1.5000*%
%ADD31R,2.2860X1.5000*%
%ADD32R,1.5000X2.2860*%
%ADD33O,1.5000X2.2860*%
%ADD34C,5.0800*%
%ADD35C,1.2700*%
G36*
X2012950Y1781283D02*
Y624840D01*
X786130D01*
Y1781890D01*
X2011153Y1783078D01*
X2012950Y1781283D01*
D02*
G37*
%LPC*%
G36*
X1504393Y967485D02*
X1483216D01*
Y946308D01*
X1484354Y946420D01*
X1489112Y947864D01*
X1493497Y950207D01*
X1497340Y953362D01*
X1500494Y957205D01*
X1502838Y961590D01*
X1504281Y966347D01*
X1504393Y967485D01*
D02*
G37*
G36*
X1475596D02*
X1454419D01*
X1454531Y966347D01*
X1455974Y961590D01*
X1458318Y957205D01*
X1461472Y953362D01*
X1465316Y950207D01*
X1469700Y947864D01*
X1474458Y946420D01*
X1475596Y946308D01*
Y967485D01*
D02*
G37*
G36*
X1394690Y991457D02*
X1393552Y991345D01*
X1388794Y989902D01*
X1384410Y987558D01*
X1380566Y984404D01*
X1377412Y980560D01*
X1375068Y976176D01*
X1373625Y971418D01*
X1373513Y970280D01*
X1394690D01*
Y991457D01*
D02*
G37*
G36*
X899160Y951340D02*
X894702Y950901D01*
X890416Y949601D01*
X886465Y947489D01*
X886460Y947485D01*
X886455Y947489D01*
X882504Y949601D01*
X878218Y950901D01*
X873760Y951340D01*
X869302Y950901D01*
X865016Y949601D01*
X861065Y947489D01*
X857603Y944647D01*
X854761Y941185D01*
X852649Y937234D01*
X851349Y932948D01*
X850910Y928490D01*
Y920630D01*
X851349Y916172D01*
X852649Y911886D01*
X854761Y907935D01*
X857603Y904473D01*
X861065Y901631D01*
X865016Y899519D01*
X869302Y898219D01*
X873760Y897780D01*
X878218Y898219D01*
X882504Y899519D01*
X886455Y901631D01*
X886460Y901635D01*
X886465Y901631D01*
X890416Y899519D01*
X894702Y898219D01*
X899160Y897780D01*
X901669Y898027D01*
X901820Y897890D01*
Y897890D01*
X947300D01*
Y951230D01*
X901820D01*
Y951230D01*
X901669Y951093D01*
X899160Y951340D01*
D02*
G37*
G36*
X1423487Y962660D02*
X1402310D01*
Y941483D01*
X1403448Y941595D01*
X1408206Y943038D01*
X1412590Y945382D01*
X1416434Y948536D01*
X1419588Y952380D01*
X1421931Y956764D01*
X1423375Y961522D01*
X1423487Y962660D01*
D02*
G37*
G36*
X1178343Y947820D02*
X1155700D01*
Y925177D01*
X1156075Y925207D01*
X1160157Y926187D01*
X1164035Y927793D01*
X1167615Y929987D01*
X1170807Y932713D01*
X1173533Y935905D01*
X1175727Y939485D01*
X1177333Y943363D01*
X1178313Y947445D01*
X1178343Y947820D01*
D02*
G37*
G36*
X1729740Y907792D02*
X1728820Y907701D01*
X1724271Y906321D01*
X1720079Y904080D01*
X1716405Y901065D01*
X1713390Y897391D01*
X1711149Y893199D01*
X1709769Y888650D01*
X1709678Y887730D01*
X1729740D01*
Y907792D01*
D02*
G37*
G36*
X1394690Y962660D02*
X1373513D01*
X1373625Y961522D01*
X1375068Y956764D01*
X1377412Y952380D01*
X1380566Y948536D01*
X1384410Y945382D01*
X1388794Y943038D01*
X1393552Y941595D01*
X1394690Y941483D01*
Y962660D01*
D02*
G37*
G36*
X1319140Y991710D02*
X1268660D01*
Y941230D01*
X1319140D01*
Y991710D01*
D02*
G37*
G36*
X1402310Y991457D02*
Y970280D01*
X1423487D01*
X1423375Y971418D01*
X1421931Y976176D01*
X1419588Y980560D01*
X1416434Y984404D01*
X1412590Y987558D01*
X1408206Y989902D01*
X1403448Y991345D01*
X1402310Y991457D01*
D02*
G37*
G36*
X1423487Y1099820D02*
X1402310D01*
Y1078643D01*
X1403448Y1078755D01*
X1408206Y1080198D01*
X1412590Y1082542D01*
X1416434Y1085696D01*
X1419588Y1089540D01*
X1421931Y1093924D01*
X1423375Y1098682D01*
X1423487Y1099820D01*
D02*
G37*
G36*
X1394690D02*
X1373513D01*
X1373625Y1098682D01*
X1375068Y1093924D01*
X1377412Y1089540D01*
X1380566Y1085696D01*
X1384410Y1082542D01*
X1388794Y1080198D01*
X1393552Y1078755D01*
X1394690Y1078643D01*
Y1099820D01*
D02*
G37*
G36*
X1504393Y1100582D02*
X1483216D01*
Y1079405D01*
X1484354Y1079517D01*
X1489112Y1080960D01*
X1493497Y1083304D01*
X1497340Y1086458D01*
X1500494Y1090301D01*
X1502838Y1094686D01*
X1504281Y1099444D01*
X1504393Y1100582D01*
D02*
G37*
G36*
X1475596D02*
X1454419D01*
X1454531Y1099444D01*
X1455974Y1094686D01*
X1458318Y1090301D01*
X1461472Y1086458D01*
X1465316Y1083304D01*
X1469700Y1080960D01*
X1474458Y1079517D01*
X1475596Y1079405D01*
Y1100582D01*
D02*
G37*
G36*
X843050Y1125182D02*
X838102Y1124695D01*
X833344Y1123252D01*
X828960Y1120908D01*
X825116Y1117754D01*
X821962Y1113910D01*
X819619Y1109526D01*
X818175Y1104768D01*
X817688Y1099820D01*
X818175Y1094872D01*
X819619Y1090114D01*
X821962Y1085730D01*
X825116Y1081886D01*
X828960Y1078732D01*
X833344Y1076388D01*
X838102Y1074945D01*
X843050Y1074458D01*
X847998Y1074945D01*
X852756Y1076388D01*
X857140Y1078732D01*
X860984Y1081886D01*
X864138Y1085730D01*
X866482Y1090114D01*
X867925Y1094872D01*
X868412Y1099820D01*
X867925Y1104768D01*
X866482Y1109526D01*
X864138Y1113910D01*
X860984Y1117754D01*
X857140Y1120908D01*
X852756Y1123252D01*
X847998Y1124695D01*
X843050Y1125182D01*
D02*
G37*
G36*
X1068070Y1019810D02*
X1045210D01*
Y1000880D01*
X1068070D01*
Y1019810D01*
D02*
G37*
G36*
X866140Y1067589D02*
X861410Y1067123D01*
X856861Y1065743D01*
X852669Y1063502D01*
X848995Y1060487D01*
X845980Y1056813D01*
X843739Y1052621D01*
X842359Y1048072D01*
X841893Y1043342D01*
X842359Y1038612D01*
X843739Y1034063D01*
X845980Y1029871D01*
X848995Y1026197D01*
X852669Y1023182D01*
X856861Y1020941D01*
X861410Y1019561D01*
X866140Y1019095D01*
X870870Y1019561D01*
X875419Y1020941D01*
X878471Y1022572D01*
X880267Y1020776D01*
X879117Y1018624D01*
X877882Y1014554D01*
X877466Y1010322D01*
X877882Y1006090D01*
X879117Y1002020D01*
X881122Y998269D01*
X883820Y994982D01*
X887107Y992284D01*
X890858Y990279D01*
X894928Y989044D01*
X899160Y988627D01*
X903392Y989044D01*
X907462Y990279D01*
X911213Y992284D01*
X914500Y994982D01*
X917198Y998269D01*
X919203Y1002020D01*
X920438Y1006090D01*
X920854Y1010322D01*
X920438Y1014554D01*
X919203Y1018624D01*
X917198Y1022375D01*
X914500Y1025662D01*
X911213Y1028360D01*
X907462Y1030365D01*
X903392Y1031600D01*
X899160Y1032017D01*
X894928Y1031600D01*
X890858Y1030365D01*
X888706Y1029215D01*
X886909Y1031011D01*
X888541Y1034063D01*
X889921Y1038612D01*
X890387Y1043342D01*
X889921Y1048072D01*
X888541Y1052621D01*
X886300Y1056813D01*
X883285Y1060487D01*
X879611Y1063502D01*
X875419Y1065743D01*
X870870Y1067123D01*
X866140Y1067589D01*
D02*
G37*
G36*
X942340D02*
X937610Y1067123D01*
X933061Y1065743D01*
X928869Y1063502D01*
X925195Y1060487D01*
X922180Y1056813D01*
X919939Y1052621D01*
X918559Y1048072D01*
X918093Y1043342D01*
X918559Y1038612D01*
X919939Y1034063D01*
X922180Y1029871D01*
X925195Y1026197D01*
X928869Y1023182D01*
X933061Y1020941D01*
X937610Y1019561D01*
X942340Y1019095D01*
X947070Y1019561D01*
X951619Y1020941D01*
X955811Y1023182D01*
X959485Y1026197D01*
X962500Y1029871D01*
X964741Y1034063D01*
X966121Y1038612D01*
X966587Y1043342D01*
X966121Y1048072D01*
X964741Y1052621D01*
X962500Y1056813D01*
X959485Y1060487D01*
X955811Y1063502D01*
X951619Y1065743D01*
X947070Y1067123D01*
X942340Y1067589D01*
D02*
G37*
G36*
X1178560Y1028300D02*
X1125220D01*
Y1020561D01*
X1123625Y1020404D01*
X1120035Y1019315D01*
X1116725Y1017546D01*
X1113824Y1015166D01*
X1100897Y1002238D01*
X1098550Y1003210D01*
Y1019810D01*
X1075690D01*
Y1000880D01*
X1096220D01*
X1097192Y998533D01*
X1090094Y991436D01*
X1087714Y988535D01*
X1085945Y985225D01*
X1084856Y981635D01*
X1084488Y977900D01*
Y933450D01*
X1084856Y929715D01*
X1085945Y926125D01*
X1087714Y922815D01*
X1090094Y919914D01*
X1179324Y830684D01*
X1179830Y830269D01*
Y817550D01*
Y767550D01*
Y717550D01*
X1233170D01*
Y767550D01*
Y817550D01*
Y870890D01*
X1193261D01*
X1138566Y925585D01*
X1139977Y927697D01*
X1143623Y926187D01*
X1147705Y925207D01*
X1148080Y925177D01*
Y951633D01*
X1151888D01*
Y955440D01*
X1178343D01*
X1178313Y955815D01*
X1177333Y959897D01*
X1175727Y963775D01*
X1173533Y967355D01*
X1170807Y970547D01*
X1167615Y973273D01*
X1168091Y974960D01*
X1178560D01*
Y1028300D01*
D02*
G37*
G36*
X915412Y830580D02*
X867669D01*
X867759Y829660D01*
X869139Y825111D01*
X871380Y820919D01*
X874395Y817245D01*
Y815975D01*
X871380Y812301D01*
X869139Y808109D01*
X867759Y803560D01*
X867293Y798830D01*
X867759Y794100D01*
X869139Y789551D01*
X871380Y785359D01*
X874395Y781685D01*
X878069Y778670D01*
X882261Y776429D01*
X886810Y775049D01*
X891540Y774583D01*
X896270Y775049D01*
X900819Y776429D01*
X905011Y778670D01*
X908685Y781685D01*
X911700Y785359D01*
X913941Y789551D01*
X915321Y794100D01*
X915787Y798830D01*
X915321Y803560D01*
X913941Y808109D01*
X911700Y812301D01*
X908685Y815975D01*
Y817245D01*
X911700Y820919D01*
X913941Y825111D01*
X915321Y829660D01*
X915412Y830580D01*
D02*
G37*
G36*
X1073070Y767098D02*
X1071880D01*
Y754398D01*
X1064260D01*
Y767098D01*
X1063070D01*
X1059102Y766707D01*
X1055287Y765550D01*
X1051771Y763670D01*
X1048689Y761141D01*
X1046160Y758059D01*
X1044280Y754543D01*
X1043123Y750728D01*
X1043107Y750570D01*
X1051282D01*
X1048689Y748441D01*
X1046159Y745359D01*
X1044871Y742950D01*
X1043107D01*
X1043123Y742792D01*
X1043846Y740410D01*
X1043123Y738028D01*
X1042732Y734060D01*
X1043123Y730092D01*
X1043846Y727710D01*
X1043123Y725328D01*
X1042732Y721360D01*
X1043123Y717392D01*
X1044280Y713577D01*
X1046160Y710061D01*
X1048689Y706979D01*
X1051771Y704450D01*
X1055287Y702570D01*
X1059102Y701413D01*
X1063070Y701022D01*
X1073070D01*
X1077038Y701413D01*
X1080853Y702570D01*
X1084369Y704450D01*
X1087451Y706979D01*
X1089980Y710061D01*
X1091860Y713577D01*
X1093017Y717392D01*
X1093408Y721360D01*
X1093017Y725328D01*
X1092294Y727710D01*
X1093017Y730092D01*
X1093408Y734060D01*
X1093017Y738028D01*
X1092294Y740410D01*
X1093017Y742792D01*
X1093033Y742950D01*
X1091269D01*
X1089981Y745359D01*
X1087451Y748441D01*
X1084858Y750570D01*
X1093033D01*
X1093017Y750728D01*
X1091860Y754543D01*
X1089980Y758059D01*
X1087451Y761141D01*
X1084369Y763670D01*
X1080853Y765550D01*
X1077038Y766707D01*
X1073070Y767098D01*
D02*
G37*
G36*
X1113790Y859907D02*
X1109060Y859441D01*
X1104511Y858061D01*
X1100319Y855820D01*
X1096645Y852805D01*
X1093630Y849131D01*
X1091389Y844939D01*
X1090009Y840390D01*
X1089543Y835660D01*
X1090009Y830930D01*
X1091389Y826381D01*
X1093630Y822189D01*
X1096645Y818515D01*
Y817245D01*
X1093630Y813571D01*
X1091389Y809379D01*
X1090009Y804830D01*
X1089543Y800100D01*
X1090009Y795370D01*
X1091389Y790821D01*
X1093630Y786629D01*
X1096645Y782955D01*
X1100319Y779940D01*
X1104511Y777699D01*
X1109060Y776319D01*
X1113790Y775853D01*
X1118520Y776319D01*
X1123069Y777699D01*
X1127261Y779940D01*
X1130935Y782955D01*
X1133950Y786629D01*
X1136191Y790821D01*
X1137571Y795370D01*
X1138037Y800100D01*
X1137571Y804830D01*
X1136191Y809379D01*
X1133950Y813571D01*
X1130935Y817245D01*
Y818515D01*
X1133950Y822189D01*
X1136191Y826381D01*
X1137571Y830930D01*
X1138037Y835660D01*
X1137571Y840390D01*
X1136191Y844939D01*
X1133950Y849131D01*
X1130935Y852805D01*
X1127261Y855820D01*
X1123069Y858061D01*
X1118520Y859441D01*
X1113790Y859907D01*
D02*
G37*
G36*
X967740Y858637D02*
X963010Y858171D01*
X958461Y856791D01*
X954269Y854550D01*
X950595Y851535D01*
X947580Y847861D01*
X945339Y843669D01*
X943959Y839120D01*
X943493Y834390D01*
X943959Y829660D01*
X945339Y825111D01*
X947580Y820919D01*
X950595Y817245D01*
Y815975D01*
X947580Y812301D01*
X945339Y808109D01*
X943959Y803560D01*
X943493Y798830D01*
X943959Y794100D01*
X945339Y789551D01*
X947580Y785359D01*
X950595Y781685D01*
X954269Y778670D01*
X958461Y776429D01*
X963010Y775049D01*
X967740Y774583D01*
X972470Y775049D01*
X977019Y776429D01*
X981211Y778670D01*
X984885Y781685D01*
X987900Y785359D01*
X990141Y789551D01*
X991521Y794100D01*
X991987Y798830D01*
X991521Y803560D01*
X990141Y808109D01*
X987900Y812301D01*
X984885Y815975D01*
Y817245D01*
X987900Y820919D01*
X990141Y825111D01*
X991521Y829660D01*
X991987Y834390D01*
X991521Y839120D01*
X990141Y843669D01*
X987900Y847861D01*
X984885Y851535D01*
X981211Y854550D01*
X977019Y856791D01*
X972470Y858171D01*
X967740Y858637D01*
D02*
G37*
G36*
X956230Y767098D02*
X955040D01*
Y754398D01*
X947420D01*
Y767098D01*
X946230D01*
X942262Y766707D01*
X938447Y765550D01*
X934931Y763670D01*
X931849Y761141D01*
X929320Y758059D01*
X927440Y754543D01*
X926283Y750728D01*
X926267Y750570D01*
X934442D01*
X931849Y748441D01*
X929319Y745359D01*
X928031Y742950D01*
X926267D01*
X926283Y742792D01*
X927005Y740410D01*
X926283Y738028D01*
X925892Y734060D01*
X926283Y730092D01*
X927005Y727710D01*
X926283Y725328D01*
X925892Y721360D01*
X926283Y717392D01*
X927440Y713577D01*
X929320Y710061D01*
X931849Y706979D01*
X934931Y704450D01*
X938447Y702570D01*
X942262Y701413D01*
X946230Y701022D01*
X956230D01*
X960198Y701413D01*
X964013Y702570D01*
X967529Y704450D01*
X970611Y706979D01*
X973140Y710061D01*
X975020Y713577D01*
X976177Y717392D01*
X976568Y721360D01*
X976177Y725328D01*
X975454Y727710D01*
X976177Y730092D01*
X976568Y734060D01*
X976177Y738028D01*
X975454Y740410D01*
X976177Y742792D01*
X976193Y742950D01*
X974429D01*
X973141Y745359D01*
X970611Y748441D01*
X968018Y750570D01*
X976193D01*
X976177Y750728D01*
X975020Y754543D01*
X973140Y758059D01*
X970611Y761141D01*
X967529Y763670D01*
X964013Y765550D01*
X960198Y766707D01*
X956230Y767098D01*
D02*
G37*
G36*
X1960880Y716406D02*
X1954503Y715904D01*
X1948283Y714410D01*
X1942373Y711963D01*
X1936918Y708620D01*
X1932054Y704466D01*
X1927900Y699602D01*
X1924557Y694147D01*
X1922110Y688237D01*
X1920616Y682017D01*
X1920114Y675640D01*
X1920616Y669263D01*
X1922110Y663043D01*
X1924557Y657133D01*
X1927900Y651678D01*
X1932054Y646814D01*
X1936918Y642660D01*
X1942373Y639318D01*
X1948283Y636870D01*
X1954503Y635376D01*
X1960880Y634874D01*
X1967257Y635376D01*
X1973477Y636870D01*
X1979387Y639318D01*
X1984841Y642660D01*
X1989706Y646814D01*
X1993860Y651678D01*
X1997202Y657133D01*
X1999651Y663043D01*
X2001144Y669263D01*
X2001646Y675640D01*
X2001144Y682017D01*
X1999651Y688237D01*
X1997202Y694147D01*
X1993860Y699602D01*
X1989706Y704466D01*
X1984841Y708620D01*
X1979387Y711963D01*
X1973477Y714410D01*
X1967257Y715904D01*
X1960880Y716406D01*
D02*
G37*
G36*
X839470D02*
X833093Y715904D01*
X826873Y714410D01*
X820963Y711963D01*
X815508Y708620D01*
X810644Y704466D01*
X806490Y699602D01*
X803148Y694147D01*
X800699Y688237D01*
X799206Y682017D01*
X798704Y675640D01*
X799206Y669263D01*
X800699Y663043D01*
X803148Y657133D01*
X806490Y651678D01*
X810644Y646814D01*
X815508Y642660D01*
X820963Y639318D01*
X826873Y636870D01*
X833093Y635376D01*
X839470Y634874D01*
X845847Y635376D01*
X852067Y636870D01*
X857977Y639318D01*
X863431Y642660D01*
X868296Y646814D01*
X872450Y651678D01*
X875792Y657133D01*
X878241Y663043D01*
X879734Y669263D01*
X880236Y675640D01*
X879734Y682017D01*
X878241Y688237D01*
X875792Y694147D01*
X872450Y699602D01*
X868296Y704466D01*
X863431Y708620D01*
X857977Y711963D01*
X852067Y714410D01*
X845847Y715904D01*
X839470Y716406D01*
D02*
G37*
G36*
X1868823Y767080D02*
X1846180D01*
Y744437D01*
X1846555Y744467D01*
X1850637Y745447D01*
X1854515Y747053D01*
X1858095Y749247D01*
X1861287Y751973D01*
X1864013Y755165D01*
X1866207Y758745D01*
X1867813Y762623D01*
X1868793Y766705D01*
X1868823Y767080D01*
D02*
G37*
G36*
X1383170Y770890D02*
X1329830D01*
Y717550D01*
X1383170D01*
Y770890D01*
D02*
G37*
G36*
X1033780Y796290D02*
X1013718D01*
X1013809Y795370D01*
X1015189Y790821D01*
X1017430Y786629D01*
X1020445Y782955D01*
X1024119Y779940D01*
X1028311Y777699D01*
X1032860Y776319D01*
X1033780Y776228D01*
Y796290D01*
D02*
G37*
G36*
X1729740Y880110D02*
X1709678D01*
X1709769Y879190D01*
X1711149Y874641D01*
X1713390Y870449D01*
X1716405Y866775D01*
X1720079Y863760D01*
X1724271Y861519D01*
X1728820Y860139D01*
X1729740Y860049D01*
Y880110D01*
D02*
G37*
G36*
X1848720Y872273D02*
Y849630D01*
X1871363D01*
X1871333Y850005D01*
X1870353Y854087D01*
X1868747Y857965D01*
X1866553Y861545D01*
X1863827Y864737D01*
X1860635Y867463D01*
X1857055Y869657D01*
X1853177Y871263D01*
X1849095Y872243D01*
X1848720Y872273D01*
D02*
G37*
G36*
X1932940Y908450D02*
X1910297D01*
X1910327Y908075D01*
X1911307Y903993D01*
X1912913Y900115D01*
X1915107Y896535D01*
X1917833Y893343D01*
X1921025Y890617D01*
X1924605Y888423D01*
X1928483Y886817D01*
X1932565Y885837D01*
X1932940Y885807D01*
Y908450D01*
D02*
G37*
G36*
X1841283Y903370D02*
X1818640D01*
Y880727D01*
X1819015Y880757D01*
X1823097Y881737D01*
X1826975Y883343D01*
X1830555Y885537D01*
X1833747Y888263D01*
X1836473Y891455D01*
X1838667Y895035D01*
X1840273Y898913D01*
X1841253Y902995D01*
X1841283Y903370D01*
D02*
G37*
G36*
X895350Y858261D02*
Y838200D01*
X915412D01*
X915321Y839120D01*
X913941Y843669D01*
X911700Y847861D01*
X908685Y851535D01*
X905011Y854550D01*
X900819Y856791D01*
X896270Y858171D01*
X895350Y858261D01*
D02*
G37*
G36*
X1037590Y859907D02*
X1032860Y859441D01*
X1028311Y858061D01*
X1024119Y855820D01*
X1020445Y852805D01*
X1017430Y849131D01*
X1015189Y844939D01*
X1013809Y840390D01*
X1013343Y835660D01*
X1013809Y830930D01*
X1015189Y826381D01*
X1017430Y822189D01*
X1020445Y818515D01*
Y817245D01*
X1017430Y813571D01*
X1015189Y809379D01*
X1013809Y804830D01*
X1013718Y803910D01*
X1061461D01*
X1061371Y804830D01*
X1059991Y809379D01*
X1057750Y813571D01*
X1054735Y817245D01*
Y818515D01*
X1057750Y822189D01*
X1059991Y826381D01*
X1061371Y830930D01*
X1061837Y835660D01*
X1061371Y840390D01*
X1059991Y844939D01*
X1057750Y849131D01*
X1054735Y852805D01*
X1051061Y855820D01*
X1046869Y858061D01*
X1042320Y859441D01*
X1037590Y859907D01*
D02*
G37*
G36*
X1061461Y796290D02*
X1041400D01*
Y776228D01*
X1042320Y776319D01*
X1046869Y777699D01*
X1051061Y779940D01*
X1054735Y782955D01*
X1057750Y786629D01*
X1059991Y790821D01*
X1061371Y795370D01*
X1061461Y796290D01*
D02*
G37*
G36*
X887730Y858261D02*
X886810Y858171D01*
X882261Y856791D01*
X878069Y854550D01*
X874395Y851535D01*
X871380Y847861D01*
X869139Y843669D01*
X867759Y839120D01*
X867669Y838200D01*
X887730D01*
Y858261D01*
D02*
G37*
G36*
X1681620Y867080D02*
X1628280D01*
Y813740D01*
X1681620D01*
Y867080D01*
D02*
G37*
G36*
X1808480Y1369713D02*
X1808105Y1369683D01*
X1804023Y1368703D01*
X1800145Y1367097D01*
X1796565Y1364903D01*
X1793373Y1362177D01*
X1790647Y1358985D01*
X1788453Y1355405D01*
X1786847Y1351527D01*
X1785867Y1347445D01*
X1785837Y1347070D01*
X1808480D01*
Y1369713D01*
D02*
G37*
G36*
X1555750Y1366261D02*
Y1346200D01*
X1575811D01*
X1575721Y1347120D01*
X1574341Y1351669D01*
X1572100Y1355861D01*
X1569085Y1359535D01*
X1565411Y1362550D01*
X1561219Y1364791D01*
X1556670Y1366171D01*
X1555750Y1366261D01*
D02*
G37*
G36*
X1884680Y1369713D02*
X1884305Y1369683D01*
X1880223Y1368703D01*
X1876345Y1367097D01*
X1872765Y1364903D01*
X1869573Y1362177D01*
X1866847Y1358985D01*
X1864653Y1355405D01*
X1863047Y1351527D01*
X1862067Y1347445D01*
X1862037Y1347070D01*
X1884680D01*
Y1369713D01*
D02*
G37*
G36*
X1816100D02*
Y1347070D01*
X1838743D01*
X1838713Y1347445D01*
X1837733Y1351527D01*
X1836127Y1355405D01*
X1833933Y1358985D01*
X1831207Y1362177D01*
X1828015Y1364903D01*
X1824435Y1367097D01*
X1820557Y1368703D01*
X1816475Y1369683D01*
X1816100Y1369713D01*
D02*
G37*
G36*
X1548130Y1366261D02*
X1547210Y1366171D01*
X1542661Y1364791D01*
X1538469Y1362550D01*
X1534795Y1359535D01*
X1531780Y1355861D01*
X1529539Y1351669D01*
X1528159Y1347120D01*
X1528069Y1346200D01*
X1548130D01*
Y1366261D01*
D02*
G37*
G36*
X1389380Y1366637D02*
X1384650Y1366171D01*
X1380101Y1364791D01*
X1375909Y1362550D01*
X1372235Y1359535D01*
X1369220Y1355861D01*
X1366979Y1351669D01*
X1365599Y1347120D01*
X1365133Y1342390D01*
X1365599Y1337660D01*
X1366979Y1333111D01*
X1369220Y1328919D01*
X1370672Y1327150D01*
X1369220Y1325381D01*
X1367386Y1321950D01*
X1364873Y1321578D01*
X1335929Y1350522D01*
X1335581Y1351669D01*
X1333340Y1355861D01*
X1330325Y1359535D01*
X1326651Y1362550D01*
X1322459Y1364791D01*
X1317910Y1366171D01*
X1313180Y1366637D01*
X1308450Y1366171D01*
X1303901Y1364791D01*
X1299709Y1362550D01*
X1296035Y1359535D01*
X1293020Y1355861D01*
X1290779Y1351669D01*
X1289399Y1347120D01*
X1288933Y1342390D01*
X1289399Y1337660D01*
X1290779Y1333111D01*
X1293020Y1328919D01*
X1294471Y1327150D01*
X1293020Y1325381D01*
X1290779Y1321189D01*
X1289399Y1316640D01*
X1289308Y1315720D01*
X1313183D01*
Y1311913D01*
X1316990D01*
Y1288038D01*
X1317910Y1288129D01*
X1322459Y1289509D01*
X1326651Y1291750D01*
X1330325Y1294765D01*
X1332379Y1297268D01*
X1334916Y1297393D01*
X1349422Y1282887D01*
X1348450Y1280540D01*
X1301750D01*
Y1224660D01*
X1324518D01*
Y1095279D01*
X1321487Y1092248D01*
X1319140Y1093220D01*
Y1128870D01*
X1271375D01*
Y1158642D01*
X1273766Y1159497D01*
X1275966Y1156816D01*
X1279810Y1153662D01*
X1284194Y1151318D01*
X1288952Y1149875D01*
X1293900Y1149388D01*
X1298848Y1149875D01*
X1303606Y1151318D01*
X1307990Y1153662D01*
X1311834Y1156816D01*
X1314988Y1160660D01*
X1317332Y1165044D01*
X1318775Y1169802D01*
X1319262Y1174750D01*
X1318775Y1179698D01*
X1317332Y1184456D01*
X1314988Y1188840D01*
X1311834Y1192684D01*
X1307990Y1195838D01*
X1303606Y1198182D01*
X1298848Y1199625D01*
X1293900Y1200112D01*
X1288952Y1199625D01*
X1284194Y1198182D01*
X1279810Y1195838D01*
X1275966Y1192684D01*
X1273766Y1190003D01*
X1271375Y1190858D01*
Y1224660D01*
X1281430D01*
Y1280540D01*
X1225550D01*
Y1224660D01*
X1227986D01*
Y1180688D01*
X1225689Y1179602D01*
X1222511Y1182210D01*
X1218319Y1184451D01*
X1213770Y1185831D01*
X1209040Y1186297D01*
X1204310Y1185831D01*
X1199761Y1184451D01*
X1195569Y1182210D01*
X1191895Y1179195D01*
X1188880Y1175521D01*
X1186639Y1171329D01*
X1185259Y1166780D01*
X1184793Y1162050D01*
X1185259Y1157320D01*
X1186639Y1152771D01*
X1188880Y1148579D01*
X1191895Y1144905D01*
X1195569Y1141890D01*
X1199761Y1139649D01*
X1204310Y1138269D01*
X1209040Y1137803D01*
X1213770Y1138269D01*
X1218319Y1139649D01*
X1222511Y1141890D01*
X1225689Y1144498D01*
X1227986Y1143412D01*
Y1104488D01*
X1225689Y1103402D01*
X1222511Y1106010D01*
X1218319Y1108251D01*
X1213770Y1109631D01*
X1209040Y1110097D01*
X1204310Y1109631D01*
X1199761Y1108251D01*
X1195569Y1106010D01*
X1191895Y1102995D01*
X1188880Y1099321D01*
X1186639Y1095129D01*
X1185259Y1090580D01*
X1184793Y1085850D01*
X1185259Y1081120D01*
X1186639Y1076571D01*
X1188880Y1072379D01*
X1191895Y1068705D01*
Y1067435D01*
X1188880Y1063761D01*
X1186639Y1059569D01*
X1185259Y1055020D01*
X1184793Y1050290D01*
X1185259Y1045560D01*
X1186639Y1041011D01*
X1188880Y1036819D01*
X1191895Y1033145D01*
X1195569Y1030130D01*
X1199761Y1027889D01*
X1204310Y1026509D01*
X1209040Y1026043D01*
X1213770Y1026509D01*
X1218319Y1027889D01*
X1222511Y1030130D01*
X1225689Y1032738D01*
X1227986Y1031652D01*
Y1023716D01*
X1201196Y996926D01*
X1199761Y996491D01*
X1195569Y994250D01*
X1191895Y991235D01*
X1188880Y987561D01*
X1186639Y983369D01*
X1185259Y978820D01*
X1184793Y974090D01*
X1185259Y969360D01*
X1186639Y964811D01*
X1187346Y963489D01*
Y957580D01*
X1187346Y957580D01*
X1187346D01*
X1187762Y953348D01*
X1188997Y949278D01*
X1191002Y945527D01*
X1193700Y942240D01*
X1307060Y828880D01*
Y828880D01*
X1307060Y828880D01*
X1307060Y828880D01*
Y828880D01*
X1310347Y826182D01*
X1314098Y824177D01*
Y824177D01*
X1314098Y824177D01*
D01*
D01*
D01*
X1314098D01*
Y824177D01*
D01*
X1314098Y824177D01*
X1314098Y824177D01*
X1318168Y822942D01*
X1322400Y822525D01*
X1329830D01*
Y817550D01*
X1383170D01*
Y870890D01*
X1329830D01*
Y870789D01*
X1327483Y869817D01*
X1231685Y965615D01*
X1231876Y966246D01*
X1265020Y999390D01*
X1267718Y1002677D01*
X1269723Y1006428D01*
X1270958Y1010498D01*
X1271375Y1014730D01*
Y1021482D01*
X1273766Y1022337D01*
X1275966Y1019656D01*
X1279810Y1016502D01*
X1284194Y1014158D01*
X1288952Y1012715D01*
X1293900Y1012228D01*
X1298848Y1012715D01*
X1303606Y1014158D01*
X1307990Y1016502D01*
X1311834Y1019656D01*
X1314988Y1023500D01*
X1317332Y1027884D01*
X1318775Y1032642D01*
X1319075Y1035694D01*
X1357196Y1073814D01*
X1359576Y1076715D01*
X1361345Y1080025D01*
X1362434Y1083615D01*
X1362802Y1087350D01*
Y1238630D01*
X1362434Y1242365D01*
X1362434Y1242364D01*
Y1242365D01*
X1362434D01*
X1362434Y1242365D01*
D01*
D01*
D01*
D01*
X1362434Y1242365D01*
D01*
D01*
X1361345Y1245955D01*
X1360729Y1247108D01*
X1359576Y1249265D01*
X1358269Y1250858D01*
X1357630Y1251636D01*
Y1271360D01*
X1359977Y1272332D01*
X1438074Y1194234D01*
X1438074Y1194234D01*
X1438074Y1194234D01*
D01*
D01*
D01*
X1438074Y1194234D01*
X1440975Y1191854D01*
X1444285Y1190085D01*
Y1190085D01*
X1444285Y1190085D01*
D01*
D01*
D01*
X1444285D01*
Y1190085D01*
D01*
X1444285Y1190085D01*
X1444285Y1190085D01*
X1447876Y1188996D01*
X1451610Y1188628D01*
X1454166D01*
Y1145700D01*
X1504646D01*
Y1188628D01*
X1562900D01*
X1563986Y1186332D01*
X1562918Y1185030D01*
X1560574Y1180646D01*
X1559131Y1175888D01*
X1558644Y1170940D01*
X1559131Y1165992D01*
X1560574Y1161234D01*
X1562918Y1156849D01*
X1566072Y1153006D01*
X1569916Y1149852D01*
X1574300Y1147508D01*
X1579058Y1146065D01*
X1584006Y1145578D01*
X1588954Y1146065D01*
X1589178Y1146133D01*
X1591218Y1144620D01*
Y1129632D01*
X1558766D01*
Y1089752D01*
X1551940D01*
X1548206Y1089384D01*
X1544615Y1088295D01*
X1541305Y1086526D01*
X1538404Y1084146D01*
X1518797Y1064538D01*
X1516968Y1063983D01*
X1513217Y1061978D01*
X1509930Y1059280D01*
X1507232Y1055993D01*
X1507110Y1055765D01*
X1504646Y1056382D01*
Y1063083D01*
X1454166D01*
Y1026252D01*
X1436909D01*
X1423740Y1039421D01*
Y1062830D01*
X1373260D01*
Y1012350D01*
X1396669D01*
X1415444Y993574D01*
X1418345Y991194D01*
X1421655Y989425D01*
X1425246Y988336D01*
X1428980Y987968D01*
X1457467D01*
X1458553Y985672D01*
X1458318Y985386D01*
X1455974Y981001D01*
X1454531Y976243D01*
X1454419Y975105D01*
X1504393D01*
X1504281Y976243D01*
X1502838Y981001D01*
X1500494Y985386D01*
X1500259Y985672D01*
X1501345Y987968D01*
X1558766D01*
Y946055D01*
X1609246D01*
Y987968D01*
X1626638D01*
X1627944Y985789D01*
X1627329Y984639D01*
X1625949Y980090D01*
X1625483Y975360D01*
X1625949Y970630D01*
X1627329Y966081D01*
X1629570Y961889D01*
X1632585Y958215D01*
X1636259Y955200D01*
X1640451Y952959D01*
X1645000Y951579D01*
X1649730Y951113D01*
X1654460Y951579D01*
X1659009Y952959D01*
X1663201Y955200D01*
X1666875Y958215D01*
X1669890Y961889D01*
X1672131Y966081D01*
X1673511Y970630D01*
X1673977Y975360D01*
X1673511Y980090D01*
X1672131Y984639D01*
X1671516Y985789D01*
X1672822Y987968D01*
X1676091D01*
X1710248Y953811D01*
X1711149Y950841D01*
X1713390Y946649D01*
X1716405Y942975D01*
X1720079Y939960D01*
X1724271Y937719D01*
X1728820Y936339D01*
X1733550Y935873D01*
X1738280Y936339D01*
X1742829Y937719D01*
X1747021Y939960D01*
X1750695Y942975D01*
X1751386Y943817D01*
X1753778Y942962D01*
Y901078D01*
X1751386Y900223D01*
X1750695Y901065D01*
X1747021Y904080D01*
X1742829Y906321D01*
X1738280Y907701D01*
X1737360Y907792D01*
Y883917D01*
Y860049D01*
X1738280Y860139D01*
X1742829Y861519D01*
X1747021Y863760D01*
X1750695Y866775D01*
X1751433Y867674D01*
X1753864Y866937D01*
X1754146Y864075D01*
X1755235Y860485D01*
X1757004Y857175D01*
X1759384Y854274D01*
X1768240Y845419D01*
Y819150D01*
X1775768D01*
Y797560D01*
X1765700D01*
Y744220D01*
X1819040D01*
Y753471D01*
X1821423Y754350D01*
X1823453Y751973D01*
X1826645Y749247D01*
X1830225Y747053D01*
X1834103Y745447D01*
X1838185Y744467D01*
X1838560Y744437D01*
Y770892D01*
X1842368D01*
Y774700D01*
X1868823D01*
X1868793Y775075D01*
X1867813Y779157D01*
X1866207Y783035D01*
X1864013Y786615D01*
X1861287Y789807D01*
X1861770Y791118D01*
X1903615D01*
X1905321Y789236D01*
X1905265Y788670D01*
X1920574D01*
X1923282Y787849D01*
X1927740Y787410D01*
X1931673D01*
Y781050D01*
X1905265D01*
X1905329Y780402D01*
X1906629Y776116D01*
X1908741Y772165D01*
X1911583Y768703D01*
X1915045Y765861D01*
X1918996Y763749D01*
X1923282Y762449D01*
X1926849Y762098D01*
X1927705Y759706D01*
X1885641Y717642D01*
X1681620D01*
Y767080D01*
X1628280D01*
Y717642D01*
X1622099D01*
X1595212Y744529D01*
Y817880D01*
X1595212Y817880D01*
Y817880D01*
X1595212D01*
X1595212Y817880D01*
D01*
D01*
D01*
D01*
X1595212Y817880D01*
D01*
X1594844Y821615D01*
X1593755Y825205D01*
X1593755Y825205D01*
D01*
D01*
D01*
D01*
X1593755Y825205D01*
D01*
D01*
Y825205D01*
D01*
X1593755D01*
D01*
D01*
X1593755D01*
D01*
D01*
X1591986Y828515D01*
X1589606Y831415D01*
X1589606Y831416D01*
X1589606D01*
X1589606Y831416D01*
Y831416D01*
X1567076Y853946D01*
X1564175Y856326D01*
X1560865Y858095D01*
X1557274Y859184D01*
X1553540Y859552D01*
X1531620D01*
Y867080D01*
X1478280D01*
Y813740D01*
Y763740D01*
Y713740D01*
X1531620D01*
Y763740D01*
Y813740D01*
Y821268D01*
X1545611D01*
X1556928Y809951D01*
Y736600D01*
X1556928Y736600D01*
X1556928D01*
X1557296Y732866D01*
X1558385Y729275D01*
X1558385Y729275D01*
X1558385Y729275D01*
X1560154Y725965D01*
X1562534Y723064D01*
X1562534Y723064D01*
X1562534Y723064D01*
X1600634Y684964D01*
X1603535Y682584D01*
X1605692Y681431D01*
X1606845Y680815D01*
X1610435Y679726D01*
X1614170Y679358D01*
X1893570D01*
X1897305Y679726D01*
X1900895Y680815D01*
Y680815D01*
X1900895D01*
X1900895Y680815D01*
X1900895D01*
Y680815D01*
D01*
D01*
D01*
Y680815D01*
D01*
D01*
D01*
D01*
D01*
D01*
D01*
D01*
Y680815D01*
D01*
D01*
D01*
D01*
X1904205Y682584D01*
X1907106Y684964D01*
Y684964D01*
X1907106D01*
D01*
D01*
D01*
D01*
D01*
D01*
X1907106D01*
D01*
X1907106D01*
Y684964D01*
D01*
D01*
D01*
D01*
Y684964D01*
D01*
D01*
D01*
D01*
D01*
D01*
Y684965D01*
D01*
D01*
X1907106D01*
D01*
D01*
D01*
D01*
X1978226Y756084D01*
Y756084D01*
D01*
D01*
D01*
X1978226Y756084D01*
D01*
Y756084D01*
D01*
X1978226D01*
Y756084D01*
D01*
Y756084D01*
Y756084D01*
X1978226D01*
D01*
D01*
Y756084D01*
D01*
D01*
D01*
D01*
D01*
D01*
Y756085D01*
D01*
D01*
X1978226D01*
D01*
X1978226Y756084D01*
D01*
D01*
X1980606Y758985D01*
X1982375Y762295D01*
Y762295D01*
X1982375D01*
D01*
D01*
D01*
D01*
X1982375D01*
D01*
D01*
D01*
D01*
Y762295D01*
X1982375D01*
D01*
Y762295D01*
D01*
D01*
D01*
D01*
D01*
D01*
D01*
D01*
D01*
D01*
D01*
D01*
Y762295D01*
D01*
X1982375D01*
D01*
D01*
D01*
D01*
X1982375Y762295D01*
X1983464Y765885D01*
X1983832Y769620D01*
D01*
D01*
D01*
D01*
D01*
X1983832D01*
D01*
D01*
D01*
D01*
Y769620D01*
X1983832D01*
D01*
Y769620D01*
D01*
D01*
D01*
D01*
D01*
D01*
D01*
D01*
D01*
D01*
D01*
D01*
Y769620D01*
D01*
X1983832D01*
D01*
D01*
D01*
D01*
X1983832Y769620D01*
Y821690D01*
X1983464Y825424D01*
X1982375Y829015D01*
X1981759Y830168D01*
X1980606Y832325D01*
X1979299Y833918D01*
X1978226Y835226D01*
X1969536Y843915D01*
Y846455D01*
X1980766Y857684D01*
X1983146Y860585D01*
X1984915Y863895D01*
X1986004Y867486D01*
X1986372Y871220D01*
Y944880D01*
X1986004Y948615D01*
X1984915Y952205D01*
X1984299Y953358D01*
X1983146Y955515D01*
X1981839Y957108D01*
X1980766Y958416D01*
X1963420Y975761D01*
Y988930D01*
X1910080D01*
Y935590D01*
X1919331D01*
X1920210Y933207D01*
X1917833Y931177D01*
X1915107Y927985D01*
X1912913Y924405D01*
X1911307Y920527D01*
X1910327Y916445D01*
X1910297Y916070D01*
X1936752D01*
Y912262D01*
X1940560D01*
Y885807D01*
X1940935Y885837D01*
X1945017Y886817D01*
X1945976Y887214D01*
X1948088Y885803D01*
Y879149D01*
X1927339Y858400D01*
X1905000D01*
Y829402D01*
X1868728D01*
X1867487Y831618D01*
X1868747Y833675D01*
X1870353Y837553D01*
X1871333Y841635D01*
X1871363Y842010D01*
X1844908D01*
Y845817D01*
X1841100D01*
Y872273D01*
X1840725Y872243D01*
X1836643Y871263D01*
X1832765Y869657D01*
X1829185Y867463D01*
X1825993Y864737D01*
X1823963Y862360D01*
X1821580Y863239D01*
Y872490D01*
X1795311D01*
X1792062Y875739D01*
Y889103D01*
X1794445Y889982D01*
X1795913Y888263D01*
X1799105Y885537D01*
X1802685Y883343D01*
X1806563Y881737D01*
X1810645Y880757D01*
X1811020Y880727D01*
Y907182D01*
X1814828D01*
Y910990D01*
X1841283D01*
X1841253Y911365D01*
X1840273Y915447D01*
X1838667Y919325D01*
X1836473Y922905D01*
X1833747Y926097D01*
X1830555Y928823D01*
X1831030Y930510D01*
X1841500D01*
Y983850D01*
X1806032D01*
Y987945D01*
X1807914Y989651D01*
X1812290Y989220D01*
X1816748Y989659D01*
X1821034Y990959D01*
X1824985Y993071D01*
X1824990Y993075D01*
X1824995Y993071D01*
X1828946Y990959D01*
X1833232Y989659D01*
X1837690Y989220D01*
X1842148Y989659D01*
X1846434Y990959D01*
X1850385Y993071D01*
X1850390Y993075D01*
X1850395Y993071D01*
X1854346Y990959D01*
X1858632Y989659D01*
X1863090Y989220D01*
X1867548Y989659D01*
X1871834Y990959D01*
X1875785Y993071D01*
X1875790Y993075D01*
X1875795Y993071D01*
X1879746Y990959D01*
X1884032Y989659D01*
X1888490Y989220D01*
X1892948Y989659D01*
X1897234Y990959D01*
X1901185Y993071D01*
X1904647Y995913D01*
X1907489Y999375D01*
X1909601Y1003326D01*
X1910901Y1007612D01*
X1911340Y1012070D01*
Y1019930D01*
X1910901Y1024388D01*
X1909601Y1028674D01*
X1907489Y1032625D01*
X1904647Y1036087D01*
X1901185Y1038929D01*
X1897234Y1041041D01*
X1892948Y1042341D01*
X1888490Y1042780D01*
X1884032Y1042341D01*
X1879746Y1041041D01*
X1875795Y1038929D01*
X1875790Y1038925D01*
X1875785Y1038929D01*
X1871834Y1041041D01*
X1867548Y1042341D01*
X1863090Y1042780D01*
X1858632Y1042341D01*
X1854346Y1041041D01*
X1850395Y1038929D01*
X1850390Y1038925D01*
X1850385Y1038929D01*
X1846434Y1041041D01*
X1842148Y1042341D01*
X1837690Y1042780D01*
X1833232Y1042341D01*
X1828946Y1041041D01*
X1824995Y1038929D01*
X1824990Y1038925D01*
X1824985Y1038929D01*
X1821034Y1041041D01*
X1816748Y1042341D01*
X1812290Y1042780D01*
X1807832Y1042341D01*
X1803546Y1041041D01*
X1799595Y1038929D01*
X1799590Y1038925D01*
X1799585Y1038929D01*
X1795634Y1041041D01*
X1791348Y1042341D01*
X1786890Y1042780D01*
X1782432Y1042341D01*
X1778146Y1041041D01*
X1774195Y1038929D01*
X1774190Y1038925D01*
X1774185Y1038929D01*
X1770234Y1041041D01*
X1765948Y1042341D01*
X1761490Y1042780D01*
X1758981Y1042533D01*
X1758830Y1042670D01*
Y1042670D01*
X1736838D01*
X1735427Y1044782D01*
X1736092Y1046388D01*
X1880870D01*
X1884604Y1046756D01*
X1888195Y1047845D01*
X1891505Y1049614D01*
X1894406Y1051994D01*
X1902026Y1059614D01*
X1904406Y1062515D01*
X1906175Y1065825D01*
X1907264Y1069416D01*
X1907632Y1073150D01*
Y1075843D01*
X1909601Y1079526D01*
X1910901Y1083812D01*
X1911340Y1088270D01*
Y1096130D01*
X1910901Y1100588D01*
X1909601Y1104874D01*
X1907489Y1108825D01*
X1904647Y1112287D01*
X1901185Y1115129D01*
X1897234Y1117241D01*
X1892948Y1118541D01*
X1888490Y1118980D01*
X1884114Y1118549D01*
X1882232Y1120255D01*
Y1122680D01*
X1881864Y1126414D01*
X1880775Y1130005D01*
X1880159Y1131158D01*
X1879006Y1133315D01*
X1876626Y1136216D01*
X1876626Y1136216D01*
X1876626D01*
X1876626Y1136216D01*
X1876626D01*
D01*
D01*
X1876626D01*
X1872530Y1142015D01*
X1873698Y1144270D01*
X1916310D01*
Y1197610D01*
X1870830D01*
Y1197610D01*
X1870679Y1197473D01*
X1868170Y1197720D01*
X1863712Y1197281D01*
X1859426Y1195981D01*
X1855475Y1193869D01*
X1855470Y1193865D01*
X1855465Y1193869D01*
X1851514Y1195981D01*
X1847228Y1197281D01*
X1846580Y1197345D01*
Y1182036D01*
X1845759Y1179328D01*
X1845320Y1174870D01*
Y1170938D01*
X1838960D01*
Y1197345D01*
X1838312Y1197281D01*
X1834026Y1195981D01*
X1830075Y1193869D01*
X1826613Y1191027D01*
X1823771Y1187565D01*
X1821659Y1183614D01*
X1820610Y1180154D01*
X1818097Y1180527D01*
Y1199515D01*
X1817729Y1203250D01*
X1816640Y1206840D01*
X1814871Y1210150D01*
X1812491Y1213051D01*
X1777808Y1247733D01*
X1777651Y1249330D01*
X1776271Y1253879D01*
X1774030Y1258071D01*
X1771015Y1261745D01*
X1767341Y1264760D01*
X1763149Y1267001D01*
X1758600Y1268381D01*
X1753870Y1268847D01*
X1749140Y1268381D01*
X1744591Y1267001D01*
X1740399Y1264760D01*
X1736725Y1261745D01*
X1733710Y1258071D01*
X1731469Y1253879D01*
X1730089Y1249330D01*
X1729623Y1244600D01*
X1730089Y1239870D01*
X1731469Y1235321D01*
X1733710Y1231129D01*
X1736725Y1227455D01*
X1740399Y1224440D01*
X1744591Y1222199D01*
X1749140Y1220819D01*
X1750737Y1220662D01*
X1779813Y1191586D01*
Y1174659D01*
X1777300Y1174286D01*
X1776271Y1177679D01*
X1774030Y1181871D01*
X1771015Y1185545D01*
X1767341Y1188560D01*
X1763149Y1190801D01*
X1758600Y1192181D01*
X1757680Y1192271D01*
Y1168398D01*
Y1144529D01*
X1758600Y1144619D01*
X1763149Y1145999D01*
X1767341Y1148240D01*
X1771015Y1151255D01*
X1774030Y1154929D01*
X1776271Y1159121D01*
X1777320Y1162579D01*
X1779848Y1162330D01*
X1780181Y1158951D01*
X1781270Y1155360D01*
X1783039Y1152050D01*
X1785419Y1149149D01*
X1812586Y1121983D01*
X1812290Y1118980D01*
X1816100Y1118605D01*
Y1103296D01*
X1815278Y1100588D01*
X1814839Y1096130D01*
Y1092197D01*
X1809740D01*
Y1096130D01*
X1809301Y1100588D01*
X1808480Y1103296D01*
Y1118605D01*
X1807832Y1118541D01*
X1803546Y1117241D01*
X1799595Y1115129D01*
X1799590Y1115125D01*
X1799585Y1115129D01*
X1795634Y1117241D01*
X1791348Y1118541D01*
X1786890Y1118980D01*
X1782432Y1118541D01*
X1778146Y1117241D01*
X1774195Y1115129D01*
X1774190Y1115125D01*
X1774185Y1115129D01*
X1770234Y1117241D01*
X1765948Y1118541D01*
X1761490Y1118980D01*
X1757032Y1118541D01*
X1752746Y1117241D01*
X1748795Y1115129D01*
X1748790Y1115125D01*
X1748785Y1115129D01*
X1744834Y1117241D01*
X1740548Y1118541D01*
X1736090Y1118980D01*
X1731632Y1118541D01*
X1727346Y1117241D01*
X1723395Y1115129D01*
X1719933Y1112287D01*
X1719524Y1111789D01*
X1717132Y1112645D01*
Y1155700D01*
X1716764Y1159435D01*
X1715675Y1163025D01*
X1713906Y1166335D01*
X1711526Y1169236D01*
X1705069Y1175692D01*
X1705169Y1178230D01*
X1706747Y1179577D01*
X1709473Y1182769D01*
X1711667Y1186349D01*
X1713273Y1190227D01*
X1714253Y1194309D01*
X1714283Y1194684D01*
X1687827D01*
Y1202304D01*
X1714283D01*
X1714253Y1202679D01*
X1713273Y1206761D01*
X1711667Y1210639D01*
X1709473Y1214219D01*
X1706747Y1217411D01*
X1703555Y1220137D01*
X1704030Y1221824D01*
X1714500D01*
Y1275164D01*
X1661160D01*
Y1223620D01*
Y1223620D01*
X1661160Y1222920D01*
X1659965Y1222425D01*
Y1222425D01*
X1658813Y1221948D01*
X1649822Y1230939D01*
Y1282700D01*
X1649822Y1282700D01*
Y1282700D01*
X1649822D01*
X1649822Y1282700D01*
D01*
D01*
D01*
D01*
X1649822Y1282700D01*
D01*
X1649454Y1286434D01*
X1648365Y1290025D01*
X1648365Y1290025D01*
D01*
D01*
D01*
D01*
X1648365Y1290025D01*
D01*
D01*
Y1290025D01*
D01*
X1648365D01*
D01*
D01*
X1648365D01*
D01*
D01*
X1646596Y1293335D01*
X1644216Y1296236D01*
X1644216Y1296236D01*
X1644216D01*
X1644216Y1296236D01*
Y1296236D01*
X1615006Y1325446D01*
X1612105Y1327826D01*
X1608795Y1329595D01*
X1605204Y1330684D01*
X1601470Y1331052D01*
X1575575D01*
X1574341Y1333111D01*
X1575721Y1337660D01*
X1575811Y1338580D01*
X1528069D01*
X1528159Y1337660D01*
X1529539Y1333111D01*
X1531780Y1328919D01*
X1533232Y1327150D01*
X1531780Y1325381D01*
X1529539Y1321189D01*
X1528159Y1316640D01*
X1527693Y1311910D01*
X1528159Y1307180D01*
X1529539Y1302631D01*
X1531780Y1298439D01*
X1534795Y1294765D01*
X1538469Y1291750D01*
X1542661Y1289509D01*
X1547210Y1288129D01*
X1551940Y1287663D01*
X1556670Y1288129D01*
X1561219Y1289509D01*
X1565411Y1291750D01*
X1566652Y1292768D01*
X1593541D01*
X1611538Y1274771D01*
Y1223010D01*
X1611538Y1223010D01*
X1611538D01*
X1611906Y1219276D01*
X1612995Y1215685D01*
X1612995Y1215685D01*
X1612995Y1215685D01*
X1614764Y1212375D01*
X1617144Y1209474D01*
X1617144Y1209474D01*
X1617144Y1209474D01*
X1639235Y1187384D01*
X1638862Y1184872D01*
X1636259Y1183480D01*
X1632585Y1180465D01*
X1631894Y1179623D01*
X1629502Y1180479D01*
Y1181100D01*
X1629134Y1184835D01*
X1628045Y1188425D01*
X1626276Y1191735D01*
X1623896Y1194636D01*
X1597226Y1221306D01*
X1594325Y1223686D01*
X1591015Y1225455D01*
X1591030Y1225550D01*
X1597660D01*
Y1281430D01*
X1541780D01*
Y1226912D01*
X1521460D01*
Y1281430D01*
X1465580D01*
Y1226912D01*
X1459539D01*
X1398315Y1288136D01*
X1398659Y1289509D01*
X1402851Y1291750D01*
X1406525Y1294765D01*
X1409540Y1298439D01*
X1411781Y1302631D01*
X1413161Y1307180D01*
X1413627Y1311910D01*
X1413161Y1316640D01*
X1411781Y1321189D01*
X1409540Y1325381D01*
X1408089Y1327150D01*
X1409540Y1328919D01*
X1411781Y1333111D01*
X1413161Y1337660D01*
X1413627Y1342390D01*
X1413161Y1347120D01*
X1411781Y1351669D01*
X1409540Y1355861D01*
X1406525Y1359535D01*
X1402851Y1362550D01*
X1398659Y1364791D01*
X1394110Y1366171D01*
X1389380Y1366637D01*
D02*
G37*
G36*
X1073550Y1353820D02*
X1020210D01*
Y1302130D01*
X1019960Y1302026D01*
Y1302026D01*
X1017863Y1301158D01*
X996950Y1322071D01*
Y1348340D01*
X943610D01*
Y1295000D01*
X952861D01*
X953740Y1292617D01*
X951363Y1290587D01*
X948637Y1287395D01*
X946443Y1283815D01*
X944837Y1279937D01*
X943857Y1275855D01*
X943827Y1275480D01*
X970283D01*
Y1271673D01*
X974090D01*
Y1245217D01*
X974465Y1245247D01*
X978547Y1246227D01*
X982425Y1247833D01*
X986005Y1250027D01*
X989197Y1252753D01*
X991923Y1255945D01*
X994117Y1259525D01*
X995723Y1263403D01*
X996230Y1265515D01*
X998675Y1266204D01*
X1051468Y1213411D01*
Y1118962D01*
X1046480D01*
X1042746Y1118594D01*
X1039155Y1117505D01*
X1035845Y1115736D01*
X1032944Y1113356D01*
X1024197Y1104609D01*
X1021733Y1105226D01*
X1020721Y1108564D01*
X1018609Y1112515D01*
X1015767Y1115977D01*
X1012305Y1118819D01*
X1008354Y1120931D01*
X1004068Y1122231D01*
X999610Y1122670D01*
X991750D01*
X987292Y1122231D01*
X983006Y1120931D01*
X979055Y1118819D01*
X975593Y1115977D01*
X975282Y1115598D01*
X972890Y1116454D01*
Y1125060D01*
X950830D01*
Y1174750D01*
X897490D01*
Y1165499D01*
X895107Y1164620D01*
X893077Y1166997D01*
X889885Y1169723D01*
X886305Y1171917D01*
X882427Y1173523D01*
X878345Y1174503D01*
X877970Y1174533D01*
Y1148077D01*
Y1121627D01*
X878345Y1121657D01*
X882427Y1122637D01*
X886305Y1124243D01*
X889885Y1126437D01*
X893077Y1129163D01*
X895107Y1131540D01*
X897490Y1130661D01*
Y1121410D01*
X922410D01*
Y1074580D01*
X968755D01*
X968900Y1074420D01*
X969339Y1069962D01*
X970639Y1065676D01*
X972751Y1061725D01*
X972755Y1061720D01*
X972751Y1061715D01*
X970639Y1057764D01*
X969339Y1053478D01*
X968900Y1049020D01*
X969339Y1044562D01*
X970639Y1040276D01*
X972751Y1036325D01*
X972755Y1036320D01*
X972751Y1036315D01*
X970639Y1032364D01*
X969339Y1028078D01*
X968900Y1023620D01*
X969339Y1019162D01*
X970639Y1014876D01*
X972751Y1010925D01*
X975593Y1007463D01*
X979055Y1004621D01*
X983006Y1002509D01*
X987292Y1001209D01*
X991750Y1000770D01*
X999610D01*
X1004068Y1001209D01*
X1008354Y1002509D01*
X1012037Y1004478D01*
X1016000D01*
X1019734Y1004846D01*
X1023325Y1005935D01*
X1026635Y1007704D01*
X1029536Y1010084D01*
X1042863Y1023412D01*
X1045210Y1022440D01*
Y1025758D01*
X1046882Y1027430D01*
X1060784D01*
X1063492Y1026609D01*
X1067950Y1026170D01*
X1075810D01*
X1080268Y1026609D01*
X1082976Y1027430D01*
X1098550D01*
Y1046360D01*
X1098550D01*
X1098413Y1046511D01*
X1098660Y1049020D01*
X1098221Y1053478D01*
X1096921Y1057764D01*
X1094809Y1061715D01*
X1094805Y1061720D01*
X1094809Y1061725D01*
X1096921Y1065676D01*
X1098221Y1069962D01*
X1098660Y1074420D01*
X1098221Y1078878D01*
X1096921Y1083164D01*
X1094809Y1087115D01*
X1094805Y1087120D01*
X1094809Y1087125D01*
X1096921Y1091076D01*
X1098221Y1095362D01*
X1098660Y1099820D01*
X1098221Y1104278D01*
X1096921Y1108564D01*
X1094809Y1112515D01*
X1091967Y1115977D01*
X1089752Y1117795D01*
Y1221340D01*
X1089384Y1225074D01*
X1088295Y1228665D01*
X1086526Y1231975D01*
X1084146Y1234876D01*
X1020888Y1298133D01*
X1021756Y1300230D01*
X1021756D01*
X1021860Y1300480D01*
X1073550D01*
Y1309731D01*
X1075933Y1310610D01*
X1077963Y1308233D01*
X1081155Y1305507D01*
X1084735Y1303313D01*
X1088613Y1301707D01*
X1092695Y1300727D01*
X1093070Y1300697D01*
Y1327148D01*
Y1353603D01*
X1092695Y1353573D01*
X1088613Y1352593D01*
X1084735Y1350987D01*
X1081155Y1348793D01*
X1077963Y1346067D01*
X1075933Y1343690D01*
X1073550Y1344569D01*
Y1353820D01*
D02*
G37*
G36*
X1697990Y1761582D02*
X1134110D01*
X1130376Y1761214D01*
X1126785Y1760125D01*
X1125632Y1759509D01*
X1123475Y1758356D01*
X1121882Y1757049D01*
X1120574Y1755976D01*
X846254Y1481656D01*
X843874Y1478755D01*
X842105Y1475445D01*
X841016Y1471855D01*
X840648Y1468120D01*
Y1357458D01*
X839747Y1355772D01*
X838512Y1351702D01*
X838095Y1347470D01*
X838512Y1343238D01*
X839747Y1339168D01*
X841752Y1335417D01*
X844450Y1332130D01*
X847737Y1329432D01*
X851488Y1327427D01*
X855558Y1326192D01*
X859790Y1325775D01*
X864022Y1326192D01*
X868092Y1327427D01*
X871843Y1329432D01*
X875130Y1332130D01*
X877828Y1335417D01*
X879833Y1339168D01*
X881068Y1343238D01*
X881485Y1347470D01*
X881068Y1351702D01*
X879833Y1355772D01*
X878932Y1357458D01*
Y1460191D01*
X1141115Y1722374D01*
X1143654Y1722311D01*
X1144465Y1721416D01*
X1144535Y1722120D01*
X1168402D01*
Y1714500D01*
X1144535D01*
X1144599Y1713852D01*
X1145899Y1709566D01*
X1148011Y1705615D01*
X1148015Y1705610D01*
X1148011Y1705605D01*
X1145899Y1701654D01*
X1144599Y1697368D01*
X1144535Y1696720D01*
X1168402D01*
Y1690975D01*
X1167788Y1690361D01*
X1167010D01*
X1162552Y1689922D01*
X1159844Y1689100D01*
X1144535D01*
X1144599Y1688452D01*
X1145899Y1684166D01*
X1148011Y1680215D01*
X1148015Y1680210D01*
X1148011Y1680205D01*
X1145899Y1676254D01*
X1144599Y1671968D01*
X1144160Y1667510D01*
X1144599Y1663052D01*
X1145899Y1658766D01*
X1148011Y1654815D01*
X1148015Y1654810D01*
X1148011Y1654805D01*
X1145899Y1650854D01*
X1144599Y1646568D01*
X1144160Y1642110D01*
X1144599Y1637652D01*
X1145899Y1633366D01*
X1148011Y1629415D01*
X1148015Y1629410D01*
X1148011Y1629405D01*
X1145899Y1625454D01*
X1144599Y1621168D01*
X1144160Y1616710D01*
X1144599Y1612252D01*
X1145899Y1607966D01*
X1148011Y1604015D01*
X1148015Y1604010D01*
X1148011Y1604005D01*
X1145899Y1600054D01*
X1144599Y1595768D01*
X1144160Y1591310D01*
X1144599Y1586852D01*
X1145899Y1582566D01*
X1148011Y1578615D01*
X1148015Y1578610D01*
X1148011Y1578605D01*
X1145899Y1574654D01*
X1144599Y1570368D01*
X1144160Y1565910D01*
X1144599Y1561452D01*
X1145899Y1557166D01*
X1148011Y1553215D01*
X1148015Y1553210D01*
X1148011Y1553205D01*
X1145899Y1549254D01*
X1144599Y1544968D01*
X1144160Y1540510D01*
X1144599Y1536052D01*
X1145899Y1531766D01*
X1148011Y1527815D01*
X1148015Y1527810D01*
X1148011Y1527805D01*
X1145899Y1523854D01*
X1144599Y1519568D01*
X1144160Y1515110D01*
X1144599Y1510652D01*
X1145899Y1506366D01*
X1148011Y1502415D01*
X1148015Y1502410D01*
X1148011Y1502405D01*
X1145899Y1498454D01*
X1144599Y1494168D01*
X1144160Y1489710D01*
X1144599Y1485252D01*
X1145899Y1480966D01*
X1148011Y1477015D01*
X1150853Y1473553D01*
X1154315Y1470711D01*
X1158266Y1468599D01*
X1162552Y1467299D01*
X1167010Y1466860D01*
X1169790D01*
X1170907Y1466970D01*
X1217930D01*
Y1473120D01*
X1347622D01*
X1349387Y1471672D01*
X1353138Y1469667D01*
X1357208Y1468432D01*
X1361440Y1468015D01*
X1365672Y1468432D01*
X1369742Y1469667D01*
X1373493Y1471672D01*
X1375258Y1473120D01*
X1420435D01*
X1420555Y1470674D01*
D01*
X1420559Y1470584D01*
X1422400Y1470765D01*
X1422400D01*
Y1471324D01*
X1424196Y1473120D01*
X1552688D01*
X1564339Y1461469D01*
Y1461469D01*
X1564339Y1461469D01*
X1564339Y1461469D01*
Y1461469D01*
X1566853Y1459406D01*
X1569721Y1457873D01*
X1572833Y1456929D01*
Y1456929D01*
X1572834Y1456929D01*
D01*
D01*
D01*
X1572834D01*
Y1456929D01*
X1572834Y1456929D01*
X1572834Y1456929D01*
X1576070Y1456610D01*
X1705610D01*
X1708846Y1456929D01*
X1711959Y1457873D01*
X1714827Y1459406D01*
X1717341Y1461469D01*
X1722842Y1466970D01*
X1743618D01*
Y1371428D01*
X1742717Y1369742D01*
X1741482Y1365672D01*
X1741066Y1361440D01*
X1741482Y1357208D01*
X1742717Y1353138D01*
X1744722Y1349387D01*
X1747420Y1346100D01*
X1750707Y1343402D01*
X1754458Y1341397D01*
X1758528Y1340162D01*
X1762760Y1339745D01*
X1766992Y1340162D01*
X1771062Y1341397D01*
X1774813Y1343402D01*
X1778100Y1346100D01*
X1780798Y1349387D01*
X1782803Y1353138D01*
X1784038Y1357208D01*
X1784454Y1361440D01*
X1784038Y1365672D01*
X1782803Y1369742D01*
X1781902Y1371428D01*
Y1677670D01*
X1781534Y1681405D01*
X1780445Y1684995D01*
X1778676Y1688305D01*
X1776296Y1691206D01*
X1761056Y1706446D01*
X1758155Y1708826D01*
X1754845Y1710595D01*
X1751254Y1711684D01*
X1747520Y1712052D01*
X1747256D01*
X1745921Y1713852D01*
X1746360Y1718310D01*
X1745921Y1722768D01*
X1744621Y1727054D01*
X1742509Y1731005D01*
X1739667Y1734467D01*
X1736205Y1737309D01*
X1732254Y1739421D01*
X1727968Y1740721D01*
X1726650Y1740851D01*
X1711526Y1755976D01*
X1708625Y1758356D01*
X1705315Y1760125D01*
X1701725Y1761214D01*
X1697990Y1761582D01*
D02*
G37*
G36*
X1100690Y1353603D02*
Y1330960D01*
X1123333D01*
X1123303Y1331335D01*
X1122323Y1335417D01*
X1120717Y1339295D01*
X1118523Y1342875D01*
X1115797Y1346067D01*
X1112605Y1348793D01*
X1109025Y1350987D01*
X1105147Y1352593D01*
X1101065Y1353573D01*
X1100690Y1353603D01*
D02*
G37*
G36*
X1892300Y1369713D02*
Y1347070D01*
X1914943D01*
X1914913Y1347445D01*
X1913933Y1351527D01*
X1912327Y1355405D01*
X1910133Y1358985D01*
X1907407Y1362177D01*
X1904215Y1364903D01*
X1900635Y1367097D01*
X1896757Y1368703D01*
X1892675Y1369683D01*
X1892300Y1369713D01*
D02*
G37*
G36*
X879936Y1728470D02*
X843280D01*
Y1691814D01*
X845847Y1692016D01*
X852067Y1693510D01*
X857977Y1695957D01*
X863431Y1699300D01*
X868296Y1703454D01*
X872450Y1708318D01*
X875792Y1713773D01*
X878241Y1719683D01*
X879734Y1725903D01*
X879936Y1728470D01*
D02*
G37*
G36*
X835660D02*
X799004D01*
X799206Y1725903D01*
X800699Y1719683D01*
X803148Y1713773D01*
X806490Y1708318D01*
X810644Y1703454D01*
X815508Y1699300D01*
X820963Y1695957D01*
X826873Y1693510D01*
X833093Y1692016D01*
X835660Y1691814D01*
Y1728470D01*
D02*
G37*
G36*
X843280Y1772746D02*
Y1736090D01*
X879936D01*
X879734Y1738657D01*
X878241Y1744877D01*
X875792Y1750787D01*
X872450Y1756241D01*
X868296Y1761106D01*
X863431Y1765260D01*
X857977Y1768602D01*
X852067Y1771051D01*
X845847Y1772544D01*
X843280Y1772746D01*
D02*
G37*
G36*
X835660D02*
X833093Y1772544D01*
X826873Y1771051D01*
X820963Y1768602D01*
X815508Y1765260D01*
X810644Y1761106D01*
X806490Y1756241D01*
X803148Y1750787D01*
X800699Y1744877D01*
X799206Y1738657D01*
X799004Y1736090D01*
X835660D01*
Y1772746D01*
D02*
G37*
G36*
X1963420Y1771776D02*
X1957043Y1771274D01*
X1950823Y1769780D01*
X1944913Y1767332D01*
X1939458Y1763990D01*
X1934594Y1759836D01*
X1930440Y1754971D01*
X1927097Y1749517D01*
X1924650Y1743607D01*
X1923156Y1737387D01*
X1922654Y1731010D01*
X1923156Y1724633D01*
X1924650Y1718413D01*
X1927097Y1712503D01*
X1930440Y1707048D01*
X1934594Y1702184D01*
X1939458Y1698030D01*
X1944913Y1694688D01*
X1950823Y1692240D01*
X1957043Y1690746D01*
X1963420Y1690244D01*
X1969797Y1690746D01*
X1976017Y1692240D01*
X1981927Y1694688D01*
X1987381Y1698030D01*
X1992246Y1702184D01*
X1996400Y1707048D01*
X1999742Y1712503D01*
X2002191Y1718413D01*
X2003684Y1724633D01*
X2004186Y1731010D01*
X2003684Y1737387D01*
X2002191Y1743607D01*
X1999742Y1749517D01*
X1996400Y1754971D01*
X1992246Y1759836D01*
X1987381Y1763990D01*
X1981927Y1767332D01*
X1976017Y1769780D01*
X1969797Y1771274D01*
X1963420Y1771776D01*
D02*
G37*
G36*
X1443719Y1445260D02*
X1401081D01*
X1401122Y1444838D01*
X1402357Y1440768D01*
X1404362Y1437017D01*
X1407060Y1433730D01*
X1408210Y1432786D01*
X1407238Y1430439D01*
X1403985Y1430759D01*
X1399753Y1430343D01*
X1395683Y1429108D01*
X1394091Y1428257D01*
X1349203D01*
X1347517Y1429158D01*
X1343447Y1430393D01*
X1339215Y1430809D01*
X1334983Y1430393D01*
X1330913Y1429158D01*
X1327162Y1427153D01*
X1323875Y1424455D01*
X1321177Y1421168D01*
X1319172Y1417417D01*
X1317937Y1413347D01*
X1317520Y1409115D01*
X1317937Y1404883D01*
X1319172Y1400813D01*
X1321177Y1397062D01*
X1323875Y1393775D01*
X1327162Y1391077D01*
X1330913Y1389072D01*
X1334983Y1387837D01*
X1339215Y1387421D01*
X1343447Y1387837D01*
X1347517Y1389072D01*
X1349203Y1389973D01*
X1393904D01*
X1395683Y1389022D01*
X1399753Y1387787D01*
X1403985Y1387370D01*
X1408217Y1387787D01*
X1412287Y1389022D01*
X1415161Y1390558D01*
X1515917D01*
X1517603Y1389657D01*
X1521673Y1388422D01*
X1525905Y1388006D01*
X1530137Y1388422D01*
X1534207Y1389657D01*
X1537958Y1391662D01*
X1541245Y1394360D01*
X1543943Y1397647D01*
X1545948Y1401398D01*
X1547183Y1405468D01*
X1547599Y1409700D01*
X1547183Y1413932D01*
X1545948Y1418002D01*
X1543943Y1421753D01*
X1541245Y1425040D01*
X1537958Y1427738D01*
X1534207Y1429743D01*
X1530137Y1430978D01*
X1525905Y1431395D01*
X1521673Y1430978D01*
X1517603Y1429743D01*
X1515917Y1428842D01*
X1435623D01*
X1435416Y1429230D01*
X1434699Y1431234D01*
X1437740Y1433730D01*
X1440438Y1437017D01*
X1442443Y1440768D01*
X1443678Y1444838D01*
X1443719Y1445260D01*
D02*
G37*
G36*
X1008145Y1401125D02*
X1003913Y1400708D01*
X999843Y1399473D01*
X996092Y1397468D01*
X992805Y1394770D01*
X990107Y1391483D01*
X988102Y1387732D01*
X986867Y1383662D01*
X986451Y1379430D01*
X986867Y1375198D01*
X988102Y1371128D01*
X990107Y1367377D01*
X992805Y1364090D01*
X996092Y1361392D01*
X999843Y1359387D01*
X1003913Y1358152D01*
X1008145Y1357735D01*
X1012377Y1358152D01*
X1016447Y1359387D01*
X1020198Y1361392D01*
X1023485Y1364090D01*
X1026183Y1367377D01*
X1028188Y1371128D01*
X1029423Y1375198D01*
X1029839Y1379430D01*
X1029423Y1383662D01*
X1028188Y1387732D01*
X1026183Y1391483D01*
X1023485Y1394770D01*
X1020198Y1397468D01*
X1016447Y1399473D01*
X1012377Y1400708D01*
X1008145Y1401125D01*
D02*
G37*
G36*
X1426210Y1470389D02*
Y1452880D01*
X1443719D01*
X1443678Y1453302D01*
X1442443Y1457372D01*
X1440438Y1461123D01*
X1437740Y1464410D01*
X1434453Y1467108D01*
X1430702Y1469113D01*
X1426632Y1470348D01*
X1426210Y1470389D01*
D02*
G37*
G36*
X1418590D02*
X1418168Y1470348D01*
X1414098Y1469113D01*
X1410347Y1467108D01*
X1407060Y1464410D01*
X1404362Y1461123D01*
X1402357Y1457372D01*
X1401122Y1453302D01*
X1401081Y1452880D01*
X1418590D01*
Y1470389D01*
D02*
G37*
G36*
X1123333Y1323340D02*
X1100690D01*
Y1300697D01*
X1101065Y1300727D01*
X1105147Y1301707D01*
X1109025Y1303313D01*
X1112605Y1305507D01*
X1115797Y1308233D01*
X1118523Y1311425D01*
X1120717Y1315005D01*
X1122323Y1318883D01*
X1123303Y1322965D01*
X1123333Y1323340D01*
D02*
G37*
G36*
X1750060Y1164590D02*
X1729998D01*
X1730089Y1163670D01*
X1731469Y1159121D01*
X1733710Y1154929D01*
X1736725Y1151255D01*
X1740399Y1148240D01*
X1744591Y1145999D01*
X1749140Y1144619D01*
X1750060Y1144529D01*
Y1164590D01*
D02*
G37*
G36*
X870350Y1144270D02*
X847707D01*
X847737Y1143895D01*
X848717Y1139813D01*
X850323Y1135935D01*
X852517Y1132355D01*
X855243Y1129163D01*
X858435Y1126437D01*
X862015Y1124243D01*
X865893Y1122637D01*
X869975Y1121657D01*
X870350Y1121627D01*
Y1144270D01*
D02*
G37*
G36*
Y1174533D02*
X869975Y1174503D01*
X865893Y1173523D01*
X862015Y1171917D01*
X858435Y1169723D01*
X855243Y1166997D01*
X852517Y1163805D01*
X850323Y1160225D01*
X848717Y1156347D01*
X847737Y1152265D01*
X847707Y1151890D01*
X870350D01*
Y1174533D01*
D02*
G37*
G36*
X1423740Y1199990D02*
X1373260D01*
Y1149510D01*
X1423740D01*
Y1199990D01*
D02*
G37*
G36*
X1980565Y1153900D02*
X1976333Y1153483D01*
X1972263Y1152248D01*
X1968512Y1150243D01*
X1965225Y1147545D01*
X1962527Y1144258D01*
X1960522Y1140507D01*
X1959287Y1136437D01*
X1958871Y1132205D01*
X1959287Y1127973D01*
X1960522Y1123903D01*
X1962527Y1120152D01*
X1965225Y1116865D01*
X1968512Y1114167D01*
X1972263Y1112162D01*
X1976333Y1110927D01*
X1980565Y1110510D01*
X1984797Y1110927D01*
X1988867Y1112162D01*
X1992618Y1114167D01*
X1995905Y1116865D01*
X1998603Y1120152D01*
X2000608Y1123903D01*
X2001843Y1127973D01*
X2002260Y1132205D01*
X2001843Y1136437D01*
X2000608Y1140507D01*
X1998603Y1144258D01*
X1995905Y1147545D01*
X1992618Y1150243D01*
X1988867Y1152248D01*
X1984797Y1153483D01*
X1980565Y1153900D01*
D02*
G37*
G36*
X1402310Y1128617D02*
Y1107440D01*
X1423487D01*
X1423375Y1108578D01*
X1421931Y1113336D01*
X1419588Y1117720D01*
X1416434Y1121564D01*
X1412590Y1124718D01*
X1408206Y1127062D01*
X1403448Y1128505D01*
X1402310Y1128617D01*
D02*
G37*
G36*
X1394690D02*
X1393552Y1128505D01*
X1388794Y1127062D01*
X1384410Y1124718D01*
X1380566Y1121564D01*
X1377412Y1117720D01*
X1375068Y1113336D01*
X1373625Y1108578D01*
X1373513Y1107440D01*
X1394690D01*
Y1128617D01*
D02*
G37*
G36*
X1483216Y1129379D02*
Y1108202D01*
X1504393D01*
X1504281Y1109340D01*
X1502838Y1114097D01*
X1500494Y1118482D01*
X1497340Y1122325D01*
X1493497Y1125480D01*
X1489112Y1127823D01*
X1484354Y1129266D01*
X1483216Y1129379D01*
D02*
G37*
G36*
X1475596D02*
X1474458Y1129266D01*
X1469700Y1127823D01*
X1465316Y1125480D01*
X1461472Y1122325D01*
X1458318Y1118482D01*
X1455974Y1114097D01*
X1454531Y1109340D01*
X1454419Y1108202D01*
X1475596D01*
Y1129379D01*
D02*
G37*
G36*
X1750060Y1192271D02*
X1749140Y1192181D01*
X1744591Y1190801D01*
X1740399Y1188560D01*
X1736725Y1185545D01*
X1733710Y1181871D01*
X1731469Y1177679D01*
X1730089Y1173130D01*
X1729998Y1172210D01*
X1750060D01*
Y1192271D01*
D02*
G37*
G36*
X1914943Y1339450D02*
X1862037D01*
X1862067Y1339075D01*
X1863047Y1334993D01*
X1864653Y1331115D01*
X1866847Y1327535D01*
X1869573Y1324343D01*
X1871950Y1322313D01*
X1871071Y1319930D01*
X1861820D01*
Y1266590D01*
X1915160D01*
Y1319930D01*
X1905909D01*
X1905030Y1322313D01*
X1907407Y1324343D01*
X1910133Y1327535D01*
X1912327Y1331115D01*
X1913933Y1334993D01*
X1914913Y1339075D01*
X1914943Y1339450D01*
D02*
G37*
G36*
X1838743D02*
X1785837D01*
X1785867Y1339075D01*
X1786847Y1334993D01*
X1788453Y1331115D01*
X1790647Y1327535D01*
X1793373Y1324343D01*
X1795750Y1322313D01*
X1794871Y1319930D01*
X1785620D01*
Y1266590D01*
X1838960D01*
Y1319930D01*
X1829709D01*
X1828830Y1322313D01*
X1831207Y1324343D01*
X1833933Y1327535D01*
X1836127Y1331115D01*
X1837733Y1334993D01*
X1838713Y1339075D01*
X1838743Y1339450D01*
D02*
G37*
G36*
X1309370Y1308100D02*
X1289308D01*
X1289399Y1307180D01*
X1290779Y1302631D01*
X1293020Y1298439D01*
X1296035Y1294765D01*
X1299709Y1291750D01*
X1303901Y1289509D01*
X1308450Y1288129D01*
X1309370Y1288038D01*
Y1308100D01*
D02*
G37*
G36*
X1475740Y1366637D02*
X1471010Y1366171D01*
X1466461Y1364791D01*
X1462269Y1362550D01*
X1458595Y1359535D01*
X1455580Y1355861D01*
X1453339Y1351669D01*
X1451959Y1347120D01*
X1451493Y1342390D01*
X1451959Y1337660D01*
X1453339Y1333111D01*
X1455580Y1328919D01*
X1457032Y1327150D01*
X1455580Y1325381D01*
X1453339Y1321189D01*
X1451959Y1316640D01*
X1451493Y1311910D01*
X1451959Y1307180D01*
X1453339Y1302631D01*
X1455580Y1298439D01*
X1458595Y1294765D01*
X1462269Y1291750D01*
X1466461Y1289509D01*
X1471010Y1288129D01*
X1475740Y1287663D01*
X1480470Y1288129D01*
X1485019Y1289509D01*
X1489211Y1291750D01*
X1492885Y1294765D01*
X1495900Y1298439D01*
X1498141Y1302631D01*
X1499521Y1307180D01*
X1499987Y1311910D01*
X1499521Y1316640D01*
X1498141Y1321189D01*
X1495900Y1325381D01*
X1494449Y1327150D01*
X1495900Y1328919D01*
X1498141Y1333111D01*
X1499521Y1337660D01*
X1499987Y1342390D01*
X1499521Y1347120D01*
X1498141Y1351669D01*
X1495900Y1355861D01*
X1492885Y1359535D01*
X1489211Y1362550D01*
X1485019Y1364791D01*
X1480470Y1366171D01*
X1475740Y1366637D01*
D02*
G37*
G36*
X966470Y1267860D02*
X943827D01*
X943857Y1267485D01*
X944837Y1263403D01*
X946443Y1259525D01*
X948637Y1255945D01*
X951363Y1252753D01*
X954555Y1250027D01*
X958135Y1247833D01*
X962013Y1246227D01*
X966095Y1245247D01*
X966470Y1245217D01*
Y1267860D01*
D02*
G37*
G36*
X936390Y1235493D02*
X936015Y1235463D01*
X931933Y1234483D01*
X928055Y1232877D01*
X924475Y1230683D01*
X921283Y1227957D01*
X918557Y1224765D01*
X916363Y1221185D01*
X914757Y1217307D01*
X913777Y1213225D01*
X913747Y1212850D01*
X936390D01*
Y1235493D01*
D02*
G37*
G36*
Y1205230D02*
X913747D01*
X913777Y1204855D01*
X914757Y1200773D01*
X916363Y1196895D01*
X918557Y1193315D01*
X921283Y1190123D01*
X924475Y1187397D01*
X928055Y1185203D01*
X931933Y1183597D01*
X936015Y1182617D01*
X936390Y1182587D01*
Y1205230D01*
D02*
G37*
G36*
X1016870Y1235710D02*
X963530D01*
Y1226459D01*
X961147Y1225580D01*
X959117Y1227957D01*
X955925Y1230683D01*
X952345Y1232877D01*
X948467Y1234483D01*
X944385Y1235463D01*
X944010Y1235493D01*
Y1209037D01*
Y1182587D01*
X944385Y1182617D01*
X948467Y1183597D01*
X952345Y1185203D01*
X955925Y1187397D01*
X959117Y1190123D01*
X961147Y1192500D01*
X963530Y1191621D01*
Y1182370D01*
X1016870D01*
Y1235710D01*
D02*
G37*
G36*
X1867935Y1259309D02*
X1863703Y1258893D01*
X1859633Y1257658D01*
X1855882Y1255653D01*
X1852595Y1252955D01*
X1849897Y1249668D01*
X1847892Y1245917D01*
X1846657Y1241847D01*
X1846241Y1237615D01*
X1846657Y1233383D01*
X1847892Y1229313D01*
X1849897Y1225562D01*
X1852595Y1222275D01*
X1855882Y1219577D01*
X1859633Y1217572D01*
X1863703Y1216337D01*
X1867935Y1215920D01*
X1872167Y1216337D01*
X1876237Y1217572D01*
X1879988Y1219577D01*
X1883275Y1222275D01*
X1885973Y1225562D01*
X1887978Y1229313D01*
X1889213Y1233383D01*
X1889630Y1237615D01*
X1889213Y1241847D01*
X1887978Y1245917D01*
X1885973Y1249668D01*
X1883275Y1252955D01*
X1879988Y1255653D01*
X1876237Y1257658D01*
X1872167Y1258893D01*
X1867935Y1259309D01*
D02*
G37*
%LPD*%
D10*
X640080Y1842770D02*
X2078990D01*
Y582930D02*
Y1842770D01*
X640080Y582930D02*
X2078990D01*
X640080D02*
Y1842770D01*
X1168400Y1718310D02*
X1179710Y1729620D01*
X1193800Y1591310D02*
X1361440D01*
X1193800Y1540510D02*
X1361440D01*
X1193800Y1489710D02*
X1361440D01*
X1720850Y1667510D02*
X1722120D01*
X1653540Y1680210D02*
X1666240Y1667510D01*
X1696720D01*
X1657350Y1642110D02*
X1696720D01*
X1644650Y1616710D02*
X1696720D01*
X1637030Y1604010D02*
X1709420D01*
X1722120Y1616710D01*
X1709420Y1578610D02*
X1722120Y1591310D01*
X1616710Y1604010D02*
X1629410Y1591310D01*
X1696720D01*
X1623060Y1578610D02*
X1709420D01*
X1619250Y1565910D02*
X1696720D01*
X1593850D02*
X1606550Y1553210D01*
X1598930Y1540510D02*
X1696720D01*
X1584960D02*
X1597660Y1527810D01*
X1588770Y1515110D02*
X1696720D01*
X1576070Y1527810D02*
X1588770Y1515110D01*
X1168400Y1489710D02*
X1181100Y1502410D01*
X1709420D02*
X1722120Y1515110D01*
X1570990D02*
X1583690Y1502410D01*
X1709420D01*
X1568450D02*
X1581150Y1489710D01*
X1696720D01*
X1576070Y1473200D02*
X1705610D01*
X1722120Y1489710D01*
X1532890Y1680210D02*
X1653540D01*
X1648460Y1667510D02*
X1661160Y1654810D01*
X1644650D02*
X1657350Y1642110D01*
X1637030D02*
X1649730Y1629410D01*
X1631950D02*
X1644650Y1616710D01*
X1624330D02*
X1637030Y1604010D01*
X1606550Y1578610D02*
X1619250Y1565910D01*
X1586230Y1553210D02*
X1598930Y1540510D01*
X1532890Y1527810D02*
X1576070D01*
X1532890Y1629410D02*
X1631950D01*
X1532890Y1578610D02*
X1606550D01*
X1494790Y1667510D02*
X1648460D01*
X1494790Y1515110D02*
X1507490D01*
X1193800D02*
X1494790D01*
X1193800Y1667510D02*
X1494790D01*
X1651000Y1718310D02*
X1696720D01*
X1179710Y1729620D02*
X1639690D01*
X1651000Y1718310D01*
X1168400Y1540510D02*
X1181100Y1553210D01*
X1405890D01*
X1168400Y1515110D02*
X1181100Y1527810D01*
X1193800Y1616710D02*
X1494790D01*
X1168400Y1692910D02*
Y1718310D01*
X1193800Y1642110D02*
X1361440D01*
X1168400D02*
X1181100Y1654810D01*
X1405890D01*
X1168400Y1616710D02*
X1181100Y1629410D01*
X1168400Y1565910D02*
X1181100Y1578610D01*
X1168400Y1591310D02*
X1181100Y1604010D01*
X1405890D01*
X1361440Y1540510D02*
X1584960D01*
X1193800Y1565910D02*
X1494790D01*
X1405890Y1553210D02*
X1586230D01*
X1181100Y1578610D02*
X1532890D01*
X1494790Y1616710D02*
X1624330D01*
X1361440Y1642110D02*
X1637030D01*
X1181100Y1629410D02*
X1532890D01*
X1606550Y1553210D02*
X1709420D01*
X1722120Y1565910D01*
X1597660Y1527810D02*
X1709420D01*
X1722120Y1540510D01*
X1661160Y1654810D02*
X1708150D01*
X1720850Y1667510D01*
X1649730Y1629410D02*
X1709420D01*
X1722120Y1642110D01*
X1181100Y1502410D02*
X1405890D01*
X1361440Y1489710D02*
X1559560D01*
X1576070Y1473200D01*
X1405890Y1502410D02*
X1568450D01*
X1181100Y1527810D02*
X1532890D01*
X1494790Y1515110D02*
X1570990D01*
X1494790Y1565910D02*
X1593850D01*
X1361440Y1591310D02*
X1610360D01*
X1623060Y1578610D01*
X1405890Y1604010D02*
X1616710D01*
X1405890Y1654810D02*
X1644650D01*
X1168400Y1667510D02*
X1181100Y1680210D01*
X1532890D01*
D11*
X1313180Y1342390D02*
X1316990D01*
X1451610Y1207770D01*
X1583690D01*
X1610360Y1181100D01*
Y1084580D02*
Y1181100D01*
Y1084580D02*
X1628140Y1066800D01*
X1685290D01*
X1736090Y1016000D01*
X1551940Y1070610D02*
X1567180D01*
X1584006Y1087436D01*
Y1104392D01*
X1888490Y1073150D02*
Y1092200D01*
X1880870Y1065530D02*
X1888490Y1073150D01*
X1715770Y1065530D02*
X1880870D01*
X1697990Y1083310D02*
X1715770Y1065530D01*
X1697990Y1083310D02*
Y1155700D01*
X1630680Y1223010D02*
X1697990Y1155700D01*
X1630680Y1223010D02*
Y1282700D01*
X1601470Y1311910D02*
X1630680Y1282700D01*
X1551940Y1311910D02*
X1601470D01*
X1525270Y1043940D02*
X1551940Y1070610D01*
X1428980Y1007110D02*
X1684020D01*
X1731010Y960120D01*
X1733550D01*
X1967230Y871220D02*
Y944880D01*
X1931670Y835660D02*
X1967230Y871220D01*
X1949850Y962260D02*
X1967230Y944880D01*
X1936750Y962260D02*
X1949850D01*
X1504950Y840410D02*
X1553540D01*
X1576070Y817880D01*
Y736600D02*
Y817880D01*
Y736600D02*
X1614170Y698500D01*
X1893570D01*
X1964690Y769620D01*
Y821690D01*
X1950720Y835660D02*
X1964690Y821690D01*
X1931670Y835660D02*
X1950720D01*
X1830470Y810260D02*
X1931670D01*
X1794910Y845820D02*
X1830470Y810260D01*
X1792370Y770890D02*
X1794910Y773430D01*
Y845820D01*
X1772920Y867810D02*
X1794910Y845820D01*
X1772920Y867810D02*
Y967740D01*
X1786890Y981710D01*
Y1016000D01*
X1398500Y1037590D02*
X1428980Y1007110D01*
X1192860Y844220D02*
X1206500D01*
X1103630Y933450D02*
X1192860Y844220D01*
X1103630Y933450D02*
Y977900D01*
X1127360Y1001630D01*
X1151890D01*
X1293900Y1037590D02*
X1343660Y1087350D01*
Y1238630D01*
X1329690Y1252600D02*
X1343660Y1238630D01*
X1070610Y1101090D02*
X1071880Y1099820D01*
X1070610Y1101090D02*
Y1221340D01*
X970280Y1321670D02*
X1070610Y1221340D01*
X1193800Y1692910D02*
Y1718310D01*
X1722120Y1692910D02*
X1747520D01*
X1762760Y1677670D01*
Y1361440D02*
Y1677670D01*
X1193800Y1692910D02*
X1658620D01*
X1671320Y1680210D01*
X1709420D01*
X1722120Y1692910D01*
Y1718310D01*
X1709420Y1705610D02*
X1722120Y1718310D01*
X995680Y1023620D02*
X1016000D01*
X1033780Y1041400D01*
X1046480Y1099820D02*
X1071880D01*
X1753870Y1244600D02*
X1798955Y1199515D01*
Y1162685D02*
Y1199515D01*
X1826895Y1134745D02*
X1851025D01*
X1863090Y1122680D01*
Y1092200D02*
Y1122680D01*
X1798955Y1162685D02*
X1826895Y1134745D01*
X1407160Y1409700D02*
X1525905D01*
X1193800Y1718310D02*
X1621790D01*
X1634490Y1705610D01*
X1033780Y1041400D02*
Y1087120D01*
X1046480Y1099820D01*
X859790Y1468120D02*
X1134110Y1742440D01*
X859790Y1347470D02*
Y1468120D01*
X1134110Y1742440D02*
X1697990D01*
X1722120Y1718310D01*
X1339215Y1409115D02*
X1407160D01*
D12*
X1322400Y844220D02*
X1356500D01*
X1209040Y957580D02*
X1322400Y844220D01*
X1209040Y957580D02*
Y974090D01*
X1249680Y1248790D02*
X1253490Y1252600D01*
X1249680Y1014730D02*
Y1248790D01*
X1209040Y974090D02*
X1249680Y1014730D01*
D13*
X1634490Y1705610D02*
X1709420D01*
D14*
X1722120Y1489710D02*
D03*
D15*
X1696720D02*
D03*
X1722120Y1515110D02*
D03*
X1696720D02*
D03*
X1722120Y1540510D02*
D03*
X1696720D02*
D03*
X1722120Y1565910D02*
D03*
X1696720D02*
D03*
X1722120Y1591310D02*
D03*
X1696720D02*
D03*
X1722120Y1616710D02*
D03*
X1696720D02*
D03*
X1722120Y1642110D02*
D03*
X1696720D02*
D03*
X1722120Y1667510D02*
D03*
X1696720D02*
D03*
X1722120Y1692910D02*
D03*
X1696720D02*
D03*
X1722120Y1718310D02*
D03*
X1696720D02*
D03*
D16*
X1193800Y1489710D02*
D03*
D17*
X1168400D02*
D03*
X1193800Y1515110D02*
D03*
X1168400D02*
D03*
X1193800Y1540510D02*
D03*
X1168400D02*
D03*
X1193800Y1565910D02*
D03*
X1168400D02*
D03*
X1193800Y1591310D02*
D03*
X1168400D02*
D03*
X1193800Y1616710D02*
D03*
X1168400D02*
D03*
X1193800Y1642110D02*
D03*
X1168400D02*
D03*
X1193800Y1667510D02*
D03*
X1168400D02*
D03*
X1193800Y1692910D02*
D03*
X1168400D02*
D03*
X1193800Y1718310D02*
D03*
X1168400D02*
D03*
D18*
X1569720Y1253490D02*
D03*
X1493520D02*
D03*
X1253490Y1252600D02*
D03*
X1329690D02*
D03*
D19*
X970280Y1321670D02*
D03*
X1151890Y1001630D02*
D03*
X1936750Y962260D02*
D03*
X1206500Y744220D02*
D03*
Y794220D02*
D03*
X1356500Y744220D02*
D03*
X1206500Y844220D02*
D03*
X1504950Y740410D02*
D03*
Y790410D02*
D03*
X1654950Y740410D02*
D03*
X1504950Y840410D02*
D03*
X1654950D02*
D03*
X1687830Y1248494D02*
D03*
X1812290Y1293260D02*
D03*
X1888490D02*
D03*
X1356500Y844220D02*
D03*
X1814830Y957180D02*
D03*
D20*
X970280Y1271670D02*
D03*
X940200Y1209040D02*
D03*
X874160Y1148080D02*
D03*
X1151890Y951630D02*
D03*
X1936750Y912260D02*
D03*
X1687830Y1198494D02*
D03*
X1812290Y1343260D02*
D03*
X1888490D02*
D03*
X1844910Y845820D02*
D03*
X1842370Y770890D02*
D03*
X1814830Y907180D02*
D03*
X1096880Y1327150D02*
D03*
D21*
X1071880Y1023620D02*
D03*
D22*
Y1049020D02*
D03*
Y1074420D02*
D03*
Y1099820D02*
D03*
X995680Y1023620D02*
D03*
Y1049020D02*
D03*
Y1074420D02*
D03*
Y1099820D02*
D03*
D23*
X891540Y834390D02*
D03*
X967740D02*
D03*
X891540Y798830D02*
D03*
X967740D02*
D03*
X1753870Y1168400D02*
D03*
Y1244600D02*
D03*
X1475740Y1342390D02*
D03*
X1551940D02*
D03*
X1475740Y1311910D02*
D03*
X1551940D02*
D03*
X1649730Y975360D02*
D03*
Y1051560D02*
D03*
X1037590Y800100D02*
D03*
X1113790D02*
D03*
X1037590Y835660D02*
D03*
X1113790D02*
D03*
X1389380Y1311910D02*
D03*
X1313180D02*
D03*
X1733550Y883920D02*
D03*
Y960120D02*
D03*
X1389380Y1342390D02*
D03*
X1313180D02*
D03*
X1209040Y1162050D02*
D03*
Y1085850D02*
D03*
Y974090D02*
D03*
Y1050290D02*
D03*
X942340Y1043342D02*
D03*
X866140D02*
D03*
X1649730Y1163320D02*
D03*
Y1087120D02*
D03*
D24*
X1479406Y1104392D02*
D03*
X1584006Y1170940D02*
D03*
X1479406Y971295D02*
D03*
X1584006Y1037843D02*
D03*
X1398500Y1103630D02*
D03*
X1293900Y1174750D02*
D03*
X1398500Y966470D02*
D03*
X843050Y1099820D02*
D03*
X1293900Y1037590D02*
D03*
D25*
X1584006Y1104392D02*
D03*
X1479406Y1170940D02*
D03*
X1584006Y971295D02*
D03*
X1479406Y1037843D02*
D03*
X1293900Y1103630D02*
D03*
X1398500Y1174750D02*
D03*
X1293900Y966470D02*
D03*
X947650Y1099820D02*
D03*
X1398500Y1037590D02*
D03*
D26*
X951230Y746760D02*
D03*
Y734060D02*
D03*
Y721360D02*
D03*
X1068070Y746760D02*
D03*
Y734060D02*
D03*
Y721360D02*
D03*
D27*
X1842770Y1170940D02*
D03*
X1868170D02*
D03*
X873760Y924560D02*
D03*
X899160D02*
D03*
D28*
X1893570Y1170940D02*
D03*
X924560Y924560D02*
D03*
D29*
X990200Y1209040D02*
D03*
X924160Y1148080D02*
D03*
X1794910Y845820D02*
D03*
X1792370Y770890D02*
D03*
X1046880Y1327150D02*
D03*
D30*
X1931670Y784860D02*
D03*
Y810260D02*
D03*
D31*
Y835660D02*
D03*
D32*
X1736090Y1016000D02*
D03*
D33*
X1761490D02*
D03*
X1786890D02*
D03*
X1812290D02*
D03*
X1837690D02*
D03*
X1863090D02*
D03*
X1888490D02*
D03*
X1736090Y1092200D02*
D03*
X1761490D02*
D03*
X1786890D02*
D03*
X1812290D02*
D03*
X1837690D02*
D03*
X1863090D02*
D03*
X1888490D02*
D03*
D34*
X839470Y1732280D02*
D03*
X1963420Y1731010D02*
D03*
X1960880Y675640D02*
D03*
X839470D02*
D03*
D35*
X899160Y1010322D02*
D03*
X1980565Y1132205D02*
D03*
X1525270Y1043940D02*
D03*
X1422400Y1449070D02*
D03*
X1762760Y1361440D02*
D03*
X1361440Y1642110D02*
D03*
Y1591310D02*
D03*
Y1540510D02*
D03*
X1405890Y1604010D02*
D03*
Y1654810D02*
D03*
X1532890Y1680210D02*
D03*
X1867935Y1237615D02*
D03*
X1403985Y1409065D02*
D03*
X1525905Y1409700D02*
D03*
X1339215Y1409115D02*
D03*
X1008145Y1379430D02*
D03*
X859790Y1347470D02*
D03*
X1405890Y1553210D02*
D03*
X1494790Y1565910D02*
D03*
X1532890Y1629410D02*
D03*
X1361440Y1489710D02*
D03*
X1405890Y1502410D02*
D03*
X1494790Y1515110D02*
D03*
X1532890Y1527810D02*
D03*
Y1578610D02*
D03*
X1494790Y1616710D02*
D03*
Y1667510D02*
D03*
M02*
