%FSLAX44Y44*%
%MOMM*%
G71*
G01*
G75*
G04 Layer_Physical_Order=1*
G04 Layer_Color=255*
%ADD10R,1.5000X1.3000*%
%ADD11R,1.3000X1.5000*%
%ADD12R,1.4300X0.5512*%
%ADD13R,2.4000X3.3000*%
%ADD14R,2.4000X1.0000*%
%ADD15C,0.3810*%
%ADD16C,0.2540*%
%ADD17R,1.9050X1.5240*%
%ADD18O,1.9050X1.5240*%
%ADD19O,2.0320X1.6900*%
%ADD20R,2.0320X1.6900*%
%ADD21C,4.7600*%
%ADD22C,6.0000*%
%ADD23C,1.5240*%
G36*
X1757070Y339239D02*
X1758339Y339072D01*
X1752086Y335492D01*
X1752086D01*
X1752086Y335492D01*
X1752518Y330000D01*
X1752086Y324508D01*
X1750800Y319151D01*
X1748692Y314061D01*
X1745813Y309364D01*
X1742235Y305175D01*
X1738046Y301597D01*
X1733349Y298718D01*
X1728259Y296610D01*
X1722902Y295324D01*
X1717410Y294892D01*
X1711918Y295324D01*
X1706561Y296610D01*
X1701471Y298718D01*
X1696774Y301597D01*
X1692585Y305175D01*
X1689007Y309364D01*
X1686128Y314061D01*
X1684020Y319151D01*
X1682734Y324508D01*
X1682302Y330000D01*
X1682734Y335492D01*
X1684020Y340849D01*
X1684396Y341756D01*
X1676081Y347312D01*
X1669285Y340515D01*
X1667842Y339408D01*
X1666163Y338713D01*
X1664360Y338475D01*
X1653002D01*
X1652135Y337345D01*
X1651005Y336478D01*
Y313690D01*
X1651005Y313690D01*
X1651005D01*
X1650767Y311887D01*
X1650072Y310208D01*
X1648965Y308765D01*
X1634385Y294185D01*
X1633817Y293749D01*
X1637031Y284280D01*
X1652270D01*
Y271777D01*
X1654810D01*
Y284280D01*
X1665040D01*
Y282803D01*
X1674766Y278774D01*
X1676585Y281145D01*
X1678956Y282964D01*
X1681717Y284108D01*
X1684680Y284498D01*
X1687643Y284108D01*
X1690404Y282964D01*
X1692775Y281145D01*
X1694594Y278774D01*
X1695738Y276013D01*
X1696128Y273050D01*
X1695738Y270087D01*
X1694594Y267326D01*
X1692775Y264955D01*
X1691645Y264088D01*
Y241645D01*
X1701688Y231602D01*
X1711526D01*
Y242281D01*
Y257793D01*
X1728450D01*
Y259280D01*
X1728450D01*
Y270510D01*
X1739953D01*
Y271777D01*
X1741220D01*
Y284280D01*
X1770450D01*
Y278745D01*
X1790690D01*
X1794517Y287983D01*
X1780413Y302087D01*
X1779304Y301236D01*
X1776543Y300092D01*
X1773580Y299702D01*
X1770617Y300092D01*
X1767856Y301236D01*
X1765485Y303055D01*
X1763666Y305426D01*
X1762522Y308187D01*
X1762132Y311150D01*
X1762522Y314113D01*
X1763666Y316874D01*
X1765485Y319245D01*
X1767856Y321064D01*
X1770617Y322208D01*
X1773580Y322598D01*
X1776543Y322208D01*
X1779304Y321064D01*
X1781675Y319245D01*
X1782693Y317918D01*
X1783003Y317877D01*
X1783495Y317673D01*
X1784682Y317181D01*
X1786125Y316075D01*
X1792686Y309513D01*
X1802123Y305604D01*
X1806914Y305918D01*
X1807395Y306545D01*
X1809766Y308364D01*
X1812527Y309508D01*
X1812980Y310841D01*
X1786640Y337180D01*
X1768254Y344796D01*
X1766435Y342425D01*
X1764064Y340606D01*
X1761303Y339462D01*
X1759610Y339239D01*
Y350522D01*
X1757070D01*
Y339239D01*
D02*
G37*
G36*
X1480210Y245259D02*
X1478517Y245482D01*
X1475756Y246626D01*
X1473385Y248445D01*
X1471566Y250816D01*
X1471554Y250845D01*
X1404355D01*
X1395977Y242467D01*
X1396131Y241300D01*
X1383687D01*
Y238760D01*
X1396131D01*
X1395868Y236767D01*
X1394609Y233726D01*
X1392605Y231115D01*
X1390655Y229618D01*
Y197195D01*
X1401815Y186035D01*
X1503995D01*
X1527355Y209395D01*
X1528798Y210501D01*
X1530477Y211197D01*
X1532280Y211435D01*
X1532880D01*
X1536707Y220673D01*
X1524562Y232819D01*
X1522107Y231802D01*
X1515463Y228526D01*
X1515788Y226060D01*
X1515398Y223097D01*
X1514254Y220336D01*
X1512435Y217965D01*
X1510064Y216146D01*
X1507303Y215002D01*
X1504340Y214612D01*
X1502927Y214798D01*
X1494025Y205895D01*
X1494025D01*
X1494025Y205895D01*
X1494025Y205895D01*
Y205895D01*
X1492582Y204788D01*
X1490903Y204093D01*
X1489100Y203855D01*
X1447262D01*
X1446395Y202725D01*
X1444024Y200906D01*
X1441263Y199762D01*
X1438300Y199372D01*
X1435337Y199762D01*
X1432576Y200906D01*
X1430205Y202725D01*
X1428386Y205096D01*
X1427242Y207857D01*
X1426852Y210820D01*
X1427242Y213783D01*
X1428386Y216544D01*
X1430205Y218915D01*
X1432576Y220734D01*
X1435337Y221878D01*
X1438300Y222268D01*
X1441263Y221878D01*
X1444024Y220734D01*
X1446395Y218915D01*
X1447262Y217785D01*
X1486215D01*
X1493078Y224647D01*
X1492892Y226060D01*
X1493282Y229023D01*
X1494426Y231784D01*
X1496245Y234155D01*
X1498616Y235974D01*
X1501377Y237118D01*
X1504340Y237508D01*
X1506806Y237183D01*
X1510082Y243827D01*
X1511099Y246282D01*
X1505511Y251869D01*
X1493506Y253450D01*
X1492393Y253228D01*
X1491394Y250816D01*
X1489575Y248445D01*
X1487204Y246626D01*
X1484443Y245482D01*
X1482750Y245259D01*
Y256542D01*
X1480210D01*
Y245259D01*
D02*
G37*
G36*
X1433835Y398435D02*
Y337820D01*
X1433835Y337820D01*
X1433835D01*
X1433597Y336017D01*
X1432901Y334338D01*
X1431795Y332895D01*
X1410205Y311305D01*
X1408762Y310198D01*
X1407083Y309503D01*
X1405280Y309265D01*
X1405280Y309265D01*
X1395753D01*
X1394618Y305923D01*
X1400443Y297795D01*
X1476400D01*
X1478203Y297557D01*
X1479882Y296861D01*
X1481325Y295755D01*
X1508788Y268291D01*
X1519082Y268291D01*
X1521157Y269314D01*
X1520999Y270510D01*
X1532283D01*
Y271777D01*
X1534210D01*
Y284280D01*
X1559520D01*
Y293390D01*
X1559520D01*
Y313390D01*
D01*
Y313390D01*
X1559520Y313390D01*
Y316390D01*
X1559520D01*
Y325120D01*
X1576523D01*
Y327660D01*
X1559520D01*
Y336390D01*
D01*
Y336390D01*
X1559520Y336390D01*
Y339390D01*
X1559520D01*
Y359390D01*
X1559520Y359390D01*
X1559520D01*
X1559822Y360119D01*
X1558605Y361335D01*
X1480282D01*
X1479415Y360205D01*
X1477044Y358386D01*
X1474283Y357242D01*
X1471320Y356852D01*
X1468357Y357242D01*
X1465596Y358386D01*
X1463225Y360205D01*
X1461406Y362576D01*
X1460262Y365337D01*
X1459872Y368300D01*
X1460262Y371263D01*
X1461406Y374024D01*
X1463225Y376395D01*
X1465596Y378214D01*
X1468357Y379358D01*
X1471320Y379748D01*
X1472832Y391229D01*
X1470205Y393855D01*
X1469099Y395298D01*
X1468403Y396977D01*
X1468165Y398780D01*
X1468165Y398780D01*
X1468165Y398780D01*
Y398780D01*
Y419700D01*
X1458927Y423527D01*
X1433835Y398435D01*
D02*
G37*
G36*
X1186709Y255D02*
X1486709D01*
Y100254D01*
X1586710D01*
Y255D01*
X1936709D01*
Y318440D01*
X1927240Y321655D01*
X1927095Y321465D01*
X1904565Y298935D01*
X1903122Y297829D01*
X1901443Y297133D01*
D01*
X1900634Y293566D01*
X1901096Y290055D01*
X1900634Y286544D01*
X1899279Y283272D01*
X1897123Y280462D01*
X1894313Y278307D01*
X1894313Y278307D01*
D01*
X1897123Y272038D01*
X1897123Y272038D01*
X1897123D01*
X1899279Y269228D01*
X1900634Y265956D01*
X1901096Y262445D01*
X1900634Y258934D01*
X1899279Y255662D01*
X1897123Y252852D01*
X1895511Y251616D01*
D01*
X1895511D01*
X1895511Y251616D01*
X1895511D01*
X1895511D01*
Y251615D01*
X1897123Y244428D01*
X1899279Y241618D01*
X1900634Y238346D01*
X1901096Y234835D01*
X1900634Y231324D01*
X1899279Y228052D01*
X1897123Y225242D01*
X1894313Y223086D01*
X1894313Y223086D01*
D01*
X1897123Y216818D01*
X1897123Y216818D01*
X1897123D01*
X1899279Y214008D01*
X1900634Y210736D01*
X1901096Y207225D01*
X1900634Y203714D01*
X1899279Y200442D01*
X1897123Y197633D01*
X1895510Y196395D01*
D01*
X1895510D01*
X1895510Y196395D01*
D01*
D01*
Y196395D01*
X1897123Y189207D01*
X1899279Y186398D01*
X1900634Y183126D01*
X1901096Y179615D01*
X1900634Y176104D01*
X1899279Y172832D01*
X1897123Y170022D01*
X1894313Y167866D01*
X1891041Y166511D01*
X1887530Y166049D01*
X1884110D01*
X1880599Y166511D01*
X1880599Y166511D01*
X1880599D01*
X1872580Y161680D01*
D01*
Y152360D01*
X1842260D01*
Y152360D01*
X1831649Y152360D01*
X1814065Y134775D01*
X1812622Y133668D01*
X1811435Y133176D01*
X1810943Y132973D01*
X1809140Y132735D01*
X1770450D01*
Y127200D01*
X1741220D01*
Y139703D01*
X1738680D01*
Y127200D01*
X1730641D01*
Y125356D01*
X1730403Y123554D01*
X1729708Y121874D01*
X1728601Y120431D01*
X1709912Y101743D01*
X1710098Y100330D01*
X1709708Y97367D01*
X1708564Y94606D01*
X1706745Y92235D01*
X1704374Y90416D01*
X1701613Y89272D01*
X1698650Y88882D01*
X1695687Y89272D01*
X1692926Y90416D01*
X1690555Y92235D01*
X1689688Y93365D01*
X1624990D01*
X1623187Y93603D01*
X1621508Y94298D01*
X1620065Y95405D01*
X1620065Y95405D01*
X1620065Y95405D01*
X1602285Y113185D01*
X1602285Y113185D01*
X1602285Y113185D01*
X1601178Y114628D01*
X1600686Y115815D01*
X1600483Y116307D01*
X1600245Y118110D01*
X1600245Y118110D01*
X1600245Y118110D01*
Y118110D01*
Y147910D01*
X1594710D01*
Y166910D01*
Y183535D01*
X1547865D01*
X1525775Y161445D01*
X1524332Y160338D01*
X1522653Y159643D01*
X1520850Y159405D01*
X1387500D01*
X1385697Y159643D01*
X1384018Y160338D01*
X1382575Y161445D01*
X1319075Y224945D01*
X1317968Y226388D01*
X1317273Y228067D01*
X1317035Y229870D01*
X1317035Y229870D01*
X1317035Y229870D01*
Y229870D01*
Y363220D01*
X1317273Y365023D01*
X1317968Y366702D01*
X1319075Y368145D01*
X1336340Y385410D01*
X1337783Y386516D01*
X1339462Y387212D01*
X1341265Y387450D01*
X1344964D01*
X1345682Y392430D01*
X1345682Y392430D01*
X1345682D01*
D01*
D01*
D01*
X1346112Y395693D01*
X1347371Y398734D01*
X1349375Y401345D01*
X1351986Y403349D01*
X1355027Y404608D01*
X1358290Y405038D01*
X1361553Y404608D01*
X1362875Y404061D01*
X1361756Y405736D01*
X1361553Y405652D01*
X1358290Y405222D01*
X1355027Y405652D01*
X1351986Y406911D01*
X1349375Y408915D01*
X1347371Y411526D01*
X1346112Y414567D01*
X1345682Y417830D01*
X1346112Y421093D01*
X1347371Y424134D01*
X1349375Y426745D01*
X1351325Y428242D01*
Y440690D01*
X1351563Y442493D01*
X1352258Y444172D01*
X1353365Y445615D01*
X1388925Y481175D01*
X1390368Y482281D01*
X1392047Y482977D01*
X1393850Y483215D01*
X1567495D01*
X1613715Y529435D01*
X1615158Y530541D01*
X1616837Y531237D01*
X1618640Y531475D01*
X1682140D01*
X1683943Y531237D01*
X1684435Y531034D01*
X1685622Y530541D01*
X1687065Y529435D01*
X1701035Y515465D01*
X1702142Y514022D01*
X1702837Y512343D01*
X1703075Y510540D01*
Y495283D01*
X1712796D01*
Y495283D01*
X1728450D01*
Y496770D01*
X1728450D01*
Y505782D01*
X1728232Y506307D01*
X1728009Y508000D01*
X1739292D01*
Y509268D01*
X1741220D01*
Y521770D01*
X1760991D01*
X1775005Y535785D01*
X1775005D01*
X1775005Y535785D01*
X1776448Y536892D01*
X1776448D01*
X1776448Y536892D01*
X1778127Y537587D01*
X1778127D01*
X1779930Y537825D01*
D01*
D01*
D01*
X1779930D01*
X1779930Y537825D01*
D01*
D01*
D01*
D01*
X1846862Y541233D01*
X1849468Y544284D01*
X1850677Y546906D01*
X1848248Y549750D01*
X1845880Y553615D01*
X1844145Y557803D01*
X1843087Y562211D01*
X1842731Y566730D01*
X1843087Y571250D01*
X1844145Y575657D01*
X1845880Y579846D01*
X1848248Y583711D01*
X1851192Y587158D01*
X1854639Y590102D01*
X1858505Y592471D01*
X1862693Y594205D01*
X1867101Y595264D01*
X1871620Y595619D01*
X1876139Y595264D01*
X1880547Y594205D01*
X1884735Y592471D01*
X1888600Y590102D01*
X1892048Y587158D01*
X1894992Y583711D01*
X1897360Y579846D01*
X1899095Y575657D01*
X1900153Y571250D01*
X1900509Y566730D01*
X1900153Y562211D01*
X1899095Y557803D01*
X1897360Y553615D01*
X1894992Y549750D01*
X1892451Y546775D01*
X1894786Y537052D01*
X1895172Y536892D01*
X1896615Y535785D01*
X1927095Y505305D01*
X1927240Y505115D01*
X1936709Y508330D01*
Y660255D01*
X1586709D01*
Y660255D01*
Y560254D01*
X1486709D01*
Y660255D01*
X1186709D01*
Y255D01*
D02*
G37*
%LPC*%
G36*
X1728450Y284280D02*
X1738680D01*
Y273050D01*
X1728450D01*
Y284280D01*
D02*
G37*
G36*
X1871620Y125099D02*
X1876139Y124743D01*
X1880547Y123685D01*
X1884735Y121950D01*
X1888600Y119582D01*
X1892048Y116638D01*
X1894992Y113190D01*
X1897360Y109325D01*
X1899095Y105137D01*
X1900153Y100729D01*
X1900509Y96210D01*
X1900153Y91691D01*
X1899095Y87283D01*
X1897360Y83095D01*
X1894992Y79229D01*
X1892048Y75782D01*
X1888600Y72838D01*
X1884735Y70470D01*
X1880547Y68735D01*
X1876139Y67677D01*
X1871620Y67321D01*
X1867101Y67677D01*
X1862693Y68735D01*
X1858505Y70470D01*
X1854639Y72838D01*
X1851192Y75782D01*
X1848248Y79229D01*
X1845880Y83095D01*
X1844145Y87283D01*
X1843087Y91691D01*
X1842731Y96210D01*
X1843087Y100729D01*
X1844145Y105137D01*
X1845880Y109325D01*
X1848248Y113190D01*
X1851192Y116638D01*
X1854639Y119582D01*
X1858505Y121950D01*
X1862693Y123685D01*
X1867101Y124743D01*
X1871620Y125099D01*
D02*
G37*
G36*
X1501520Y325120D02*
X1535520D01*
Y304890D01*
X1524005D01*
Y290565D01*
X1530289Y284280D01*
X1531670D01*
Y273050D01*
X1520999D01*
X1521095Y273776D01*
X1512115Y282755D01*
X1511008Y284198D01*
X1510313Y285877D01*
X1510075Y287680D01*
Y304890D01*
X1501520D01*
Y325120D01*
D02*
G37*
G36*
X1728450Y521770D02*
X1738680D01*
Y510540D01*
X1728009D01*
X1728232Y512233D01*
X1728450Y512758D01*
Y521770D01*
D02*
G37*
G36*
X1501520Y347890D02*
X1517250D01*
Y327660D01*
X1501520D01*
Y347890D01*
D02*
G37*
G36*
X1519790D02*
X1535520D01*
Y327660D01*
X1519790D01*
Y347890D01*
D02*
G37*
%LPD*%
D10*
X1613560Y399440D02*
D03*
Y418440D02*
D03*
X1785010Y399440D02*
D03*
Y418440D02*
D03*
X1759610Y487020D02*
D03*
Y468020D02*
D03*
X1638570Y399440D02*
D03*
Y418440D02*
D03*
X1759610D02*
D03*
Y399440D02*
D03*
X1613560Y487020D02*
D03*
Y468020D02*
D03*
X1638570D02*
D03*
Y487020D02*
D03*
X1759610Y161950D02*
D03*
Y180950D02*
D03*
X1607210Y178410D02*
D03*
Y159410D02*
D03*
X1633880Y249530D02*
D03*
Y230530D02*
D03*
X1607210Y230530D02*
D03*
Y249530D02*
D03*
X1759610Y230530D02*
D03*
Y249530D02*
D03*
X1633880Y178410D02*
D03*
Y159410D02*
D03*
X1785010Y468020D02*
D03*
Y487020D02*
D03*
Y180950D02*
D03*
Y161950D02*
D03*
Y230530D02*
D03*
Y249530D02*
D03*
X1611020Y299110D02*
D03*
Y318110D02*
D03*
Y352400D02*
D03*
Y333400D02*
D03*
D11*
X1639570Y441960D02*
D03*
X1620570D02*
D03*
X1777610D02*
D03*
X1758610D02*
D03*
X1739950Y271780D02*
D03*
X1758950D02*
D03*
X1657350Y509270D02*
D03*
X1638350D02*
D03*
X1634490Y204470D02*
D03*
X1615490D02*
D03*
X1739950Y509270D02*
D03*
X1758950D02*
D03*
X1657350Y378460D02*
D03*
X1638350D02*
D03*
X1739950Y139700D02*
D03*
X1758950D02*
D03*
X1653540Y271780D02*
D03*
X1634540D02*
D03*
X1758950Y378460D02*
D03*
X1739950D02*
D03*
X1634540Y137160D02*
D03*
X1653540D02*
D03*
X1759000Y204470D02*
D03*
X1778000D02*
D03*
X1532940Y271780D02*
D03*
X1551940D02*
D03*
D12*
X1669930Y398729D02*
D03*
Y411327D02*
D03*
Y424129D02*
D03*
Y436727D02*
D03*
Y449529D02*
D03*
Y462127D02*
D03*
Y474929D02*
D03*
Y487527D02*
D03*
X1724946D02*
D03*
Y474929D02*
D03*
Y462127D02*
D03*
Y449529D02*
D03*
Y436727D02*
D03*
Y424129D02*
D03*
Y411327D02*
D03*
Y398729D02*
D03*
X1723676Y161239D02*
D03*
Y173837D02*
D03*
Y186639D02*
D03*
Y199237D02*
D03*
Y212039D02*
D03*
Y224637D02*
D03*
Y237439D02*
D03*
Y250037D02*
D03*
X1668660D02*
D03*
Y237439D02*
D03*
Y224637D02*
D03*
Y212039D02*
D03*
Y199237D02*
D03*
Y186639D02*
D03*
Y173837D02*
D03*
Y161239D02*
D03*
D13*
X1518520Y326390D02*
D03*
D14*
X1576520Y303390D02*
D03*
Y326390D02*
D03*
Y349390D02*
D03*
D15*
X1669930Y474929D02*
X1659331D01*
X1638570Y468020D02*
X1613560D01*
X1669930Y436727D02*
X1656893D01*
X1669930Y411327D02*
X1658163D01*
X1651050Y418440D01*
X1638570D01*
X1613560D01*
X1669930Y398729D02*
X1639281D01*
X1638570Y399440D01*
X1638350Y399220D01*
Y378460D02*
Y399220D01*
X1638570Y487020D02*
X1638350Y487240D01*
X1759610Y468020D02*
X1743710D01*
X1736801Y474929D01*
X1724946D01*
X1738071Y449529D02*
X1724946D01*
X1745640Y441960D02*
X1738071Y449529D01*
X1758610Y441960D02*
X1745640D01*
X1759610Y418440D02*
X1748840D01*
X1743151Y424129D01*
X1724946D01*
X1759610Y399440D02*
X1748790D01*
X1736903Y411327D01*
X1724946D01*
X1758950Y378460D02*
Y398780D01*
X1759610Y399440D02*
X1758950Y398780D01*
X1785010Y418440D02*
X1759610D01*
X1758950Y487680D02*
Y509270D01*
X1759610Y487020D02*
X1758950Y487680D01*
X1785010Y468020D02*
X1759610D01*
X1758950Y250190D02*
Y271780D01*
X1759103Y250037D02*
X1723676D01*
X1759610Y249530D02*
X1759103Y250037D01*
X1738071Y237439D02*
X1723676D01*
X1744980Y230530D02*
X1738071Y237439D01*
X1785010Y230530D02*
X1759610D01*
X1744980D01*
X1668660Y237439D02*
X1659331D01*
X1647240Y249530D01*
X1633880D01*
X1634540Y250190D02*
Y271780D01*
Y250190D02*
X1633880Y249530D01*
X1668660Y224637D02*
X1653083D01*
X1647190Y230530D01*
X1607210D02*
X1607210Y230530D01*
X1647190Y230530D02*
X1633880D01*
X1607210D01*
X1668660Y199237D02*
X1653083D01*
X1647850Y204470D01*
X1634490D01*
X1668660Y173837D02*
X1653083D01*
X1648510Y178410D01*
X1607210D02*
X1607210Y178410D01*
X1648510Y178410D02*
X1633880D01*
X1607210D01*
X1668660Y161239D02*
X1635709D01*
X1633880Y159410D01*
Y137820D02*
Y159410D01*
X1739341Y186639D02*
X1723676D01*
X1745030Y180950D02*
X1739341Y186639D01*
X1759610Y180950D02*
X1745030D01*
X1735633Y173837D02*
X1723676D01*
X1747520Y161950D02*
X1735633Y173837D01*
X1759610Y161950D02*
X1747520D01*
X1759610D02*
X1758950Y161290D01*
Y139700D02*
Y161290D01*
X1738071Y212039D02*
X1723676D01*
X1745640Y204470D02*
X1738071Y212039D01*
X1759000Y204470D02*
X1745640D01*
X1787550Y159410D02*
X1785010Y161950D01*
X1723676Y199237D02*
X1707387D01*
X1885820Y179615D02*
X1786345D01*
X1785010Y180950D01*
X1857420Y165810D02*
X1835250D01*
X1809140Y139700D01*
X1758950D01*
X1885820Y345275D02*
X1839785D01*
X1637910Y467360D02*
X1637690D01*
X1857420Y331470D02*
X1832000D01*
X1809140Y354330D01*
Y398780D01*
X1910740Y342585D02*
X1885820Y317665D01*
X1910740Y342585D02*
Y488950D01*
X1877720Y521970D01*
X1832000D01*
X1815490Y505460D01*
Y476250D02*
Y505460D01*
Y476250D02*
X1807260Y468020D01*
X1785010D01*
X1899640Y303860D02*
X1857420D01*
X1922170Y326390D02*
X1899640Y303860D01*
X1922170Y326390D02*
Y500380D01*
X1891690Y530860D01*
X1779930D01*
X1758950Y509880D01*
Y509270D02*
Y509880D01*
Y374720D02*
Y378460D01*
X1857420Y276250D02*
X1758950Y374720D01*
X1885820Y455715D02*
Y483325D01*
Y455715D02*
X1872015Y441910D01*
X1857420D01*
X1869540Y497130D02*
X1857420D01*
X1884070Y482600D02*
X1869540Y497130D01*
X1870500Y482600D02*
X1857420Y469520D01*
X1871225Y455715D02*
X1857420Y469520D01*
X1885820Y455715D02*
X1871225D01*
X1884070Y482600D02*
X1870500D01*
X1885820Y400495D02*
Y428105D01*
Y400495D02*
X1872015Y386690D01*
X1857420D01*
Y414300D01*
X1872379Y429260D02*
X1857420Y414300D01*
X1885340Y429260D02*
X1872379D01*
X1609750Y332740D02*
X1603400Y326390D01*
X1602740D01*
X1611020Y318110D02*
Y333400D01*
Y318110D02*
X1602740Y326390D01*
X1576520D01*
X1611020Y352400D02*
X1597660D01*
X1594650Y349390D01*
X1576520D01*
X1588300Y303390D02*
X1576520D01*
X1592580Y299110D02*
X1588300Y303390D01*
X1611020Y299110D02*
X1592580D01*
X1563275Y430015D02*
X1562760Y430530D01*
X1707387Y199237D02*
X1697074Y209550D01*
X1696110D01*
X1723676Y224637D02*
X1698803D01*
X1684680Y238760D01*
Y273050D01*
X1481480Y455930D02*
X1426870Y401320D01*
Y337820D02*
Y401320D01*
Y337820D02*
X1405280Y316230D01*
X1383690D01*
X1358290Y240030D02*
Y265430D01*
X1383690Y367030D02*
X1358290D01*
X1561490Y368300D02*
X1471320D01*
X1576520Y353270D02*
X1561490Y368300D01*
X1576520Y349390D02*
Y353270D01*
X1611020Y299110D02*
X1607210Y295300D01*
Y249530D02*
Y295300D01*
Y249530D02*
X1574800D01*
X1668660Y212039D02*
X1654251D01*
X1647850Y218440D01*
X1504340Y226060D02*
X1489100Y210820D01*
X1438300D01*
X1624990Y100330D02*
X1607210Y118110D01*
X1698650Y100330D02*
X1624990D01*
X1723676Y125356D02*
X1698650Y100330D01*
X1723676Y125356D02*
Y161239D01*
X1607210Y118110D02*
Y158750D01*
Y159410D01*
X1885820Y234835D02*
X1839735D01*
X1833270Y241300D01*
Y283210D01*
X1818030Y298450D01*
X1857420Y221030D02*
X1839570D01*
X1823110Y237490D01*
Y269240D01*
X1781200Y311150D01*
X1773580D01*
X1857420Y193420D02*
X1850670D01*
X1812950Y231140D01*
Y259080D01*
X1800250Y271780D01*
X1758950D01*
X1793290Y249530D02*
X1785010D01*
X1802790Y240030D02*
X1793290Y249530D01*
X1811680Y193040D02*
X1802790Y201930D01*
Y240030D01*
X1629460Y299110D02*
X1611020D01*
X1644040Y313690D02*
X1629460Y299110D01*
X1644040Y313690D02*
Y345440D01*
X1613560Y487020D02*
X1601470D01*
X1585620Y471170D01*
X1724946Y383166D02*
Y398729D01*
X1668660Y250037D02*
Y256660D01*
X1653540Y271780D01*
X1551990Y399440D02*
X1536090Y383540D01*
X1490370D01*
X1475130Y398780D01*
Y422910D01*
X1490370Y438150D02*
X1475130Y422910D01*
X1514500Y438150D02*
X1490370D01*
X1613560Y399440D02*
X1551990D01*
X1785010Y180950D02*
X1759610D01*
X1778000Y204470D02*
X1777997Y204468D01*
X1517040Y287680D02*
Y324910D01*
X1518520Y326390D02*
X1517040Y324910D01*
X1615490Y204470D02*
X1532280D01*
X1506880Y179070D01*
X1398930D01*
X1383690Y194310D01*
Y240030D01*
X1476400Y290830D02*
X1383690D01*
X1647850Y218440D02*
X1548790D01*
X1476400Y290830D01*
X1532610Y272110D02*
X1517040Y287680D01*
X1532940Y271780D02*
X1532280D01*
X1551940Y264820D02*
Y271780D01*
X1574800Y249530D02*
X1567230D01*
X1551940Y264820D01*
X1383690Y265430D02*
X1370990Y278130D01*
X1348130D01*
X1335430Y290830D01*
Y355600D01*
X1346860Y367030D02*
X1335430Y355600D01*
X1358290Y367030D02*
X1346860D01*
X1433220Y445770D02*
X1412900Y425450D01*
Y378460D02*
Y425450D01*
Y378460D02*
X1401470Y367030D01*
X1383690D01*
X1570380Y476250D02*
X1393850D01*
X1358290Y440690D01*
Y417830D02*
Y440690D01*
X1759103Y487527D02*
X1724946D01*
X1644040Y345440D02*
X1613560Y375920D01*
Y399440D01*
X1618640Y524510D02*
X1570380Y476250D01*
X1656893Y436727D02*
X1651660Y441960D01*
X1639570D01*
X1669930Y462127D02*
X1653083D01*
X1647190Y468020D01*
X1638570D01*
X1669930Y449529D02*
X1656701D01*
X1650300Y455930D01*
X1481480D01*
X1669930Y424129D02*
X1658061D01*
X1652175Y430015D01*
X1563275D01*
X1638350Y487240D02*
Y509270D01*
X1659331Y474929D02*
X1647240Y487020D01*
X1638570D01*
X1669930Y487527D02*
Y496690D01*
X1657350Y509270D01*
X1724946Y383166D02*
X1707540Y365760D01*
X1724946Y436727D02*
X1698803D01*
X1698650Y436880D01*
X1724946Y424129D02*
X1711299D01*
X1701190Y414020D01*
Y379730D02*
Y414020D01*
X1724946Y462127D02*
X1701343D01*
X1696110Y510540D02*
X1682140Y524510D01*
X1618640D01*
X1701343Y462127D02*
X1696110Y467360D01*
Y510540D01*
X1664360Y345440D02*
X1644040D01*
X1707540Y365760D02*
X1684680D01*
X1664360Y345440D01*
X1525930Y402590D02*
X1504340D01*
X1563275Y430015D02*
X1553355D01*
X1525930Y402590D01*
X1620570Y441960D02*
X1544980D01*
X1523390Y420370D01*
X1494180D01*
X1739950Y509270D02*
X1739290D01*
X1739950Y368910D02*
Y378460D01*
X1758340Y350520D02*
X1739950Y368910D01*
X1778880Y443230D02*
X1777610Y441960D01*
X1816760Y443230D02*
X1778880D01*
X1856100D02*
X1816760D01*
X1857420Y441910D02*
X1856100Y443230D01*
X1857420Y441910D02*
Y469520D01*
Y497130D01*
X1824380Y360680D02*
Y421640D01*
X1839785Y345275D02*
X1824380Y360680D01*
X1383690Y392430D02*
X1370990Y379730D01*
X1340510D01*
X1324000Y363220D01*
Y229870D02*
Y363220D01*
X1387500Y166370D02*
X1324000Y229870D01*
X1520850Y166370D02*
X1387500D01*
X1544980Y190500D02*
X1520850Y166370D01*
X1649120Y190500D02*
X1544980D01*
X1652981Y186639D02*
X1649120Y190500D01*
X1668660Y186639D02*
X1652981D01*
X1481480Y256540D02*
X1480210Y257810D01*
X1439570D01*
X1421790Y240030D01*
X1358290D01*
D16*
X2023770Y723900D02*
X1128420D01*
Y-55880D02*
Y723900D01*
X2023770Y-55880D02*
X1128420D01*
X2023770D02*
Y723900D01*
D17*
X1383690Y417830D02*
D03*
D18*
X1358290D02*
D03*
X1383690Y392430D02*
D03*
X1358290D02*
D03*
X1383690Y367030D02*
D03*
X1358290D02*
D03*
X1383690Y341630D02*
D03*
X1358290D02*
D03*
X1383690Y316230D02*
D03*
X1358290D02*
D03*
X1383690Y290830D02*
D03*
X1358290D02*
D03*
X1383690Y265430D02*
D03*
X1358290D02*
D03*
X1383690Y240030D02*
D03*
X1358290D02*
D03*
D19*
X1857420Y497130D02*
D03*
X1885820Y483325D02*
D03*
X1857420Y469520D02*
D03*
X1885820Y455715D02*
D03*
X1857420Y441910D02*
D03*
X1885820Y428105D02*
D03*
X1857420Y414300D02*
D03*
X1885820Y400495D02*
D03*
X1857420Y386690D02*
D03*
X1885820Y372885D02*
D03*
X1857420Y359080D02*
D03*
X1885820Y345275D02*
D03*
X1857420Y331470D02*
D03*
X1885820Y317665D02*
D03*
X1857420Y303860D02*
D03*
X1885820Y290055D02*
D03*
X1857420Y276250D02*
D03*
X1885820Y262445D02*
D03*
X1857420Y248640D02*
D03*
X1885820Y234835D02*
D03*
X1857420Y221030D02*
D03*
X1885820Y207225D02*
D03*
X1857420Y193420D02*
D03*
X1885820Y179615D02*
D03*
D20*
X1857420Y165810D02*
D03*
D21*
X1871620Y96210D02*
D03*
Y566730D02*
D03*
D22*
X1717410Y330000D02*
D03*
D23*
X1611020Y333400D02*
D03*
X1615490Y204470D02*
D03*
X1607210Y178410D02*
D03*
X1633880Y159410D02*
D03*
X1815490Y298450D02*
D03*
X1633880Y230530D02*
D03*
X1773580Y311150D02*
D03*
X1633880Y249530D02*
D03*
X1785010Y230530D02*
D03*
X1638570Y418440D02*
D03*
X1809140Y398780D02*
D03*
X1701190Y379730D02*
D03*
X1696110Y209550D02*
D03*
X1684680Y273050D02*
D03*
X1504340Y402590D02*
D03*
X1471320Y368300D02*
D03*
X1571650Y246380D02*
D03*
X1504340Y226060D02*
D03*
X1438300Y210820D02*
D03*
X1607210Y158750D02*
D03*
X1785010Y161950D02*
D03*
X1698650Y100330D02*
D03*
X1811680Y193040D02*
D03*
X1613560Y399440D02*
D03*
X1785010D02*
D03*
Y487020D02*
D03*
X1585620Y471170D02*
D03*
X1514500Y438150D02*
D03*
X1777997Y204468D02*
D03*
X1481480Y256540D02*
D03*
X1532280Y271780D02*
D03*
X1433220Y445770D02*
D03*
X1644040Y345440D02*
D03*
X1638570Y468020D02*
D03*
Y486800D02*
D03*
Y399440D02*
D03*
X1698650Y436880D02*
D03*
X1658010Y378460D02*
D03*
X1494180Y420370D02*
D03*
X1739290Y509270D02*
D03*
X1657350D02*
D03*
X1758340Y350520D02*
D03*
X1739950Y139700D02*
D03*
X1653540Y137160D02*
D03*
X1816760Y443230D02*
D03*
X1824380Y421640D02*
D03*
M02*
