%FSLAX44Y44*%
%MOMM*%
G71*
G01*
G75*
G04 Layer_Physical_Order=2*
G04 Layer_Color=16711680*
%ADD10R,1.5000X1.3000*%
%ADD11R,1.3000X1.5000*%
%ADD12R,1.4300X0.5512*%
%ADD13R,2.4000X3.3000*%
%ADD14R,2.4000X1.0000*%
%ADD15C,0.3810*%
%ADD16C,0.2540*%
%ADD17R,1.9050X1.5240*%
%ADD18O,1.9050X1.5240*%
%ADD19O,2.0320X1.6900*%
%ADD20R,2.0320X1.6900*%
%ADD21C,4.7600*%
%ADD22C,6.0000*%
%ADD23C,1.5240*%
G36*
X750000Y0D02*
X450000D01*
Y100000D01*
X350000D01*
Y0D01*
X0D01*
Y660000D01*
X350000D01*
Y660000D01*
Y560000D01*
X450000D01*
Y660000D01*
X750000D01*
Y0D01*
D02*
G37*
%LPC*%
G36*
X285140Y148441D02*
Y138430D01*
X295151D01*
X294928Y140123D01*
X293784Y142884D01*
X291965Y145255D01*
X289594Y147074D01*
X286833Y148218D01*
X285140Y148441D01*
D02*
G37*
G36*
X444500Y431651D02*
Y421640D01*
X454511D01*
X454288Y423333D01*
X453144Y426094D01*
X451325Y428465D01*
X448954Y430284D01*
X446193Y431428D01*
X444500Y431651D01*
D02*
G37*
G36*
X65790Y595619D02*
X61271Y595264D01*
X56863Y594205D01*
X52675Y592471D01*
X48809Y590102D01*
X45362Y587158D01*
X42418Y583711D01*
X40050Y579846D01*
X38315Y575657D01*
X37257Y571250D01*
X36901Y566730D01*
X37257Y562211D01*
X38315Y557803D01*
X40050Y553615D01*
X42418Y549750D01*
X45362Y546303D01*
X48809Y543358D01*
X52125Y541327D01*
X52278Y540033D01*
X49312Y532871D01*
X14125Y497685D01*
X13018Y496242D01*
X12323Y494563D01*
X12085Y492760D01*
Y435610D01*
X12085Y435610D01*
X12085D01*
X12323Y433807D01*
X13018Y432128D01*
X14125Y430685D01*
X21630Y423181D01*
X23073Y422074D01*
X24752Y421378D01*
X26555Y421141D01*
X38271D01*
X40287Y418512D01*
X42467Y416840D01*
Y411760D01*
X40287Y410088D01*
X38131Y407278D01*
X36776Y404006D01*
X36314Y400495D01*
X36776Y396984D01*
X38131Y393712D01*
X40287Y390902D01*
X42467Y389230D01*
Y384150D01*
X40287Y382478D01*
X38131Y379668D01*
X36776Y376396D01*
X36314Y372885D01*
X36776Y369374D01*
X38131Y366102D01*
X40287Y363292D01*
X42467Y361620D01*
Y356540D01*
X40287Y354868D01*
X38131Y352058D01*
X36776Y348786D01*
X36314Y345275D01*
X36776Y341764D01*
X38131Y338492D01*
X40287Y335683D01*
X42467Y334010D01*
Y328930D01*
X40287Y327258D01*
X38131Y324448D01*
X36776Y321176D01*
X36314Y317665D01*
X36776Y314154D01*
X38131Y310882D01*
X40287Y308072D01*
X42467Y306400D01*
Y301320D01*
X40287Y299648D01*
X38131Y296838D01*
X36776Y293566D01*
X36314Y290055D01*
X36776Y286544D01*
X38131Y283272D01*
X40287Y280462D01*
X42467Y278790D01*
Y273710D01*
X40287Y272038D01*
X38131Y269228D01*
X36776Y265956D01*
X36314Y262445D01*
X36776Y258934D01*
X38131Y255662D01*
X40287Y252852D01*
X42467Y251180D01*
Y246100D01*
X40287Y244428D01*
X38131Y241618D01*
X36776Y238346D01*
X36314Y234835D01*
X36776Y231324D01*
X38131Y228052D01*
X40287Y225242D01*
X42467Y223570D01*
Y218490D01*
X40287Y216818D01*
X38131Y214008D01*
X36776Y210736D01*
X36314Y207225D01*
X36776Y203714D01*
X38131Y200442D01*
X40287Y197633D01*
X42467Y195960D01*
Y190880D01*
X40287Y189208D01*
X38131Y186398D01*
X36776Y183126D01*
X36314Y179615D01*
X36776Y176104D01*
X38131Y172832D01*
X40287Y170022D01*
X43097Y167866D01*
X46369Y166511D01*
X49880Y166049D01*
X53300D01*
X56811Y166511D01*
X60083Y167866D01*
X60274Y168013D01*
X64830Y165766D01*
Y152360D01*
X95150D01*
Y179260D01*
X95150D01*
X94743Y179330D01*
X91293Y183827D01*
X93449Y186637D01*
X94804Y189909D01*
X95266Y193420D01*
X94804Y196931D01*
X93449Y200203D01*
X93477Y200261D01*
X111864D01*
X114686Y196037D01*
X114672Y196003D01*
X114282Y193040D01*
X114672Y190077D01*
X115816Y187316D01*
X117635Y184945D01*
X120006Y183126D01*
X122767Y181982D01*
X125730Y181592D01*
X127143Y181778D01*
X142123Y166798D01*
X141342Y164913D01*
X140952Y161950D01*
X141342Y158987D01*
X142486Y156226D01*
X144305Y153855D01*
X146676Y152036D01*
X149437Y150892D01*
X152400Y150502D01*
X153813Y150688D01*
X209095Y95405D01*
X209095D01*
X209095Y95405D01*
X209095D01*
X209095Y95405D01*
Y95405D01*
X209095Y95405D01*
Y95405D01*
X210538Y94298D01*
X212218Y93603D01*
X214020Y93365D01*
X229798D01*
X230665Y92235D01*
X233036Y90416D01*
X235797Y89272D01*
X238760Y88882D01*
X241723Y89272D01*
X244484Y90416D01*
X246855Y92235D01*
X248674Y94606D01*
X249818Y97367D01*
X250208Y100330D01*
X249818Y103293D01*
X248674Y106054D01*
X246855Y108425D01*
X244484Y110244D01*
X241723Y111388D01*
X238760Y111778D01*
X235797Y111388D01*
X233036Y110244D01*
X230665Y108425D01*
X229798Y107295D01*
X216905D01*
X196961Y127239D01*
X197460Y128252D01*
X196190Y128419D01*
Y139703D01*
X198730D01*
Y128419D01*
X200423Y128642D01*
X203184Y129786D01*
X205555Y131605D01*
X206422Y132735D01*
X234605D01*
X235105Y132235D01*
X235105D01*
X235105Y132235D01*
X235105Y132235D01*
Y132235D01*
X236548Y131129D01*
X237735Y130637D01*
X238227Y130433D01*
X240030Y130195D01*
X274908D01*
X275775Y129065D01*
X278146Y127246D01*
X280907Y126102D01*
X282600Y125879D01*
Y137157D01*
Y148441D01*
X283870Y148608D01*
X283870D01*
Y148853D01*
X287462Y152445D01*
X294568D01*
X295435Y151315D01*
X297806Y149496D01*
X300567Y148352D01*
X303530Y147962D01*
X306493Y148352D01*
X309254Y149496D01*
X311625Y151315D01*
X313444Y153686D01*
X314036Y155115D01*
X316828Y155482D01*
X319268D01*
X320286Y153026D01*
X322105Y150655D01*
X324476Y148836D01*
X327237Y147692D01*
X330200Y147302D01*
X333163Y147692D01*
X335924Y148836D01*
X338295Y150655D01*
X339162Y151785D01*
X447040D01*
X448843Y152023D01*
X450522Y152718D01*
X451965Y153825D01*
X451965Y153825D01*
X451965Y153825D01*
X497697Y199558D01*
X499110Y199372D01*
X502073Y199762D01*
X504834Y200906D01*
X507205Y202725D01*
X509024Y205096D01*
X510168Y207857D01*
X510558Y210820D01*
X510168Y213783D01*
X509024Y216544D01*
X507205Y218915D01*
X504834Y220734D01*
X502073Y221878D01*
X499110Y222268D01*
X496147Y221878D01*
X493386Y220734D01*
X491015Y218915D01*
X489196Y216544D01*
X488052Y213783D01*
X487662Y210820D01*
X487848Y209407D01*
X444155Y165715D01*
X341825D01*
X338295Y170315D01*
X340114Y172686D01*
X341258Y175447D01*
X341648Y178410D01*
X341258Y181373D01*
X340114Y184134D01*
X338295Y186505D01*
X335924Y188324D01*
X333163Y189468D01*
X330200Y189858D01*
X329622Y189782D01*
X327644Y194556D01*
X330015Y196375D01*
X331834Y198746D01*
X332978Y201507D01*
X333201Y203200D01*
X321918D01*
Y205740D01*
X333201D01*
X332978Y207433D01*
X331834Y210194D01*
X332466Y211475D01*
X340015D01*
X351945Y199545D01*
X353388Y198438D01*
X354575Y197946D01*
X355067Y197743D01*
X356870Y197505D01*
X458470D01*
X460273Y197743D01*
X461952Y198438D01*
X463395Y199545D01*
X463395Y199545D01*
X463395Y199545D01*
X534392Y270542D01*
X539469Y270376D01*
X541464Y268101D01*
X541112Y265430D01*
X541542Y262167D01*
X542801Y259126D01*
X544805Y256515D01*
X546427Y255270D01*
Y250190D01*
X544805Y248945D01*
X542801Y246334D01*
X541542Y243293D01*
X541279Y241300D01*
X553722D01*
Y240033D01*
X554990D01*
Y227589D01*
X556983Y227852D01*
X560024Y229111D01*
X562635Y231115D01*
X563880Y232737D01*
X568960D01*
X570205Y231115D01*
X572816Y229111D01*
X575857Y227852D01*
X577850Y227589D01*
Y240033D01*
X579118D01*
Y241300D01*
X591561D01*
X591298Y243293D01*
X590039Y246334D01*
X588035Y248945D01*
X586085Y250442D01*
Y255018D01*
X588035Y256515D01*
X590039Y259126D01*
X591298Y262167D01*
X591561Y264160D01*
X579118D01*
Y265427D01*
X577850D01*
Y277871D01*
X577412Y277813D01*
X577706Y278408D01*
X579120Y278222D01*
X582383Y278652D01*
X585424Y279911D01*
X588035Y281915D01*
X590039Y284526D01*
X591298Y287567D01*
X591728Y290830D01*
X591298Y294093D01*
X592950Y296565D01*
X607060D01*
X608863Y296803D01*
X610542Y297498D01*
X611985Y298605D01*
X618335Y304955D01*
X619441Y306398D01*
X619934Y307585D01*
X620137Y308077D01*
X620375Y309880D01*
Y377190D01*
X620137Y378993D01*
X619441Y380672D01*
X618335Y382115D01*
X603095Y397355D01*
X601652Y398461D01*
X599973Y399157D01*
X598170Y399395D01*
X589532D01*
X588035Y401345D01*
X585424Y403349D01*
X582383Y404608D01*
X579120Y405038D01*
X575857Y404608D01*
X572816Y403349D01*
X570205Y401345D01*
X568960Y399723D01*
X567133D01*
X564886Y404279D01*
X565693Y405330D01*
X566220D01*
Y405857D01*
X567579Y406900D01*
X570776Y408477D01*
X572816Y406911D01*
X575857Y405652D01*
X579120Y405222D01*
X582383Y405652D01*
X585424Y406911D01*
X588035Y408915D01*
X590039Y411526D01*
X591298Y414567D01*
X591728Y417830D01*
X591298Y421093D01*
X590039Y424134D01*
X588035Y426745D01*
X585424Y428749D01*
X582383Y430008D01*
X579120Y430438D01*
X575857Y430008D01*
X572816Y428749D01*
X570776Y427183D01*
X567579Y428760D01*
X566220Y429803D01*
Y430330D01*
X541220D01*
Y424795D01*
X502920D01*
X501117Y424557D01*
X499438Y423862D01*
X497995Y422755D01*
X484795Y409555D01*
X454980D01*
X452733Y414111D01*
X453144Y414646D01*
X454288Y417407D01*
X454511Y419100D01*
X431949D01*
X432172Y417407D01*
Y417407D01*
X433316Y414646D01*
X430107Y413648D01*
X430107D01*
X430107Y413648D01*
X427346Y412504D01*
X424975Y410685D01*
X423156Y408314D01*
X422012Y405553D01*
X421622Y402590D01*
X422012Y399627D01*
X423156Y396866D01*
X424975Y394495D01*
X427346Y392676D01*
X430107Y391532D01*
X433070Y391142D01*
X436033Y391532D01*
X438794Y392676D01*
X441165Y394495D01*
X442032Y395625D01*
X487680D01*
X489483Y395863D01*
X491162Y396558D01*
X492605Y397665D01*
X492605Y397665D01*
X492605Y397665D01*
X505805Y410865D01*
X541220D01*
Y405330D01*
X541747D01*
X542790Y403971D01*
X544367Y400774D01*
X542801Y398734D01*
X541542Y395693D01*
X541112Y392430D01*
X541542Y389167D01*
X542801Y386126D01*
X544805Y383515D01*
X546427Y382270D01*
Y377190D01*
X544805Y375945D01*
X544283Y375265D01*
X475052D01*
X474185Y376395D01*
X471814Y378214D01*
X469053Y379358D01*
X466090Y379748D01*
X463127Y379358D01*
X460366Y378214D01*
X457995Y376395D01*
X456176Y374024D01*
X455032Y371263D01*
X454642Y368300D01*
X455032Y365337D01*
X456176Y362576D01*
X457995Y360205D01*
X460366Y358386D01*
X463127Y357242D01*
X466090Y356852D01*
X469053Y357242D01*
X471814Y358386D01*
X474185Y360205D01*
X475052Y361335D01*
X542549D01*
X542801Y360726D01*
X544805Y358115D01*
X546427Y356870D01*
Y351790D01*
X544805Y350545D01*
X542801Y347934D01*
X541542Y344893D01*
X541279Y342900D01*
X553722D01*
Y340360D01*
X541279D01*
X541364Y339714D01*
X538015Y335895D01*
X458815D01*
X352905Y441805D01*
X351462Y442911D01*
X349783Y443607D01*
X347980Y443845D01*
X325711D01*
X323767Y448538D01*
X324965Y449735D01*
X326072Y451178D01*
X326767Y452857D01*
X327005Y454660D01*
Y481330D01*
X326767Y483133D01*
X326072Y484812D01*
X324965Y486255D01*
X319885Y491335D01*
X318442Y492441D01*
X316763Y493137D01*
X314960Y493375D01*
X308101D01*
X306935Y494895D01*
X304564Y496714D01*
X301803Y497858D01*
X298840Y498248D01*
X295877Y497858D01*
X293116Y496714D01*
X290745Y494895D01*
X288926Y492524D01*
X287782Y489763D01*
X287392Y486800D01*
X287782Y483837D01*
X288926Y481076D01*
X290610Y478881D01*
X290125Y477897D01*
X287384Y474325D01*
X173990D01*
X172187Y474087D01*
X170508Y473391D01*
X169065Y472285D01*
X136486Y439705D01*
X131930Y441952D01*
X131931Y441960D01*
X120647D01*
Y444500D01*
X131931D01*
X131708Y446193D01*
X130564Y448954D01*
X128745Y451325D01*
X126374Y453144D01*
X123613Y454288D01*
X123011Y456062D01*
X145193Y478244D01*
X146676Y477106D01*
X149437Y475962D01*
X152400Y475572D01*
X155363Y475962D01*
X158124Y477106D01*
X160495Y478925D01*
X162314Y481296D01*
X163458Y484057D01*
X163848Y487020D01*
X163458Y489983D01*
X162314Y492744D01*
X160495Y495115D01*
X159365Y495982D01*
Y530515D01*
X162905Y534055D01*
X298105D01*
X344825Y487335D01*
Y480132D01*
X343695Y479265D01*
X341876Y476894D01*
X340732Y474133D01*
X340342Y471170D01*
X340732Y468207D01*
X341876Y465446D01*
X343695Y463075D01*
X346066Y461256D01*
X348827Y460112D01*
X351790Y459722D01*
X353203Y459908D01*
X379885Y433225D01*
X379885D01*
X379885Y433225D01*
X379885Y433225D01*
Y433225D01*
X381328Y432118D01*
X383007Y431423D01*
X384810Y431185D01*
X413948D01*
X414815Y430055D01*
X417186Y428236D01*
X419947Y427092D01*
X422910Y426702D01*
X425873Y427092D01*
X428634Y428236D01*
X429012Y428526D01*
X433042Y425433D01*
X432172Y423333D01*
X431949Y421640D01*
X441960D01*
Y431651D01*
X440267Y431428D01*
X437506Y430284D01*
X437128Y429994D01*
X433098Y433087D01*
X433968Y435187D01*
X434358Y438150D01*
X433968Y441113D01*
X432824Y443874D01*
X431005Y446245D01*
X428634Y448064D01*
X425873Y449208D01*
X422910Y449598D01*
X419947Y449208D01*
X417186Y448064D01*
X414815Y446245D01*
X413948Y445115D01*
X387695D01*
X363052Y469757D01*
X363238Y471170D01*
X362848Y474133D01*
X361704Y476894D01*
X359885Y479265D01*
X358755Y480132D01*
Y490220D01*
X358517Y492023D01*
X363482Y494079D01*
X397665Y459895D01*
X397665Y459895D01*
X399108Y458788D01*
X400787Y458093D01*
X402590Y457855D01*
X402590Y457855D01*
X482255D01*
X492928Y447183D01*
X492742Y445770D01*
X493132Y442807D01*
X494276Y440046D01*
X496095Y437675D01*
X498466Y435856D01*
X501227Y434712D01*
X504190Y434322D01*
X507153Y434712D01*
X509914Y435856D01*
X512285Y437675D01*
X514104Y440046D01*
X515248Y442807D01*
X515638Y445770D01*
X515248Y448733D01*
X514104Y451494D01*
X512285Y453865D01*
X509914Y455684D01*
X507153Y456828D01*
X504190Y457218D01*
X502777Y457032D01*
X490065Y469745D01*
X488622Y470852D01*
X486943Y471547D01*
X485140Y471785D01*
X405475D01*
X314805Y562455D01*
X313362Y563562D01*
X311683Y564257D01*
X309880Y564495D01*
X109220D01*
X107417Y564257D01*
X105738Y563562D01*
X104295Y562455D01*
X97867Y556026D01*
X93434Y558508D01*
X94323Y562211D01*
X94679Y566730D01*
X94323Y571250D01*
X93265Y575657D01*
X91530Y579846D01*
X89162Y583711D01*
X86218Y587158D01*
X82771Y590102D01*
X78905Y592471D01*
X74717Y594205D01*
X70309Y595264D01*
X65790Y595619D01*
D02*
G37*
G36*
X580390Y277871D02*
Y266700D01*
X591561D01*
X591298Y268693D01*
X590039Y271734D01*
X588035Y274345D01*
X585424Y276349D01*
X582383Y277608D01*
X580390Y277871D01*
D02*
G37*
G36*
X552450Y238760D02*
X541279D01*
X541542Y236767D01*
X542801Y233726D01*
X544805Y231115D01*
X547416Y229111D01*
X550457Y227852D01*
X552450Y227589D01*
Y238760D01*
D02*
G37*
G36*
X591561D02*
X580390D01*
Y227589D01*
X582383Y227852D01*
X585424Y229111D01*
X588035Y231115D01*
X590039Y233726D01*
X591298Y236767D01*
X591561Y238760D01*
D02*
G37*
G36*
X295151Y135890D02*
X285140D01*
Y125879D01*
X286833Y126102D01*
X289594Y127246D01*
X291965Y129065D01*
X293784Y131436D01*
X294928Y134197D01*
X295151Y135890D01*
D02*
G37*
G36*
X196850Y520551D02*
X195157Y520328D01*
X192396Y519184D01*
X190025Y517365D01*
X188206Y514994D01*
X187062Y512233D01*
X186839Y510540D01*
X196850D01*
Y520551D01*
D02*
G37*
G36*
X65790Y125099D02*
X61271Y124743D01*
X56863Y123685D01*
X52675Y121950D01*
X48809Y119582D01*
X45362Y116638D01*
X42418Y113190D01*
X40050Y109325D01*
X38315Y105137D01*
X37257Y100729D01*
X36901Y96210D01*
X37257Y91691D01*
X38315Y87283D01*
X40050Y83095D01*
X42418Y79229D01*
X45362Y75782D01*
X48809Y72838D01*
X52675Y70470D01*
X56863Y68735D01*
X61271Y67677D01*
X65790Y67321D01*
X70309Y67677D01*
X74717Y68735D01*
X78905Y70470D01*
X82771Y72838D01*
X86218Y75782D01*
X89162Y79229D01*
X91530Y83095D01*
X93265Y87283D01*
X94323Y91691D01*
X94679Y96210D01*
X94323Y100729D01*
X93265Y105137D01*
X91530Y109325D01*
X89162Y113190D01*
X86218Y116638D01*
X82771Y119582D01*
X78905Y121950D01*
X74717Y123685D01*
X70309Y124743D01*
X65790Y125099D01*
D02*
G37*
G36*
X278790Y520551D02*
X277097Y520328D01*
X274336Y519184D01*
X271965Y517365D01*
X271098Y516235D01*
X207082D01*
X206215Y517365D01*
X203844Y519184D01*
X201083Y520328D01*
X199390Y520551D01*
Y509268D01*
Y497989D01*
X201083Y498212D01*
X203844Y499356D01*
X206215Y501175D01*
X207082Y502305D01*
X271098D01*
X271965Y501175D01*
X274336Y499356D01*
X277097Y498212D01*
X278790Y497989D01*
Y509268D01*
Y520551D01*
D02*
G37*
G36*
X281330D02*
Y510540D01*
X291341D01*
X291118Y512233D01*
X289974Y514994D01*
X288155Y517365D01*
X285784Y519184D01*
X283023Y520328D01*
X281330Y520551D01*
D02*
G37*
G36*
X196850Y508000D02*
X186839D01*
X187062Y506307D01*
X188206Y503546D01*
X190025Y501175D01*
X192396Y499356D01*
X195157Y498212D01*
X196850Y497989D01*
Y508000D01*
D02*
G37*
G36*
X291341D02*
X281330D01*
Y497989D01*
X283023Y498212D01*
X285784Y499356D01*
X288155Y501175D01*
X289974Y503546D01*
X291118Y506307D01*
X291341Y508000D01*
D02*
G37*
%LPD*%
G36*
X541364Y292746D02*
X541112Y290830D01*
X541265Y289669D01*
X537915Y285850D01*
X532885D01*
X531082Y285612D01*
X530590Y285408D01*
X529403Y284916D01*
X527960Y283810D01*
X455585Y211435D01*
X440745D01*
X439697Y213967D01*
X438923Y216245D01*
X441165Y217965D01*
X442984Y220336D01*
X444128Y223097D01*
X444518Y226060D01*
X444128Y229023D01*
X442984Y231784D01*
X441165Y234155D01*
X438794Y235974D01*
X436033Y237118D01*
X433070Y237508D01*
X430107Y237118D01*
X427346Y235974D01*
X424975Y234155D01*
X424108Y233025D01*
X405475D01*
X387195Y251305D01*
X385752Y252411D01*
X384073Y253107D01*
X382270Y253345D01*
X374722D01*
X373855Y254475D01*
X371484Y256294D01*
X368723Y257438D01*
X365760Y257828D01*
X362797Y257438D01*
X360036Y256294D01*
X357665Y254475D01*
X355846Y252104D01*
X354702Y249343D01*
X354312Y246380D01*
X354702Y243417D01*
X355846Y240656D01*
X357665Y238285D01*
X360036Y236466D01*
X362797Y235322D01*
X365760Y234932D01*
X368723Y235322D01*
X371484Y236466D01*
X373855Y238285D01*
X374402Y238998D01*
X379471Y239330D01*
X397665Y221135D01*
X399108Y220028D01*
X400787Y219333D01*
X402590Y219095D01*
X424108D01*
X424975Y217965D01*
X427217Y216245D01*
X426443Y213967D01*
X425395Y211435D01*
X359755D01*
X347825Y223365D01*
X346382Y224471D01*
X344703Y225167D01*
X342900Y225405D01*
X318155D01*
X314806Y229224D01*
X314978Y230530D01*
X314588Y233493D01*
X313444Y236254D01*
X311625Y238625D01*
Y241435D01*
X313444Y243806D01*
X314588Y246567D01*
X314978Y249530D01*
X314588Y252493D01*
X313444Y255254D01*
X311625Y257625D01*
X309254Y259444D01*
X306493Y260588D01*
X303530Y260978D01*
X300567Y260588D01*
X297806Y259444D01*
X295435Y257625D01*
X294100Y255885D01*
X228945D01*
X201670Y283160D01*
X201930Y285135D01*
X241573D01*
X242640Y283745D01*
X244201Y280579D01*
X242816Y278774D01*
X241672Y276013D01*
X241282Y273050D01*
X241672Y270087D01*
X242816Y267326D01*
X244635Y264955D01*
X247006Y263136D01*
X249767Y261992D01*
X252730Y261602D01*
X255693Y261992D01*
X258454Y263136D01*
X260825Y264955D01*
X262644Y267326D01*
X263788Y270087D01*
X264178Y273050D01*
X263992Y274463D01*
X286095Y296565D01*
X538015D01*
X541364Y292746D01*
D02*
G37*
G36*
X154872Y546235D02*
X155023Y545872D01*
X147475Y538325D01*
X146369Y536882D01*
X145673Y535203D01*
X145435Y533400D01*
Y495982D01*
X144305Y495115D01*
X142909Y493296D01*
X141707Y493137D01*
X140028Y492441D01*
X138585Y491335D01*
X97256Y450005D01*
X92187Y450338D01*
X91293Y451503D01*
X88483Y453659D01*
X86955Y454292D01*
Y457138D01*
X88483Y457771D01*
X91293Y459927D01*
X93449Y462737D01*
X94804Y466009D01*
X95099Y468250D01*
X79988D01*
Y470790D01*
X95099D01*
X94804Y473031D01*
X93449Y476303D01*
X91293Y479113D01*
X88483Y481268D01*
X86955Y481902D01*
Y484748D01*
X88483Y485382D01*
X91293Y487537D01*
X93449Y490347D01*
X94804Y493619D01*
X95099Y495860D01*
X79988D01*
Y497128D01*
X78720D01*
Y510696D01*
X78280D01*
X74769Y510234D01*
X71497Y508879D01*
X68688Y506723D01*
X66671Y504095D01*
X65330D01*
X65330Y504095D01*
X63528Y503857D01*
X61848Y503162D01*
X60406Y502055D01*
X55016Y496665D01*
X53300Y496891D01*
X52860D01*
Y483323D01*
X51592D01*
Y482055D01*
X36481D01*
X36776Y479814D01*
X38131Y476542D01*
X40287Y473733D01*
X42467Y472060D01*
Y466980D01*
X40287Y465308D01*
X38131Y462498D01*
X36776Y459226D01*
X36481Y456985D01*
X51592D01*
Y454445D01*
X36481D01*
X36776Y452204D01*
X38131Y448932D01*
X40287Y446122D01*
X42467Y444450D01*
Y439370D01*
X40287Y437698D01*
X38271Y435070D01*
X29440D01*
X26015Y438495D01*
Y489875D01*
X62575Y526435D01*
X85090D01*
X86893Y526673D01*
X88572Y527369D01*
X90015Y528475D01*
X112105Y550565D01*
X151550D01*
X154872Y546235D01*
D02*
G37*
G36*
X451005Y324005D02*
X451005D01*
X451005Y324005D01*
X451005Y324005D01*
Y324005D01*
X452448Y322898D01*
X454127Y322203D01*
X455930Y321965D01*
X538015D01*
X541364Y318146D01*
X541112Y316230D01*
X541364Y314314D01*
X538015Y310495D01*
X283210D01*
X281407Y310257D01*
X280915Y310054D01*
X279728Y309562D01*
X278285Y308455D01*
X256977Y287146D01*
X252166Y288779D01*
X251957Y290368D01*
X274165Y312575D01*
X275271Y314018D01*
X275967Y315697D01*
X276205Y317500D01*
X276205Y317500D01*
Y342738D01*
X279400Y367012D01*
X278130Y367179D01*
Y378457D01*
Y389741D01*
X279400Y389908D01*
X279401Y389908D01*
X281968Y392475D01*
X289878D01*
X290745Y391345D01*
X293116Y389526D01*
X295877Y388382D01*
X298840Y387992D01*
X301803Y388382D01*
X304564Y389526D01*
X306935Y391345D01*
X308754Y393716D01*
X308805Y393839D01*
X313885D01*
X313936Y393716D01*
X315755Y391345D01*
X318126Y389526D01*
X320887Y388382D01*
X323850Y387992D01*
X326813Y388382D01*
X329574Y389526D01*
X331945Y391345D01*
X333764Y393716D01*
X334908Y396477D01*
X335298Y399440D01*
X334908Y402403D01*
X333764Y405164D01*
X331945Y407535D01*
X329574Y409354D01*
X326813Y410498D01*
X323850Y410888D01*
X320887Y410498D01*
X318126Y409354D01*
X315755Y407535D01*
X313936Y405164D01*
X313885Y405041D01*
X308805D01*
X308754Y405164D01*
X306935Y407535D01*
Y410345D01*
X308754Y412716D01*
X309898Y415477D01*
X310288Y418440D01*
X309898Y421403D01*
X308754Y424164D01*
X307837Y425359D01*
X310084Y429915D01*
X345095D01*
X451005Y324005D01*
D02*
G37*
%LPC*%
G36*
X457200Y267821D02*
Y257810D01*
X467211D01*
X466988Y259503D01*
X465844Y262264D01*
X464025Y264635D01*
X461654Y266454D01*
X458893Y267598D01*
X457200Y267821D01*
D02*
G37*
G36*
X416411Y270510D02*
X393849D01*
X394072Y268817D01*
X395216Y266056D01*
X397035Y263685D01*
X398362Y262667D01*
X398403Y262357D01*
X399099Y260678D01*
X400205Y259235D01*
X406555Y252885D01*
X406555D01*
X406555Y252885D01*
X406555Y252885D01*
Y252885D01*
X407998Y251779D01*
X409185Y251287D01*
X409677Y251083D01*
X411480Y250845D01*
X446004D01*
X446016Y250816D01*
X447835Y248445D01*
X450206Y246626D01*
X452967Y245482D01*
X454660Y245259D01*
Y256537D01*
Y267821D01*
X452967Y267598D01*
X450206Y266454D01*
X448017Y264775D01*
X425947D01*
X416188Y268817D01*
X416411Y270510D01*
D02*
G37*
G36*
X467211Y255270D02*
X457200D01*
Y245259D01*
X458893Y245482D01*
X461654Y246626D01*
X464025Y248445D01*
X465844Y250816D01*
X466988Y253577D01*
X467211Y255270D01*
D02*
G37*
G36*
X403860Y283061D02*
X402167Y282838D01*
X399406Y281694D01*
X397035Y279875D01*
X395216Y277504D01*
X394072Y274743D01*
X393849Y273050D01*
X403860D01*
Y283061D01*
D02*
G37*
G36*
X290681Y377190D02*
X280670D01*
Y367179D01*
X282363Y367402D01*
X285124Y368546D01*
X287495Y370365D01*
X289314Y372736D01*
X290458Y375497D01*
X290681Y377190D01*
D02*
G37*
G36*
X327660Y344681D02*
Y334670D01*
X337671D01*
X337448Y336363D01*
X336304Y339124D01*
X334485Y341495D01*
X332114Y343314D01*
X329353Y344458D01*
X327660Y344681D01*
D02*
G37*
G36*
X280670Y389741D02*
Y379730D01*
X290681D01*
X290458Y381423D01*
X289314Y384184D01*
X287495Y386555D01*
X285124Y388374D01*
X282363Y389518D01*
X280670Y389741D01*
D02*
G37*
G36*
X81700Y510696D02*
X81260D01*
Y498400D01*
X95099D01*
X94804Y500641D01*
X93449Y503913D01*
X91293Y506723D01*
X88483Y508879D01*
X85211Y510234D01*
X81700Y510696D01*
D02*
G37*
G36*
X50320Y496891D02*
X49880D01*
X46369Y496429D01*
X43097Y495074D01*
X40287Y492918D01*
X38131Y490108D01*
X36776Y486836D01*
X36481Y484595D01*
X50320D01*
Y496891D01*
D02*
G37*
G36*
X325120Y332130D02*
X315109D01*
X315332Y330437D01*
X316476Y327676D01*
X318295Y325305D01*
X320666Y323486D01*
X323427Y322342D01*
X325120Y322119D01*
Y332130D01*
D02*
G37*
G36*
X406400Y283061D02*
Y273050D01*
X416411D01*
X416188Y274743D01*
X415044Y277504D01*
X413225Y279875D01*
X410854Y281694D01*
X408093Y282838D01*
X406400Y283061D01*
D02*
G37*
G36*
X337671Y332130D02*
X327660D01*
Y322119D01*
X329353Y322342D01*
X332114Y323486D01*
X334485Y325305D01*
X336304Y327676D01*
X337448Y330437D01*
X337671Y332130D01*
D02*
G37*
G36*
X325120Y344681D02*
X323427Y344458D01*
X320666Y343314D01*
X318295Y341495D01*
X316476Y339124D01*
X315332Y336363D01*
X315109Y334670D01*
X325120D01*
Y344681D01*
D02*
G37*
G36*
X293370Y356888D02*
X290407Y356498D01*
X287646Y355354D01*
X285275Y353535D01*
X283456Y351164D01*
X282312Y348403D01*
X281922Y345440D01*
X282312Y342477D01*
X283456Y339716D01*
X285275Y337345D01*
X287646Y335526D01*
X290407Y334382D01*
X293370Y333992D01*
X296333Y334382D01*
X299094Y335526D01*
X301465Y337345D01*
X303284Y339716D01*
X304428Y342477D01*
X304818Y345440D01*
X304428Y348403D01*
X303284Y351164D01*
X301465Y353535D01*
X299094Y355354D01*
X296333Y356498D01*
X293370Y356888D01*
D02*
G37*
%LPD*%
D15*
X138430Y229870D02*
X152400D01*
X115785Y207225D02*
X138430Y229870D01*
X51590Y207225D02*
X115785D01*
X196850Y140310D02*
X197460Y139700D01*
X196850Y140310D02*
Y167030D01*
X159412Y204468D02*
X196850Y167030D01*
X51590Y262445D02*
X106235D01*
X163005D02*
X247650Y177800D01*
X330200D01*
X106235Y262445D02*
X163005D01*
X79990Y248640D02*
X156490D01*
X245720Y159410D01*
X303530D01*
X220980Y229870D02*
X303530D01*
X128270Y398780D02*
X179070Y449580D01*
X51590Y290055D02*
X91935D01*
X181610Y379730D01*
X236220D01*
X65330Y497130D02*
X79990D01*
X66910Y482600D02*
X79990Y469520D01*
X66185Y455715D02*
X79990Y469520D01*
X51590Y455715D02*
X66185D01*
X50800Y482600D02*
X51590D01*
X66910D01*
X50800D02*
X65330Y497130D01*
X51590Y455715D02*
Y482600D01*
Y483325D01*
Y400495D02*
X65395Y386690D01*
X79990D01*
Y414300D01*
X51590Y400495D02*
Y427990D01*
Y428105D01*
X433070Y402590D02*
X487680D01*
X502920Y417830D01*
X553720D01*
Y240030D02*
X579120D01*
Y265430D01*
X566420Y328930D02*
X579120Y316230D01*
X552450Y368300D02*
X553720Y367030D01*
X466090Y368300D02*
X552450D01*
X447040Y158750D02*
X499110Y210820D01*
X330200Y158750D02*
X447040D01*
X152400Y161950D02*
X214020Y100330D01*
X238760D01*
X125730Y193040D02*
X152400Y166370D01*
Y161950D02*
Y166370D01*
X79990Y359080D02*
X149530D01*
X51590Y372885D02*
X148095D01*
X193040Y417830D01*
X298450D01*
X314960Y449580D02*
X320040Y454660D01*
X298450Y486410D02*
X298840Y486800D01*
X298450Y486410D02*
X314960D01*
X320040Y454660D02*
Y481330D01*
X314960Y486410D02*
X320040Y481330D01*
X455930Y328930D02*
X566420D01*
X384810Y438150D02*
X422910D01*
X351790Y471170D02*
X384810Y438150D01*
X454660Y257810D02*
X455930Y256540D01*
X411480Y257810D02*
X454660D01*
X405130Y264160D02*
X411480Y257810D01*
X607060Y303530D02*
X613410Y309880D01*
Y377190D01*
X598170Y392430D02*
X613410Y377190D01*
X579120Y392430D02*
X598170D01*
X252730Y273050D02*
X283210Y303530D01*
X607060D01*
X405130Y264160D02*
Y271780D01*
X365760Y246380D02*
X382270D01*
X402590Y226060D01*
X433070D01*
X121920Y298450D02*
X152400D01*
X220980Y229870D01*
X226060Y248920D02*
X303530D01*
X163830Y311150D02*
X226060Y248920D01*
X50800Y427990D02*
X51590D01*
X179070Y449580D02*
X314960D01*
X173990Y467360D02*
X299720D01*
X238760Y436880D02*
X347980D01*
X455930Y328930D01*
X149530Y359080D02*
X189890Y399440D01*
X298840D01*
X26555Y428105D02*
X51590D01*
X19050Y435610D02*
X26555Y428105D01*
X19050Y435610D02*
Y492760D01*
X59690Y533400D01*
X309880Y557530D02*
X402590Y464820D01*
X485140D01*
X504190Y445770D01*
X59690Y533400D02*
X85090D01*
X109220Y557530D01*
X309880D01*
X152400Y487020D02*
Y533400D01*
X160020Y541020D01*
X300990D01*
X351790Y490220D01*
Y471170D02*
Y490220D01*
X198120Y509270D02*
X280060D01*
X269240Y368300D02*
X279400Y378460D01*
X269240Y317500D02*
Y368300D01*
X243840Y292100D02*
X269240Y317500D01*
X201930Y292100D02*
X243840D01*
X177800Y316230D02*
X201930Y292100D01*
X177800Y316230D02*
Y349250D01*
X179070Y350520D01*
X197460Y139700D02*
X237490D01*
X240030Y137160D01*
X283870D01*
X151890Y486410D02*
X152400Y486920D01*
Y487020D01*
X139040Y386080D02*
X152400Y399440D01*
X104140Y386080D02*
X139040D01*
X143510Y486410D02*
X151890D01*
X79990Y441910D02*
Y497130D01*
X51590Y427990D02*
X66301D01*
X79990Y414300D01*
X51590Y455715D02*
X65395Y441910D01*
X79990D01*
X96520Y439420D02*
X143510Y486410D01*
X96520Y393700D02*
X104140Y386080D01*
X96520Y393700D02*
Y439420D01*
X113030Y421640D02*
X128270D01*
X173990Y467360D01*
X241300Y209550D02*
X270510D01*
X279400Y218440D01*
X342900D01*
X356870Y204470D01*
X458470D01*
X532130Y278130D01*
X566420D01*
X579120Y290830D01*
D17*
X553720Y417830D02*
D03*
D18*
X579120D02*
D03*
X553720Y392430D02*
D03*
X579120D02*
D03*
X553720Y367030D02*
D03*
X579120D02*
D03*
X553720Y341630D02*
D03*
X579120D02*
D03*
X553720Y316230D02*
D03*
X579120D02*
D03*
X553720Y290830D02*
D03*
X579120D02*
D03*
X553720Y265430D02*
D03*
X579120D02*
D03*
X553720Y240030D02*
D03*
X579120D02*
D03*
D19*
X79990Y497130D02*
D03*
X51590Y483325D02*
D03*
X79990Y469520D02*
D03*
X51590Y455715D02*
D03*
X79990Y441910D02*
D03*
X51590Y428105D02*
D03*
X79990Y414300D02*
D03*
X51590Y400495D02*
D03*
X79990Y386690D02*
D03*
X51590Y372885D02*
D03*
X79990Y359080D02*
D03*
X51590Y345275D02*
D03*
X79990Y331470D02*
D03*
X51590Y317665D02*
D03*
X79990Y303860D02*
D03*
X51590Y290055D02*
D03*
X79990Y276250D02*
D03*
X51590Y262445D02*
D03*
X79990Y248640D02*
D03*
X51590Y234835D02*
D03*
X79990Y221030D02*
D03*
X51590Y207225D02*
D03*
X79990Y193420D02*
D03*
X51590Y179615D02*
D03*
D20*
X79990Y165810D02*
D03*
D21*
X65790Y96210D02*
D03*
Y566730D02*
D03*
D22*
X220000Y330000D02*
D03*
D23*
X326390Y333400D02*
D03*
X321920Y204470D02*
D03*
X330200Y178410D02*
D03*
X303530Y159410D02*
D03*
X121920Y298450D02*
D03*
X303530Y230530D02*
D03*
X163830Y311150D02*
D03*
X303530Y249530D02*
D03*
X152400Y230530D02*
D03*
X298840Y418440D02*
D03*
X128270Y398780D02*
D03*
X236220Y379730D02*
D03*
X241300Y209550D02*
D03*
X252730Y273050D02*
D03*
X433070Y402590D02*
D03*
X466090Y368300D02*
D03*
X365760Y246380D02*
D03*
X433070Y226060D02*
D03*
X499110Y210820D02*
D03*
X330200Y158750D02*
D03*
X152400Y161950D02*
D03*
X238760Y100330D02*
D03*
X125730Y193040D02*
D03*
X323850Y399440D02*
D03*
X152400D02*
D03*
Y487020D02*
D03*
X351790Y471170D02*
D03*
X422910Y438150D02*
D03*
X159412Y204468D02*
D03*
X455930Y256540D02*
D03*
X405130Y271780D02*
D03*
X504190Y445770D02*
D03*
X293370Y345440D02*
D03*
X298840Y468020D02*
D03*
Y486800D02*
D03*
Y399440D02*
D03*
X238760Y436880D02*
D03*
X279400Y378460D02*
D03*
X443230Y420370D02*
D03*
X198120Y509270D02*
D03*
X280060D02*
D03*
X179070Y350520D02*
D03*
X197460Y139700D02*
D03*
X283870Y137160D02*
D03*
X120650Y443230D02*
D03*
X113030Y421640D02*
D03*
M02*
