M48
;Layer_Color=9474304
;FILE_FORMAT=4:4
METRIC,LZ
;TYPE=PLATED
T1F00S00C0.7112
T2F00S00C0.7620
T3F00S00C0.9000
T4F00S00C1.0900
T5F00S00C3.2600
%
T01
X0049911Y0021082
X0043307Y0022606
X0045593Y0025654
X0040513Y0027178
X0036576Y0024638
X0030353Y0024953
Y0023053
X0032192Y0020447
X003302Y0017841
X003302Y0015875
X0030353Y0015941
X0028387Y0013716
X0023876Y0010033
X0019746Y001397
X001524Y0016195
X00159412Y00204468
X001524Y0023053
X0012573Y0019304
X0012192Y0029845
X0016383Y0031115
X0017907Y0035052
X001524Y0039944
X0012827Y0039878
X0023622Y0037973
X002794Y0037846
X0029884Y0039944
X0032385
X0032639Y003334
X0029337Y0034544
X0025273Y0027305
X002413Y0020955
X0046609Y003683
X0043307Y0040259
X0044323Y0042037
X0042291Y0043815
X0035179Y0047117
X0029884Y0046802
Y004868
X0028006Y0050927
X0019812
X001524Y0048702
X0012065Y0044323
X0011303Y0042164
X0023876Y0043688
X0029884Y0041844
X0050419Y0044577
T02
X0022Y0033
T03
X0055372Y0024003
Y0026543
Y0029083
Y0031623
Y0034163
Y0036703
Y0039243
X0057912
Y0036703
Y0034163
Y0031623
Y0029083
Y0026543
Y0024003
Y0041783
X0055372
T04
X0005159Y00179615
Y00207225
Y00234835
Y00262445
Y00290055
Y00317665
Y00345275
Y00372885
Y00400495
X0007999Y0038669
Y0035908
Y0033147
Y0030386
Y0027625
Y0024864
Y0022103
Y0019342
Y0016581
Y004143
Y0044191
Y0046952
Y0049713
X0005159Y00483325
Y00455715
Y00428105
T05
X0006579Y0009621
Y0056673
M30
