M48
;Layer_Color=9474304
;FILE_FORMAT=4:4
METRIC,TZ
;TYPE=PLATED
T1F00S00C0.7112
T2F00S00C0.7620
T3F00S00C0.9000
T4F00S00C0.9200
T5F00S00C1.0000
T6F00S00C1.0900
T7F00S00C1.1000
T8F00S00C1.2000
T9F00S00C1.7000
T10F00S00C3.1800
%
T01
X3980180Y629920
X3914140Y523240
X3690620Y436880
X3589020Y546100
X3616960Y708660
X3538220Y673100
X3510280Y546100
X3464560Y561340
X3444240Y538480
X3540760Y436880
X2258060Y447040
X2146300Y449580
X2286000Y558800
X2247900Y675640
X2365862Y662404
X2047240Y703580
X2005690Y754860
X1955800Y711200
X1915160Y480060
X2067560Y1066800
X2227580Y977900
X2278380Y942340
X2298700Y909320
X2326640Y1109980
X2420620Y1173480
X2433320Y1056640
X2435860Y1010920
X2499360Y1028700
X2489200Y1089660
X2514600Y1125220
X2585720Y922020
X2382520Y942340
X2430780Y830580
X3058266Y1180818
X3131820Y1168400
X3335020Y1104900
X3335020Y1074420
X3459480Y939800
X3268980Y871220
X3637280Y911860
X3914140Y896620
X3947160Y1203960
X3919220Y1432560
X3647440Y1435100
X3655060Y1501140
X3649980Y1282700
X3609340Y1285240
X3426460Y1282700
X3434080Y1336040
X3441700Y1417320
X3446780Y1455420
X3401060Y1437640
X3327400Y1437640
X3375660Y1485900
X3205480Y1516380
X3177540Y1445260
X3175000Y1402080
X3200400Y1303020
X3208020Y1277620
X3202940Y1244600
X3202940Y1203960
X3271520Y1257300
X3362960Y1287780
X3157220Y1376680
X3131820Y1447800
X3012440Y1473200
X3004820Y1315720
X3060700Y1315720
X3076755Y1233625
X2877820Y1287780
X2870200Y1315720
X2834640Y1460500
X2553025Y1501140
X2506980Y1457960
X2506980Y1432560
X2506980Y1407160
X2494280Y1336040
X2537460Y1325880
X2504440Y1290320
X2504440Y1264920
X2501900Y1221740
X2420620Y1315720
X2420620Y1348740
X2420620Y1381760
X2420620Y1455420
X2400300Y1551940
X2396342Y1576804
X2656840Y1275080
X2329180Y1234440
X2237740Y1201420
X2214880Y1328420
X2118360Y1277620
X2118360Y1424940
X2077720Y1455420
X2129536Y1577594
X2270760Y1501140
X1958340Y1920240
X1601830Y1697200
X2042160Y1651000
X2143760Y1620520
X2194560Y1623060
X2189480Y1592580
X2197100Y1673860
X2194560Y1709420
X2275840Y1689100
X2329180Y1645920
X2359660Y1882140
X2192020Y1826260
X2065020Y1887220
X1991360Y1851660
X2006600Y1816100
X2390140Y1859280
X2402840Y1905000
X2430780Y1932940
X2471420Y1958340
X2527300Y1800860
X2392680Y1752600
X2392680Y1694180
X2392680Y1645920
X2395220Y1610360
X2492608Y1629890
X2852420Y1623060
X3048000Y1640840
X3152140Y1805940
X3304540Y1805940
X3373120Y1871980
X3462020Y1658620
X3238500Y1661160
X3180080Y1635760
X3870960Y1793240
X3911600Y1910080
X4028440Y1874520
X4027780Y1778730
X3849730Y2014700
X2640690Y2019780
X2462890Y2009620
T02
X4057020Y355600
X3728720Y403860
X3703320Y632460
X3728720Y777240
X3931920Y632460
X3474720Y632460
X3500120Y777240
X3271520Y777240
X3500120Y403860
X2123440Y416560
X2098040Y645160
X2123440Y789940
X2326640Y645160
X1869440Y645160
X1894840Y789940
X1666240Y789940
X1666240Y416560
X1894840Y416560
X1869440Y1018540
X1894840Y1163320
X1666240Y1163320
X2123440Y1163320
X2098040Y1018540
X2326640Y1018540
X3271520Y1150620
X3500120Y1150620
X3474720Y1005840
X3703320Y1005840
X3728720Y1150620
X3931920Y1005840
X3931920Y1379220
X3703320Y1379220
X3728720Y1536700
X3500120Y1536700
X3474720Y1379220
X3271520Y1536700
X3032020Y1225600
X2712720Y1536700
X2484120Y1536700
X2326640Y1391920
X2098040Y1391920
X2123440Y1536700
X1894840Y1536700
X1869440Y1391920
X1666240Y1536700
X1869440Y1765300
X1846580Y1955960
X2098040Y1765300
X2326640Y1765300
X2687320Y1765300
X2915920Y1765300
X3144520Y1765300
X3474720Y1765300
X3703320Y1765300
X3931920Y1765300
X4056380Y2042160
X1846580Y2017960
X1796580Y1987960
X1559560Y2042160
T03
X3931920Y403860
X3906520Y403860
X3881120Y403860
X3855720Y403860
X3830320Y403860
X3804920Y403860
X3779520Y403860
X3754120Y403860
X3728720Y403860
X3703320Y403860
X3677920Y403860
X3652520Y403860
X3627120Y403860
X3601720Y403860
X3576320Y403860
X3576320Y632460
X3601720Y632460
X3627120Y632460
X3652520Y632460
X3677920Y632460
X3703320Y632460
X3728720Y632460
X3754120Y632460
X3779520Y632460
X3804920Y632460
X3830320Y632460
X3855720Y632460
X3881120Y632460
X3906520Y632460
X3931920Y632460
X3931920Y777240
X3906520Y777240
X3881120Y777240
X3855720Y777240
X3830320Y777240
X3804920Y777240
X3779520Y777240
X3754120Y777240
X3728720Y777240
X3703320Y777240
X3677920Y777240
X3652520Y777240
X3627120Y777240
X3601720Y777240
X3576320Y777240
X3550920Y777240
X3525520Y777240
X3500120Y777240
X3474720Y777240
X3449320Y777240
X3423920Y777240
X3398520Y777240
X3373120Y777240
X3347720Y777240
X3322320Y777240
X3296920Y777240
X3271520Y777240
X3271520Y632460
X3296920Y632460
X3322320Y632460
X3347720Y632460
X3373120Y632460
X3398520Y632460
X3423920Y632460
X3449320Y632460
X3474720Y632460
X3500120Y632460
X3525520Y632460
X3550920Y632460
X3550920Y403860
X3525520Y403860
X3500120Y403860
X3474720Y403860
X3449320Y403860
X3423920Y403860
X3398520Y403860
X3373120Y403860
X3347720Y403860
X3322320Y403860
X3296920Y403860
X3271520Y403860
X3211936Y459966
X3211936Y523466
X2418948Y522958
X2418948Y449298
X2418948Y596618
X2326640Y645160
X2301240Y645160
X2275840Y645160
X2250440Y645160
X2225040Y645160
X2199640Y645160
X2174240Y645160
X2148840Y645160
X2123440Y645160
X2098040Y645160
X2072640Y645160
X2047240Y645160
X2021840Y645160
X1996440Y645160
X1996440Y789940
X2021840Y789940
X2047240Y789940
X2072640Y789940
X2098040Y789940
X2123440Y789940
X2148840Y789940
X2174240Y789940
X2199640Y789940
X2225040Y789940
X2250440Y789940
X2275840Y789940
X2301240Y789940
X2326640Y789940
X2326640Y416560
X2301240Y416560
X2275840Y416560
X2250440Y416560
X2225040Y416560
X2199640Y416560
X2174240Y416560
X2148840Y416560
X2123440Y416560
X2098040Y416560
X2072640Y416560
X2047240Y416560
X2021840Y416560
X1996440Y416560
X1971040Y416560
X1945640Y416560
X1920240Y416560
X1894840Y416560
X1869440Y416560
X1844040Y416560
X1818640Y416560
X1793240Y416560
X1767840Y416560
X1742440Y416560
X1717040Y416560
X1691640Y416560
X1666240Y416560
X1666240Y645160
X1691640Y645160
X1717040Y645160
X1742440Y645160
X1767840Y645160
X1793240Y645160
X1818640Y645160
X1844040Y645160
X1869440Y645160
X1894840Y645160
X1920240Y645160
X1945640Y645160
X1971040Y645160
X1971040Y789940
X1945640Y789940
X1920240Y789940
X1894840Y789940
X1869440Y789940
X1844040Y789940
X1818640Y789940
X1793240Y789940
X1767840Y789940
X1742440Y789940
X1717040Y789940
X1691640Y789940
X1666240Y789940
X1666240Y1018540
X1691640Y1018540
X1717040Y1018540
X1742440Y1018540
X1767840Y1018540
X1793240Y1018540
X1818640Y1018540
X1844040Y1018540
X1869440Y1018540
X1894840Y1018540
X1920240Y1018540
X1945640Y1018540
X1971040Y1018540
X1971040Y1163320
X1945640Y1163320
X1920240Y1163320
X1894840Y1163320
X1869440Y1163320
X1844040Y1163320
X1818640Y1163320
X1793240Y1163320
X1767840Y1163320
X1742440Y1163320
X1717040Y1163320
X1691640Y1163320
X1666240Y1163320
X1996440Y1163320
X2021840Y1163320
X2047240Y1163320
X2072640Y1163320
X2098040Y1163320
X2123440Y1163320
X2148840Y1163320
X2174240Y1163320
X2199640Y1163320
X2225040Y1163320
X2250440Y1163320
X2275840Y1163320
X2301240Y1163320
X2326640Y1163320
X2326640Y1018540
X2301240Y1018540
X2275840Y1018540
X2250440Y1018540
X2225040Y1018540
X2199640Y1018540
X2174240Y1018540
X2148840Y1018540
X2123440Y1018540
X2098040Y1018540
X2072640Y1018540
X2047240Y1018540
X2021840Y1018540
X1996440Y1018540
X3271520Y1005840
X3296920Y1005840
X3322320Y1005840
X3347720Y1005840
X3373120Y1005840
X3398520Y1005840
X3423920Y1005840
X3449320Y1005840
X3474720Y1005840
X3500120Y1005840
X3525520Y1005840
X3550920Y1005840
X3550920Y1150620
X3525520Y1150620
X3500120Y1150620
X3474720Y1150620
X3449320Y1150620
X3423920Y1150620
X3398520Y1150620
X3373120Y1150620
X3347720Y1150620
X3322320Y1150620
X3296920Y1150620
X3271520Y1150620
X3576320Y1150620
X3601720Y1150620
X3627120Y1150620
X3652520Y1150620
X3677920Y1150620
X3703320Y1150620
X3728720Y1150620
X3754120Y1150620
X3779520Y1150620
X3804920Y1150620
X3830320Y1150620
X3855720Y1150620
X3881120Y1150620
X3906520Y1150620
X3931920Y1150620
X3931920Y1005840
X3906520Y1005840
X3881120Y1005840
X3855720Y1005840
X3830320Y1005840
X3804920Y1005840
X3779520Y1005840
X3754120Y1005840
X3728720Y1005840
X3703320Y1005840
X3677920Y1005840
X3652520Y1005840
X3627120Y1005840
X3601720Y1005840
X3576320Y1005840
X3576320Y1379220
X3601720Y1379220
X3627120Y1379220
X3652520Y1379220
X3677920Y1379220
X3703320Y1379220
X3728720Y1379220
X3754120Y1379220
X3779520Y1379220
X3804920Y1379220
X3830320Y1379220
X3855720Y1379220
X3881120Y1379220
X3906520Y1379220
X3931920Y1379220
X3931920Y1536700
X3906520Y1536700
X3881120Y1536700
X3855720Y1536700
X3830320Y1536700
X3804920Y1536700
X3779520Y1536700
X3754120Y1536700
X3728720Y1536700
X3703320Y1536700
X3677920Y1536700
X3652520Y1536700
X3627120Y1536700
X3601720Y1536700
X3576320Y1536700
X3550920Y1536700
X3525520Y1536700
X3500120Y1536700
X3474720Y1536700
X3449320Y1536700
X3423920Y1536700
X3398520Y1536700
X3373120Y1536700
X3347720Y1536700
X3322320Y1536700
X3296920Y1536700
X3271520Y1536700
X3271520Y1379220
X3296920Y1379220
X3322320Y1379220
X3347720Y1379220
X3373120Y1379220
X3398520Y1379220
X3423920Y1379220
X3449320Y1379220
X3474720Y1379220
X3500120Y1379220
X3525520Y1379220
X3550920Y1379220
X3007360Y1381760
X3007360Y1407160
X2981960Y1407160
X2981960Y1381760
X2956560Y1381760
X2956560Y1407160
X2931160Y1407160
X2931160Y1381760
X2905760Y1381760
X2905760Y1407160
X2880360Y1407160
X2880360Y1381760
X2854960Y1381760
X2854960Y1407160
X2829560Y1407160
X2829560Y1381760
X2804160Y1381760
X2804160Y1407160
X2778760Y1407160
X2778760Y1381760
X2783840Y1325880
X2809240Y1325880
X2809240Y1300480
X2783840Y1300480
X2788920Y1536700
X2814320Y1536700
X2839720Y1536700
X2865120Y1536700
X2890520Y1536700
X2915920Y1536700
X2941320Y1536700
X2966720Y1536700
X2992120Y1536700
X3017520Y1536700
X3042920Y1536700
X3068320Y1536700
X3093720Y1536700
X3119120Y1536700
X3144520Y1536700
X2763520Y1536700
X2738120Y1536700
X2712720Y1536700
X2687320Y1536700
X2661920Y1536700
X2636520Y1536700
X2611120Y1536700
X2585720Y1536700
X2560320Y1536700
X2534920Y1536700
X2509520Y1536700
X2484120Y1536700
X2600960Y1407160
X2626360Y1407160
X2651760Y1407160
X2677160Y1407160
X2702560Y1407160
X2727960Y1407160
X2753360Y1407160
X2753360Y1381760
X2727960Y1381760
X2702560Y1381760
X2677160Y1381760
X2651760Y1381760
X2626360Y1381760
X2600960Y1381760
X2758440Y1325880
X2758440Y1300480
X2326640Y1391920
X2301240Y1391920
X2275840Y1391920
X2250440Y1391920
X2225040Y1391920
X2199640Y1391920
X2174240Y1391920
X2148840Y1391920
X2123440Y1391920
X2098040Y1391920
X2072640Y1391920
X2047240Y1391920
X2021840Y1391920
X1996440Y1391920
X1996440Y1536700
X2021840Y1536700
X2047240Y1536700
X2072640Y1536700
X2098040Y1536700
X2123440Y1536700
X2148840Y1536700
X2174240Y1536700
X2199640Y1536700
X2225040Y1536700
X2250440Y1536700
X2275840Y1536700
X2301240Y1536700
X2326640Y1536700
X1971040Y1536700
X1945640Y1536700
X1920240Y1536700
X1894840Y1536700
X1869440Y1536700
X1844040Y1536700
X1818640Y1536700
X1793240Y1536700
X1767840Y1536700
X1742440Y1536700
X1717040Y1536700
X1691640Y1536700
X1666240Y1536700
X1666240Y1391920
X1691640Y1391920
X1717040Y1391920
X1742440Y1391920
X1767840Y1391920
X1793240Y1391920
X1818640Y1391920
X1844040Y1391920
X1869440Y1391920
X1894840Y1391920
X1920240Y1391920
X1945640Y1391920
X1971040Y1391920
X1971040Y1765300
X1945640Y1765300
X1920240Y1765300
X1894840Y1765300
X1869440Y1765300
X1844040Y1765300
X1818640Y1765300
X1793240Y1765300
X1767840Y1765300
X1742440Y1765300
X1717040Y1765300
X1691640Y1765300
X1666240Y1765300
X1648460Y1813560
X1648460Y1889760
X1648460Y1915160
X1877060Y1915160
X1877060Y1889760
X1877060Y1838960
X1877060Y1813560
X1996440Y1765300
X2021840Y1765300
X2047240Y1765300
X2072640Y1765300
X2098040Y1765300
X2123440Y1765300
X2148840Y1765300
X2174240Y1765300
X2199640Y1765300
X2225040Y1765300
X2250440Y1765300
X2275840Y1765300
X2301240Y1765300
X2326640Y1765300
X2484120Y1765300
X2509520Y1765300
X2534920Y1765300
X2560320Y1765300
X2585720Y1765300
X2611120Y1765300
X2636520Y1765300
X2661920Y1765300
X2687320Y1765300
X2712720Y1765300
X2738120Y1765300
X2763520Y1765300
X2788920Y1765300
X2814320Y1765300
X2839720Y1765300
X2865120Y1765300
X2890520Y1765300
X2915920Y1765300
X2941320Y1765300
X2966720Y1765300
X2992120Y1765300
X3017520Y1765300
X3042920Y1765300
X3068320Y1765300
X3093720Y1765300
X3119120Y1765300
X3144520Y1765300
X3271520Y1765300
X3296920Y1765300
X3322320Y1765300
X3347720Y1765300
X3373120Y1765300
X3398520Y1765300
X3423920Y1765300
X3449320Y1765300
X3474720Y1765300
X3500120Y1765300
X3525520Y1765300
X3550920Y1765300
X3576320Y1765300
X3601720Y1765300
X3627120Y1765300
X3652520Y1765300
X3677920Y1765300
X3703320Y1765300
X3728720Y1765300
X3754120Y1765300
X3779520Y1765300
X3804920Y1765300
X3830320Y1765300
X3855720Y1765300
X3881120Y1765300
X3906520Y1765300
X3931920Y1765300
T04
X2006800Y1932700
X2006800Y1952700
X2031800Y1952700
X2031800Y1932700
T05
X2547620Y891540
X2547620Y916940
X2547620Y942340
X1859080Y1955960
X1834080Y1955960
X1796580Y1977960
X2075180Y1851260
X2075180Y1801260
X1856580Y2017960
X1836580Y2017960
X1796580Y1997960
T06
X2241480Y1974080
X2269180Y1974080
X2296880Y1974080
X2324580Y1974080
X2352280Y1974080
X2379980Y1974080
X2407680Y1974080
X2435380Y1974080
X2667354Y1974080
X2695053Y1974080
X2722753Y1974080
X2750453Y1974080
X2778154Y1974080
X2805854Y1974080
X2833553Y1974080
X2861253Y1974080
X3093227Y1974080
X3120927Y1974080
X3148627Y1974080
X3176327Y1974080
X3204027Y1974080
X3231727Y1974080
X3259427Y1974080
X3287127Y1974080
X3519100Y1975080
X3546800Y1975080
X3574500Y1975080
X3602200Y1975080
X3629900Y1975080
X3657600Y1975080
X3685300Y1975080
X3713000Y1975080
X3699150Y2003480
X3671450Y2003480
X3643750Y2003480
X3616050Y2003480
X3588350Y2003480
X3560650Y2003480
X3532950Y2003480
X3273277Y2002480
X3245577Y2002480
X3217877Y2002480
X3190177Y2002480
X3162477Y2002480
X3134777Y2002480
X3107077Y2002480
X2847403Y2002480
X2819703Y2002480
X2792003Y2002480
X2764304Y2002480
X2736603Y2002480
X2708904Y2002480
X2681204Y2002480
X2421530Y2002480
X2393830Y2002480
X2366130Y2002480
X2338430Y2002480
X2310730Y2002480
X2283030Y2002480
X2255330Y2002480
T07
X2583180Y1115060
X2583180Y1140460
X2583180Y1165860
X3942080Y1874520
X3967480Y1874520
X3992880Y1874520
T08
X3107034Y1035784
X1959100Y1979800
X1668780Y1964820
X2079500Y1979800
X3948282Y1964820
X3948282Y2009780
X1668780Y2009780
T09
X3081634Y1010384
X3081634Y1061184
X3132434Y1061184
X3132434Y1010384
T10
X3782650Y1989280
X3449450Y1989280
X3356777Y1988280
X3023577Y1988280
X2930904Y1988280
X2597704Y1988280
X2505030Y1988280
X2171830Y1988280
M30
