  0
SECTION
  2
HEADER
  9
$EXTMIN
 10
6.125000
 20
1.385000
  9
$EXTMAX
 10
15.988000
 20
8.055000
  9
$LIMMIN
 10
6.125000
 20
1.385000
  9
$LIMMAX
 10
15.988000
 20
8.055000
  9
$FILLMODE
 70
  1
  0
ENDSEC
  0
SECTION
  2
TABLES
  0
TABLE
  2
LTYPE
 70
  1
  0
LTYPE
  2
CONTINUOUS
 70
 64
  3
Solid line
 72
 65
 73
  0
 40
0.0
  0
ENDTAB
  0
TABLE
  2
LAYER
 70
 1
  0
LAYER
  2
0
 70
  0
 62
7
  6
CONTINUOUS
  0
LAYER
  2
txt
 70
  0
 62
1
  6
CONTINUOUS
  0
ENDTAB
  0
TABLE
  2
STYLE
 70
  1
  0
STYLE
  2
STANDARD
 70
  0
 40
0.0
 41
1.0
 50
0.0
 71
  0
 42
0.2
  3
txt
  4

  0
ENDTAB
  0
ENDSEC
  0
SECTION
  2
BLOCKS
  0
BLOCK
  8
0
  2
D9500
 70
64
 10
0.0
 20
0.0
  3
D9500
  0
CIRCLE
  8
0
 10
0.000000
 20
0.000000
 40
0.014000
 0
ENDBLK
  8
0
  0
BLOCK
  8
0
  2
D9501
 70
64
 10
0.0
 20
0.0
  3
D9501
  0
CIRCLE
  8
0
 10
0.000000
 20
0.000000
 40
0.015000
 0
ENDBLK
  8
0
  0
BLOCK
  8
0
  2
D9502
 70
64
 10
0.0
 20
0.0
  3
D9502
  0
CIRCLE
  8
0
 10
0.000000
 20
0.000000
 40
0.017717
 0
ENDBLK
  8
0
  0
BLOCK
  8
0
  2
D9503
 70
64
 10
0.0
 20
0.0
  3
D9503
  0
CIRCLE
  8
0
 10
0.000000
 20
0.000000
 40
0.018110
 0
ENDBLK
  8
0
  0
BLOCK
  8
0
  2
D9504
 70
64
 10
0.0
 20
0.0
  3
D9504
  0
CIRCLE
  8
0
 10
0.000000
 20
0.000000
 40
0.019685
 0
ENDBLK
  8
0
  0
BLOCK
  8
0
  2
D9505
 70
64
 10
0.0
 20
0.0
  3
D9505
  0
CIRCLE
  8
0
 10
0.000000
 20
0.000000
 40
0.021457
 0
ENDBLK
  8
0
  0
BLOCK
  8
0
  2
D9506
 70
64
 10
0.0
 20
0.0
  3
D9506
  0
CIRCLE
  8
0
 10
0.000000
 20
0.000000
 40
0.023622
 0
ENDBLK
  8
0
  0
BLOCK
  8
0
  2
D9507
 70
64
 10
0.0
 20
0.0
  3
D9507
  0
CIRCLE
  8
0
 10
0.000000
 20
0.000000
 40
0.033465
 0
ENDBLK
  8
0
  0
BLOCK
  8
0
  2
D9508
 70
64
 10
0.0
 20
0.0
  3
D9508
  0
CIRCLE
  8
0
 10
0.000000
 20
0.000000
 40
0.062598
 0
ENDBLK
  8
0
  0
ENDSEC
  0
SECTION
  2
ENTITIES
  0
INSERT
  8
txt
  2
D9500
 10
15.670000
 20
2.480000
 41
1.0
 42
1.0
 43
1.0
 50
0.0
  0
INSERT
  8
txt
  2
D9500
 10
15.410000
 20
2.060000
 41
1.0
 42
1.0
 43
1.0
 50
0.0
  0
INSERT
  8
txt
  2
D9500
 10
14.530000
 20
1.720000
 41
1.0
 42
1.0
 43
1.0
 50
0.0
  0
INSERT
  8
txt
  2
D9500
 10
14.130000
 20
2.150000
 41
1.0
 42
1.0
 43
1.0
 50
0.0
  0
INSERT
  8
txt
  2
D9500
 10
14.240000
 20
2.790000
 41
1.0
 42
1.0
 43
1.0
 50
0.0
  0
INSERT
  8
txt
  2
D9500
 10
13.930000
 20
2.650000
 41
1.0
 42
1.0
 43
1.0
 50
0.0
  0
INSERT
  8
txt
  2
D9500
 10
13.820000
 20
2.150000
 41
1.0
 42
1.0
 43
1.0
 50
0.0
  0
INSERT
  8
txt
  2
D9500
 10
13.640000
 20
2.210000
 41
1.0
 42
1.0
 43
1.0
 50
0.0
  0
INSERT
  8
txt
  2
D9500
 10
13.560000
 20
2.120000
 41
1.0
 42
1.0
 43
1.0
 50
0.0
  0
INSERT
  8
txt
  2
D9500
 10
13.940000
 20
1.720000
 41
1.0
 42
1.0
 43
1.0
 50
0.0
  0
INSERT
  8
txt
  2
D9500
 10
8.890000
 20
1.760000
 41
1.0
 42
1.0
 43
1.0
 50
0.0
  0
INSERT
  8
txt
  2
D9500
 10
8.450000
 20
1.770000
 41
1.0
 42
1.0
 43
1.0
 50
0.0
  0
INSERT
  8
txt
  2
D9500
 10
9.000000
 20
2.200000
 41
1.0
 42
1.0
 43
1.0
 50
0.0
  0
INSERT
  8
txt
  2
D9500
 10
8.850000
 20
2.660000
 41
1.0
 42
1.0
 43
1.0
 50
0.0
  0
INSERT
  8
txt
  2
D9500
 10
9.230000
 20
2.660000
 41
1.0
 42
1.0
 43
1.0
 50
0.0
  0
INSERT
  8
txt
  2
D9500
 10
8.060000
 20
2.770000
 41
1.0
 42
1.0
 43
1.0
 50
0.0
  0
INSERT
  8
txt
  2
D9500
 10
7.896417
 20
2.971890
 41
1.0
 42
1.0
 43
1.0
 50
0.0
  0
INSERT
  8
txt
  2
D9500
 10
7.700000
 20
2.800000
 41
1.0
 42
1.0
 43
1.0
 50
0.0
  0
INSERT
  8
txt
  2
D9500
 10
7.540000
 20
1.890000
 41
1.0
 42
1.0
 43
1.0
 50
0.0
  0
INSERT
  8
txt
  2
D9500
 10
8.140000
 20
4.200000
 41
1.0
 42
1.0
 43
1.0
 50
0.0
  0
INSERT
  8
txt
  2
D9500
 10
8.770000
 20
3.850000
 41
1.0
 42
1.0
 43
1.0
 50
0.0
  0
INSERT
  8
txt
  2
D9500
 10
8.970000
 20
3.710000
 41
1.0
 42
1.0
 43
1.0
 50
0.0
  0
INSERT
  8
txt
  2
D9500
 10
9.050000
 20
3.580000
 41
1.0
 42
1.0
 43
1.0
 50
0.0
  0
INSERT
  8
txt
  2
D9500
 10
9.160000
 20
4.370000
 41
1.0
 42
1.0
 43
1.0
 50
0.0
  0
INSERT
  8
txt
  2
D9500
 10
9.530000
 20
4.620000
 41
1.0
 42
1.0
 43
1.0
 50
0.0
  0
INSERT
  8
txt
  2
D9500
 10
9.580000
 20
4.160000
 41
1.0
 42
1.0
 43
1.0
 50
0.0
  0
INSERT
  8
txt
  2
D9500
 10
9.590000
 20
3.980000
 41
1.0
 42
1.0
 43
1.0
 50
0.0
  0
INSERT
  8
txt
  2
D9500
 10
9.840000
 20
4.050000
 41
1.0
 42
1.0
 43
1.0
 50
0.0
  0
INSERT
  8
txt
  2
D9500
 10
9.800000
 20
4.290000
 41
1.0
 42
1.0
 43
1.0
 50
0.0
  0
INSERT
  8
txt
  2
D9500
 10
9.900000
 20
4.430000
 41
1.0
 42
1.0
 43
1.0
 50
0.0
  0
INSERT
  8
txt
  2
D9500
 10
10.180000
 20
3.630000
 41
1.0
 42
1.0
 43
1.0
 50
0.0
  0
INSERT
  8
txt
  2
D9500
 10
9.380000
 20
3.710000
 41
1.0
 42
1.0
 43
1.0
 50
0.0
  0
INSERT
  8
txt
  2
D9500
 10
9.570000
 20
3.270000
 41
1.0
 42
1.0
 43
1.0
 50
0.0
  0
INSERT
  8
txt
  2
D9500
 10
12.330000
 20
4.600000
 41
1.0
 42
1.0
 43
1.0
 50
0.0
  0
INSERT
  8
txt
  2
D9500
 10
13.130000
 20
4.350000
 41
1.0
 42
1.0
 43
1.0
 50
0.0
  0
INSERT
  8
txt
  2
D9500
 10
13.130000
 20
4.230000
 41
1.0
 42
1.0
 43
1.0
 50
0.0
  0
INSERT
  8
txt
  2
D9500
 10
13.620000
 20
3.700000
 41
1.0
 42
1.0
 43
1.0
 50
0.0
  0
INSERT
  8
txt
  2
D9500
 10
12.870000
 20
3.430000
 41
1.0
 42
1.0
 43
1.0
 50
0.0
  0
INSERT
  8
txt
  2
D9500
 10
14.320000
 20
3.590000
 41
1.0
 42
1.0
 43
1.0
 50
0.0
  0
INSERT
  8
txt
  2
D9500
 10
15.410000
 20
3.530000
 41
1.0
 42
1.0
 43
1.0
 50
0.0
  0
INSERT
  8
txt
  2
D9500
 10
15.540000
 20
4.740000
 41
1.0
 42
1.0
 43
1.0
 50
0.0
  0
INSERT
  8
txt
  2
D9500
 10
15.430000
 20
5.640000
 41
1.0
 42
1.0
 43
1.0
 50
0.0
  0
INSERT
  8
txt
  2
D9500
 10
14.360000
 20
5.650000
 41
1.0
 42
1.0
 43
1.0
 50
0.0
  0
INSERT
  8
txt
  2
D9500
 10
14.390000
 20
5.910000
 41
1.0
 42
1.0
 43
1.0
 50
0.0
  0
INSERT
  8
txt
  2
D9500
 10
14.370000
 20
5.050000
 41
1.0
 42
1.0
 43
1.0
 50
0.0
  0
INSERT
  8
txt
  2
D9500
 10
14.210000
 20
5.060000
 41
1.0
 42
1.0
 43
1.0
 50
0.0
  0
INSERT
  8
txt
  2
D9500
 10
13.490000
 20
5.050000
 41
1.0
 42
1.0
 43
1.0
 50
0.0
  0
INSERT
  8
txt
  2
D9500
 10
13.520000
 20
5.260000
 41
1.0
 42
1.0
 43
1.0
 50
0.0
  0
INSERT
  8
txt
  2
D9500
 10
13.550000
 20
5.580000
 41
1.0
 42
1.0
 43
1.0
 50
0.0
  0
INSERT
  8
txt
  2
D9500
 10
13.570000
 20
5.730000
 41
1.0
 42
1.0
 43
1.0
 50
0.0
  0
INSERT
  8
txt
  2
D9500
 10
13.390000
 20
5.660000
 41
1.0
 42
1.0
 43
1.0
 50
0.0
  0
INSERT
  8
txt
  2
D9500
 10
13.100000
 20
5.660000
 41
1.0
 42
1.0
 43
1.0
 50
0.0
  0
INSERT
  8
txt
  2
D9500
 10
13.290000
 20
5.850000
 41
1.0
 42
1.0
 43
1.0
 50
0.0
  0
INSERT
  8
txt
  2
D9500
 10
12.620000
 20
5.970000
 41
1.0
 42
1.0
 43
1.0
 50
0.0
  0
INSERT
  8
txt
  2
D9500
 10
12.510000
 20
5.690000
 41
1.0
 42
1.0
 43
1.0
 50
0.0
  0
INSERT
  8
txt
  2
D9500
 10
12.500000
 20
5.520000
 41
1.0
 42
1.0
 43
1.0
 50
0.0
  0
INSERT
  8
txt
  2
D9500
 10
12.600000
 20
5.130000
 41
1.0
 42
1.0
 43
1.0
 50
0.0
  0
INSERT
  8
txt
  2
D9500
 10
12.630000
 20
5.030000
 41
1.0
 42
1.0
 43
1.0
 50
0.0
  0
INSERT
  8
txt
  2
D9500
 10
12.610000
 20
4.900000
 41
1.0
 42
1.0
 43
1.0
 50
0.0
  0
INSERT
  8
txt
  2
D9500
 10
12.610000
 20
4.740000
 41
1.0
 42
1.0
 43
1.0
 50
0.0
  0
INSERT
  8
txt
  2
D9500
 10
12.880000
 20
4.950000
 41
1.0
 42
1.0
 43
1.0
 50
0.0
  0
INSERT
  8
txt
  2
D9500
 10
13.240000
 20
5.070000
 41
1.0
 42
1.0
 43
1.0
 50
0.0
  0
INSERT
  8
txt
  2
D9500
 10
12.430000
 20
5.420000
 41
1.0
 42
1.0
 43
1.0
 50
0.0
  0
INSERT
  8
txt
  2
D9500
 10
12.330000
 20
5.700000
 41
1.0
 42
1.0
 43
1.0
 50
0.0
  0
INSERT
  8
txt
  2
D9500
 10
11.860000
 20
5.800000
 41
1.0
 42
1.0
 43
1.0
 50
0.0
  0
INSERT
  8
txt
  2
D9500
 10
11.830000
 20
5.180000
 41
1.0
 42
1.0
 43
1.0
 50
0.0
  0
INSERT
  8
txt
  2
D9500
 10
12.050000
 20
5.180000
 41
1.0
 42
1.0
 43
1.0
 50
0.0
  0
INSERT
  8
txt
  2
D9500
 10
12.113209
 20
4.856791
 41
1.0
 42
1.0
 43
1.0
 50
0.0
  0
INSERT
  8
txt
  2
D9500
 10
12.040000
 20
4.700000
 41
1.0
 42
1.0
 43
1.0
 50
0.0
  0
INSERT
  8
txt
  2
D9500
 10
11.330000
 20
5.070000
 41
1.0
 42
1.0
 43
1.0
 50
0.0
  0
INSERT
  8
txt
  2
D9500
 10
11.300000
 20
5.180000
 41
1.0
 42
1.0
 43
1.0
 50
0.0
  0
INSERT
  8
txt
  2
D9500
 10
11.160000
 20
5.750000
 41
1.0
 42
1.0
 43
1.0
 50
0.0
  0
INSERT
  8
txt
  2
D9500
 10
9.870000
 20
5.740000
 41
1.0
 42
1.0
 43
1.0
 50
0.0
  0
INSERT
  8
txt
  2
D9500
 10
9.870000
 20
5.640000
 41
1.0
 42
1.0
 43
1.0
 50
0.0
  0
INSERT
  8
txt
  2
D9500
 10
9.870000
 20
5.540000
 41
1.0
 42
1.0
 43
1.0
 50
0.0
  0
INSERT
  8
txt
  2
D9500
 10
9.820000
 20
5.260000
 41
1.0
 42
1.0
 43
1.0
 50
0.0
  0
INSERT
  8
txt
  2
D9500
 10
9.990000
 20
5.220000
 41
1.0
 42
1.0
 43
1.0
 50
0.0
  0
INSERT
  8
txt
  2
D9500
 10
9.860000
 20
5.080000
 41
1.0
 42
1.0
 43
1.0
 50
0.0
  0
INSERT
  8
txt
  2
D9500
 10
9.860000
 20
4.980000
 41
1.0
 42
1.0
 43
1.0
 50
0.0
  0
INSERT
  8
txt
  2
D9500
 10
9.850000
 20
4.810000
 41
1.0
 42
1.0
 43
1.0
 50
0.0
  0
INSERT
  8
txt
  2
D9500
 10
9.530000
 20
5.180000
 41
1.0
 42
1.0
 43
1.0
 50
0.0
  0
INSERT
  8
txt
  2
D9500
 10
9.530000
 20
5.310000
 41
1.0
 42
1.0
 43
1.0
 50
0.0
  0
INSERT
  8
txt
  2
D9500
 10
9.530000
 20
5.440000
 41
1.0
 42
1.0
 43
1.0
 50
0.0
  0
INSERT
  8
txt
  2
D9500
 10
9.530000
 20
5.730000
 41
1.0
 42
1.0
 43
1.0
 50
0.0
  0
INSERT
  8
txt
  2
D9500
 10
9.450000
 20
6.110000
 41
1.0
 42
1.0
 43
1.0
 50
0.0
  0
INSERT
  8
txt
  2
D9500
 10
9.434417
 20
6.207890
 41
1.0
 42
1.0
 43
1.0
 50
0.0
  0
INSERT
  8
txt
  2
D9500
 10
9.860000
 20
5.910000
 41
1.0
 42
1.0
 43
1.0
 50
0.0
  0
INSERT
  8
txt
  2
D9500
 10
10.460000
 20
5.020000
 41
1.0
 42
1.0
 43
1.0
 50
0.0
  0
INSERT
  8
txt
  2
D9500
 10
9.170000
 20
4.860000
 41
1.0
 42
1.0
 43
1.0
 50
0.0
  0
INSERT
  8
txt
  2
D9500
 10
8.810000
 20
4.730000
 41
1.0
 42
1.0
 43
1.0
 50
0.0
  0
INSERT
  8
txt
  2
D9500
 10
8.720000
 20
5.230000
 41
1.0
 42
1.0
 43
1.0
 50
0.0
  0
INSERT
  8
txt
  2
D9500
 10
8.340000
 20
5.030000
 41
1.0
 42
1.0
 43
1.0
 50
0.0
  0
INSERT
  8
txt
  2
D9500
 10
8.340000
 20
5.610000
 41
1.0
 42
1.0
 43
1.0
 50
0.0
  0
INSERT
  8
txt
  2
D9500
 10
8.180000
 20
5.730000
 41
1.0
 42
1.0
 43
1.0
 50
0.0
  0
INSERT
  8
txt
  2
D9500
 10
8.384000
 20
6.211000
 41
1.0
 42
1.0
 43
1.0
 50
0.0
  0
INSERT
  8
txt
  2
D9500
 10
8.940000
 20
5.910000
 41
1.0
 42
1.0
 43
1.0
 50
0.0
  0
INSERT
  8
txt
  2
D9500
 10
7.710000
 20
7.560000
 41
1.0
 42
1.0
 43
1.0
 50
0.0
  0
INSERT
  8
txt
  2
D9500
 10
6.306417
 20
6.681890
 41
1.0
 42
1.0
 43
1.0
 50
0.0
  0
INSERT
  8
txt
  2
D9500
 10
8.040000
 20
6.500000
 41
1.0
 42
1.0
 43
1.0
 50
0.0
  0
INSERT
  8
txt
  2
D9500
 10
8.440000
 20
6.380000
 41
1.0
 42
1.0
 43
1.0
 50
0.0
  0
INSERT
  8
txt
  2
D9500
 10
8.640000
 20
6.390000
 41
1.0
 42
1.0
 43
1.0
 50
0.0
  0
INSERT
  8
txt
  2
D9500
 10
8.620000
 20
6.270000
 41
1.0
 42
1.0
 43
1.0
 50
0.0
  0
INSERT
  8
txt
  2
D9500
 10
8.650000
 20
6.590000
 41
1.0
 42
1.0
 43
1.0
 50
0.0
  0
INSERT
  8
txt
  2
D9500
 10
8.640000
 20
6.730000
 41
1.0
 42
1.0
 43
1.0
 50
0.0
  0
INSERT
  8
txt
  2
D9500
 10
8.960000
 20
6.650000
 41
1.0
 42
1.0
 43
1.0
 50
0.0
  0
INSERT
  8
txt
  2
D9500
 10
9.170000
 20
6.480000
 41
1.0
 42
1.0
 43
1.0
 50
0.0
  0
INSERT
  8
txt
  2
D9500
 10
9.290000
 20
7.410000
 41
1.0
 42
1.0
 43
1.0
 50
0.0
  0
INSERT
  8
txt
  2
D9500
 10
8.630000
 20
7.190000
 41
1.0
 42
1.0
 43
1.0
 50
0.0
  0
INSERT
  8
txt
  2
D9500
 10
8.130000
 20
7.430000
 41
1.0
 42
1.0
 43
1.0
 50
0.0
  0
INSERT
  8
txt
  2
D9500
 10
7.840000
 20
7.290000
 41
1.0
 42
1.0
 43
1.0
 50
0.0
  0
INSERT
  8
txt
  2
D9500
 10
7.900000
 20
7.150000
 41
1.0
 42
1.0
 43
1.0
 50
0.0
  0
INSERT
  8
txt
  2
D9500
 10
9.410000
 20
7.320000
 41
1.0
 42
1.0
 43
1.0
 50
0.0
  0
INSERT
  8
txt
  2
D9500
 10
9.460000
 20
7.500000
 41
1.0
 42
1.0
 43
1.0
 50
0.0
  0
INSERT
  8
txt
  2
D9500
 10
9.570000
 20
7.610000
 41
1.0
 42
1.0
 43
1.0
 50
0.0
  0
INSERT
  8
txt
  2
D9500
 10
9.730000
 20
7.710000
 41
1.0
 42
1.0
 43
1.0
 50
0.0
  0
INSERT
  8
txt
  2
D9500
 10
9.950000
 20
7.090000
 41
1.0
 42
1.0
 43
1.0
 50
0.0
  0
INSERT
  8
txt
  2
D9500
 10
9.420000
 20
6.900000
 41
1.0
 42
1.0
 43
1.0
 50
0.0
  0
INSERT
  8
txt
  2
D9500
 10
9.420000
 20
6.670000
 41
1.0
 42
1.0
 43
1.0
 50
0.0
  0
INSERT
  8
txt
  2
D9500
 10
9.420000
 20
6.480000
 41
1.0
 42
1.0
 43
1.0
 50
0.0
  0
INSERT
  8
txt
  2
D9500
 10
9.430000
 20
6.340000
 41
1.0
 42
1.0
 43
1.0
 50
0.0
  0
INSERT
  8
txt
  2
D9500
 10
9.813417
 20
6.416890
 41
1.0
 42
1.0
 43
1.0
 50
0.0
  0
INSERT
  8
txt
  2
D9500
 10
11.230000
 20
6.390000
 41
1.0
 42
1.0
 43
1.0
 50
0.0
  0
INSERT
  8
txt
  2
D9500
 10
12.000000
 20
6.460000
 41
1.0
 42
1.0
 43
1.0
 50
0.0
  0
INSERT
  8
txt
  2
D9500
 10
12.410000
 20
7.110000
 41
1.0
 42
1.0
 43
1.0
 50
0.0
  0
INSERT
  8
txt
  2
D9500
 10
13.010000
 20
7.110000
 41
1.0
 42
1.0
 43
1.0
 50
0.0
  0
INSERT
  8
txt
  2
D9500
 10
13.280000
 20
7.370000
 41
1.0
 42
1.0
 43
1.0
 50
0.0
  0
INSERT
  8
txt
  2
D9500
 10
13.630000
 20
6.530000
 41
1.0
 42
1.0
 43
1.0
 50
0.0
  0
INSERT
  8
txt
  2
D9500
 10
12.750000
 20
6.540000
 41
1.0
 42
1.0
 43
1.0
 50
0.0
  0
INSERT
  8
txt
  2
D9500
 10
12.520000
 20
6.440000
 41
1.0
 42
1.0
 43
1.0
 50
0.0
  0
INSERT
  8
txt
  2
D9500
 10
15.240000
 20
7.060000
 41
1.0
 42
1.0
 43
1.0
 50
0.0
  0
INSERT
  8
txt
  2
D9500
 10
15.400000
 20
7.520000
 41
1.0
 42
1.0
 43
1.0
 50
0.0
  0
INSERT
  8
txt
  2
D9500
 10
15.860000
 20
7.380000
 41
1.0
 42
1.0
 43
1.0
 50
0.0
  0
INSERT
  8
txt
  2
D9500
 10
15.857402
 20
7.002874
 41
1.0
 42
1.0
 43
1.0
 50
0.0
  0
INSERT
  8
txt
  2
D9500
 10
15.156417
 20
7.931890
 41
1.0
 42
1.0
 43
1.0
 50
0.0
  0
INSERT
  8
txt
  2
D9500
 10
10.396417
 20
7.951890
 41
1.0
 42
1.0
 43
1.0
 50
0.0
  0
INSERT
  8
txt
  2
D9500
 10
9.696417
 20
7.911890
 41
1.0
 42
1.0
 43
1.0
 50
0.0
  0
INSERT
  8
txt
  2
D9501
 10
15.972520
 20
1.400000
 41
1.0
 42
1.0
 43
1.0
 50
0.0
  0
INSERT
  8
txt
  2
D9501
 10
14.680000
 20
1.590000
 41
1.0
 42
1.0
 43
1.0
 50
0.0
  0
INSERT
  8
txt
  2
D9501
 10
14.580000
 20
2.490000
 41
1.0
 42
1.0
 43
1.0
 50
0.0
  0
INSERT
  8
txt
  2
D9501
 10
14.680000
 20
3.060000
 41
1.0
 42
1.0
 43
1.0
 50
0.0
  0
INSERT
  8
txt
  2
D9501
 10
15.480000
 20
2.490000
 41
1.0
 42
1.0
 43
1.0
 50
0.0
  0
INSERT
  8
txt
  2
D9501
 10
13.680000
 20
2.490000
 41
1.0
 42
1.0
 43
1.0
 50
0.0
  0
INSERT
  8
txt
  2
D9501
 10
13.780000
 20
3.060000
 41
1.0
 42
1.0
 43
1.0
 50
0.0
  0
INSERT
  8
txt
  2
D9501
 10
12.880000
 20
3.060000
 41
1.0
 42
1.0
 43
1.0
 50
0.0
  0
INSERT
  8
txt
  2
D9501
 10
13.780000
 20
1.590000
 41
1.0
 42
1.0
 43
1.0
 50
0.0
  0
INSERT
  8
txt
  2
D9501
 10
8.360000
 20
1.640000
 41
1.0
 42
1.0
 43
1.0
 50
0.0
  0
INSERT
  8
txt
  2
D9501
 10
8.260000
 20
2.540000
 41
1.0
 42
1.0
 43
1.0
 50
0.0
  0
INSERT
  8
txt
  2
D9501
 10
8.360000
 20
3.110000
 41
1.0
 42
1.0
 43
1.0
 50
0.0
  0
INSERT
  8
txt
  2
D9501
 10
9.160000
 20
2.540000
 41
1.0
 42
1.0
 43
1.0
 50
0.0
  0
INSERT
  8
txt
  2
D9501
 10
7.360000
 20
2.540000
 41
1.0
 42
1.0
 43
1.0
 50
0.0
  0
INSERT
  8
txt
  2
D9501
 10
7.460000
 20
3.110000
 41
1.0
 42
1.0
 43
1.0
 50
0.0
  0
INSERT
  8
txt
  2
D9501
 10
6.560000
 20
3.110000
 41
1.0
 42
1.0
 43
1.0
 50
0.0
  0
INSERT
  8
txt
  2
D9501
 10
6.560000
 20
1.640000
 41
1.0
 42
1.0
 43
1.0
 50
0.0
  0
INSERT
  8
txt
  2
D9501
 10
7.460000
 20
1.640000
 41
1.0
 42
1.0
 43
1.0
 50
0.0
  0
INSERT
  8
txt
  2
D9501
 10
7.360000
 20
4.010000
 41
1.0
 42
1.0
 43
1.0
 50
0.0
  0
INSERT
  8
txt
  2
D9501
 10
7.460000
 20
4.580000
 41
1.0
 42
1.0
 43
1.0
 50
0.0
  0
INSERT
  8
txt
  2
D9501
 10
6.560000
 20
4.580000
 41
1.0
 42
1.0
 43
1.0
 50
0.0
  0
INSERT
  8
txt
  2
D9501
 10
8.360000
 20
4.580000
 41
1.0
 42
1.0
 43
1.0
 50
0.0
  0
INSERT
  8
txt
  2
D9501
 10
8.260000
 20
4.010000
 41
1.0
 42
1.0
 43
1.0
 50
0.0
  0
INSERT
  8
txt
  2
D9501
 10
9.160000
 20
4.010000
 41
1.0
 42
1.0
 43
1.0
 50
0.0
  0
INSERT
  8
txt
  2
D9501
 10
12.880000
 20
4.530000
 41
1.0
 42
1.0
 43
1.0
 50
0.0
  0
INSERT
  8
txt
  2
D9501
 10
13.780000
 20
4.530000
 41
1.0
 42
1.0
 43
1.0
 50
0.0
  0
INSERT
  8
txt
  2
D9501
 10
13.680000
 20
3.960000
 41
1.0
 42
1.0
 43
1.0
 50
0.0
  0
INSERT
  8
txt
  2
D9501
 10
14.580000
 20
3.960000
 41
1.0
 42
1.0
 43
1.0
 50
0.0
  0
INSERT
  8
txt
  2
D9501
 10
14.680000
 20
4.530000
 41
1.0
 42
1.0
 43
1.0
 50
0.0
  0
INSERT
  8
txt
  2
D9501
 10
15.480000
 20
3.960000
 41
1.0
 42
1.0
 43
1.0
 50
0.0
  0
INSERT
  8
txt
  2
D9501
 10
15.480000
 20
5.430000
 41
1.0
 42
1.0
 43
1.0
 50
0.0
  0
INSERT
  8
txt
  2
D9501
 10
14.580000
 20
5.430000
 41
1.0
 42
1.0
 43
1.0
 50
0.0
  0
INSERT
  8
txt
  2
D9501
 10
14.680000
 20
6.050000
 41
1.0
 42
1.0
 43
1.0
 50
0.0
  0
INSERT
  8
txt
  2
D9501
 10
13.780000
 20
6.050000
 41
1.0
 42
1.0
 43
1.0
 50
0.0
  0
INSERT
  8
txt
  2
D9501
 10
13.680000
 20
5.430000
 41
1.0
 42
1.0
 43
1.0
 50
0.0
  0
INSERT
  8
txt
  2
D9501
 10
12.880000
 20
6.050000
 41
1.0
 42
1.0
 43
1.0
 50
0.0
  0
INSERT
  8
txt
  2
D9501
 10
11.937087
 20
4.825197
 41
1.0
 42
1.0
 43
1.0
 50
0.0
  0
INSERT
  8
txt
  2
D9501
 10
10.680000
 20
6.050000
 41
1.0
 42
1.0
 43
1.0
 50
0.0
  0
INSERT
  8
txt
  2
D9501
 10
9.780000
 20
6.050000
 41
1.0
 42
1.0
 43
1.0
 50
0.0
  0
INSERT
  8
txt
  2
D9501
 10
9.160000
 20
5.480000
 41
1.0
 42
1.0
 43
1.0
 50
0.0
  0
INSERT
  8
txt
  2
D9501
 10
8.260000
 20
5.480000
 41
1.0
 42
1.0
 43
1.0
 50
0.0
  0
INSERT
  8
txt
  2
D9501
 10
8.360000
 20
6.050000
 41
1.0
 42
1.0
 43
1.0
 50
0.0
  0
INSERT
  8
txt
  2
D9501
 10
7.460000
 20
6.050000
 41
1.0
 42
1.0
 43
1.0
 50
0.0
  0
INSERT
  8
txt
  2
D9501
 10
7.360000
 20
5.480000
 41
1.0
 42
1.0
 43
1.0
 50
0.0
  0
INSERT
  8
txt
  2
D9501
 10
6.560000
 20
6.050000
 41
1.0
 42
1.0
 43
1.0
 50
0.0
  0
INSERT
  8
txt
  2
D9501
 10
7.360000
 20
6.950000
 41
1.0
 42
1.0
 43
1.0
 50
0.0
  0
INSERT
  8
txt
  2
D9501
 10
7.300000
 20
7.700630
 41
1.0
 42
1.0
 43
1.0
 50
0.0
  0
INSERT
  8
txt
  2
D9501
 10
7.290000
 20
7.700000
 41
1.0
 42
1.0
 43
1.0
 50
0.0
  0
INSERT
  8
txt
  2
D9501
 10
7.280000
 20
7.700630
 41
1.0
 42
1.0
 43
1.0
 50
0.0
  0
INSERT
  8
txt
  2
D9501
 10
7.270000
 20
7.700630
 41
1.0
 42
1.0
 43
1.0
 50
0.0
  0
INSERT
  8
txt
  2
D9501
 10
7.260000
 20
7.700630
 41
1.0
 42
1.0
 43
1.0
 50
0.0
  0
INSERT
  8
txt
  2
D9501
 10
7.250000
 20
7.700630
 41
1.0
 42
1.0
 43
1.0
 50
0.0
  0
INSERT
  8
txt
  2
D9501
 10
7.240000
 20
7.700630
 41
1.0
 42
1.0
 43
1.0
 50
0.0
  0
INSERT
  8
txt
  2
D9501
 10
7.073150
 20
7.800000
 41
1.0
 42
1.0
 43
1.0
 50
0.0
  0
INSERT
  8
txt
  2
D9501
 10
7.073150
 20
7.810000
 41
1.0
 42
1.0
 43
1.0
 50
0.0
  0
INSERT
  8
txt
  2
D9501
 10
8.260000
 20
6.950000
 41
1.0
 42
1.0
 43
1.0
 50
0.0
  0
INSERT
  8
txt
  2
D9501
 10
9.160000
 20
6.950000
 41
1.0
 42
1.0
 43
1.0
 50
0.0
  0
INSERT
  8
txt
  2
D9501
 10
10.580000
 20
6.950000
 41
1.0
 42
1.0
 43
1.0
 50
0.0
  0
INSERT
  8
txt
  2
D9501
 10
11.480000
 20
6.950000
 41
1.0
 42
1.0
 43
1.0
 50
0.0
  0
INSERT
  8
txt
  2
D9501
 10
12.380000
 20
6.950000
 41
1.0
 42
1.0
 43
1.0
 50
0.0
  0
INSERT
  8
txt
  2
D9501
 10
13.680000
 20
6.950000
 41
1.0
 42
1.0
 43
1.0
 50
0.0
  0
INSERT
  8
txt
  2
D9501
 10
14.580000
 20
6.950000
 41
1.0
 42
1.0
 43
1.0
 50
0.0
  0
INSERT
  8
txt
  2
D9501
 10
15.480000
 20
6.950000
 41
1.0
 42
1.0
 43
1.0
 50
0.0
  0
INSERT
  8
txt
  2
D9501
 10
15.970000
 20
8.040000
 41
1.0
 42
1.0
 43
1.0
 50
0.0
  0
INSERT
  8
txt
  2
D9501
 10
7.290000
 20
7.944724
 41
1.0
 42
1.0
 43
1.0
 50
0.0
  0
INSERT
  8
txt
  2
D9501
 10
7.280000
 20
7.944724
 41
1.0
 42
1.0
 43
1.0
 50
0.0
  0
INSERT
  8
txt
  2
D9501
 10
7.270000
 20
7.944724
 41
1.0
 42
1.0
 43
1.0
 50
0.0
  0
INSERT
  8
txt
  2
D9501
 10
7.260000
 20
7.944724
 41
1.0
 42
1.0
 43
1.0
 50
0.0
  0
INSERT
  8
txt
  2
D9501
 10
7.250000
 20
7.944724
 41
1.0
 42
1.0
 43
1.0
 50
0.0
  0
INSERT
  8
txt
  2
D9501
 10
7.073150
 20
7.850000
 41
1.0
 42
1.0
 43
1.0
 50
0.0
  0
INSERT
  8
txt
  2
D9501
 10
7.073150
 20
7.840000
 41
1.0
 42
1.0
 43
1.0
 50
0.0
  0
INSERT
  8
txt
  2
D9501
 10
7.073150
 20
7.830000
 41
1.0
 42
1.0
 43
1.0
 50
0.0
  0
INSERT
  8
txt
  2
D9501
 10
7.073150
 20
7.826614
 41
1.0
 42
1.0
 43
1.0
 50
0.0
  0
INSERT
  8
txt
  2
D9501
 10
7.073150
 20
7.820000
 41
1.0
 42
1.0
 43
1.0
 50
0.0
  0
INSERT
  8
txt
  2
D9501
 10
6.140000
 20
8.040000
 41
1.0
 42
1.0
 43
1.0
 50
0.0
  0
INSERT
  8
txt
  2
D9502
 10
15.480000
 20
1.590000
 41
1.0
 42
1.0
 43
1.0
 50
0.0
  0
INSERT
  8
txt
  2
D9502
 10
15.380000
 20
1.590000
 41
1.0
 42
1.0
 43
1.0
 50
0.0
  0
INSERT
  8
txt
  2
D9502
 10
15.280000
 20
1.590000
 41
1.0
 42
1.0
 43
1.0
 50
0.0
  0
INSERT
  8
txt
  2
D9502
 10
15.180000
 20
1.590000
 41
1.0
 42
1.0
 43
1.0
 50
0.0
  0
INSERT
  8
txt
  2
D9502
 10
15.080000
 20
1.590000
 41
1.0
 42
1.0
 43
1.0
 50
0.0
  0
INSERT
  8
txt
  2
D9502
 10
14.980000
 20
1.590000
 41
1.0
 42
1.0
 43
1.0
 50
0.0
  0
INSERT
  8
txt
  2
D9502
 10
14.880000
 20
1.590000
 41
1.0
 42
1.0
 43
1.0
 50
0.0
  0
INSERT
  8
txt
  2
D9502
 10
14.780000
 20
1.590000
 41
1.0
 42
1.0
 43
1.0
 50
0.0
  0
INSERT
  8
txt
  2
D9502
 10
14.680000
 20
1.590000
 41
1.0
 42
1.0
 43
1.0
 50
0.0
  0
INSERT
  8
txt
  2
D9502
 10
14.580000
 20
1.590000
 41
1.0
 42
1.0
 43
1.0
 50
0.0
  0
INSERT
  8
txt
  2
D9502
 10
14.480000
 20
1.590000
 41
1.0
 42
1.0
 43
1.0
 50
0.0
  0
INSERT
  8
txt
  2
D9502
 10
14.380000
 20
1.590000
 41
1.0
 42
1.0
 43
1.0
 50
0.0
  0
INSERT
  8
txt
  2
D9502
 10
14.280000
 20
1.590000
 41
1.0
 42
1.0
 43
1.0
 50
0.0
  0
INSERT
  8
txt
  2
D9502
 10
14.180000
 20
1.590000
 41
1.0
 42
1.0
 43
1.0
 50
0.0
  0
INSERT
  8
txt
  2
D9502
 10
14.080000
 20
1.590000
 41
1.0
 42
1.0
 43
1.0
 50
0.0
  0
INSERT
  8
txt
  2
D9502
 10
14.080000
 20
2.490000
 41
1.0
 42
1.0
 43
1.0
 50
0.0
  0
INSERT
  8
txt
  2
D9502
 10
14.180000
 20
2.490000
 41
1.0
 42
1.0
 43
1.0
 50
0.0
  0
INSERT
  8
txt
  2
D9502
 10
14.280000
 20
2.490000
 41
1.0
 42
1.0
 43
1.0
 50
0.0
  0
INSERT
  8
txt
  2
D9502
 10
14.380000
 20
2.490000
 41
1.0
 42
1.0
 43
1.0
 50
0.0
  0
INSERT
  8
txt
  2
D9502
 10
14.480000
 20
2.490000
 41
1.0
 42
1.0
 43
1.0
 50
0.0
  0
INSERT
  8
txt
  2
D9502
 10
14.580000
 20
2.490000
 41
1.0
 42
1.0
 43
1.0
 50
0.0
  0
INSERT
  8
txt
  2
D9502
 10
14.680000
 20
2.490000
 41
1.0
 42
1.0
 43
1.0
 50
0.0
  0
INSERT
  8
txt
  2
D9502
 10
14.780000
 20
2.490000
 41
1.0
 42
1.0
 43
1.0
 50
0.0
  0
INSERT
  8
txt
  2
D9502
 10
14.880000
 20
2.490000
 41
1.0
 42
1.0
 43
1.0
 50
0.0
  0
INSERT
  8
txt
  2
D9502
 10
14.980000
 20
2.490000
 41
1.0
 42
1.0
 43
1.0
 50
0.0
  0
INSERT
  8
txt
  2
D9502
 10
15.080000
 20
2.490000
 41
1.0
 42
1.0
 43
1.0
 50
0.0
  0
INSERT
  8
txt
  2
D9502
 10
15.180000
 20
2.490000
 41
1.0
 42
1.0
 43
1.0
 50
0.0
  0
INSERT
  8
txt
  2
D9502
 10
15.280000
 20
2.490000
 41
1.0
 42
1.0
 43
1.0
 50
0.0
  0
INSERT
  8
txt
  2
D9502
 10
15.380000
 20
2.490000
 41
1.0
 42
1.0
 43
1.0
 50
0.0
  0
INSERT
  8
txt
  2
D9502
 10
15.480000
 20
2.490000
 41
1.0
 42
1.0
 43
1.0
 50
0.0
  0
INSERT
  8
txt
  2
D9502
 10
15.480000
 20
3.060000
 41
1.0
 42
1.0
 43
1.0
 50
0.0
  0
INSERT
  8
txt
  2
D9502
 10
15.380000
 20
3.060000
 41
1.0
 42
1.0
 43
1.0
 50
0.0
  0
INSERT
  8
txt
  2
D9502
 10
15.280000
 20
3.060000
 41
1.0
 42
1.0
 43
1.0
 50
0.0
  0
INSERT
  8
txt
  2
D9502
 10
15.180000
 20
3.060000
 41
1.0
 42
1.0
 43
1.0
 50
0.0
  0
INSERT
  8
txt
  2
D9502
 10
15.080000
 20
3.060000
 41
1.0
 42
1.0
 43
1.0
 50
0.0
  0
INSERT
  8
txt
  2
D9502
 10
14.980000
 20
3.060000
 41
1.0
 42
1.0
 43
1.0
 50
0.0
  0
INSERT
  8
txt
  2
D9502
 10
14.880000
 20
3.060000
 41
1.0
 42
1.0
 43
1.0
 50
0.0
  0
INSERT
  8
txt
  2
D9502
 10
14.780000
 20
3.060000
 41
1.0
 42
1.0
 43
1.0
 50
0.0
  0
INSERT
  8
txt
  2
D9502
 10
14.680000
 20
3.060000
 41
1.0
 42
1.0
 43
1.0
 50
0.0
  0
INSERT
  8
txt
  2
D9502
 10
14.580000
 20
3.060000
 41
1.0
 42
1.0
 43
1.0
 50
0.0
  0
INSERT
  8
txt
  2
D9502
 10
14.480000
 20
3.060000
 41
1.0
 42
1.0
 43
1.0
 50
0.0
  0
INSERT
  8
txt
  2
D9502
 10
14.380000
 20
3.060000
 41
1.0
 42
1.0
 43
1.0
 50
0.0
  0
INSERT
  8
txt
  2
D9502
 10
14.280000
 20
3.060000
 41
1.0
 42
1.0
 43
1.0
 50
0.0
  0
INSERT
  8
txt
  2
D9502
 10
14.180000
 20
3.060000
 41
1.0
 42
1.0
 43
1.0
 50
0.0
  0
INSERT
  8
txt
  2
D9502
 10
14.080000
 20
3.060000
 41
1.0
 42
1.0
 43
1.0
 50
0.0
  0
INSERT
  8
txt
  2
D9502
 10
13.980000
 20
3.060000
 41
1.0
 42
1.0
 43
1.0
 50
0.0
  0
INSERT
  8
txt
  2
D9502
 10
13.880000
 20
3.060000
 41
1.0
 42
1.0
 43
1.0
 50
0.0
  0
INSERT
  8
txt
  2
D9502
 10
13.780000
 20
3.060000
 41
1.0
 42
1.0
 43
1.0
 50
0.0
  0
INSERT
  8
txt
  2
D9502
 10
13.680000
 20
3.060000
 41
1.0
 42
1.0
 43
1.0
 50
0.0
  0
INSERT
  8
txt
  2
D9502
 10
13.580000
 20
3.060000
 41
1.0
 42
1.0
 43
1.0
 50
0.0
  0
INSERT
  8
txt
  2
D9502
 10
13.480000
 20
3.060000
 41
1.0
 42
1.0
 43
1.0
 50
0.0
  0
INSERT
  8
txt
  2
D9502
 10
13.380000
 20
3.060000
 41
1.0
 42
1.0
 43
1.0
 50
0.0
  0
INSERT
  8
txt
  2
D9502
 10
13.280000
 20
3.060000
 41
1.0
 42
1.0
 43
1.0
 50
0.0
  0
INSERT
  8
txt
  2
D9502
 10
13.180000
 20
3.060000
 41
1.0
 42
1.0
 43
1.0
 50
0.0
  0
INSERT
  8
txt
  2
D9502
 10
13.080000
 20
3.060000
 41
1.0
 42
1.0
 43
1.0
 50
0.0
  0
INSERT
  8
txt
  2
D9502
 10
12.980000
 20
3.060000
 41
1.0
 42
1.0
 43
1.0
 50
0.0
  0
INSERT
  8
txt
  2
D9502
 10
12.880000
 20
3.060000
 41
1.0
 42
1.0
 43
1.0
 50
0.0
  0
INSERT
  8
txt
  2
D9502
 10
12.880000
 20
2.490000
 41
1.0
 42
1.0
 43
1.0
 50
0.0
  0
INSERT
  8
txt
  2
D9502
 10
12.980000
 20
2.490000
 41
1.0
 42
1.0
 43
1.0
 50
0.0
  0
INSERT
  8
txt
  2
D9502
 10
13.080000
 20
2.490000
 41
1.0
 42
1.0
 43
1.0
 50
0.0
  0
INSERT
  8
txt
  2
D9502
 10
13.180000
 20
2.490000
 41
1.0
 42
1.0
 43
1.0
 50
0.0
  0
INSERT
  8
txt
  2
D9502
 10
13.280000
 20
2.490000
 41
1.0
 42
1.0
 43
1.0
 50
0.0
  0
INSERT
  8
txt
  2
D9502
 10
13.380000
 20
2.490000
 41
1.0
 42
1.0
 43
1.0
 50
0.0
  0
INSERT
  8
txt
  2
D9502
 10
13.480000
 20
2.490000
 41
1.0
 42
1.0
 43
1.0
 50
0.0
  0
INSERT
  8
txt
  2
D9502
 10
13.580000
 20
2.490000
 41
1.0
 42
1.0
 43
1.0
 50
0.0
  0
INSERT
  8
txt
  2
D9502
 10
13.680000
 20
2.490000
 41
1.0
 42
1.0
 43
1.0
 50
0.0
  0
INSERT
  8
txt
  2
D9502
 10
13.780000
 20
2.490000
 41
1.0
 42
1.0
 43
1.0
 50
0.0
  0
INSERT
  8
txt
  2
D9502
 10
13.880000
 20
2.490000
 41
1.0
 42
1.0
 43
1.0
 50
0.0
  0
INSERT
  8
txt
  2
D9502
 10
13.980000
 20
2.490000
 41
1.0
 42
1.0
 43
1.0
 50
0.0
  0
INSERT
  8
txt
  2
D9502
 10
13.980000
 20
1.590000
 41
1.0
 42
1.0
 43
1.0
 50
0.0
  0
INSERT
  8
txt
  2
D9502
 10
13.880000
 20
1.590000
 41
1.0
 42
1.0
 43
1.0
 50
0.0
  0
INSERT
  8
txt
  2
D9502
 10
13.780000
 20
1.590000
 41
1.0
 42
1.0
 43
1.0
 50
0.0
  0
INSERT
  8
txt
  2
D9502
 10
13.680000
 20
1.590000
 41
1.0
 42
1.0
 43
1.0
 50
0.0
  0
INSERT
  8
txt
  2
D9502
 10
13.580000
 20
1.590000
 41
1.0
 42
1.0
 43
1.0
 50
0.0
  0
INSERT
  8
txt
  2
D9502
 10
13.480000
 20
1.590000
 41
1.0
 42
1.0
 43
1.0
 50
0.0
  0
INSERT
  8
txt
  2
D9502
 10
13.380000
 20
1.590000
 41
1.0
 42
1.0
 43
1.0
 50
0.0
  0
INSERT
  8
txt
  2
D9502
 10
13.280000
 20
1.590000
 41
1.0
 42
1.0
 43
1.0
 50
0.0
  0
INSERT
  8
txt
  2
D9502
 10
13.180000
 20
1.590000
 41
1.0
 42
1.0
 43
1.0
 50
0.0
  0
INSERT
  8
txt
  2
D9502
 10
13.080000
 20
1.590000
 41
1.0
 42
1.0
 43
1.0
 50
0.0
  0
INSERT
  8
txt
  2
D9502
 10
12.980000
 20
1.590000
 41
1.0
 42
1.0
 43
1.0
 50
0.0
  0
INSERT
  8
txt
  2
D9502
 10
12.880000
 20
1.590000
 41
1.0
 42
1.0
 43
1.0
 50
0.0
  0
INSERT
  8
txt
  2
D9502
 10
12.649417
 20
1.913890
 41
1.0
 42
1.0
 43
1.0
 50
0.0
  0
INSERT
  8
txt
  2
D9502
 10
12.649417
 20
2.203890
 41
1.0
 42
1.0
 43
1.0
 50
0.0
  0
INSERT
  8
txt
  2
D9502
 10
9.523417
 20
2.348890
 41
1.0
 42
1.0
 43
1.0
 50
0.0
  0
INSERT
  8
txt
  2
D9502
 10
9.523417
 20
2.058890
 41
1.0
 42
1.0
 43
1.0
 50
0.0
  0
INSERT
  8
txt
  2
D9502
 10
9.523417
 20
1.768890
 41
1.0
 42
1.0
 43
1.0
 50
0.0
  0
INSERT
  8
txt
  2
D9502
 10
9.160000
 20
1.640000
 41
1.0
 42
1.0
 43
1.0
 50
0.0
  0
INSERT
  8
txt
  2
D9502
 10
9.060000
 20
1.640000
 41
1.0
 42
1.0
 43
1.0
 50
0.0
  0
INSERT
  8
txt
  2
D9502
 10
8.960000
 20
1.640000
 41
1.0
 42
1.0
 43
1.0
 50
0.0
  0
INSERT
  8
txt
  2
D9502
 10
8.860000
 20
1.640000
 41
1.0
 42
1.0
 43
1.0
 50
0.0
  0
INSERT
  8
txt
  2
D9502
 10
8.760000
 20
1.640000
 41
1.0
 42
1.0
 43
1.0
 50
0.0
  0
INSERT
  8
txt
  2
D9502
 10
8.660000
 20
1.640000
 41
1.0
 42
1.0
 43
1.0
 50
0.0
  0
INSERT
  8
txt
  2
D9502
 10
8.560000
 20
1.640000
 41
1.0
 42
1.0
 43
1.0
 50
0.0
  0
INSERT
  8
txt
  2
D9502
 10
8.460000
 20
1.640000
 41
1.0
 42
1.0
 43
1.0
 50
0.0
  0
INSERT
  8
txt
  2
D9502
 10
8.360000
 20
1.640000
 41
1.0
 42
1.0
 43
1.0
 50
0.0
  0
INSERT
  8
txt
  2
D9502
 10
8.260000
 20
1.640000
 41
1.0
 42
1.0
 43
1.0
 50
0.0
  0
INSERT
  8
txt
  2
D9502
 10
8.160000
 20
1.640000
 41
1.0
 42
1.0
 43
1.0
 50
0.0
  0
INSERT
  8
txt
  2
D9502
 10
8.060000
 20
1.640000
 41
1.0
 42
1.0
 43
1.0
 50
0.0
  0
INSERT
  8
txt
  2
D9502
 10
7.960000
 20
1.640000
 41
1.0
 42
1.0
 43
1.0
 50
0.0
  0
INSERT
  8
txt
  2
D9502
 10
7.860000
 20
1.640000
 41
1.0
 42
1.0
 43
1.0
 50
0.0
  0
INSERT
  8
txt
  2
D9502
 10
7.860000
 20
2.540000
 41
1.0
 42
1.0
 43
1.0
 50
0.0
  0
INSERT
  8
txt
  2
D9502
 10
7.960000
 20
2.540000
 41
1.0
 42
1.0
 43
1.0
 50
0.0
  0
INSERT
  8
txt
  2
D9502
 10
8.060000
 20
2.540000
 41
1.0
 42
1.0
 43
1.0
 50
0.0
  0
INSERT
  8
txt
  2
D9502
 10
8.160000
 20
2.540000
 41
1.0
 42
1.0
 43
1.0
 50
0.0
  0
INSERT
  8
txt
  2
D9502
 10
8.260000
 20
2.540000
 41
1.0
 42
1.0
 43
1.0
 50
0.0
  0
INSERT
  8
txt
  2
D9502
 10
8.360000
 20
2.540000
 41
1.0
 42
1.0
 43
1.0
 50
0.0
  0
INSERT
  8
txt
  2
D9502
 10
8.460000
 20
2.540000
 41
1.0
 42
1.0
 43
1.0
 50
0.0
  0
INSERT
  8
txt
  2
D9502
 10
8.560000
 20
2.540000
 41
1.0
 42
1.0
 43
1.0
 50
0.0
  0
INSERT
  8
txt
  2
D9502
 10
8.660000
 20
2.540000
 41
1.0
 42
1.0
 43
1.0
 50
0.0
  0
INSERT
  8
txt
  2
D9502
 10
8.760000
 20
2.540000
 41
1.0
 42
1.0
 43
1.0
 50
0.0
  0
INSERT
  8
txt
  2
D9502
 10
8.860000
 20
2.540000
 41
1.0
 42
1.0
 43
1.0
 50
0.0
  0
INSERT
  8
txt
  2
D9502
 10
8.960000
 20
2.540000
 41
1.0
 42
1.0
 43
1.0
 50
0.0
  0
INSERT
  8
txt
  2
D9502
 10
9.060000
 20
2.540000
 41
1.0
 42
1.0
 43
1.0
 50
0.0
  0
INSERT
  8
txt
  2
D9502
 10
9.160000
 20
2.540000
 41
1.0
 42
1.0
 43
1.0
 50
0.0
  0
INSERT
  8
txt
  2
D9502
 10
9.160000
 20
3.110000
 41
1.0
 42
1.0
 43
1.0
 50
0.0
  0
INSERT
  8
txt
  2
D9502
 10
9.060000
 20
3.110000
 41
1.0
 42
1.0
 43
1.0
 50
0.0
  0
INSERT
  8
txt
  2
D9502
 10
8.960000
 20
3.110000
 41
1.0
 42
1.0
 43
1.0
 50
0.0
  0
INSERT
  8
txt
  2
D9502
 10
8.860000
 20
3.110000
 41
1.0
 42
1.0
 43
1.0
 50
0.0
  0
INSERT
  8
txt
  2
D9502
 10
8.760000
 20
3.110000
 41
1.0
 42
1.0
 43
1.0
 50
0.0
  0
INSERT
  8
txt
  2
D9502
 10
8.660000
 20
3.110000
 41
1.0
 42
1.0
 43
1.0
 50
0.0
  0
INSERT
  8
txt
  2
D9502
 10
8.560000
 20
3.110000
 41
1.0
 42
1.0
 43
1.0
 50
0.0
  0
INSERT
  8
txt
  2
D9502
 10
8.460000
 20
3.110000
 41
1.0
 42
1.0
 43
1.0
 50
0.0
  0
INSERT
  8
txt
  2
D9502
 10
8.360000
 20
3.110000
 41
1.0
 42
1.0
 43
1.0
 50
0.0
  0
INSERT
  8
txt
  2
D9502
 10
8.260000
 20
3.110000
 41
1.0
 42
1.0
 43
1.0
 50
0.0
  0
INSERT
  8
txt
  2
D9502
 10
8.160000
 20
3.110000
 41
1.0
 42
1.0
 43
1.0
 50
0.0
  0
INSERT
  8
txt
  2
D9502
 10
8.060000
 20
3.110000
 41
1.0
 42
1.0
 43
1.0
 50
0.0
  0
INSERT
  8
txt
  2
D9502
 10
7.960000
 20
3.110000
 41
1.0
 42
1.0
 43
1.0
 50
0.0
  0
INSERT
  8
txt
  2
D9502
 10
7.860000
 20
3.110000
 41
1.0
 42
1.0
 43
1.0
 50
0.0
  0
INSERT
  8
txt
  2
D9502
 10
7.760000
 20
3.110000
 41
1.0
 42
1.0
 43
1.0
 50
0.0
  0
INSERT
  8
txt
  2
D9502
 10
7.660000
 20
3.110000
 41
1.0
 42
1.0
 43
1.0
 50
0.0
  0
INSERT
  8
txt
  2
D9502
 10
7.560000
 20
3.110000
 41
1.0
 42
1.0
 43
1.0
 50
0.0
  0
INSERT
  8
txt
  2
D9502
 10
7.460000
 20
3.110000
 41
1.0
 42
1.0
 43
1.0
 50
0.0
  0
INSERT
  8
txt
  2
D9502
 10
7.360000
 20
3.110000
 41
1.0
 42
1.0
 43
1.0
 50
0.0
  0
INSERT
  8
txt
  2
D9502
 10
7.260000
 20
3.110000
 41
1.0
 42
1.0
 43
1.0
 50
0.0
  0
INSERT
  8
txt
  2
D9502
 10
7.160000
 20
3.110000
 41
1.0
 42
1.0
 43
1.0
 50
0.0
  0
INSERT
  8
txt
  2
D9502
 10
7.060000
 20
3.110000
 41
1.0
 42
1.0
 43
1.0
 50
0.0
  0
INSERT
  8
txt
  2
D9502
 10
6.960000
 20
3.110000
 41
1.0
 42
1.0
 43
1.0
 50
0.0
  0
INSERT
  8
txt
  2
D9502
 10
6.860000
 20
3.110000
 41
1.0
 42
1.0
 43
1.0
 50
0.0
  0
INSERT
  8
txt
  2
D9502
 10
6.760000
 20
3.110000
 41
1.0
 42
1.0
 43
1.0
 50
0.0
  0
INSERT
  8
txt
  2
D9502
 10
6.660000
 20
3.110000
 41
1.0
 42
1.0
 43
1.0
 50
0.0
  0
INSERT
  8
txt
  2
D9502
 10
6.560000
 20
3.110000
 41
1.0
 42
1.0
 43
1.0
 50
0.0
  0
INSERT
  8
txt
  2
D9502
 10
6.560000
 20
2.540000
 41
1.0
 42
1.0
 43
1.0
 50
0.0
  0
INSERT
  8
txt
  2
D9502
 10
6.660000
 20
2.540000
 41
1.0
 42
1.0
 43
1.0
 50
0.0
  0
INSERT
  8
txt
  2
D9502
 10
6.760000
 20
2.540000
 41
1.0
 42
1.0
 43
1.0
 50
0.0
  0
INSERT
  8
txt
  2
D9502
 10
6.860000
 20
2.540000
 41
1.0
 42
1.0
 43
1.0
 50
0.0
  0
INSERT
  8
txt
  2
D9502
 10
6.960000
 20
2.540000
 41
1.0
 42
1.0
 43
1.0
 50
0.0
  0
INSERT
  8
txt
  2
D9502
 10
7.060000
 20
2.540000
 41
1.0
 42
1.0
 43
1.0
 50
0.0
  0
INSERT
  8
txt
  2
D9502
 10
7.160000
 20
2.540000
 41
1.0
 42
1.0
 43
1.0
 50
0.0
  0
INSERT
  8
txt
  2
D9502
 10
7.260000
 20
2.540000
 41
1.0
 42
1.0
 43
1.0
 50
0.0
  0
INSERT
  8
txt
  2
D9502
 10
7.360000
 20
2.540000
 41
1.0
 42
1.0
 43
1.0
 50
0.0
  0
INSERT
  8
txt
  2
D9502
 10
7.460000
 20
2.540000
 41
1.0
 42
1.0
 43
1.0
 50
0.0
  0
INSERT
  8
txt
  2
D9502
 10
7.560000
 20
2.540000
 41
1.0
 42
1.0
 43
1.0
 50
0.0
  0
INSERT
  8
txt
  2
D9502
 10
7.660000
 20
2.540000
 41
1.0
 42
1.0
 43
1.0
 50
0.0
  0
INSERT
  8
txt
  2
D9502
 10
7.760000
 20
2.540000
 41
1.0
 42
1.0
 43
1.0
 50
0.0
  0
INSERT
  8
txt
  2
D9502
 10
7.760000
 20
1.640000
 41
1.0
 42
1.0
 43
1.0
 50
0.0
  0
INSERT
  8
txt
  2
D9502
 10
7.660000
 20
1.640000
 41
1.0
 42
1.0
 43
1.0
 50
0.0
  0
INSERT
  8
txt
  2
D9502
 10
7.560000
 20
1.640000
 41
1.0
 42
1.0
 43
1.0
 50
0.0
  0
INSERT
  8
txt
  2
D9502
 10
7.460000
 20
1.640000
 41
1.0
 42
1.0
 43
1.0
 50
0.0
  0
INSERT
  8
txt
  2
D9502
 10
7.360000
 20
1.640000
 41
1.0
 42
1.0
 43
1.0
 50
0.0
  0
INSERT
  8
txt
  2
D9502
 10
7.260000
 20
1.640000
 41
1.0
 42
1.0
 43
1.0
 50
0.0
  0
INSERT
  8
txt
  2
D9502
 10
7.160000
 20
1.640000
 41
1.0
 42
1.0
 43
1.0
 50
0.0
  0
INSERT
  8
txt
  2
D9502
 10
7.060000
 20
1.640000
 41
1.0
 42
1.0
 43
1.0
 50
0.0
  0
INSERT
  8
txt
  2
D9502
 10
6.960000
 20
1.640000
 41
1.0
 42
1.0
 43
1.0
 50
0.0
  0
INSERT
  8
txt
  2
D9502
 10
6.860000
 20
1.640000
 41
1.0
 42
1.0
 43
1.0
 50
0.0
  0
INSERT
  8
txt
  2
D9502
 10
6.760000
 20
1.640000
 41
1.0
 42
1.0
 43
1.0
 50
0.0
  0
INSERT
  8
txt
  2
D9502
 10
6.660000
 20
1.640000
 41
1.0
 42
1.0
 43
1.0
 50
0.0
  0
INSERT
  8
txt
  2
D9502
 10
6.560000
 20
1.640000
 41
1.0
 42
1.0
 43
1.0
 50
0.0
  0
INSERT
  8
txt
  2
D9502
 10
6.560000
 20
4.010000
 41
1.0
 42
1.0
 43
1.0
 50
0.0
  0
INSERT
  8
txt
  2
D9502
 10
6.660000
 20
4.010000
 41
1.0
 42
1.0
 43
1.0
 50
0.0
  0
INSERT
  8
txt
  2
D9502
 10
6.760000
 20
4.010000
 41
1.0
 42
1.0
 43
1.0
 50
0.0
  0
INSERT
  8
txt
  2
D9502
 10
6.860000
 20
4.010000
 41
1.0
 42
1.0
 43
1.0
 50
0.0
  0
INSERT
  8
txt
  2
D9502
 10
6.960000
 20
4.010000
 41
1.0
 42
1.0
 43
1.0
 50
0.0
  0
INSERT
  8
txt
  2
D9502
 10
7.060000
 20
4.010000
 41
1.0
 42
1.0
 43
1.0
 50
0.0
  0
INSERT
  8
txt
  2
D9502
 10
7.160000
 20
4.010000
 41
1.0
 42
1.0
 43
1.0
 50
0.0
  0
INSERT
  8
txt
  2
D9502
 10
7.260000
 20
4.010000
 41
1.0
 42
1.0
 43
1.0
 50
0.0
  0
INSERT
  8
txt
  2
D9502
 10
7.360000
 20
4.010000
 41
1.0
 42
1.0
 43
1.0
 50
0.0
  0
INSERT
  8
txt
  2
D9502
 10
7.460000
 20
4.010000
 41
1.0
 42
1.0
 43
1.0
 50
0.0
  0
INSERT
  8
txt
  2
D9502
 10
7.560000
 20
4.010000
 41
1.0
 42
1.0
 43
1.0
 50
0.0
  0
INSERT
  8
txt
  2
D9502
 10
7.660000
 20
4.010000
 41
1.0
 42
1.0
 43
1.0
 50
0.0
  0
INSERT
  8
txt
  2
D9502
 10
7.760000
 20
4.010000
 41
1.0
 42
1.0
 43
1.0
 50
0.0
  0
INSERT
  8
txt
  2
D9502
 10
7.760000
 20
4.580000
 41
1.0
 42
1.0
 43
1.0
 50
0.0
  0
INSERT
  8
txt
  2
D9502
 10
7.660000
 20
4.580000
 41
1.0
 42
1.0
 43
1.0
 50
0.0
  0
INSERT
  8
txt
  2
D9502
 10
7.560000
 20
4.580000
 41
1.0
 42
1.0
 43
1.0
 50
0.0
  0
INSERT
  8
txt
  2
D9502
 10
7.460000
 20
4.580000
 41
1.0
 42
1.0
 43
1.0
 50
0.0
  0
INSERT
  8
txt
  2
D9502
 10
7.360000
 20
4.580000
 41
1.0
 42
1.0
 43
1.0
 50
0.0
  0
INSERT
  8
txt
  2
D9502
 10
7.260000
 20
4.580000
 41
1.0
 42
1.0
 43
1.0
 50
0.0
  0
INSERT
  8
txt
  2
D9502
 10
7.160000
 20
4.580000
 41
1.0
 42
1.0
 43
1.0
 50
0.0
  0
INSERT
  8
txt
  2
D9502
 10
7.060000
 20
4.580000
 41
1.0
 42
1.0
 43
1.0
 50
0.0
  0
INSERT
  8
txt
  2
D9502
 10
6.960000
 20
4.580000
 41
1.0
 42
1.0
 43
1.0
 50
0.0
  0
INSERT
  8
txt
  2
D9502
 10
6.860000
 20
4.580000
 41
1.0
 42
1.0
 43
1.0
 50
0.0
  0
INSERT
  8
txt
  2
D9502
 10
6.760000
 20
4.580000
 41
1.0
 42
1.0
 43
1.0
 50
0.0
  0
INSERT
  8
txt
  2
D9502
 10
6.660000
 20
4.580000
 41
1.0
 42
1.0
 43
1.0
 50
0.0
  0
INSERT
  8
txt
  2
D9502
 10
6.560000
 20
4.580000
 41
1.0
 42
1.0
 43
1.0
 50
0.0
  0
INSERT
  8
txt
  2
D9502
 10
7.860000
 20
4.580000
 41
1.0
 42
1.0
 43
1.0
 50
0.0
  0
INSERT
  8
txt
  2
D9502
 10
7.960000
 20
4.580000
 41
1.0
 42
1.0
 43
1.0
 50
0.0
  0
INSERT
  8
txt
  2
D9502
 10
8.060000
 20
4.580000
 41
1.0
 42
1.0
 43
1.0
 50
0.0
  0
INSERT
  8
txt
  2
D9502
 10
8.160000
 20
4.580000
 41
1.0
 42
1.0
 43
1.0
 50
0.0
  0
INSERT
  8
txt
  2
D9502
 10
8.260000
 20
4.580000
 41
1.0
 42
1.0
 43
1.0
 50
0.0
  0
INSERT
  8
txt
  2
D9502
 10
8.360000
 20
4.580000
 41
1.0
 42
1.0
 43
1.0
 50
0.0
  0
INSERT
  8
txt
  2
D9502
 10
8.460000
 20
4.580000
 41
1.0
 42
1.0
 43
1.0
 50
0.0
  0
INSERT
  8
txt
  2
D9502
 10
8.560000
 20
4.580000
 41
1.0
 42
1.0
 43
1.0
 50
0.0
  0
INSERT
  8
txt
  2
D9502
 10
8.660000
 20
4.580000
 41
1.0
 42
1.0
 43
1.0
 50
0.0
  0
INSERT
  8
txt
  2
D9502
 10
8.760000
 20
4.580000
 41
1.0
 42
1.0
 43
1.0
 50
0.0
  0
INSERT
  8
txt
  2
D9502
 10
8.860000
 20
4.580000
 41
1.0
 42
1.0
 43
1.0
 50
0.0
  0
INSERT
  8
txt
  2
D9502
 10
8.960000
 20
4.580000
 41
1.0
 42
1.0
 43
1.0
 50
0.0
  0
INSERT
  8
txt
  2
D9502
 10
9.060000
 20
4.580000
 41
1.0
 42
1.0
 43
1.0
 50
0.0
  0
INSERT
  8
txt
  2
D9502
 10
9.160000
 20
4.580000
 41
1.0
 42
1.0
 43
1.0
 50
0.0
  0
INSERT
  8
txt
  2
D9502
 10
9.160000
 20
4.010000
 41
1.0
 42
1.0
 43
1.0
 50
0.0
  0
INSERT
  8
txt
  2
D9502
 10
9.060000
 20
4.010000
 41
1.0
 42
1.0
 43
1.0
 50
0.0
  0
INSERT
  8
txt
  2
D9502
 10
8.960000
 20
4.010000
 41
1.0
 42
1.0
 43
1.0
 50
0.0
  0
INSERT
  8
txt
  2
D9502
 10
8.860000
 20
4.010000
 41
1.0
 42
1.0
 43
1.0
 50
0.0
  0
INSERT
  8
txt
  2
D9502
 10
8.760000
 20
4.010000
 41
1.0
 42
1.0
 43
1.0
 50
0.0
  0
INSERT
  8
txt
  2
D9502
 10
8.660000
 20
4.010000
 41
1.0
 42
1.0
 43
1.0
 50
0.0
  0
INSERT
  8
txt
  2
D9502
 10
8.560000
 20
4.010000
 41
1.0
 42
1.0
 43
1.0
 50
0.0
  0
INSERT
  8
txt
  2
D9502
 10
8.460000
 20
4.010000
 41
1.0
 42
1.0
 43
1.0
 50
0.0
  0
INSERT
  8
txt
  2
D9502
 10
8.360000
 20
4.010000
 41
1.0
 42
1.0
 43
1.0
 50
0.0
  0
INSERT
  8
txt
  2
D9502
 10
8.260000
 20
4.010000
 41
1.0
 42
1.0
 43
1.0
 50
0.0
  0
INSERT
  8
txt
  2
D9502
 10
8.160000
 20
4.010000
 41
1.0
 42
1.0
 43
1.0
 50
0.0
  0
INSERT
  8
txt
  2
D9502
 10
8.060000
 20
4.010000
 41
1.0
 42
1.0
 43
1.0
 50
0.0
  0
INSERT
  8
txt
  2
D9502
 10
7.960000
 20
4.010000
 41
1.0
 42
1.0
 43
1.0
 50
0.0
  0
INSERT
  8
txt
  2
D9502
 10
7.860000
 20
4.010000
 41
1.0
 42
1.0
 43
1.0
 50
0.0
  0
INSERT
  8
txt
  2
D9502
 10
12.880000
 20
3.960000
 41
1.0
 42
1.0
 43
1.0
 50
0.0
  0
INSERT
  8
txt
  2
D9502
 10
12.980000
 20
3.960000
 41
1.0
 42
1.0
 43
1.0
 50
0.0
  0
INSERT
  8
txt
  2
D9502
 10
13.080000
 20
3.960000
 41
1.0
 42
1.0
 43
1.0
 50
0.0
  0
INSERT
  8
txt
  2
D9502
 10
13.180000
 20
3.960000
 41
1.0
 42
1.0
 43
1.0
 50
0.0
  0
INSERT
  8
txt
  2
D9502
 10
13.280000
 20
3.960000
 41
1.0
 42
1.0
 43
1.0
 50
0.0
  0
INSERT
  8
txt
  2
D9502
 10
13.380000
 20
3.960000
 41
1.0
 42
1.0
 43
1.0
 50
0.0
  0
INSERT
  8
txt
  2
D9502
 10
13.480000
 20
3.960000
 41
1.0
 42
1.0
 43
1.0
 50
0.0
  0
INSERT
  8
txt
  2
D9502
 10
13.580000
 20
3.960000
 41
1.0
 42
1.0
 43
1.0
 50
0.0
  0
INSERT
  8
txt
  2
D9502
 10
13.680000
 20
3.960000
 41
1.0
 42
1.0
 43
1.0
 50
0.0
  0
INSERT
  8
txt
  2
D9502
 10
13.780000
 20
3.960000
 41
1.0
 42
1.0
 43
1.0
 50
0.0
  0
INSERT
  8
txt
  2
D9502
 10
13.880000
 20
3.960000
 41
1.0
 42
1.0
 43
1.0
 50
0.0
  0
INSERT
  8
txt
  2
D9502
 10
13.980000
 20
3.960000
 41
1.0
 42
1.0
 43
1.0
 50
0.0
  0
INSERT
  8
txt
  2
D9502
 10
13.980000
 20
4.530000
 41
1.0
 42
1.0
 43
1.0
 50
0.0
  0
INSERT
  8
txt
  2
D9502
 10
13.880000
 20
4.530000
 41
1.0
 42
1.0
 43
1.0
 50
0.0
  0
INSERT
  8
txt
  2
D9502
 10
13.780000
 20
4.530000
 41
1.0
 42
1.0
 43
1.0
 50
0.0
  0
INSERT
  8
txt
  2
D9502
 10
13.680000
 20
4.530000
 41
1.0
 42
1.0
 43
1.0
 50
0.0
  0
INSERT
  8
txt
  2
D9502
 10
13.580000
 20
4.530000
 41
1.0
 42
1.0
 43
1.0
 50
0.0
  0
INSERT
  8
txt
  2
D9502
 10
13.480000
 20
4.530000
 41
1.0
 42
1.0
 43
1.0
 50
0.0
  0
INSERT
  8
txt
  2
D9502
 10
13.380000
 20
4.530000
 41
1.0
 42
1.0
 43
1.0
 50
0.0
  0
INSERT
  8
txt
  2
D9502
 10
13.280000
 20
4.530000
 41
1.0
 42
1.0
 43
1.0
 50
0.0
  0
INSERT
  8
txt
  2
D9502
 10
13.180000
 20
4.530000
 41
1.0
 42
1.0
 43
1.0
 50
0.0
  0
INSERT
  8
txt
  2
D9502
 10
13.080000
 20
4.530000
 41
1.0
 42
1.0
 43
1.0
 50
0.0
  0
INSERT
  8
txt
  2
D9502
 10
12.980000
 20
4.530000
 41
1.0
 42
1.0
 43
1.0
 50
0.0
  0
INSERT
  8
txt
  2
D9502
 10
12.880000
 20
4.530000
 41
1.0
 42
1.0
 43
1.0
 50
0.0
  0
INSERT
  8
txt
  2
D9502
 10
14.080000
 20
4.530000
 41
1.0
 42
1.0
 43
1.0
 50
0.0
  0
INSERT
  8
txt
  2
D9502
 10
14.180000
 20
4.530000
 41
1.0
 42
1.0
 43
1.0
 50
0.0
  0
INSERT
  8
txt
  2
D9502
 10
14.280000
 20
4.530000
 41
1.0
 42
1.0
 43
1.0
 50
0.0
  0
INSERT
  8
txt
  2
D9502
 10
14.380000
 20
4.530000
 41
1.0
 42
1.0
 43
1.0
 50
0.0
  0
INSERT
  8
txt
  2
D9502
 10
14.480000
 20
4.530000
 41
1.0
 42
1.0
 43
1.0
 50
0.0
  0
INSERT
  8
txt
  2
D9502
 10
14.580000
 20
4.530000
 41
1.0
 42
1.0
 43
1.0
 50
0.0
  0
INSERT
  8
txt
  2
D9502
 10
14.680000
 20
4.530000
 41
1.0
 42
1.0
 43
1.0
 50
0.0
  0
INSERT
  8
txt
  2
D9502
 10
14.780000
 20
4.530000
 41
1.0
 42
1.0
 43
1.0
 50
0.0
  0
INSERT
  8
txt
  2
D9502
 10
14.880000
 20
4.530000
 41
1.0
 42
1.0
 43
1.0
 50
0.0
  0
INSERT
  8
txt
  2
D9502
 10
14.980000
 20
4.530000
 41
1.0
 42
1.0
 43
1.0
 50
0.0
  0
INSERT
  8
txt
  2
D9502
 10
15.080000
 20
4.530000
 41
1.0
 42
1.0
 43
1.0
 50
0.0
  0
INSERT
  8
txt
  2
D9502
 10
15.180000
 20
4.530000
 41
1.0
 42
1.0
 43
1.0
 50
0.0
  0
INSERT
  8
txt
  2
D9502
 10
15.280000
 20
4.530000
 41
1.0
 42
1.0
 43
1.0
 50
0.0
  0
INSERT
  8
txt
  2
D9502
 10
15.380000
 20
4.530000
 41
1.0
 42
1.0
 43
1.0
 50
0.0
  0
INSERT
  8
txt
  2
D9502
 10
15.480000
 20
4.530000
 41
1.0
 42
1.0
 43
1.0
 50
0.0
  0
INSERT
  8
txt
  2
D9502
 10
15.480000
 20
3.960000
 41
1.0
 42
1.0
 43
1.0
 50
0.0
  0
INSERT
  8
txt
  2
D9502
 10
15.380000
 20
3.960000
 41
1.0
 42
1.0
 43
1.0
 50
0.0
  0
INSERT
  8
txt
  2
D9502
 10
15.280000
 20
3.960000
 41
1.0
 42
1.0
 43
1.0
 50
0.0
  0
INSERT
  8
txt
  2
D9502
 10
15.180000
 20
3.960000
 41
1.0
 42
1.0
 43
1.0
 50
0.0
  0
INSERT
  8
txt
  2
D9502
 10
15.080000
 20
3.960000
 41
1.0
 42
1.0
 43
1.0
 50
0.0
  0
INSERT
  8
txt
  2
D9502
 10
14.980000
 20
3.960000
 41
1.0
 42
1.0
 43
1.0
 50
0.0
  0
INSERT
  8
txt
  2
D9502
 10
14.880000
 20
3.960000
 41
1.0
 42
1.0
 43
1.0
 50
0.0
  0
INSERT
  8
txt
  2
D9502
 10
14.780000
 20
3.960000
 41
1.0
 42
1.0
 43
1.0
 50
0.0
  0
INSERT
  8
txt
  2
D9502
 10
14.680000
 20
3.960000
 41
1.0
 42
1.0
 43
1.0
 50
0.0
  0
INSERT
  8
txt
  2
D9502
 10
14.580000
 20
3.960000
 41
1.0
 42
1.0
 43
1.0
 50
0.0
  0
INSERT
  8
txt
  2
D9502
 10
14.480000
 20
3.960000
 41
1.0
 42
1.0
 43
1.0
 50
0.0
  0
INSERT
  8
txt
  2
D9502
 10
14.380000
 20
3.960000
 41
1.0
 42
1.0
 43
1.0
 50
0.0
  0
INSERT
  8
txt
  2
D9502
 10
14.280000
 20
3.960000
 41
1.0
 42
1.0
 43
1.0
 50
0.0
  0
INSERT
  8
txt
  2
D9502
 10
14.180000
 20
3.960000
 41
1.0
 42
1.0
 43
1.0
 50
0.0
  0
INSERT
  8
txt
  2
D9502
 10
14.080000
 20
3.960000
 41
1.0
 42
1.0
 43
1.0
 50
0.0
  0
INSERT
  8
txt
  2
D9502
 10
14.080000
 20
5.430000
 41
1.0
 42
1.0
 43
1.0
 50
0.0
  0
INSERT
  8
txt
  2
D9502
 10
14.180000
 20
5.430000
 41
1.0
 42
1.0
 43
1.0
 50
0.0
  0
INSERT
  8
txt
  2
D9502
 10
14.280000
 20
5.430000
 41
1.0
 42
1.0
 43
1.0
 50
0.0
  0
INSERT
  8
txt
  2
D9502
 10
14.380000
 20
5.430000
 41
1.0
 42
1.0
 43
1.0
 50
0.0
  0
INSERT
  8
txt
  2
D9502
 10
14.480000
 20
5.430000
 41
1.0
 42
1.0
 43
1.0
 50
0.0
  0
INSERT
  8
txt
  2
D9502
 10
14.580000
 20
5.430000
 41
1.0
 42
1.0
 43
1.0
 50
0.0
  0
INSERT
  8
txt
  2
D9502
 10
14.680000
 20
5.430000
 41
1.0
 42
1.0
 43
1.0
 50
0.0
  0
INSERT
  8
txt
  2
D9502
 10
14.780000
 20
5.430000
 41
1.0
 42
1.0
 43
1.0
 50
0.0
  0
INSERT
  8
txt
  2
D9502
 10
14.880000
 20
5.430000
 41
1.0
 42
1.0
 43
1.0
 50
0.0
  0
INSERT
  8
txt
  2
D9502
 10
14.980000
 20
5.430000
 41
1.0
 42
1.0
 43
1.0
 50
0.0
  0
INSERT
  8
txt
  2
D9502
 10
15.080000
 20
5.430000
 41
1.0
 42
1.0
 43
1.0
 50
0.0
  0
INSERT
  8
txt
  2
D9502
 10
15.180000
 20
5.430000
 41
1.0
 42
1.0
 43
1.0
 50
0.0
  0
INSERT
  8
txt
  2
D9502
 10
15.280000
 20
5.430000
 41
1.0
 42
1.0
 43
1.0
 50
0.0
  0
INSERT
  8
txt
  2
D9502
 10
15.380000
 20
5.430000
 41
1.0
 42
1.0
 43
1.0
 50
0.0
  0
INSERT
  8
txt
  2
D9502
 10
15.480000
 20
5.430000
 41
1.0
 42
1.0
 43
1.0
 50
0.0
  0
INSERT
  8
txt
  2
D9502
 10
15.480000
 20
6.050000
 41
1.0
 42
1.0
 43
1.0
 50
0.0
  0
INSERT
  8
txt
  2
D9502
 10
15.380000
 20
6.050000
 41
1.0
 42
1.0
 43
1.0
 50
0.0
  0
INSERT
  8
txt
  2
D9502
 10
15.280000
 20
6.050000
 41
1.0
 42
1.0
 43
1.0
 50
0.0
  0
INSERT
  8
txt
  2
D9502
 10
15.180000
 20
6.050000
 41
1.0
 42
1.0
 43
1.0
 50
0.0
  0
INSERT
  8
txt
  2
D9502
 10
15.080000
 20
6.050000
 41
1.0
 42
1.0
 43
1.0
 50
0.0
  0
INSERT
  8
txt
  2
D9502
 10
14.980000
 20
6.050000
 41
1.0
 42
1.0
 43
1.0
 50
0.0
  0
INSERT
  8
txt
  2
D9502
 10
14.880000
 20
6.050000
 41
1.0
 42
1.0
 43
1.0
 50
0.0
  0
INSERT
  8
txt
  2
D9502
 10
14.780000
 20
6.050000
 41
1.0
 42
1.0
 43
1.0
 50
0.0
  0
INSERT
  8
txt
  2
D9502
 10
14.680000
 20
6.050000
 41
1.0
 42
1.0
 43
1.0
 50
0.0
  0
INSERT
  8
txt
  2
D9502
 10
14.580000
 20
6.050000
 41
1.0
 42
1.0
 43
1.0
 50
0.0
  0
INSERT
  8
txt
  2
D9502
 10
14.480000
 20
6.050000
 41
1.0
 42
1.0
 43
1.0
 50
0.0
  0
INSERT
  8
txt
  2
D9502
 10
14.380000
 20
6.050000
 41
1.0
 42
1.0
 43
1.0
 50
0.0
  0
INSERT
  8
txt
  2
D9502
 10
14.280000
 20
6.050000
 41
1.0
 42
1.0
 43
1.0
 50
0.0
  0
INSERT
  8
txt
  2
D9502
 10
14.180000
 20
6.050000
 41
1.0
 42
1.0
 43
1.0
 50
0.0
  0
INSERT
  8
txt
  2
D9502
 10
14.080000
 20
6.050000
 41
1.0
 42
1.0
 43
1.0
 50
0.0
  0
INSERT
  8
txt
  2
D9502
 10
13.980000
 20
6.050000
 41
1.0
 42
1.0
 43
1.0
 50
0.0
  0
INSERT
  8
txt
  2
D9502
 10
13.880000
 20
6.050000
 41
1.0
 42
1.0
 43
1.0
 50
0.0
  0
INSERT
  8
txt
  2
D9502
 10
13.780000
 20
6.050000
 41
1.0
 42
1.0
 43
1.0
 50
0.0
  0
INSERT
  8
txt
  2
D9502
 10
13.680000
 20
6.050000
 41
1.0
 42
1.0
 43
1.0
 50
0.0
  0
INSERT
  8
txt
  2
D9502
 10
13.580000
 20
6.050000
 41
1.0
 42
1.0
 43
1.0
 50
0.0
  0
INSERT
  8
txt
  2
D9502
 10
13.480000
 20
6.050000
 41
1.0
 42
1.0
 43
1.0
 50
0.0
  0
INSERT
  8
txt
  2
D9502
 10
13.380000
 20
6.050000
 41
1.0
 42
1.0
 43
1.0
 50
0.0
  0
INSERT
  8
txt
  2
D9502
 10
13.280000
 20
6.050000
 41
1.0
 42
1.0
 43
1.0
 50
0.0
  0
INSERT
  8
txt
  2
D9502
 10
13.180000
 20
6.050000
 41
1.0
 42
1.0
 43
1.0
 50
0.0
  0
INSERT
  8
txt
  2
D9502
 10
13.080000
 20
6.050000
 41
1.0
 42
1.0
 43
1.0
 50
0.0
  0
INSERT
  8
txt
  2
D9502
 10
12.980000
 20
6.050000
 41
1.0
 42
1.0
 43
1.0
 50
0.0
  0
INSERT
  8
txt
  2
D9502
 10
12.880000
 20
6.050000
 41
1.0
 42
1.0
 43
1.0
 50
0.0
  0
INSERT
  8
txt
  2
D9502
 10
12.880000
 20
5.430000
 41
1.0
 42
1.0
 43
1.0
 50
0.0
  0
INSERT
  8
txt
  2
D9502
 10
12.980000
 20
5.430000
 41
1.0
 42
1.0
 43
1.0
 50
0.0
  0
INSERT
  8
txt
  2
D9502
 10
13.080000
 20
5.430000
 41
1.0
 42
1.0
 43
1.0
 50
0.0
  0
INSERT
  8
txt
  2
D9502
 10
13.180000
 20
5.430000
 41
1.0
 42
1.0
 43
1.0
 50
0.0
  0
INSERT
  8
txt
  2
D9502
 10
13.280000
 20
5.430000
 41
1.0
 42
1.0
 43
1.0
 50
0.0
  0
INSERT
  8
txt
  2
D9502
 10
13.380000
 20
5.430000
 41
1.0
 42
1.0
 43
1.0
 50
0.0
  0
INSERT
  8
txt
  2
D9502
 10
13.480000
 20
5.430000
 41
1.0
 42
1.0
 43
1.0
 50
0.0
  0
INSERT
  8
txt
  2
D9502
 10
13.580000
 20
5.430000
 41
1.0
 42
1.0
 43
1.0
 50
0.0
  0
INSERT
  8
txt
  2
D9502
 10
13.680000
 20
5.430000
 41
1.0
 42
1.0
 43
1.0
 50
0.0
  0
INSERT
  8
txt
  2
D9502
 10
13.780000
 20
5.430000
 41
1.0
 42
1.0
 43
1.0
 50
0.0
  0
INSERT
  8
txt
  2
D9502
 10
13.880000
 20
5.430000
 41
1.0
 42
1.0
 43
1.0
 50
0.0
  0
INSERT
  8
txt
  2
D9502
 10
13.980000
 20
5.430000
 41
1.0
 42
1.0
 43
1.0
 50
0.0
  0
INSERT
  8
txt
  2
D9502
 10
11.840000
 20
5.440000
 41
1.0
 42
1.0
 43
1.0
 50
0.0
  0
INSERT
  8
txt
  2
D9502
 10
11.840000
 20
5.540000
 41
1.0
 42
1.0
 43
1.0
 50
0.0
  0
INSERT
  8
txt
  2
D9502
 10
11.740000
 20
5.540000
 41
1.0
 42
1.0
 43
1.0
 50
0.0
  0
INSERT
  8
txt
  2
D9502
 10
11.740000
 20
5.440000
 41
1.0
 42
1.0
 43
1.0
 50
0.0
  0
INSERT
  8
txt
  2
D9502
 10
11.640000
 20
5.440000
 41
1.0
 42
1.0
 43
1.0
 50
0.0
  0
INSERT
  8
txt
  2
D9502
 10
11.640000
 20
5.540000
 41
1.0
 42
1.0
 43
1.0
 50
0.0
  0
INSERT
  8
txt
  2
D9502
 10
11.540000
 20
5.540000
 41
1.0
 42
1.0
 43
1.0
 50
0.0
  0
INSERT
  8
txt
  2
D9502
 10
11.540000
 20
5.440000
 41
1.0
 42
1.0
 43
1.0
 50
0.0
  0
INSERT
  8
txt
  2
D9502
 10
11.440000
 20
5.440000
 41
1.0
 42
1.0
 43
1.0
 50
0.0
  0
INSERT
  8
txt
  2
D9502
 10
11.440000
 20
5.540000
 41
1.0
 42
1.0
 43
1.0
 50
0.0
  0
INSERT
  8
txt
  2
D9502
 10
11.340000
 20
5.540000
 41
1.0
 42
1.0
 43
1.0
 50
0.0
  0
INSERT
  8
txt
  2
D9502
 10
11.340000
 20
5.440000
 41
1.0
 42
1.0
 43
1.0
 50
0.0
  0
INSERT
  8
txt
  2
D9502
 10
11.240000
 20
5.440000
 41
1.0
 42
1.0
 43
1.0
 50
0.0
  0
INSERT
  8
txt
  2
D9502
 10
11.240000
 20
5.540000
 41
1.0
 42
1.0
 43
1.0
 50
0.0
  0
INSERT
  8
txt
  2
D9502
 10
11.140000
 20
5.540000
 41
1.0
 42
1.0
 43
1.0
 50
0.0
  0
INSERT
  8
txt
  2
D9502
 10
11.140000
 20
5.440000
 41
1.0
 42
1.0
 43
1.0
 50
0.0
  0
INSERT
  8
txt
  2
D9502
 10
11.040000
 20
5.440000
 41
1.0
 42
1.0
 43
1.0
 50
0.0
  0
INSERT
  8
txt
  2
D9502
 10
11.040000
 20
5.540000
 41
1.0
 42
1.0
 43
1.0
 50
0.0
  0
INSERT
  8
txt
  2
D9502
 10
10.940000
 20
5.540000
 41
1.0
 42
1.0
 43
1.0
 50
0.0
  0
INSERT
  8
txt
  2
D9502
 10
10.940000
 20
5.440000
 41
1.0
 42
1.0
 43
1.0
 50
0.0
  0
INSERT
  8
txt
  2
D9502
 10
10.960000
 20
5.220000
 41
1.0
 42
1.0
 43
1.0
 50
0.0
  0
INSERT
  8
txt
  2
D9502
 10
11.060000
 20
5.220000
 41
1.0
 42
1.0
 43
1.0
 50
0.0
  0
INSERT
  8
txt
  2
D9502
 10
11.060000
 20
5.120000
 41
1.0
 42
1.0
 43
1.0
 50
0.0
  0
INSERT
  8
txt
  2
D9502
 10
10.960000
 20
5.120000
 41
1.0
 42
1.0
 43
1.0
 50
0.0
  0
INSERT
  8
txt
  2
D9502
 10
10.980000
 20
6.050000
 41
1.0
 42
1.0
 43
1.0
 50
0.0
  0
INSERT
  8
txt
  2
D9502
 10
11.080000
 20
6.050000
 41
1.0
 42
1.0
 43
1.0
 50
0.0
  0
INSERT
  8
txt
  2
D9502
 10
11.180000
 20
6.050000
 41
1.0
 42
1.0
 43
1.0
 50
0.0
  0
INSERT
  8
txt
  2
D9502
 10
11.280000
 20
6.050000
 41
1.0
 42
1.0
 43
1.0
 50
0.0
  0
INSERT
  8
txt
  2
D9502
 10
11.380000
 20
6.050000
 41
1.0
 42
1.0
 43
1.0
 50
0.0
  0
INSERT
  8
txt
  2
D9502
 10
11.480000
 20
6.050000
 41
1.0
 42
1.0
 43
1.0
 50
0.0
  0
INSERT
  8
txt
  2
D9502
 10
11.580000
 20
6.050000
 41
1.0
 42
1.0
 43
1.0
 50
0.0
  0
INSERT
  8
txt
  2
D9502
 10
11.680000
 20
6.050000
 41
1.0
 42
1.0
 43
1.0
 50
0.0
  0
INSERT
  8
txt
  2
D9502
 10
11.780000
 20
6.050000
 41
1.0
 42
1.0
 43
1.0
 50
0.0
  0
INSERT
  8
txt
  2
D9502
 10
11.880000
 20
6.050000
 41
1.0
 42
1.0
 43
1.0
 50
0.0
  0
INSERT
  8
txt
  2
D9502
 10
11.980000
 20
6.050000
 41
1.0
 42
1.0
 43
1.0
 50
0.0
  0
INSERT
  8
txt
  2
D9502
 10
12.080000
 20
6.050000
 41
1.0
 42
1.0
 43
1.0
 50
0.0
  0
INSERT
  8
txt
  2
D9502
 10
12.180000
 20
6.050000
 41
1.0
 42
1.0
 43
1.0
 50
0.0
  0
INSERT
  8
txt
  2
D9502
 10
12.280000
 20
6.050000
 41
1.0
 42
1.0
 43
1.0
 50
0.0
  0
INSERT
  8
txt
  2
D9502
 10
12.380000
 20
6.050000
 41
1.0
 42
1.0
 43
1.0
 50
0.0
  0
INSERT
  8
txt
  2
D9502
 10
10.880000
 20
6.050000
 41
1.0
 42
1.0
 43
1.0
 50
0.0
  0
INSERT
  8
txt
  2
D9502
 10
10.780000
 20
6.050000
 41
1.0
 42
1.0
 43
1.0
 50
0.0
  0
INSERT
  8
txt
  2
D9502
 10
10.680000
 20
6.050000
 41
1.0
 42
1.0
 43
1.0
 50
0.0
  0
INSERT
  8
txt
  2
D9502
 10
10.580000
 20
6.050000
 41
1.0
 42
1.0
 43
1.0
 50
0.0
  0
INSERT
  8
txt
  2
D9502
 10
10.480000
 20
6.050000
 41
1.0
 42
1.0
 43
1.0
 50
0.0
  0
INSERT
  8
txt
  2
D9502
 10
10.380000
 20
6.050000
 41
1.0
 42
1.0
 43
1.0
 50
0.0
  0
INSERT
  8
txt
  2
D9502
 10
10.280000
 20
6.050000
 41
1.0
 42
1.0
 43
1.0
 50
0.0
  0
INSERT
  8
txt
  2
D9502
 10
10.180000
 20
6.050000
 41
1.0
 42
1.0
 43
1.0
 50
0.0
  0
INSERT
  8
txt
  2
D9502
 10
10.080000
 20
6.050000
 41
1.0
 42
1.0
 43
1.0
 50
0.0
  0
INSERT
  8
txt
  2
D9502
 10
9.980000
 20
6.050000
 41
1.0
 42
1.0
 43
1.0
 50
0.0
  0
INSERT
  8
txt
  2
D9502
 10
9.880000
 20
6.050000
 41
1.0
 42
1.0
 43
1.0
 50
0.0
  0
INSERT
  8
txt
  2
D9502
 10
9.780000
 20
6.050000
 41
1.0
 42
1.0
 43
1.0
 50
0.0
  0
INSERT
  8
txt
  2
D9502
 10
10.240000
 20
5.540000
 41
1.0
 42
1.0
 43
1.0
 50
0.0
  0
INSERT
  8
txt
  2
D9502
 10
10.340000
 20
5.540000
 41
1.0
 42
1.0
 43
1.0
 50
0.0
  0
INSERT
  8
txt
  2
D9502
 10
10.440000
 20
5.540000
 41
1.0
 42
1.0
 43
1.0
 50
0.0
  0
INSERT
  8
txt
  2
D9502
 10
10.540000
 20
5.540000
 41
1.0
 42
1.0
 43
1.0
 50
0.0
  0
INSERT
  8
txt
  2
D9502
 10
10.640000
 20
5.540000
 41
1.0
 42
1.0
 43
1.0
 50
0.0
  0
INSERT
  8
txt
  2
D9502
 10
10.740000
 20
5.540000
 41
1.0
 42
1.0
 43
1.0
 50
0.0
  0
INSERT
  8
txt
  2
D9502
 10
10.840000
 20
5.540000
 41
1.0
 42
1.0
 43
1.0
 50
0.0
  0
INSERT
  8
txt
  2
D9502
 10
10.840000
 20
5.440000
 41
1.0
 42
1.0
 43
1.0
 50
0.0
  0
INSERT
  8
txt
  2
D9502
 10
10.740000
 20
5.440000
 41
1.0
 42
1.0
 43
1.0
 50
0.0
  0
INSERT
  8
txt
  2
D9502
 10
10.640000
 20
5.440000
 41
1.0
 42
1.0
 43
1.0
 50
0.0
  0
INSERT
  8
txt
  2
D9502
 10
10.540000
 20
5.440000
 41
1.0
 42
1.0
 43
1.0
 50
0.0
  0
INSERT
  8
txt
  2
D9502
 10
10.440000
 20
5.440000
 41
1.0
 42
1.0
 43
1.0
 50
0.0
  0
INSERT
  8
txt
  2
D9502
 10
10.340000
 20
5.440000
 41
1.0
 42
1.0
 43
1.0
 50
0.0
  0
INSERT
  8
txt
  2
D9502
 10
10.240000
 20
5.440000
 41
1.0
 42
1.0
 43
1.0
 50
0.0
  0
INSERT
  8
txt
  2
D9502
 10
10.860000
 20
5.220000
 41
1.0
 42
1.0
 43
1.0
 50
0.0
  0
INSERT
  8
txt
  2
D9502
 10
10.860000
 20
5.120000
 41
1.0
 42
1.0
 43
1.0
 50
0.0
  0
INSERT
  8
txt
  2
D9502
 10
9.160000
 20
5.480000
 41
1.0
 42
1.0
 43
1.0
 50
0.0
  0
INSERT
  8
txt
  2
D9502
 10
9.060000
 20
5.480000
 41
1.0
 42
1.0
 43
1.0
 50
0.0
  0
INSERT
  8
txt
  2
D9502
 10
8.960000
 20
5.480000
 41
1.0
 42
1.0
 43
1.0
 50
0.0
  0
INSERT
  8
txt
  2
D9502
 10
8.860000
 20
5.480000
 41
1.0
 42
1.0
 43
1.0
 50
0.0
  0
INSERT
  8
txt
  2
D9502
 10
8.760000
 20
5.480000
 41
1.0
 42
1.0
 43
1.0
 50
0.0
  0
INSERT
  8
txt
  2
D9502
 10
8.660000
 20
5.480000
 41
1.0
 42
1.0
 43
1.0
 50
0.0
  0
INSERT
  8
txt
  2
D9502
 10
8.560000
 20
5.480000
 41
1.0
 42
1.0
 43
1.0
 50
0.0
  0
INSERT
  8
txt
  2
D9502
 10
8.460000
 20
5.480000
 41
1.0
 42
1.0
 43
1.0
 50
0.0
  0
INSERT
  8
txt
  2
D9502
 10
8.360000
 20
5.480000
 41
1.0
 42
1.0
 43
1.0
 50
0.0
  0
INSERT
  8
txt
  2
D9502
 10
8.260000
 20
5.480000
 41
1.0
 42
1.0
 43
1.0
 50
0.0
  0
INSERT
  8
txt
  2
D9502
 10
8.160000
 20
5.480000
 41
1.0
 42
1.0
 43
1.0
 50
0.0
  0
INSERT
  8
txt
  2
D9502
 10
8.060000
 20
5.480000
 41
1.0
 42
1.0
 43
1.0
 50
0.0
  0
INSERT
  8
txt
  2
D9502
 10
7.960000
 20
5.480000
 41
1.0
 42
1.0
 43
1.0
 50
0.0
  0
INSERT
  8
txt
  2
D9502
 10
7.860000
 20
5.480000
 41
1.0
 42
1.0
 43
1.0
 50
0.0
  0
INSERT
  8
txt
  2
D9502
 10
7.860000
 20
6.050000
 41
1.0
 42
1.0
 43
1.0
 50
0.0
  0
INSERT
  8
txt
  2
D9502
 10
7.960000
 20
6.050000
 41
1.0
 42
1.0
 43
1.0
 50
0.0
  0
INSERT
  8
txt
  2
D9502
 10
8.060000
 20
6.050000
 41
1.0
 42
1.0
 43
1.0
 50
0.0
  0
INSERT
  8
txt
  2
D9502
 10
8.160000
 20
6.050000
 41
1.0
 42
1.0
 43
1.0
 50
0.0
  0
INSERT
  8
txt
  2
D9502
 10
8.260000
 20
6.050000
 41
1.0
 42
1.0
 43
1.0
 50
0.0
  0
INSERT
  8
txt
  2
D9502
 10
8.360000
 20
6.050000
 41
1.0
 42
1.0
 43
1.0
 50
0.0
  0
INSERT
  8
txt
  2
D9502
 10
8.460000
 20
6.050000
 41
1.0
 42
1.0
 43
1.0
 50
0.0
  0
INSERT
  8
txt
  2
D9502
 10
8.560000
 20
6.050000
 41
1.0
 42
1.0
 43
1.0
 50
0.0
  0
INSERT
  8
txt
  2
D9502
 10
8.660000
 20
6.050000
 41
1.0
 42
1.0
 43
1.0
 50
0.0
  0
INSERT
  8
txt
  2
D9502
 10
8.760000
 20
6.050000
 41
1.0
 42
1.0
 43
1.0
 50
0.0
  0
INSERT
  8
txt
  2
D9502
 10
8.860000
 20
6.050000
 41
1.0
 42
1.0
 43
1.0
 50
0.0
  0
INSERT
  8
txt
  2
D9502
 10
8.960000
 20
6.050000
 41
1.0
 42
1.0
 43
1.0
 50
0.0
  0
INSERT
  8
txt
  2
D9502
 10
9.060000
 20
6.050000
 41
1.0
 42
1.0
 43
1.0
 50
0.0
  0
INSERT
  8
txt
  2
D9502
 10
9.160000
 20
6.050000
 41
1.0
 42
1.0
 43
1.0
 50
0.0
  0
INSERT
  8
txt
  2
D9502
 10
7.760000
 20
6.050000
 41
1.0
 42
1.0
 43
1.0
 50
0.0
  0
INSERT
  8
txt
  2
D9502
 10
7.660000
 20
6.050000
 41
1.0
 42
1.0
 43
1.0
 50
0.0
  0
INSERT
  8
txt
  2
D9502
 10
7.560000
 20
6.050000
 41
1.0
 42
1.0
 43
1.0
 50
0.0
  0
INSERT
  8
txt
  2
D9502
 10
7.460000
 20
6.050000
 41
1.0
 42
1.0
 43
1.0
 50
0.0
  0
INSERT
  8
txt
  2
D9502
 10
7.360000
 20
6.050000
 41
1.0
 42
1.0
 43
1.0
 50
0.0
  0
INSERT
  8
txt
  2
D9502
 10
7.260000
 20
6.050000
 41
1.0
 42
1.0
 43
1.0
 50
0.0
  0
INSERT
  8
txt
  2
D9502
 10
7.160000
 20
6.050000
 41
1.0
 42
1.0
 43
1.0
 50
0.0
  0
INSERT
  8
txt
  2
D9502
 10
7.060000
 20
6.050000
 41
1.0
 42
1.0
 43
1.0
 50
0.0
  0
INSERT
  8
txt
  2
D9502
 10
6.960000
 20
6.050000
 41
1.0
 42
1.0
 43
1.0
 50
0.0
  0
INSERT
  8
txt
  2
D9502
 10
6.860000
 20
6.050000
 41
1.0
 42
1.0
 43
1.0
 50
0.0
  0
INSERT
  8
txt
  2
D9502
 10
6.760000
 20
6.050000
 41
1.0
 42
1.0
 43
1.0
 50
0.0
  0
INSERT
  8
txt
  2
D9502
 10
6.660000
 20
6.050000
 41
1.0
 42
1.0
 43
1.0
 50
0.0
  0
INSERT
  8
txt
  2
D9502
 10
6.560000
 20
6.050000
 41
1.0
 42
1.0
 43
1.0
 50
0.0
  0
INSERT
  8
txt
  2
D9502
 10
6.560000
 20
5.480000
 41
1.0
 42
1.0
 43
1.0
 50
0.0
  0
INSERT
  8
txt
  2
D9502
 10
6.660000
 20
5.480000
 41
1.0
 42
1.0
 43
1.0
 50
0.0
  0
INSERT
  8
txt
  2
D9502
 10
6.760000
 20
5.480000
 41
1.0
 42
1.0
 43
1.0
 50
0.0
  0
INSERT
  8
txt
  2
D9502
 10
6.860000
 20
5.480000
 41
1.0
 42
1.0
 43
1.0
 50
0.0
  0
INSERT
  8
txt
  2
D9502
 10
6.960000
 20
5.480000
 41
1.0
 42
1.0
 43
1.0
 50
0.0
  0
INSERT
  8
txt
  2
D9502
 10
7.060000
 20
5.480000
 41
1.0
 42
1.0
 43
1.0
 50
0.0
  0
INSERT
  8
txt
  2
D9502
 10
7.160000
 20
5.480000
 41
1.0
 42
1.0
 43
1.0
 50
0.0
  0
INSERT
  8
txt
  2
D9502
 10
7.260000
 20
5.480000
 41
1.0
 42
1.0
 43
1.0
 50
0.0
  0
INSERT
  8
txt
  2
D9502
 10
7.360000
 20
5.480000
 41
1.0
 42
1.0
 43
1.0
 50
0.0
  0
INSERT
  8
txt
  2
D9502
 10
7.460000
 20
5.480000
 41
1.0
 42
1.0
 43
1.0
 50
0.0
  0
INSERT
  8
txt
  2
D9502
 10
7.560000
 20
5.480000
 41
1.0
 42
1.0
 43
1.0
 50
0.0
  0
INSERT
  8
txt
  2
D9502
 10
7.660000
 20
5.480000
 41
1.0
 42
1.0
 43
1.0
 50
0.0
  0
INSERT
  8
txt
  2
D9502
 10
7.760000
 20
5.480000
 41
1.0
 42
1.0
 43
1.0
 50
0.0
  0
INSERT
  8
txt
  2
D9502
 10
7.760000
 20
6.950000
 41
1.0
 42
1.0
 43
1.0
 50
0.0
  0
INSERT
  8
txt
  2
D9502
 10
7.660000
 20
6.950000
 41
1.0
 42
1.0
 43
1.0
 50
0.0
  0
INSERT
  8
txt
  2
D9502
 10
7.560000
 20
6.950000
 41
1.0
 42
1.0
 43
1.0
 50
0.0
  0
INSERT
  8
txt
  2
D9502
 10
7.460000
 20
6.950000
 41
1.0
 42
1.0
 43
1.0
 50
0.0
  0
INSERT
  8
txt
  2
D9502
 10
7.360000
 20
6.950000
 41
1.0
 42
1.0
 43
1.0
 50
0.0
  0
INSERT
  8
txt
  2
D9502
 10
7.260000
 20
6.950000
 41
1.0
 42
1.0
 43
1.0
 50
0.0
  0
INSERT
  8
txt
  2
D9502
 10
7.160000
 20
6.950000
 41
1.0
 42
1.0
 43
1.0
 50
0.0
  0
INSERT
  8
txt
  2
D9502
 10
7.060000
 20
6.950000
 41
1.0
 42
1.0
 43
1.0
 50
0.0
  0
INSERT
  8
txt
  2
D9502
 10
6.960000
 20
6.950000
 41
1.0
 42
1.0
 43
1.0
 50
0.0
  0
INSERT
  8
txt
  2
D9502
 10
6.860000
 20
6.950000
 41
1.0
 42
1.0
 43
1.0
 50
0.0
  0
INSERT
  8
txt
  2
D9502
 10
6.760000
 20
6.950000
 41
1.0
 42
1.0
 43
1.0
 50
0.0
  0
INSERT
  8
txt
  2
D9502
 10
6.660000
 20
6.950000
 41
1.0
 42
1.0
 43
1.0
 50
0.0
  0
INSERT
  8
txt
  2
D9502
 10
6.560000
 20
6.950000
 41
1.0
 42
1.0
 43
1.0
 50
0.0
  0
INSERT
  8
txt
  2
D9502
 10
6.490000
 20
7.140000
 41
1.0
 42
1.0
 43
1.0
 50
0.0
  0
INSERT
  8
txt
  2
D9502
 10
6.490000
 20
7.440000
 41
1.0
 42
1.0
 43
1.0
 50
0.0
  0
INSERT
  8
txt
  2
D9502
 10
6.490000
 20
7.540000
 41
1.0
 42
1.0
 43
1.0
 50
0.0
  0
INSERT
  8
txt
  2
D9502
 10
7.390000
 20
7.540000
 41
1.0
 42
1.0
 43
1.0
 50
0.0
  0
INSERT
  8
txt
  2
D9502
 10
7.390000
 20
7.440000
 41
1.0
 42
1.0
 43
1.0
 50
0.0
  0
INSERT
  8
txt
  2
D9502
 10
7.390000
 20
7.240000
 41
1.0
 42
1.0
 43
1.0
 50
0.0
  0
INSERT
  8
txt
  2
D9502
 10
7.390000
 20
7.140000
 41
1.0
 42
1.0
 43
1.0
 50
0.0
  0
INSERT
  8
txt
  2
D9502
 10
7.860000
 20
6.950000
 41
1.0
 42
1.0
 43
1.0
 50
0.0
  0
INSERT
  8
txt
  2
D9502
 10
7.960000
 20
6.950000
 41
1.0
 42
1.0
 43
1.0
 50
0.0
  0
INSERT
  8
txt
  2
D9502
 10
8.060000
 20
6.950000
 41
1.0
 42
1.0
 43
1.0
 50
0.0
  0
INSERT
  8
txt
  2
D9502
 10
8.160000
 20
6.950000
 41
1.0
 42
1.0
 43
1.0
 50
0.0
  0
INSERT
  8
txt
  2
D9502
 10
8.260000
 20
6.950000
 41
1.0
 42
1.0
 43
1.0
 50
0.0
  0
INSERT
  8
txt
  2
D9502
 10
8.360000
 20
6.950000
 41
1.0
 42
1.0
 43
1.0
 50
0.0
  0
INSERT
  8
txt
  2
D9502
 10
8.460000
 20
6.950000
 41
1.0
 42
1.0
 43
1.0
 50
0.0
  0
INSERT
  8
txt
  2
D9502
 10
8.560000
 20
6.950000
 41
1.0
 42
1.0
 43
1.0
 50
0.0
  0
INSERT
  8
txt
  2
D9502
 10
8.660000
 20
6.950000
 41
1.0
 42
1.0
 43
1.0
 50
0.0
  0
INSERT
  8
txt
  2
D9502
 10
8.760000
 20
6.950000
 41
1.0
 42
1.0
 43
1.0
 50
0.0
  0
INSERT
  8
txt
  2
D9502
 10
8.860000
 20
6.950000
 41
1.0
 42
1.0
 43
1.0
 50
0.0
  0
INSERT
  8
txt
  2
D9502
 10
8.960000
 20
6.950000
 41
1.0
 42
1.0
 43
1.0
 50
0.0
  0
INSERT
  8
txt
  2
D9502
 10
9.060000
 20
6.950000
 41
1.0
 42
1.0
 43
1.0
 50
0.0
  0
INSERT
  8
txt
  2
D9502
 10
9.160000
 20
6.950000
 41
1.0
 42
1.0
 43
1.0
 50
0.0
  0
INSERT
  8
txt
  2
D9502
 10
9.780000
 20
6.950000
 41
1.0
 42
1.0
 43
1.0
 50
0.0
  0
INSERT
  8
txt
  2
D9502
 10
9.880000
 20
6.950000
 41
1.0
 42
1.0
 43
1.0
 50
0.0
  0
INSERT
  8
txt
  2
D9502
 10
9.980000
 20
6.950000
 41
1.0
 42
1.0
 43
1.0
 50
0.0
  0
INSERT
  8
txt
  2
D9502
 10
10.080000
 20
6.950000
 41
1.0
 42
1.0
 43
1.0
 50
0.0
  0
INSERT
  8
txt
  2
D9502
 10
10.180000
 20
6.950000
 41
1.0
 42
1.0
 43
1.0
 50
0.0
  0
INSERT
  8
txt
  2
D9502
 10
10.280000
 20
6.950000
 41
1.0
 42
1.0
 43
1.0
 50
0.0
  0
INSERT
  8
txt
  2
D9502
 10
10.380000
 20
6.950000
 41
1.0
 42
1.0
 43
1.0
 50
0.0
  0
INSERT
  8
txt
  2
D9502
 10
10.480000
 20
6.950000
 41
1.0
 42
1.0
 43
1.0
 50
0.0
  0
INSERT
  8
txt
  2
D9502
 10
10.580000
 20
6.950000
 41
1.0
 42
1.0
 43
1.0
 50
0.0
  0
INSERT
  8
txt
  2
D9502
 10
10.680000
 20
6.950000
 41
1.0
 42
1.0
 43
1.0
 50
0.0
  0
INSERT
  8
txt
  2
D9502
 10
10.780000
 20
6.950000
 41
1.0
 42
1.0
 43
1.0
 50
0.0
  0
INSERT
  8
txt
  2
D9502
 10
10.880000
 20
6.950000
 41
1.0
 42
1.0
 43
1.0
 50
0.0
  0
INSERT
  8
txt
  2
D9502
 10
10.980000
 20
6.950000
 41
1.0
 42
1.0
 43
1.0
 50
0.0
  0
INSERT
  8
txt
  2
D9502
 10
11.080000
 20
6.950000
 41
1.0
 42
1.0
 43
1.0
 50
0.0
  0
INSERT
  8
txt
  2
D9502
 10
11.180000
 20
6.950000
 41
1.0
 42
1.0
 43
1.0
 50
0.0
  0
INSERT
  8
txt
  2
D9502
 10
11.280000
 20
6.950000
 41
1.0
 42
1.0
 43
1.0
 50
0.0
  0
INSERT
  8
txt
  2
D9502
 10
11.380000
 20
6.950000
 41
1.0
 42
1.0
 43
1.0
 50
0.0
  0
INSERT
  8
txt
  2
D9502
 10
11.480000
 20
6.950000
 41
1.0
 42
1.0
 43
1.0
 50
0.0
  0
INSERT
  8
txt
  2
D9502
 10
11.580000
 20
6.950000
 41
1.0
 42
1.0
 43
1.0
 50
0.0
  0
INSERT
  8
txt
  2
D9502
 10
11.680000
 20
6.950000
 41
1.0
 42
1.0
 43
1.0
 50
0.0
  0
INSERT
  8
txt
  2
D9502
 10
11.780000
 20
6.950000
 41
1.0
 42
1.0
 43
1.0
 50
0.0
  0
INSERT
  8
txt
  2
D9502
 10
11.880000
 20
6.950000
 41
1.0
 42
1.0
 43
1.0
 50
0.0
  0
INSERT
  8
txt
  2
D9502
 10
11.980000
 20
6.950000
 41
1.0
 42
1.0
 43
1.0
 50
0.0
  0
INSERT
  8
txt
  2
D9502
 10
12.080000
 20
6.950000
 41
1.0
 42
1.0
 43
1.0
 50
0.0
  0
INSERT
  8
txt
  2
D9502
 10
12.180000
 20
6.950000
 41
1.0
 42
1.0
 43
1.0
 50
0.0
  0
INSERT
  8
txt
  2
D9502
 10
12.280000
 20
6.950000
 41
1.0
 42
1.0
 43
1.0
 50
0.0
  0
INSERT
  8
txt
  2
D9502
 10
12.380000
 20
6.950000
 41
1.0
 42
1.0
 43
1.0
 50
0.0
  0
INSERT
  8
txt
  2
D9502
 10
12.880000
 20
6.950000
 41
1.0
 42
1.0
 43
1.0
 50
0.0
  0
INSERT
  8
txt
  2
D9502
 10
12.980000
 20
6.950000
 41
1.0
 42
1.0
 43
1.0
 50
0.0
  0
INSERT
  8
txt
  2
D9502
 10
13.080000
 20
6.950000
 41
1.0
 42
1.0
 43
1.0
 50
0.0
  0
INSERT
  8
txt
  2
D9502
 10
13.180000
 20
6.950000
 41
1.0
 42
1.0
 43
1.0
 50
0.0
  0
INSERT
  8
txt
  2
D9502
 10
13.280000
 20
6.950000
 41
1.0
 42
1.0
 43
1.0
 50
0.0
  0
INSERT
  8
txt
  2
D9502
 10
13.380000
 20
6.950000
 41
1.0
 42
1.0
 43
1.0
 50
0.0
  0
INSERT
  8
txt
  2
D9502
 10
13.480000
 20
6.950000
 41
1.0
 42
1.0
 43
1.0
 50
0.0
  0
INSERT
  8
txt
  2
D9502
 10
13.580000
 20
6.950000
 41
1.0
 42
1.0
 43
1.0
 50
0.0
  0
INSERT
  8
txt
  2
D9502
 10
13.680000
 20
6.950000
 41
1.0
 42
1.0
 43
1.0
 50
0.0
  0
INSERT
  8
txt
  2
D9502
 10
13.780000
 20
6.950000
 41
1.0
 42
1.0
 43
1.0
 50
0.0
  0
INSERT
  8
txt
  2
D9502
 10
13.880000
 20
6.950000
 41
1.0
 42
1.0
 43
1.0
 50
0.0
  0
INSERT
  8
txt
  2
D9502
 10
13.980000
 20
6.950000
 41
1.0
 42
1.0
 43
1.0
 50
0.0
  0
INSERT
  8
txt
  2
D9502
 10
14.080000
 20
6.950000
 41
1.0
 42
1.0
 43
1.0
 50
0.0
  0
INSERT
  8
txt
  2
D9502
 10
14.180000
 20
6.950000
 41
1.0
 42
1.0
 43
1.0
 50
0.0
  0
INSERT
  8
txt
  2
D9502
 10
14.280000
 20
6.950000
 41
1.0
 42
1.0
 43
1.0
 50
0.0
  0
INSERT
  8
txt
  2
D9502
 10
14.380000
 20
6.950000
 41
1.0
 42
1.0
 43
1.0
 50
0.0
  0
INSERT
  8
txt
  2
D9502
 10
14.480000
 20
6.950000
 41
1.0
 42
1.0
 43
1.0
 50
0.0
  0
INSERT
  8
txt
  2
D9502
 10
14.580000
 20
6.950000
 41
1.0
 42
1.0
 43
1.0
 50
0.0
  0
INSERT
  8
txt
  2
D9502
 10
14.680000
 20
6.950000
 41
1.0
 42
1.0
 43
1.0
 50
0.0
  0
INSERT
  8
txt
  2
D9502
 10
14.780000
 20
6.950000
 41
1.0
 42
1.0
 43
1.0
 50
0.0
  0
INSERT
  8
txt
  2
D9502
 10
14.880000
 20
6.950000
 41
1.0
 42
1.0
 43
1.0
 50
0.0
  0
INSERT
  8
txt
  2
D9502
 10
14.980000
 20
6.950000
 41
1.0
 42
1.0
 43
1.0
 50
0.0
  0
INSERT
  8
txt
  2
D9502
 10
15.080000
 20
6.950000
 41
1.0
 42
1.0
 43
1.0
 50
0.0
  0
INSERT
  8
txt
  2
D9502
 10
15.180000
 20
6.950000
 41
1.0
 42
1.0
 43
1.0
 50
0.0
  0
INSERT
  8
txt
  2
D9502
 10
15.280000
 20
6.950000
 41
1.0
 42
1.0
 43
1.0
 50
0.0
  0
INSERT
  8
txt
  2
D9502
 10
15.380000
 20
6.950000
 41
1.0
 42
1.0
 43
1.0
 50
0.0
  0
INSERT
  8
txt
  2
D9502
 10
15.480000
 20
6.950000
 41
1.0
 42
1.0
 43
1.0
 50
0.0
  0
INSERT
  8
txt
  2
D9503
 10
7.900787
 20
7.609055
 41
1.0
 42
1.0
 43
1.0
 50
0.0
  0
INSERT
  8
txt
  2
D9503
 10
7.900787
 20
7.687795
 41
1.0
 42
1.0
 43
1.0
 50
0.0
  0
INSERT
  8
txt
  2
D9503
 10
7.999213
 20
7.687795
 41
1.0
 42
1.0
 43
1.0
 50
0.0
  0
INSERT
  8
txt
  2
D9503
 10
7.999213
 20
7.609055
 41
1.0
 42
1.0
 43
1.0
 50
0.0
  0
INSERT
  8
txt
  2
D9504
 10
10.030000
 20
3.510000
 41
1.0
 42
1.0
 43
1.0
 50
0.0
  0
INSERT
  8
txt
  2
D9504
 10
10.030000
 20
3.610000
 41
1.0
 42
1.0
 43
1.0
 50
0.0
  0
INSERT
  8
txt
  2
D9504
 10
10.030000
 20
3.710000
 41
1.0
 42
1.0
 43
1.0
 50
0.0
  0
INSERT
  8
txt
  2
D9504
 10
7.319213
 20
7.700630
 41
1.0
 42
1.0
 43
1.0
 50
0.0
  0
INSERT
  8
txt
  2
D9504
 10
7.220787
 20
7.700630
 41
1.0
 42
1.0
 43
1.0
 50
0.0
  0
INSERT
  8
txt
  2
D9504
 10
7.073150
 20
7.787244
 41
1.0
 42
1.0
 43
1.0
 50
0.0
  0
INSERT
  8
txt
  2
D9504
 10
8.170000
 20
7.288425
 41
1.0
 42
1.0
 43
1.0
 50
0.0
  0
INSERT
  8
txt
  2
D9504
 10
8.170000
 20
7.091575
 41
1.0
 42
1.0
 43
1.0
 50
0.0
  0
INSERT
  8
txt
  2
D9504
 10
7.309370
 20
7.944724
 41
1.0
 42
1.0
 43
1.0
 50
0.0
  0
INSERT
  8
txt
  2
D9504
 10
7.230630
 20
7.944724
 41
1.0
 42
1.0
 43
1.0
 50
0.0
  0
INSERT
  8
txt
  2
D9504
 10
7.073150
 20
7.865984
 41
1.0
 42
1.0
 43
1.0
 50
0.0
  0
INSERT
  8
txt
  2
D9505
 10
8.824724
 20
7.771969
 41
1.0
 42
1.0
 43
1.0
 50
0.0
  0
INSERT
  8
txt
  2
D9505
 10
8.933780
 20
7.771969
 41
1.0
 42
1.0
 43
1.0
 50
0.0
  0
INSERT
  8
txt
  2
D9505
 10
9.042835
 20
7.771969
 41
1.0
 42
1.0
 43
1.0
 50
0.0
  0
INSERT
  8
txt
  2
D9505
 10
9.151890
 20
7.771969
 41
1.0
 42
1.0
 43
1.0
 50
0.0
  0
INSERT
  8
txt
  2
D9505
 10
9.260945
 20
7.771969
 41
1.0
 42
1.0
 43
1.0
 50
0.0
  0
INSERT
  8
txt
  2
D9505
 10
9.370000
 20
7.771969
 41
1.0
 42
1.0
 43
1.0
 50
0.0
  0
INSERT
  8
txt
  2
D9505
 10
9.479055
 20
7.771969
 41
1.0
 42
1.0
 43
1.0
 50
0.0
  0
INSERT
  8
txt
  2
D9505
 10
9.588110
 20
7.771969
 41
1.0
 42
1.0
 43
1.0
 50
0.0
  0
INSERT
  8
txt
  2
D9505
 10
10.501394
 20
7.771969
 41
1.0
 42
1.0
 43
1.0
 50
0.0
  0
INSERT
  8
txt
  2
D9505
 10
10.610445
 20
7.771969
 41
1.0
 42
1.0
 43
1.0
 50
0.0
  0
INSERT
  8
txt
  2
D9505
 10
10.719500
 20
7.771969
 41
1.0
 42
1.0
 43
1.0
 50
0.0
  0
INSERT
  8
txt
  2
D9505
 10
10.828555
 20
7.771969
 41
1.0
 42
1.0
 43
1.0
 50
0.0
  0
INSERT
  8
txt
  2
D9505
 10
10.937614
 20
7.771969
 41
1.0
 42
1.0
 43
1.0
 50
0.0
  0
INSERT
  8
txt
  2
D9505
 10
11.046669
 20
7.771969
 41
1.0
 42
1.0
 43
1.0
 50
0.0
  0
INSERT
  8
txt
  2
D9505
 10
11.155720
 20
7.771969
 41
1.0
 42
1.0
 43
1.0
 50
0.0
  0
INSERT
  8
txt
  2
D9505
 10
11.264776
 20
7.771969
 41
1.0
 42
1.0
 43
1.0
 50
0.0
  0
INSERT
  8
txt
  2
D9505
 10
12.178059
 20
7.771969
 41
1.0
 42
1.0
 43
1.0
 50
0.0
  0
INSERT
  8
txt
  2
D9505
 10
12.287114
 20
7.771969
 41
1.0
 42
1.0
 43
1.0
 50
0.0
  0
INSERT
  8
txt
  2
D9505
 10
12.396169
 20
7.771969
 41
1.0
 42
1.0
 43
1.0
 50
0.0
  0
INSERT
  8
txt
  2
D9505
 10
12.505224
 20
7.771969
 41
1.0
 42
1.0
 43
1.0
 50
0.0
  0
INSERT
  8
txt
  2
D9505
 10
12.614280
 20
7.771969
 41
1.0
 42
1.0
 43
1.0
 50
0.0
  0
INSERT
  8
txt
  2
D9505
 10
12.723335
 20
7.771969
 41
1.0
 42
1.0
 43
1.0
 50
0.0
  0
INSERT
  8
txt
  2
D9505
 10
12.832390
 20
7.771969
 41
1.0
 42
1.0
 43
1.0
 50
0.0
  0
INSERT
  8
txt
  2
D9505
 10
12.941445
 20
7.771969
 41
1.0
 42
1.0
 43
1.0
 50
0.0
  0
INSERT
  8
txt
  2
D9505
 10
13.854724
 20
7.775906
 41
1.0
 42
1.0
 43
1.0
 50
0.0
  0
INSERT
  8
txt
  2
D9505
 10
13.963780
 20
7.775906
 41
1.0
 42
1.0
 43
1.0
 50
0.0
  0
INSERT
  8
txt
  2
D9505
 10
14.072835
 20
7.775906
 41
1.0
 42
1.0
 43
1.0
 50
0.0
  0
INSERT
  8
txt
  2
D9505
 10
14.181890
 20
7.775906
 41
1.0
 42
1.0
 43
1.0
 50
0.0
  0
INSERT
  8
txt
  2
D9505
 10
14.290945
 20
7.775906
 41
1.0
 42
1.0
 43
1.0
 50
0.0
  0
INSERT
  8
txt
  2
D9505
 10
14.400000
 20
7.775906
 41
1.0
 42
1.0
 43
1.0
 50
0.0
  0
INSERT
  8
txt
  2
D9505
 10
14.509055
 20
7.775906
 41
1.0
 42
1.0
 43
1.0
 50
0.0
  0
INSERT
  8
txt
  2
D9505
 10
14.618110
 20
7.775906
 41
1.0
 42
1.0
 43
1.0
 50
0.0
  0
INSERT
  8
txt
  2
D9505
 10
14.563583
 20
7.887717
 41
1.0
 42
1.0
 43
1.0
 50
0.0
  0
INSERT
  8
txt
  2
D9505
 10
14.454528
 20
7.887717
 41
1.0
 42
1.0
 43
1.0
 50
0.0
  0
INSERT
  8
txt
  2
D9505
 10
14.345472
 20
7.887717
 41
1.0
 42
1.0
 43
1.0
 50
0.0
  0
INSERT
  8
txt
  2
D9505
 10
14.236417
 20
7.887717
 41
1.0
 42
1.0
 43
1.0
 50
0.0
  0
INSERT
  8
txt
  2
D9505
 10
14.127362
 20
7.887717
 41
1.0
 42
1.0
 43
1.0
 50
0.0
  0
INSERT
  8
txt
  2
D9505
 10
14.018307
 20
7.887717
 41
1.0
 42
1.0
 43
1.0
 50
0.0
  0
INSERT
  8
txt
  2
D9505
 10
13.909252
 20
7.887717
 41
1.0
 42
1.0
 43
1.0
 50
0.0
  0
INSERT
  8
txt
  2
D9505
 10
12.886917
 20
7.883780
 41
1.0
 42
1.0
 43
1.0
 50
0.0
  0
INSERT
  8
txt
  2
D9505
 10
12.777862
 20
7.883780
 41
1.0
 42
1.0
 43
1.0
 50
0.0
  0
INSERT
  8
txt
  2
D9505
 10
12.668807
 20
7.883780
 41
1.0
 42
1.0
 43
1.0
 50
0.0
  0
INSERT
  8
txt
  2
D9505
 10
12.559752
 20
7.883780
 41
1.0
 42
1.0
 43
1.0
 50
0.0
  0
INSERT
  8
txt
  2
D9505
 10
12.450697
 20
7.883780
 41
1.0
 42
1.0
 43
1.0
 50
0.0
  0
INSERT
  8
txt
  2
D9505
 10
12.341642
 20
7.883780
 41
1.0
 42
1.0
 43
1.0
 50
0.0
  0
INSERT
  8
txt
  2
D9505
 10
12.232587
 20
7.883780
 41
1.0
 42
1.0
 43
1.0
 50
0.0
  0
INSERT
  8
txt
  2
D9505
 10
11.210248
 20
7.883780
 41
1.0
 42
1.0
 43
1.0
 50
0.0
  0
INSERT
  8
txt
  2
D9505
 10
11.101193
 20
7.883780
 41
1.0
 42
1.0
 43
1.0
 50
0.0
  0
INSERT
  8
txt
  2
D9505
 10
10.992138
 20
7.883780
 41
1.0
 42
1.0
 43
1.0
 50
0.0
  0
INSERT
  8
txt
  2
D9505
 10
10.883087
 20
7.883780
 41
1.0
 42
1.0
 43
1.0
 50
0.0
  0
INSERT
  8
txt
  2
D9505
 10
10.774028
 20
7.883780
 41
1.0
 42
1.0
 43
1.0
 50
0.0
  0
INSERT
  8
txt
  2
D9505
 10
10.664976
 20
7.883780
 41
1.0
 42
1.0
 43
1.0
 50
0.0
  0
INSERT
  8
txt
  2
D9505
 10
10.555921
 20
7.883780
 41
1.0
 42
1.0
 43
1.0
 50
0.0
  0
INSERT
  8
txt
  2
D9505
 10
9.533583
 20
7.883780
 41
1.0
 42
1.0
 43
1.0
 50
0.0
  0
INSERT
  8
txt
  2
D9505
 10
9.424528
 20
7.883780
 41
1.0
 42
1.0
 43
1.0
 50
0.0
  0
INSERT
  8
txt
  2
D9505
 10
9.315472
 20
7.883780
 41
1.0
 42
1.0
 43
1.0
 50
0.0
  0
INSERT
  8
txt
  2
D9505
 10
9.206417
 20
7.883780
 41
1.0
 42
1.0
 43
1.0
 50
0.0
  0
INSERT
  8
txt
  2
D9505
 10
9.097362
 20
7.883780
 41
1.0
 42
1.0
 43
1.0
 50
0.0
  0
INSERT
  8
txt
  2
D9505
 10
8.988307
 20
7.883780
 41
1.0
 42
1.0
 43
1.0
 50
0.0
  0
INSERT
  8
txt
  2
D9505
 10
8.879252
 20
7.883780
 41
1.0
 42
1.0
 43
1.0
 50
0.0
  0
INSERT
  8
txt
  2
D9505
 10
10.170000
 20
4.390000
 41
1.0
 42
1.0
 43
1.0
 50
0.0
  0
INSERT
  8
txt
  2
D9505
 10
10.170000
 20
4.490000
 41
1.0
 42
1.0
 43
1.0
 50
0.0
  0
INSERT
  8
txt
  2
D9505
 10
10.170000
 20
4.590000
 41
1.0
 42
1.0
 43
1.0
 50
0.0
  0
INSERT
  8
txt
  2
D9505
 10
15.520000
 20
7.380000
 41
1.0
 42
1.0
 43
1.0
 50
0.0
  0
INSERT
  8
txt
  2
D9505
 10
15.620000
 20
7.380000
 41
1.0
 42
1.0
 43
1.0
 50
0.0
  0
INSERT
  8
txt
  2
D9505
 10
15.720000
 20
7.380000
 41
1.0
 42
1.0
 43
1.0
 50
0.0
  0
INSERT
  8
txt
  2
D9506
 10
12.232417
 20
4.077890
 41
1.0
 42
1.0
 43
1.0
 50
0.0
  0
INSERT
  8
txt
  2
D9506
 10
7.712992
 20
7.794488
 41
1.0
 42
1.0
 43
1.0
 50
0.0
  0
INSERT
  8
txt
  2
D9506
 10
6.570000
 20
7.735512
 41
1.0
 42
1.0
 43
1.0
 50
0.0
  0
INSERT
  8
txt
  2
D9506
 10
8.187008
 20
7.794488
 41
1.0
 42
1.0
 43
1.0
 50
0.0
  0
INSERT
  8
txt
  2
D9506
 10
15.544417
 20
7.735512
 41
1.0
 42
1.0
 43
1.0
 50
0.0
  0
INSERT
  8
txt
  2
D9506
 10
15.544417
 20
7.912520
 41
1.0
 42
1.0
 43
1.0
 50
0.0
  0
INSERT
  8
txt
  2
D9506
 10
6.570000
 20
7.912520
 41
1.0
 42
1.0
 43
1.0
 50
0.0
  0
INSERT
  8
txt
  2
D9507
 10
12.132417
 20
3.977890
 41
1.0
 42
1.0
 43
1.0
 50
0.0
  0
INSERT
  8
txt
  2
D9507
 10
12.132417
 20
4.177890
 41
1.0
 42
1.0
 43
1.0
 50
0.0
  0
INSERT
  8
txt
  2
D9507
 10
12.332417
 20
4.177890
 41
1.0
 42
1.0
 43
1.0
 50
0.0
  0
INSERT
  8
txt
  2
D9507
 10
12.332417
 20
3.977890
 41
1.0
 42
1.0
 43
1.0
 50
0.0
  0
INSERT
  8
txt
  2
D9508
 10
14.892323
 20
7.831811
 41
1.0
 42
1.0
 43
1.0
 50
0.0
  0
INSERT
  8
txt
  2
D9508
 10
13.580512
 20
7.831811
 41
1.0
 42
1.0
 43
1.0
 50
0.0
  0
INSERT
  8
txt
  2
D9508
 10
13.215657
 20
7.827874
 41
1.0
 42
1.0
 43
1.0
 50
0.0
  0
INSERT
  8
txt
  2
D9508
 10
11.903846
 20
7.827874
 41
1.0
 42
1.0
 43
1.0
 50
0.0
  0
INSERT
  8
txt
  2
D9508
 10
11.538992
 20
7.827874
 41
1.0
 42
1.0
 43
1.0
 50
0.0
  0
INSERT
  8
txt
  2
D9508
 10
10.227181
 20
7.827874
 41
1.0
 42
1.0
 43
1.0
 50
0.0
  0
INSERT
  8
txt
  2
D9508
 10
9.862323
 20
7.827874
 41
1.0
 42
1.0
 43
1.0
 50
0.0
  0
INSERT
  8
txt
  2
D9508
 10
8.550512
 20
7.827874
 41
1.0
 42
1.0
 43
1.0
 50
0.0
  0
ENDSEC
  0
EOF
