M48
;Layer_Color=9474304
;FILE_FORMAT=4:4
METRIC,TZ
;TYPE=PLATED
T1F00S00C0.7000
T2F00S00C0.7112
T3F00S00C0.7620
T4F00S00C0.9000
T5F00S00C0.9200
T6F00S00C1.0000
T7F00S00C1.0900
T8F00S00C1.1000
T9F00S00C1.2000
T10F00S00C1.7000
T11F00S00C3.1800
%
T01
X3312160Y462280
X3362960Y462280
X3370580Y533400
X3370580Y584200
T02
X2545080Y386080
X2849880Y396240
X2908300Y388620
X2931160Y373380
X2994660Y388620
X3042920Y373380
X3162300Y386080
X3980180Y629920
X3914140Y523240
X3690620Y436880
X3589020Y546100
X3616960Y708660
X3538220Y673100
X3510280Y546100
X3464560Y561340
X3444240Y538480
X3411220Y601980
X3312160Y589280
X3284220Y574040
X3243580Y548640
X3228340Y510540
X3213100Y477520
X3187700Y459740
X3175000Y497840
X3190240Y561340
X3182620Y579120
X3175000Y594360
X3215640Y607060
X3230880Y657860
X3251200Y650240
X3187700Y662940
X3235960Y452120
X3238500Y411480
X3195320Y403860
X3296920Y510540
X3540760Y436880
X3149600Y447040
X3157220Y497840
X3139440Y505460
X3124200Y528320
X3124200Y581660
X3119120Y617220
X3134360Y640080
X3096260Y640080
X3103880Y678180
X3070860Y695960
X3063240Y728980
X3068320Y599440
X3060700Y579120
X3058160Y561340
X3058160Y535940
X3058160Y513080
X3068320Y480060
X3098800Y500380
X3101340Y398780
X3124200Y398780
X3068320Y411480
X3050540Y426720
X3035300Y403860
X3172460Y535940
X2974340Y647700
X2951480Y645160
X2867660Y579120
X2865120Y518160
X2778760Y520700
X2760980Y535940
X2702560Y541020
X2684780Y525780
X2717800Y510540
X2707640Y439420
X2654300Y452120
X2608580Y533400
X2590800Y563880
X2496820Y614680
X2420620Y645160
X2382520Y668020
X2400300Y594360
X2410460Y495300
X2542540Y419100
X2258060Y447040
X2146300Y449580
X2286000Y558800
X2247900Y675640
X2344420Y675640
X2378202Y637032
X2047240Y703580
X2005690Y754860
X1955800Y711200
X1915160Y480060
X2067560Y1066800
X2227580Y977900
X2278380Y942340
X2298700Y909320
X2326640Y1109980
X2420620Y1173480
X2433320Y1056640
X2435860Y1010920
X2499360Y1028700
X2489200Y1089660
X2514600Y1125220
X2585720Y922020
X2382520Y942340
X2430780Y830580
X3131820Y1168400
X3335020Y1104900
X3335020Y1074420
X3459480Y939800
X3268980Y871220
X3637280Y911860
X3914140Y896620
X3947160Y1203960
X3919220Y1432560
X3647440Y1435100
X3655060Y1501140
X3649980Y1282700
X3609340Y1285240
X3426460Y1282700
X3434080Y1336040
X3441700Y1417320
X3446780Y1455420
X3401060Y1437640
X3375660Y1485900
X3327400Y1437640
X3177540Y1445260
X3175000Y1402080
X3200400Y1303020
X3208020Y1277620
X3202940Y1244600
X3202940Y1203960
X3271520Y1257300
X3362960Y1287780
X3205480Y1516380
X3131820Y1447800
X3157220Y1376680
X3060700Y1315720
X3004820Y1315720
X2870200Y1315720
X2877820Y1287780
X2834640Y1460500
X3012440Y1473200
X3076755Y1233625
X3058160Y1193800
X2656840Y1275080
X2504440Y1264920
X2504440Y1290320
X2494280Y1336040
X2537460Y1325880
X2506980Y1407160
X2506980Y1432560
X2506980Y1457960
X2504440Y1501140
X2420620Y1455420
X2420620Y1381760
X2420620Y1348740
X2420620Y1315720
X2501900Y1221740
X2400300Y1551940
X2390140Y1574800
X2270760Y1501140
X2125980Y1574800
X2118360Y1424940
X2077720Y1455420
X2118360Y1277620
X2214880Y1328420
X2237740Y1201420
X2329180Y1234440
X1958340Y1920240
X1601830Y1697200
X2042160Y1651000
X2143760Y1620520
X2194560Y1623060
X2189480Y1592580
X2197100Y1673860
X2194560Y1709420
X2275840Y1689100
X2329180Y1645920
X2359660Y1882140
X2192020Y1826260
X2065020Y1887220
X1991360Y1851660
X2006600Y1816100
X2390140Y1859280
X2402840Y1905000
X2430780Y1932940
X2471420Y1958340
X2527300Y1800860
X2392680Y1752600
X2392680Y1694180
X2392680Y1645920
X2395220Y1610360
X2484776Y1629128
X2852420Y1623060
X3048000Y1640840
X3152140Y1805940
X3304540Y1805940
X3373120Y1871980
X3462020Y1658620
X3238500Y1661160
X3180080Y1635760
X3870960Y1793240
X3911600Y1910080
X4028440Y1874520
X4027780Y1778730
X3849730Y2014700
X2640690Y2019780
X2462890Y2009620
T03
X4057020Y355600
X3728720Y403860
X3703320Y632460
X3728720Y777240
X3931920Y632460
X3474720Y632460
X3500120Y777240
X3271520Y777240
X3271520Y403860
X3500120Y403860
X2979420Y429260
X2123440Y416560
X2098040Y645160
X2123440Y789940
X2326640Y645160
X1869440Y645160
X1894840Y789940
X1666240Y789940
X1666240Y416560
X1894840Y416560
X1869440Y1018540
X1894840Y1163320
X1666240Y1163320
X2123440Y1163320
X2098040Y1018540
X2326640Y1018540
X3271520Y1150620
X3500120Y1150620
X3474720Y1005840
X3703320Y1005840
X3728720Y1150620
X3931920Y1005840
X3931920Y1379220
X3703320Y1379220
X3728720Y1536700
X3500120Y1536700
X3474720Y1379220
X3271520Y1536700
X3032020Y1225600
X2712720Y1536700
X2484120Y1536700
X2326640Y1391920
X2098040Y1391920
X2123440Y1536700
X1894840Y1536700
X1869440Y1391920
X1666240Y1536700
X1869440Y1765300
X1854200Y1955960
X1851660Y1955800
X1849120Y1955960
X1846580Y1955960
X1844040Y1955960
X1841500Y1955960
X1838960Y1955960
X1796580Y1981200
X1796580Y1983740
X2098040Y1765300
X2326640Y1765300
X2687320Y1765300
X2915920Y1765300
X3144520Y1765300
X3474720Y1765300
X3703320Y1765300
X3931920Y1765300
X4056380Y2042160
X1851660Y2017960
X1849120Y2017960
X1846580Y2017960
X1844040Y2017960
X1841500Y2017960
X1796580Y1993900
X1796580Y1991360
X1796580Y1988820
X1796580Y1987960
X1796580Y1986280
X1559560Y2042160
T04
X3931920Y403860
X3906520Y403860
X3881120Y403860
X3855720Y403860
X3830320Y403860
X3804920Y403860
X3779520Y403860
X3754120Y403860
X3728720Y403860
X3703320Y403860
X3677920Y403860
X3652520Y403860
X3627120Y403860
X3601720Y403860
X3576320Y403860
X3576320Y632460
X3601720Y632460
X3627120Y632460
X3652520Y632460
X3677920Y632460
X3703320Y632460
X3728720Y632460
X3754120Y632460
X3779520Y632460
X3804920Y632460
X3830320Y632460
X3855720Y632460
X3881120Y632460
X3906520Y632460
X3931920Y632460
X3931920Y777240
X3906520Y777240
X3881120Y777240
X3855720Y777240
X3830320Y777240
X3804920Y777240
X3779520Y777240
X3754120Y777240
X3728720Y777240
X3703320Y777240
X3677920Y777240
X3652520Y777240
X3627120Y777240
X3601720Y777240
X3576320Y777240
X3550920Y777240
X3525520Y777240
X3500120Y777240
X3474720Y777240
X3449320Y777240
X3423920Y777240
X3398520Y777240
X3373120Y777240
X3347720Y777240
X3322320Y777240
X3296920Y777240
X3271520Y777240
X3271520Y632460
X3296920Y632460
X3322320Y632460
X3347720Y632460
X3373120Y632460
X3398520Y632460
X3423920Y632460
X3449320Y632460
X3474720Y632460
X3500120Y632460
X3525520Y632460
X3550920Y632460
X3550920Y403860
X3525520Y403860
X3500120Y403860
X3474720Y403860
X3449320Y403860
X3423920Y403860
X3398520Y403860
X3373120Y403860
X3347720Y403860
X3322320Y403860
X3296920Y403860
X3271520Y403860
X3017520Y439420
X3017520Y464820
X3017520Y490220
X3017520Y515620
X3017520Y541020
X3017520Y604520
X2992120Y604520
X2966720Y604520
X2941320Y604520
X2915920Y604520
X2890520Y604520
X2865120Y604520
X2839720Y604520
X2829560Y541020
X2829560Y515620
X2829560Y490220
X2829560Y464820
X2829560Y439420
X2905760Y439420
X2905760Y464820
X2905760Y490220
X2905760Y515620
X2905760Y541020
X2941320Y541020
X2941320Y515620
X2941320Y490220
X2941320Y464820
X2941320Y439420
X2941320Y680720
X2915920Y680720
X2890520Y680720
X2865120Y680720
X2839720Y680720
X2966720Y680720
X2992120Y680720
X3017520Y680720
X2768600Y680720
X2743200Y680720
X2717800Y680720
X2692400Y680720
X2667000Y680720
X2641600Y680720
X2616200Y680720
X2590800Y680720
X2590800Y604520
X2616200Y604520
X2641600Y604520
X2667000Y604520
X2692400Y604520
X2717800Y604520
X2743200Y604520
X2768600Y604520
X2768600Y477520
X2743200Y477520
X2717800Y477520
X2692400Y477520
X2667000Y477520
X2641600Y477520
X2616200Y477520
X2590800Y477520
X2529840Y472440
X2529840Y497840
X2529840Y523240
X2529840Y548640
X2529840Y574040
X2529840Y599440
X2529840Y624840
X2453640Y624840
X2453640Y599440
X2453640Y574040
X2453640Y548640
X2453640Y523240
X2453640Y497840
X2453640Y472440
X2453640Y447040
X2529840Y447040
X2590800Y401320
X2616200Y401320
X2641600Y401320
X2667000Y401320
X2692400Y401320
X2717800Y401320
X2743200Y401320
X2768600Y401320
X2326640Y416560
X2301240Y416560
X2275840Y416560
X2250440Y416560
X2225040Y416560
X2199640Y416560
X2174240Y416560
X2148840Y416560
X2123440Y416560
X2098040Y416560
X2072640Y416560
X2047240Y416560
X2021840Y416560
X1996440Y416560
X1996440Y645160
X2021840Y645160
X2047240Y645160
X2072640Y645160
X2098040Y645160
X2123440Y645160
X2148840Y645160
X2174240Y645160
X2199640Y645160
X2225040Y645160
X2250440Y645160
X2275840Y645160
X2301240Y645160
X2326640Y645160
X2326640Y789940
X2301240Y789940
X2275840Y789940
X2250440Y789940
X2225040Y789940
X2199640Y789940
X2174240Y789940
X2148840Y789940
X2123440Y789940
X2098040Y789940
X2072640Y789940
X2047240Y789940
X2021840Y789940
X1996440Y789940
X1971040Y789940
X1945640Y789940
X1920240Y789940
X1894840Y789940
X1869440Y789940
X1844040Y789940
X1818640Y789940
X1793240Y789940
X1767840Y789940
X1742440Y789940
X1717040Y789940
X1691640Y789940
X1666240Y789940
X1666240Y645160
X1691640Y645160
X1717040Y645160
X1742440Y645160
X1767840Y645160
X1793240Y645160
X1818640Y645160
X1844040Y645160
X1869440Y645160
X1894840Y645160
X1920240Y645160
X1945640Y645160
X1971040Y645160
X1971040Y416560
X1945640Y416560
X1920240Y416560
X1894840Y416560
X1869440Y416560
X1844040Y416560
X1818640Y416560
X1793240Y416560
X1767840Y416560
X1742440Y416560
X1717040Y416560
X1691640Y416560
X1666240Y416560
X1666240Y1018540
X1691640Y1018540
X1717040Y1018540
X1742440Y1018540
X1767840Y1018540
X1793240Y1018540
X1818640Y1018540
X1844040Y1018540
X1869440Y1018540
X1894840Y1018540
X1920240Y1018540
X1945640Y1018540
X1971040Y1018540
X1971040Y1163320
X1945640Y1163320
X1920240Y1163320
X1894840Y1163320
X1869440Y1163320
X1844040Y1163320
X1818640Y1163320
X1793240Y1163320
X1767840Y1163320
X1742440Y1163320
X1717040Y1163320
X1691640Y1163320
X1666240Y1163320
X1996440Y1163320
X2021840Y1163320
X2047240Y1163320
X2072640Y1163320
X2098040Y1163320
X2123440Y1163320
X2148840Y1163320
X2174240Y1163320
X2199640Y1163320
X2225040Y1163320
X2250440Y1163320
X2275840Y1163320
X2301240Y1163320
X2326640Y1163320
X2326640Y1018540
X2301240Y1018540
X2275840Y1018540
X2250440Y1018540
X2225040Y1018540
X2199640Y1018540
X2174240Y1018540
X2148840Y1018540
X2123440Y1018540
X2098040Y1018540
X2072640Y1018540
X2047240Y1018540
X2021840Y1018540
X1996440Y1018540
X3271520Y1005840
X3296920Y1005840
X3322320Y1005840
X3347720Y1005840
X3373120Y1005840
X3398520Y1005840
X3423920Y1005840
X3449320Y1005840
X3474720Y1005840
X3500120Y1005840
X3525520Y1005840
X3550920Y1005840
X3550920Y1150620
X3525520Y1150620
X3500120Y1150620
X3474720Y1150620
X3449320Y1150620
X3423920Y1150620
X3398520Y1150620
X3373120Y1150620
X3347720Y1150620
X3322320Y1150620
X3296920Y1150620
X3271520Y1150620
X3576320Y1150620
X3601720Y1150620
X3627120Y1150620
X3652520Y1150620
X3677920Y1150620
X3703320Y1150620
X3728720Y1150620
X3754120Y1150620
X3779520Y1150620
X3804920Y1150620
X3830320Y1150620
X3855720Y1150620
X3881120Y1150620
X3906520Y1150620
X3931920Y1150620
X3931920Y1005840
X3906520Y1005840
X3881120Y1005840
X3855720Y1005840
X3830320Y1005840
X3804920Y1005840
X3779520Y1005840
X3754120Y1005840
X3728720Y1005840
X3703320Y1005840
X3677920Y1005840
X3652520Y1005840
X3627120Y1005840
X3601720Y1005840
X3576320Y1005840
X3576320Y1379220
X3601720Y1379220
X3627120Y1379220
X3652520Y1379220
X3677920Y1379220
X3703320Y1379220
X3728720Y1379220
X3754120Y1379220
X3779520Y1379220
X3804920Y1379220
X3830320Y1379220
X3855720Y1379220
X3881120Y1379220
X3906520Y1379220
X3931920Y1379220
X3931920Y1536700
X3906520Y1536700
X3881120Y1536700
X3855720Y1536700
X3830320Y1536700
X3804920Y1536700
X3779520Y1536700
X3754120Y1536700
X3728720Y1536700
X3703320Y1536700
X3677920Y1536700
X3652520Y1536700
X3627120Y1536700
X3601720Y1536700
X3576320Y1536700
X3550920Y1536700
X3525520Y1536700
X3500120Y1536700
X3474720Y1536700
X3449320Y1536700
X3423920Y1536700
X3398520Y1536700
X3373120Y1536700
X3347720Y1536700
X3322320Y1536700
X3296920Y1536700
X3271520Y1536700
X3271520Y1379220
X3296920Y1379220
X3322320Y1379220
X3347720Y1379220
X3373120Y1379220
X3398520Y1379220
X3423920Y1379220
X3449320Y1379220
X3474720Y1379220
X3500120Y1379220
X3525520Y1379220
X3550920Y1379220
X3007360Y1381760
X2981960Y1381760
X2956560Y1381760
X2931160Y1381760
X2905760Y1381760
X2880360Y1381760
X2854960Y1381760
X2829560Y1381760
X2804160Y1381760
X2778760Y1381760
X2778760Y1407160
X2804160Y1407160
X2829560Y1407160
X2854960Y1407160
X2880360Y1407160
X2905760Y1407160
X2931160Y1407160
X2956560Y1407160
X2981960Y1407160
X3007360Y1407160
X3017520Y1536700
X3042920Y1536700
X3068320Y1536700
X3093720Y1536700
X3119120Y1536700
X3144520Y1536700
X2992120Y1536700
X2966720Y1536700
X2941320Y1536700
X2915920Y1536700
X2890520Y1536700
X2865120Y1536700
X2839720Y1536700
X2814320Y1536700
X2788920Y1536700
X2783840Y1325880
X2783840Y1300480
X2809240Y1300480
X2809240Y1325880
X2758440Y1325880
X2758440Y1300480
X2753360Y1381760
X2727960Y1381760
X2702560Y1381760
X2677160Y1381760
X2651760Y1381760
X2626360Y1381760
X2600960Y1381760
X2600960Y1407160
X2626360Y1407160
X2651760Y1407160
X2677160Y1407160
X2702560Y1407160
X2727960Y1407160
X2753360Y1407160
X2763520Y1536700
X2738120Y1536700
X2712720Y1536700
X2687320Y1536700
X2661920Y1536700
X2636520Y1536700
X2611120Y1536700
X2585720Y1536700
X2560320Y1536700
X2534920Y1536700
X2509520Y1536700
X2484120Y1536700
X2326640Y1536700
X2301240Y1536700
X2275840Y1536700
X2250440Y1536700
X2225040Y1536700
X2199640Y1536700
X2174240Y1536700
X2148840Y1536700
X2123440Y1536700
X2098040Y1536700
X2072640Y1536700
X2047240Y1536700
X2021840Y1536700
X1996440Y1536700
X1996440Y1391920
X2021840Y1391920
X2047240Y1391920
X2072640Y1391920
X2098040Y1391920
X2123440Y1391920
X2148840Y1391920
X2174240Y1391920
X2199640Y1391920
X2225040Y1391920
X2250440Y1391920
X2275840Y1391920
X2301240Y1391920
X2326640Y1391920
X1971040Y1391920
X1945640Y1391920
X1920240Y1391920
X1894840Y1391920
X1869440Y1391920
X1844040Y1391920
X1818640Y1391920
X1793240Y1391920
X1767840Y1391920
X1742440Y1391920
X1717040Y1391920
X1691640Y1391920
X1666240Y1391920
X1666240Y1536700
X1691640Y1536700
X1717040Y1536700
X1742440Y1536700
X1767840Y1536700
X1793240Y1536700
X1818640Y1536700
X1844040Y1536700
X1869440Y1536700
X1894840Y1536700
X1920240Y1536700
X1945640Y1536700
X1971040Y1536700
X1971040Y1765300
X1945640Y1765300
X1920240Y1765300
X1894840Y1765300
X1869440Y1765300
X1844040Y1765300
X1818640Y1765300
X1793240Y1765300
X1767840Y1765300
X1742440Y1765300
X1717040Y1765300
X1691640Y1765300
X1666240Y1765300
X1648460Y1813560
X1648460Y1889760
X1648460Y1915160
X1877060Y1915160
X1877060Y1889760
X1877060Y1838960
X1877060Y1813560
X1996440Y1765300
X2021840Y1765300
X2047240Y1765300
X2072640Y1765300
X2098040Y1765300
X2123440Y1765300
X2148840Y1765300
X2174240Y1765300
X2199640Y1765300
X2225040Y1765300
X2250440Y1765300
X2275840Y1765300
X2301240Y1765300
X2326640Y1765300
X2484120Y1765300
X2509520Y1765300
X2534920Y1765300
X2560320Y1765300
X2585720Y1765300
X2611120Y1765300
X2636520Y1765300
X2661920Y1765300
X2687320Y1765300
X2712720Y1765300
X2738120Y1765300
X2763520Y1765300
X2788920Y1765300
X2814320Y1765300
X2839720Y1765300
X2865120Y1765300
X2890520Y1765300
X2915920Y1765300
X2941320Y1765300
X2966720Y1765300
X2992120Y1765300
X3017520Y1765300
X3042920Y1765300
X3068320Y1765300
X3093720Y1765300
X3119120Y1765300
X3144520Y1765300
X3271520Y1765300
X3296920Y1765300
X3322320Y1765300
X3347720Y1765300
X3373120Y1765300
X3398520Y1765300
X3423920Y1765300
X3449320Y1765300
X3474720Y1765300
X3500120Y1765300
X3525520Y1765300
X3550920Y1765300
X3576320Y1765300
X3601720Y1765300
X3627120Y1765300
X3652520Y1765300
X3677920Y1765300
X3703320Y1765300
X3728720Y1765300
X3754120Y1765300
X3779520Y1765300
X3804920Y1765300
X3830320Y1765300
X3855720Y1765300
X3881120Y1765300
X3906520Y1765300
X3931920Y1765300
T05
X2006800Y1932700
X2006800Y1952700
X2031800Y1952700
X2031800Y1932700
T06
X2547620Y891540
X2547620Y916940
X2547620Y942340
X1859080Y1955960
X1834080Y1955960
X1796580Y1977960
X2075180Y1851260
X2075180Y1801260
X1856580Y2017960
X1836580Y2017960
X1796580Y1997960
T07
X2241480Y1974080
X2269180Y1974080
X2296880Y1974080
X2324580Y1974080
X2352280Y1974080
X2379980Y1974080
X2407680Y1974080
X2435380Y1974080
X2667354Y1974080
X2695053Y1974080
X2722753Y1974080
X2750453Y1974080
X2778154Y1974080
X2805854Y1974080
X2833553Y1974080
X2861253Y1974080
X3093227Y1974080
X3120927Y1974080
X3148627Y1974080
X3176327Y1974080
X3204027Y1974080
X3231727Y1974080
X3259427Y1974080
X3287127Y1974080
X3519100Y1975080
X3546800Y1975080
X3574500Y1975080
X3602200Y1975080
X3629900Y1975080
X3657600Y1975080
X3685300Y1975080
X3713000Y1975080
X3699150Y2003480
X3671450Y2003480
X3643750Y2003480
X3616050Y2003480
X3588350Y2003480
X3560650Y2003480
X3532950Y2003480
X3273277Y2002480
X3245577Y2002480
X3217877Y2002480
X3190177Y2002480
X3162477Y2002480
X3134777Y2002480
X3107077Y2002480
X2847403Y2002480
X2819703Y2002480
X2792003Y2002480
X2764304Y2002480
X2736603Y2002480
X2708904Y2002480
X2681204Y2002480
X2421530Y2002480
X2393830Y2002480
X2366130Y2002480
X2338430Y2002480
X2310730Y2002480
X2283030Y2002480
X2255330Y2002480
T08
X2583180Y1115060
X2583180Y1140460
X2583180Y1165860
X3942080Y1874520
X3967480Y1874520
X3992880Y1874520
T09
X3126740Y777240
X3126740Y916940
X1959100Y1979800
X1668780Y1964820
X2079500Y1979800
X3948282Y1964820
X3948282Y2009780
X1668780Y2009780
T10
X3101340Y751840
X3152140Y751840
X3152140Y802640
X3101340Y802640
X3101340Y891540
X3101340Y942340
X3152140Y942340
X3152140Y891540
T11
X3782650Y1989280
X3449450Y1989280
X3356777Y1988280
X3023577Y1988280
X2930904Y1988280
X2597704Y1988280
X2505030Y1988280
X2171830Y1988280
M30
