  0
SECTION
  2
HEADER
  9
$EXTMIN
 10
0.175000
 20
0.135000
  9
$EXTMAX
 10
4.265000
 20
2.375000
  9
$LIMMIN
 10
0.175000
 20
0.135000
  9
$LIMMAX
 10
4.265000
 20
2.375000
  9
$FILLMODE
 70
  1
  0
ENDSEC
  0
SECTION
  2
TABLES
  0
TABLE
  2
LTYPE
 70
  1
  0
LTYPE
  2
CONTINUOUS
 70
 64
  3
Solid line
 72
 65
 73
  0
 40
0.0
  0
ENDTAB
  0
TABLE
  2
LAYER
 70
 1
  0
LAYER
  2
0
 70
  0
 62
7
  6
CONTINUOUS
  0
LAYER
  2
txt
 70
  0
 62
1
  6
CONTINUOUS
  0
ENDTAB
  0
TABLE
  2
STYLE
 70
  1
  0
STYLE
  2
STANDARD
 70
  0
 40
0.0
 41
1.0
 50
0.0
 71
  0
 42
0.2
  3
txt
  4

  0
ENDTAB
  0
ENDSEC
  0
SECTION
  2
BLOCKS
  0
BLOCK
  8
0
  2
D9500
 70
64
 10
0.0
 20
0.0
  3
D9500
  0
CIRCLE
  8
0
 10
0.000000
 20
0.000000
 40
0.015000
 0
ENDBLK
  8
0
  0
BLOCK
  8
0
  2
D9501
 70
64
 10
0.0
 20
0.0
  3
D9501
  0
CIRCLE
  8
0
 10
0.000000
 20
0.000000
 40
0.019685
 0
ENDBLK
  8
0
  0
BLOCK
  8
0
  2
D9502
 70
64
 10
0.0
 20
0.0
  3
D9502
  0
CIRCLE
  8
0
 10
0.000000
 20
0.000000
 40
0.020000
 0
ENDBLK
  8
0
  0
BLOCK
  8
0
  2
D9503
 70
64
 10
0.0
 20
0.0
  3
D9503
  0
CIRCLE
  8
0
 10
0.000000
 20
0.000000
 40
0.025000
 0
ENDBLK
  8
0
  0
BLOCK
  8
0
  2
D9504
 70
64
 10
0.0
 20
0.0
  3
D9504
  0
CIRCLE
  8
0
 10
0.000000
 20
0.000000
 40
0.033465
 0
ENDBLK
  8
0
  0
BLOCK
  8
0
  2
D9505
 70
64
 10
0.0
 20
0.0
  3
D9505
  0
CIRCLE
  8
0
 10
0.000000
 20
0.000000
 40
0.075000
 0
ENDBLK
  8
0
  0
ENDSEC
  0
SECTION
  2
ENTITIES
  0
INSERT
  8
txt
  2
D9500
 10
3.510000
 20
1.580000
 41
1.0
 42
1.0
 43
1.0
 50
0.0
  0
INSERT
  8
txt
  2
D9500
 10
3.020000
 20
1.650000
 41
1.0
 42
1.0
 43
1.0
 50
0.0
  0
INSERT
  8
txt
  2
D9500
 10
1.720000
 20
1.320000
 41
1.0
 42
1.0
 43
1.0
 50
0.0
  0
INSERT
  8
txt
  2
D9500
 10
3.810000
 20
1.890000
 41
1.0
 42
1.0
 43
1.0
 50
0.0
  0
INSERT
  8
txt
  2
D9501
 10
3.010000
 20
2.270000
 41
1.0
 42
1.0
 43
1.0
 50
0.0
  0
INSERT
  8
txt
  2
D9502
 10
3.410000
 20
1.330000
 41
1.0
 42
1.0
 43
1.0
 50
0.0
  0
INSERT
  8
txt
  2
D9502
 10
3.410000
 20
1.430000
 41
1.0
 42
1.0
 43
1.0
 50
0.0
  0
INSERT
  8
txt
  2
D9502
 10
3.410000
 20
1.530000
 41
1.0
 42
1.0
 43
1.0
 50
0.0
  0
INSERT
  8
txt
  2
D9502
 10
3.410000
 20
1.630000
 41
1.0
 42
1.0
 43
1.0
 50
0.0
  0
INSERT
  8
txt
  2
D9502
 10
3.710000
 20
1.630000
 41
1.0
 42
1.0
 43
1.0
 50
0.0
  0
INSERT
  8
txt
  2
D9502
 10
3.710000
 20
1.530000
 41
1.0
 42
1.0
 43
1.0
 50
0.0
  0
INSERT
  8
txt
  2
D9502
 10
3.710000
 20
1.430000
 41
1.0
 42
1.0
 43
1.0
 50
0.0
  0
INSERT
  8
txt
  2
D9502
 10
3.710000
 20
1.330000
 41
1.0
 42
1.0
 43
1.0
 50
0.0
  0
INSERT
  8
txt
  2
D9502
 10
3.910000
 20
1.330000
 41
1.0
 42
1.0
 43
1.0
 50
0.0
  0
INSERT
  8
txt
  2
D9502
 10
3.910000
 20
1.430000
 41
1.0
 42
1.0
 43
1.0
 50
0.0
  0
INSERT
  8
txt
  2
D9502
 10
3.910000
 20
1.530000
 41
1.0
 42
1.0
 43
1.0
 50
0.0
  0
INSERT
  8
txt
  2
D9502
 10
3.910000
 20
1.630000
 41
1.0
 42
1.0
 43
1.0
 50
0.0
  0
INSERT
  8
txt
  2
D9502
 10
4.210000
 20
1.630000
 41
1.0
 42
1.0
 43
1.0
 50
0.0
  0
INSERT
  8
txt
  2
D9502
 10
4.210000
 20
1.530000
 41
1.0
 42
1.0
 43
1.0
 50
0.0
  0
INSERT
  8
txt
  2
D9502
 10
4.210000
 20
1.430000
 41
1.0
 42
1.0
 43
1.0
 50
0.0
  0
INSERT
  8
txt
  2
D9502
 10
4.210000
 20
1.330000
 41
1.0
 42
1.0
 43
1.0
 50
0.0
  0
INSERT
  8
txt
  2
D9502
 10
3.120000
 20
1.290000
 41
1.0
 42
1.0
 43
1.0
 50
0.0
  0
INSERT
  8
txt
  2
D9502
 10
3.120000
 20
1.390000
 41
1.0
 42
1.0
 43
1.0
 50
0.0
  0
INSERT
  8
txt
  2
D9502
 10
3.120000
 20
1.490000
 41
1.0
 42
1.0
 43
1.0
 50
0.0
  0
INSERT
  8
txt
  2
D9502
 10
2.820000
 20
1.490000
 41
1.0
 42
1.0
 43
1.0
 50
0.0
  0
INSERT
  8
txt
  2
D9502
 10
2.820000
 20
1.390000
 41
1.0
 42
1.0
 43
1.0
 50
0.0
  0
INSERT
  8
txt
  2
D9502
 10
2.820000
 20
1.290000
 41
1.0
 42
1.0
 43
1.0
 50
0.0
  0
INSERT
  8
txt
  2
D9502
 10
2.820000
 20
1.190000
 41
1.0
 42
1.0
 43
1.0
 50
0.0
  0
INSERT
  8
txt
  2
D9502
 10
2.820000
 20
1.090000
 41
1.0
 42
1.0
 43
1.0
 50
0.0
  0
INSERT
  8
txt
  2
D9502
 10
3.120000
 20
1.090000
 41
1.0
 42
1.0
 43
1.0
 50
0.0
  0
INSERT
  8
txt
  2
D9502
 10
3.120000
 20
1.190000
 41
1.0
 42
1.0
 43
1.0
 50
0.0
  0
INSERT
  8
txt
  2
D9502
 10
2.600000
 20
1.260000
 41
1.0
 42
1.0
 43
1.0
 50
0.0
  0
INSERT
  8
txt
  2
D9502
 10
2.500000
 20
1.260000
 41
1.0
 42
1.0
 43
1.0
 50
0.0
  0
INSERT
  8
txt
  2
D9502
 10
2.400000
 20
1.260000
 41
1.0
 42
1.0
 43
1.0
 50
0.0
  0
INSERT
  8
txt
  2
D9502
 10
2.300000
 20
1.260000
 41
1.0
 42
1.0
 43
1.0
 50
0.0
  0
INSERT
  8
txt
  2
D9502
 10
2.200000
 20
1.260000
 41
1.0
 42
1.0
 43
1.0
 50
0.0
  0
INSERT
  8
txt
  2
D9502
 10
2.100000
 20
1.260000
 41
1.0
 42
1.0
 43
1.0
 50
0.0
  0
INSERT
  8
txt
  2
D9502
 10
2.000000
 20
1.260000
 41
1.0
 42
1.0
 43
1.0
 50
0.0
  0
INSERT
  8
txt
  2
D9502
 10
1.900000
 20
1.260000
 41
1.0
 42
1.0
 43
1.0
 50
0.0
  0
INSERT
  8
txt
  2
D9502
 10
1.730000
 20
1.150000
 41
1.0
 42
1.0
 43
1.0
 50
0.0
  0
INSERT
  8
txt
  2
D9502
 10
1.730000
 20
0.850000
 41
1.0
 42
1.0
 43
1.0
 50
0.0
  0
INSERT
  8
txt
  2
D9502
 10
1.900000
 20
1.560000
 41
1.0
 42
1.0
 43
1.0
 50
0.0
  0
INSERT
  8
txt
  2
D9502
 10
2.000000
 20
1.560000
 41
1.0
 42
1.0
 43
1.0
 50
0.0
  0
INSERT
  8
txt
  2
D9502
 10
2.100000
 20
1.560000
 41
1.0
 42
1.0
 43
1.0
 50
0.0
  0
INSERT
  8
txt
  2
D9502
 10
2.200000
 20
1.560000
 41
1.0
 42
1.0
 43
1.0
 50
0.0
  0
INSERT
  8
txt
  2
D9502
 10
2.300000
 20
1.560000
 41
1.0
 42
1.0
 43
1.0
 50
0.0
  0
INSERT
  8
txt
  2
D9502
 10
2.400000
 20
1.560000
 41
1.0
 42
1.0
 43
1.0
 50
0.0
  0
INSERT
  8
txt
  2
D9502
 10
2.500000
 20
1.560000
 41
1.0
 42
1.0
 43
1.0
 50
0.0
  0
INSERT
  8
txt
  2
D9502
 10
2.600000
 20
1.560000
 41
1.0
 42
1.0
 43
1.0
 50
0.0
  0
INSERT
  8
txt
  2
D9502
 10
1.600000
 20
1.540000
 41
1.0
 42
1.0
 43
1.0
 50
0.0
  0
INSERT
  8
txt
  2
D9502
 10
1.600000
 20
1.640000
 41
1.0
 42
1.0
 43
1.0
 50
0.0
  0
INSERT
  8
txt
  2
D9502
 10
1.600000
 20
1.440000
 41
1.0
 42
1.0
 43
1.0
 50
0.0
  0
INSERT
  8
txt
  2
D9502
 10
1.600000
 20
1.340000
 41
1.0
 42
1.0
 43
1.0
 50
0.0
  0
INSERT
  8
txt
  2
D9502
 10
1.630000
 20
1.150000
 41
1.0
 42
1.0
 43
1.0
 50
0.0
  0
INSERT
  8
txt
  2
D9502
 10
1.530000
 20
1.150000
 41
1.0
 42
1.0
 43
1.0
 50
0.0
  0
INSERT
  8
txt
  2
D9502
 10
1.430000
 20
1.150000
 41
1.0
 42
1.0
 43
1.0
 50
0.0
  0
INSERT
  8
txt
  2
D9502
 10
1.330000
 20
1.150000
 41
1.0
 42
1.0
 43
1.0
 50
0.0
  0
INSERT
  8
txt
  2
D9502
 10
1.230000
 20
1.150000
 41
1.0
 42
1.0
 43
1.0
 50
0.0
  0
INSERT
  8
txt
  2
D9502
 10
1.130000
 20
1.150000
 41
1.0
 42
1.0
 43
1.0
 50
0.0
  0
INSERT
  8
txt
  2
D9502
 10
1.030000
 20
1.150000
 41
1.0
 42
1.0
 43
1.0
 50
0.0
  0
INSERT
  8
txt
  2
D9502
 10
1.030000
 20
0.850000
 41
1.0
 42
1.0
 43
1.0
 50
0.0
  0
INSERT
  8
txt
  2
D9502
 10
1.130000
 20
0.850000
 41
1.0
 42
1.0
 43
1.0
 50
0.0
  0
INSERT
  8
txt
  2
D9502
 10
1.230000
 20
0.850000
 41
1.0
 42
1.0
 43
1.0
 50
0.0
  0
INSERT
  8
txt
  2
D9502
 10
1.330000
 20
0.850000
 41
1.0
 42
1.0
 43
1.0
 50
0.0
  0
INSERT
  8
txt
  2
D9502
 10
1.430000
 20
0.850000
 41
1.0
 42
1.0
 43
1.0
 50
0.0
  0
INSERT
  8
txt
  2
D9502
 10
1.530000
 20
0.850000
 41
1.0
 42
1.0
 43
1.0
 50
0.0
  0
INSERT
  8
txt
  2
D9502
 10
1.630000
 20
0.850000
 41
1.0
 42
1.0
 43
1.0
 50
0.0
  0
INSERT
  8
txt
  2
D9502
 10
1.300000
 20
1.340000
 41
1.0
 42
1.0
 43
1.0
 50
0.0
  0
INSERT
  8
txt
  2
D9502
 10
1.300000
 20
1.440000
 41
1.0
 42
1.0
 43
1.0
 50
0.0
  0
INSERT
  8
txt
  2
D9502
 10
1.300000
 20
1.540000
 41
1.0
 42
1.0
 43
1.0
 50
0.0
  0
INSERT
  8
txt
  2
D9502
 10
1.300000
 20
1.640000
 41
1.0
 42
1.0
 43
1.0
 50
0.0
  0
INSERT
  8
txt
  2
D9502
 10
1.300000
 20
1.740000
 41
1.0
 42
1.0
 43
1.0
 50
0.0
  0
INSERT
  8
txt
  2
D9502
 10
1.300000
 20
1.840000
 41
1.0
 42
1.0
 43
1.0
 50
0.0
  0
INSERT
  8
txt
  2
D9502
 10
1.300000
 20
1.940000
 41
1.0
 42
1.0
 43
1.0
 50
0.0
  0
INSERT
  8
txt
  2
D9502
 10
1.300000
 20
2.040000
 41
1.0
 42
1.0
 43
1.0
 50
0.0
  0
INSERT
  8
txt
  2
D9502
 10
1.600000
 20
2.040000
 41
1.0
 42
1.0
 43
1.0
 50
0.0
  0
INSERT
  8
txt
  2
D9502
 10
1.600000
 20
1.940000
 41
1.0
 42
1.0
 43
1.0
 50
0.0
  0
INSERT
  8
txt
  2
D9502
 10
1.600000
 20
1.840000
 41
1.0
 42
1.0
 43
1.0
 50
0.0
  0
INSERT
  8
txt
  2
D9502
 10
1.600000
 20
1.740000
 41
1.0
 42
1.0
 43
1.0
 50
0.0
  0
INSERT
  8
txt
  2
D9502
 10
1.900000
 20
1.840000
 41
1.0
 42
1.0
 43
1.0
 50
0.0
  0
INSERT
  8
txt
  2
D9502
 10
2.000000
 20
1.840000
 41
1.0
 42
1.0
 43
1.0
 50
0.0
  0
INSERT
  8
txt
  2
D9502
 10
2.100000
 20
1.840000
 41
1.0
 42
1.0
 43
1.0
 50
0.0
  0
INSERT
  8
txt
  2
D9502
 10
2.200000
 20
1.840000
 41
1.0
 42
1.0
 43
1.0
 50
0.0
  0
INSERT
  8
txt
  2
D9502
 10
2.300000
 20
1.840000
 41
1.0
 42
1.0
 43
1.0
 50
0.0
  0
INSERT
  8
txt
  2
D9502
 10
2.400000
 20
1.840000
 41
1.0
 42
1.0
 43
1.0
 50
0.0
  0
INSERT
  8
txt
  2
D9502
 10
2.500000
 20
1.840000
 41
1.0
 42
1.0
 43
1.0
 50
0.0
  0
INSERT
  8
txt
  2
D9502
 10
2.600000
 20
1.840000
 41
1.0
 42
1.0
 43
1.0
 50
0.0
  0
INSERT
  8
txt
  2
D9502
 10
2.820000
 20
1.850000
 41
1.0
 42
1.0
 43
1.0
 50
0.0
  0
INSERT
  8
txt
  2
D9502
 10
2.820000
 20
1.750000
 41
1.0
 42
1.0
 43
1.0
 50
0.0
  0
INSERT
  8
txt
  2
D9502
 10
2.820000
 20
1.950000
 41
1.0
 42
1.0
 43
1.0
 50
0.0
  0
INSERT
  8
txt
  2
D9502
 10
2.820000
 20
2.050000
 41
1.0
 42
1.0
 43
1.0
 50
0.0
  0
INSERT
  8
txt
  2
D9502
 10
2.820000
 20
2.150000
 41
1.0
 42
1.0
 43
1.0
 50
0.0
  0
INSERT
  8
txt
  2
D9502
 10
2.600000
 20
2.140000
 41
1.0
 42
1.0
 43
1.0
 50
0.0
  0
INSERT
  8
txt
  2
D9502
 10
2.500000
 20
2.140000
 41
1.0
 42
1.0
 43
1.0
 50
0.0
  0
INSERT
  8
txt
  2
D9502
 10
2.400000
 20
2.140000
 41
1.0
 42
1.0
 43
1.0
 50
0.0
  0
INSERT
  8
txt
  2
D9502
 10
2.300000
 20
2.140000
 41
1.0
 42
1.0
 43
1.0
 50
0.0
  0
INSERT
  8
txt
  2
D9502
 10
2.200000
 20
2.140000
 41
1.0
 42
1.0
 43
1.0
 50
0.0
  0
INSERT
  8
txt
  2
D9502
 10
2.100000
 20
2.140000
 41
1.0
 42
1.0
 43
1.0
 50
0.0
  0
INSERT
  8
txt
  2
D9502
 10
2.000000
 20
2.140000
 41
1.0
 42
1.0
 43
1.0
 50
0.0
  0
INSERT
  8
txt
  2
D9502
 10
1.900000
 20
2.140000
 41
1.0
 42
1.0
 43
1.0
 50
0.0
  0
INSERT
  8
txt
  2
D9502
 10
3.120000
 20
2.150000
 41
1.0
 42
1.0
 43
1.0
 50
0.0
  0
INSERT
  8
txt
  2
D9502
 10
3.120000
 20
2.050000
 41
1.0
 42
1.0
 43
1.0
 50
0.0
  0
INSERT
  8
txt
  2
D9502
 10
3.120000
 20
1.950000
 41
1.0
 42
1.0
 43
1.0
 50
0.0
  0
INSERT
  8
txt
  2
D9502
 10
3.120000
 20
1.850000
 41
1.0
 42
1.0
 43
1.0
 50
0.0
  0
INSERT
  8
txt
  2
D9502
 10
3.120000
 20
1.750000
 41
1.0
 42
1.0
 43
1.0
 50
0.0
  0
INSERT
  8
txt
  2
D9502
 10
3.410000
 20
1.730000
 41
1.0
 42
1.0
 43
1.0
 50
0.0
  0
INSERT
  8
txt
  2
D9502
 10
3.410000
 20
1.830000
 41
1.0
 42
1.0
 43
1.0
 50
0.0
  0
INSERT
  8
txt
  2
D9502
 10
3.410000
 20
1.930000
 41
1.0
 42
1.0
 43
1.0
 50
0.0
  0
INSERT
  8
txt
  2
D9502
 10
3.710000
 20
1.930000
 41
1.0
 42
1.0
 43
1.0
 50
0.0
  0
INSERT
  8
txt
  2
D9502
 10
3.710000
 20
1.830000
 41
1.0
 42
1.0
 43
1.0
 50
0.0
  0
INSERT
  8
txt
  2
D9502
 10
3.710000
 20
1.730000
 41
1.0
 42
1.0
 43
1.0
 50
0.0
  0
INSERT
  8
txt
  2
D9502
 10
3.910000
 20
1.730000
 41
1.0
 42
1.0
 43
1.0
 50
0.0
  0
INSERT
  8
txt
  2
D9502
 10
3.910000
 20
1.830000
 41
1.0
 42
1.0
 43
1.0
 50
0.0
  0
INSERT
  8
txt
  2
D9502
 10
3.910000
 20
1.930000
 41
1.0
 42
1.0
 43
1.0
 50
0.0
  0
INSERT
  8
txt
  2
D9502
 10
4.210000
 20
1.930000
 41
1.0
 42
1.0
 43
1.0
 50
0.0
  0
INSERT
  8
txt
  2
D9502
 10
4.210000
 20
1.830000
 41
1.0
 42
1.0
 43
1.0
 50
0.0
  0
INSERT
  8
txt
  2
D9502
 10
4.210000
 20
1.730000
 41
1.0
 42
1.0
 43
1.0
 50
0.0
  0
INSERT
  8
txt
  2
D9503
 10
3.610000
 20
0.630000
 41
1.0
 42
1.0
 43
1.0
 50
0.0
  0
INSERT
  8
txt
  2
D9503
 10
0.810000
 20
0.710000
 41
1.0
 42
1.0
 43
1.0
 50
0.0
  0
INSERT
  8
txt
  2
D9503
 10
0.810000
 20
0.820000
 41
1.0
 42
1.0
 43
1.0
 50
0.0
  0
INSERT
  8
txt
  2
D9503
 10
0.810000
 20
1.000000
 41
1.0
 42
1.0
 43
1.0
 50
0.0
  0
INSERT
  8
txt
  2
D9503
 10
0.570000
 20
1.000000
 41
1.0
 42
1.0
 43
1.0
 50
0.0
  0
INSERT
  8
txt
  2
D9503
 10
0.570000
 20
0.820000
 41
1.0
 42
1.0
 43
1.0
 50
0.0
  0
INSERT
  8
txt
  2
D9503
 10
0.570000
 20
0.710000
 41
1.0
 42
1.0
 43
1.0
 50
0.0
  0
INSERT
  8
txt
  2
D9503
 10
0.570000
 20
0.530000
 41
1.0
 42
1.0
 43
1.0
 50
0.0
  0
INSERT
  8
txt
  2
D9503
 10
0.810000
 20
0.530000
 41
1.0
 42
1.0
 43
1.0
 50
0.0
  0
INSERT
  8
txt
  2
D9503
 10
0.583500
 20
1.265110
 41
1.0
 42
1.0
 43
1.0
 50
0.0
  0
INSERT
  8
txt
  2
D9503
 10
0.583500
 20
1.465290
 41
1.0
 42
1.0
 43
1.0
 50
0.0
  0
INSERT
  8
txt
  2
D9503
 10
0.583500
 20
1.665290
 41
1.0
 42
1.0
 43
1.0
 50
0.0
  0
INSERT
  8
txt
  2
D9504
 10
3.510000
 20
0.530000
 41
1.0
 42
1.0
 43
1.0
 50
0.0
  0
INSERT
  8
txt
  2
D9504
 10
3.710000
 20
0.530000
 41
1.0
 42
1.0
 43
1.0
 50
0.0
  0
INSERT
  8
txt
  2
D9504
 10
3.710000
 20
0.730000
 41
1.0
 42
1.0
 43
1.0
 50
0.0
  0
INSERT
  8
txt
  2
D9504
 10
3.510000
 20
0.730000
 41
1.0
 42
1.0
 43
1.0
 50
0.0
  0
INSERT
  8
txt
  2
D9505
 10
4.190000
 20
0.210000
 41
1.0
 42
1.0
 43
1.0
 50
0.0
  0
INSERT
  8
txt
  2
D9505
 10
0.250000
 20
0.210000
 41
1.0
 42
1.0
 43
1.0
 50
0.0
  0
INSERT
  8
txt
  2
D9505
 10
0.250000
 20
2.300000
 41
1.0
 42
1.0
 43
1.0
 50
0.0
  0
INSERT
  8
txt
  2
D9505
 10
4.190000
 20
2.300000
 41
1.0
 42
1.0
 43
1.0
 50
0.0
  0
ENDSEC
  0
EOF
