M48
;Layer_Color=9474304
;FILE_FORMAT=4:4
METRIC,TZ
;TYPE=PLATED
T1F00S00C0.7112
T2F00S00C0.9000
T3F00S00C1.0160
T4F00S00C1.5000
%
T01
X673100Y73660
X673100Y127000
X734060Y142240
X754380Y203200
X784860Y185420
X690880Y187960
X769620Y73660
X538480Y73660
X533400Y40640
X419100Y33020
X368300Y38100
X340360Y38100
X289560Y66040
X294640Y170180
X297180Y200660
X292100Y251460
X426720Y248660
X472440Y251460
X502920Y246380
X533400Y254000
X558800Y231140
X584200Y248920
X584200Y193040
X558800Y177800
X528320Y190500
X482600Y200660
X440560Y200660
X472440Y149860
X429260Y91440
X375920Y170180
X632460Y193040
X640080Y238760
X215900Y256540
X231140Y182880
X236220Y66040
X111760Y20320
X83820Y10160
X40640Y304800
X71120Y342900
X215900Y320040
X254000Y317500
X243840Y350520
X271780Y393700
X203200Y426720
X276860Y370840
X289560Y332740
X360680Y307340
X414020Y292100
X441960Y294640
X421640Y401320
X444500Y424180
X363220Y444500
X535940Y365760
X596900Y411480
X558800Y266700
X673100Y294640
X673100Y386080
X767080Y378460
X795020Y393700
X802640Y330200
X812800Y294640
X744220Y330200
T02
X802640Y50800
X802640Y114300
X9652Y113792
X9652Y187452
X9652Y40132
X647700Y482600
X673100Y482600
X708660Y482600
X734060Y482600
T03
X99060Y66040
X99060Y91440
X99060Y116840
X99060Y142240
X99060Y167640
X99060Y193040
X99060Y218440
X99060Y243840
X175260Y243840
X175260Y218440
X175260Y193040
X175260Y167640
X175260Y142240
X175260Y116840
X175260Y91440
X175260Y66040
T04
X772560Y432200
X772560Y482200
X822560Y482200
X822560Y432200
X797560Y457200
M30
