%FSLAX44Y44*%
%MOMM*%
G71*
G01*
G75*
G04 Layer_Physical_Order=1*
G04 Layer_Color=255*
%ADD10R,1.3000X1.5000*%
%ADD11R,1.5000X1.3000*%
%ADD12O,2.2000X0.6000*%
%ADD13O,0.6000X2.2000*%
%ADD14C,0.5080*%
%ADD15R,1.5000X1.5000*%
%ADD16C,2.5000*%
%ADD17R,2.0320X1.3970*%
%ADD18O,2.0320X1.3970*%
%ADD19R,1.7780X1.7780*%
%ADD20C,1.7780*%
%ADD21C,1.9050*%
G36*
X390162Y381989D02*
X389931Y381064D01*
X392757Y379554D01*
X395271Y377491D01*
X397334Y374977D01*
X398867Y372109D01*
X399811Y368997D01*
X400130Y365760D01*
X399811Y362523D01*
X398867Y359411D01*
X398660Y359024D01*
Y335740D01*
Y334035D01*
X383537D01*
Y330862D01*
X380365D01*
Y316739D01*
X382065D01*
X380433Y311929D01*
X381766Y310906D01*
X393326Y299346D01*
X394955Y297224D01*
X395979Y294752D01*
X396328Y292100D01*
X396328Y292100D01*
Y266948D01*
X397811Y265731D01*
X399874Y263217D01*
X401385Y260391D01*
X402309Y260622D01*
X406312Y261837D01*
Y381835D01*
X402155Y385992D01*
X391377D01*
X390162Y381989D01*
D02*
G37*
G36*
X774700Y119292D02*
X764277D01*
X762126Y116840D01*
X761624Y113027D01*
X760153Y109474D01*
X757811Y106424D01*
Y101856D01*
X760153Y98806D01*
X761624Y95253D01*
X762126Y91440D01*
X761624Y87627D01*
X760153Y84074D01*
D01*
X760153Y84074D01*
X760153Y84074D01*
X760153D01*
X760153Y84074D01*
X757940Y80645D01*
X762000D01*
Y51435D01*
X726440D01*
Y80645D01*
X730500D01*
X728288Y84074D01*
X728288Y84074D01*
X728288D01*
X728288Y84074D01*
X728288Y84074D01*
D01*
X726816Y87627D01*
X726314Y91440D01*
X726816Y95253D01*
X728288Y98806D01*
X730629Y101856D01*
Y106424D01*
X728288Y109474D01*
X726816Y113027D01*
X726314Y116840D01*
X724163Y119292D01*
X652780D01*
X652780Y119292D01*
X651079Y119516D01*
X648832Y114960D01*
X681350Y82442D01*
X680085Y82318D01*
Y69215D01*
X666982D01*
X666858Y67950D01*
X629615Y105192D01*
X607316D01*
X607247Y104668D01*
X606177Y102084D01*
X604474Y99866D01*
X602256Y98163D01*
X600075Y97260D01*
Y115442D01*
X594912D01*
Y107440D01*
X594547Y104668D01*
X594448Y104429D01*
Y99060D01*
X594188Y97085D01*
X594188Y97085D01*
X594099Y96408D01*
X593075Y93936D01*
X591446Y91814D01*
X589334Y89701D01*
X589425Y88308D01*
X593739Y85626D01*
X594128Y85787D01*
X596900Y86152D01*
X599672Y85787D01*
X602256Y84717D01*
X604474Y83014D01*
X606177Y80796D01*
X607247Y78212D01*
X607316Y77688D01*
X618121D01*
X618189Y77771D01*
X620703Y79834D01*
X623571Y81367D01*
X626684Y82311D01*
X629920Y82630D01*
X633157Y82311D01*
X636269Y81367D01*
X639137Y79834D01*
X641651Y77771D01*
X643714Y75257D01*
X645247Y72389D01*
X646191Y69276D01*
X646510Y66040D01*
X646191Y62804D01*
X645247Y59691D01*
X643714Y56823D01*
X641651Y54309D01*
X639137Y52246D01*
X636269Y50713D01*
X633157Y49769D01*
X629920Y49450D01*
X626684Y49769D01*
X623571Y50713D01*
X620703Y52246D01*
X618189Y54309D01*
X616126Y56823D01*
X615929Y57192D01*
X607316D01*
X607247Y56668D01*
X606177Y54084D01*
X604474Y51866D01*
X602256Y50163D01*
X599672Y49093D01*
X596900Y48728D01*
X596900Y48728D01*
X596900Y48728D01*
X595980Y48402D01*
X594447Y44449D01*
X595391Y41336D01*
X595710Y38100D01*
X595391Y34864D01*
X594447Y31751D01*
X593428Y29845D01*
X595060Y27122D01*
X597051Y25488D01*
X630755D01*
X667241Y61973D01*
X666989Y62804D01*
X666983Y62865D01*
X680085D01*
Y49762D01*
X683260Y49450D01*
X683750Y49498D01*
X649193Y14941D01*
X651137Y10248D01*
X750135D01*
X769532Y29645D01*
Y101600D01*
X769882Y104252D01*
X770905Y106724D01*
X772534Y108846D01*
X778648Y114960D01*
X776401Y119516D01*
X774700Y119292D01*
D02*
G37*
G36*
X655438Y409005D02*
X657271Y408024D01*
X659882Y405882D01*
X662025Y403271D01*
X663617Y400293D01*
X664597Y397061D01*
X664928Y393700D01*
X664597Y390339D01*
X663617Y387107D01*
X662025Y384129D01*
X659882Y381518D01*
X657271Y379375D01*
X657093Y378787D01*
X657947Y377189D01*
X658891Y374076D01*
X658897Y374015D01*
X642617D01*
Y367665D01*
X658897D01*
X658891Y367603D01*
X658055Y364848D01*
X658895Y363716D01*
X663936Y363094D01*
X666069Y364845D01*
X669047Y366437D01*
X672279Y367417D01*
X675640Y367748D01*
X679001Y367417D01*
X682233Y366437D01*
X685211Y364845D01*
X687822Y362702D01*
X688549Y361816D01*
X693332Y363527D01*
Y399615D01*
X679015Y413932D01*
X656672D01*
X655438Y409005D01*
D02*
G37*
G36*
X906653Y170942D02*
X893318D01*
Y170942D01*
X892680D01*
X889088Y167350D01*
Y130302D01*
X893318D01*
Y130302D01*
X926338D01*
D01*
X926338D01*
X929640Y133604D01*
Y170942D01*
X926338D01*
Y170942D01*
X913003D01*
Y187454D01*
X906653D01*
Y170942D01*
D02*
G37*
G36*
X116928Y209115D02*
Y197426D01*
X121711Y195715D01*
X122889Y197151D01*
X125403Y199214D01*
X128271Y200747D01*
X131383Y201691D01*
X131445Y201697D01*
Y185417D01*
X134618D01*
Y182245D01*
X150897D01*
X150891Y182183D01*
X149947Y179071D01*
X148414Y176203D01*
X146351Y173689D01*
X146351Y173689D01*
X146351D01*
X144868Y171885D01*
X157106Y159646D01*
X158735Y157524D01*
X159759Y155052D01*
X160108Y152400D01*
X160108Y152400D01*
Y86608D01*
X161591Y85391D01*
X162808Y83908D01*
X232610D01*
X234198Y85842D01*
X236809Y87985D01*
X239787Y89577D01*
X243019Y90557D01*
X243205Y90575D01*
Y73657D01*
X249555D01*
Y90575D01*
X249741Y90557D01*
X252973Y89577D01*
X255951Y87985D01*
X256118Y87848D01*
X266444D01*
X266513Y88372D01*
X267583Y90956D01*
X269286Y93174D01*
X271504Y94877D01*
X273685Y95780D01*
Y77597D01*
X278848D01*
Y85600D01*
X279213Y88373D01*
X279312Y88611D01*
Y95989D01*
X276861Y96312D01*
X279312Y98462D01*
Y104738D01*
X276860Y106888D01*
X274088Y107253D01*
X271504Y108323D01*
X269286Y110026D01*
X267583Y112244D01*
X266513Y114828D01*
X266260Y116752D01*
X260149D01*
X258562Y114818D01*
X255951Y112676D01*
X252973Y111083D01*
X249741Y110103D01*
X246380Y109772D01*
X243019Y110103D01*
X239787Y111083D01*
X236809Y112676D01*
X234198Y114818D01*
X232055Y117429D01*
X230463Y120407D01*
X229483Y123639D01*
X229152Y127000D01*
X229483Y130361D01*
X230463Y133593D01*
X232055Y136571D01*
X234198Y139182D01*
X236809Y141325D01*
X239787Y142917D01*
X243019Y143897D01*
X246380Y144228D01*
X245916Y144692D01*
X204871D01*
X202648Y142240D01*
X202317Y138879D01*
X201337Y135647D01*
X199744Y132669D01*
X197602Y130058D01*
X194991Y127915D01*
X192013Y126323D01*
X188781Y125343D01*
X185420Y125012D01*
X182059Y125343D01*
X178827Y126323D01*
X175849Y127915D01*
X173238Y130058D01*
X171096Y132669D01*
X169503Y135647D01*
X168523Y138879D01*
X168192Y142240D01*
X168523Y145601D01*
X169503Y148833D01*
X171096Y151811D01*
X173238Y154422D01*
X175849Y156565D01*
X178827Y158157D01*
X182059Y159137D01*
X185420Y159468D01*
X187910Y159223D01*
X190874Y162186D01*
X192996Y163815D01*
X193341Y165547D01*
X189734Y169154D01*
X189734Y169154D01*
X188105Y171276D01*
X187082Y173748D01*
X186732Y176400D01*
X186732Y176400D01*
Y182624D01*
X186208Y182693D01*
X183624Y183763D01*
X181406Y185466D01*
X179704Y187684D01*
X179690Y187716D01*
X174762Y188950D01*
X174671Y188876D01*
X171693Y187283D01*
X168461Y186303D01*
X165100Y185972D01*
X161739Y186303D01*
X158507Y187283D01*
X155529Y188876D01*
X150891Y188657D01*
D01*
X150897Y188595D01*
X137795D01*
Y201697D01*
X137857Y201691D01*
X140969Y200747D01*
X143759Y199256D01*
X147983Y202078D01*
X147872Y203200D01*
X148203Y206561D01*
X149183Y209793D01*
X150775Y212771D01*
X152918Y215382D01*
X155529Y217525D01*
X155913Y217730D01*
X156225Y218484D01*
X157854Y220606D01*
X157854Y220606D01*
X157735Y220892D01*
X128705D01*
X116928Y209115D01*
D02*
G37*
G36*
X740633Y282239D02*
X751466Y271406D01*
X753095Y269284D01*
X754118Y266812D01*
X754468Y264160D01*
X754468Y264160D01*
Y256719D01*
X754761Y256597D01*
X757811Y254256D01*
X760153Y251206D01*
X761624Y247653D01*
X761708Y247015D01*
X726732D01*
X726816Y247653D01*
X728288Y251206D01*
X730629Y254256D01*
X733680Y256597D01*
X733972Y256719D01*
Y259915D01*
X725456Y268431D01*
X720415Y267809D01*
X718608Y264795D01*
X719497Y263133D01*
X720477Y259901D01*
X720808Y256540D01*
X720477Y253179D01*
X719497Y249947D01*
X717905Y246969D01*
X715762Y244358D01*
X713828Y242771D01*
Y204905D01*
X715445Y203288D01*
X726995D01*
X730629Y208024D01*
X728288Y211075D01*
X726816Y214627D01*
X726314Y218440D01*
X726816Y222253D01*
X728288Y225805D01*
X730629Y228856D01*
Y233424D01*
X728288Y236474D01*
X726816Y240027D01*
X726732Y240665D01*
X761708D01*
X761624Y240027D01*
X760153Y236474D01*
X757811Y233424D01*
Y228856D01*
X760153Y225805D01*
X761624Y222253D01*
X762126Y218440D01*
X761624Y214627D01*
X760153Y211075D01*
X757811Y208024D01*
Y203456D01*
X760153Y200406D01*
X761624Y196853D01*
X762126Y193040D01*
X761624Y189227D01*
X760153Y185674D01*
X757811Y182624D01*
Y178056D01*
X760153Y175005D01*
X761624Y171453D01*
X762126Y167640D01*
X761624Y163827D01*
X760153Y160275D01*
X757811Y157224D01*
Y152656D01*
X760153Y149606D01*
X761624Y146053D01*
X762126Y142240D01*
X764277Y139788D01*
X770455D01*
X803649Y172982D01*
X804488Y175005D01*
X806829Y178056D01*
Y182624D01*
X804488Y185674D01*
X803016Y189227D01*
X802514Y193040D01*
X803016Y196853D01*
X804488Y200406D01*
X806829Y203456D01*
Y208024D01*
X804488Y211075D01*
X803016Y214627D01*
X802514Y218440D01*
X803016Y222253D01*
X804488Y225805D01*
X806829Y228856D01*
Y233424D01*
X804488Y236474D01*
X803016Y240027D01*
X802514Y243840D01*
X802911Y246856D01*
X777614Y272154D01*
X777614Y272154D01*
X762835Y286932D01*
X742578D01*
X740633Y282239D01*
D02*
G37*
G36*
X194295Y464776D02*
X192666Y462654D01*
X179966Y449954D01*
X179966Y449954D01*
X177844Y448325D01*
X175372Y447301D01*
X172720Y446952D01*
X172720Y446952D01*
X168020D01*
X165598Y444965D01*
X164178Y442595D01*
X165598Y439937D01*
X166749Y436144D01*
X166825Y435375D01*
X127015D01*
X126832Y433521D01*
X123241Y437113D01*
X121920Y436983D01*
X120599Y437113D01*
X117008Y433521D01*
X116825Y435375D01*
X96917D01*
Y432202D01*
X93745D01*
Y412295D01*
X92976Y412371D01*
X89183Y413522D01*
X85688Y415390D01*
X81280Y410019D01*
Y371650D01*
X85973Y369706D01*
X86734Y370466D01*
X88856Y372095D01*
X91328Y373119D01*
X93980Y373468D01*
X93980Y373468D01*
X116623D01*
X117838Y377471D01*
X118069Y378396D01*
X115243Y379906D01*
X112729Y381969D01*
X110666Y384483D01*
X109133Y387351D01*
X108189Y390463D01*
X107870Y393700D01*
X108189Y396936D01*
X109133Y400049D01*
X110666Y402917D01*
X112729Y405431D01*
X115243Y407494D01*
X118111Y409027D01*
X121223Y409971D01*
X124460Y410290D01*
X126782Y410061D01*
X126956Y410195D01*
X129428Y411218D01*
X132080Y411568D01*
X132080Y411568D01*
X132806D01*
X134517Y416351D01*
X132624Y417904D01*
X130110Y420968D01*
X128242Y424463D01*
X127091Y428256D01*
X127015Y429025D01*
X166825D01*
X166749Y428256D01*
X165598Y424463D01*
X163730Y420968D01*
X161216Y417904D01*
X159323Y416351D01*
X161034Y411568D01*
X165935D01*
X200572Y446205D01*
Y466090D01*
X194839D01*
X194295Y464776D01*
D02*
G37*
G36*
X450276Y133589D02*
X447040Y133270D01*
X445131Y133458D01*
X428226Y116554D01*
X426104Y114925D01*
X423632Y113902D01*
X420980Y113552D01*
X420980Y113552D01*
X396120D01*
Y109680D01*
Y107975D01*
X380998D01*
Y101625D01*
X396120D01*
Y90680D01*
X394827D01*
X393115Y85897D01*
X393182Y85842D01*
X395325Y83231D01*
X396917Y80253D01*
X397897Y77021D01*
X397915Y76835D01*
X380998D01*
Y70485D01*
X397915D01*
X397897Y70299D01*
X396917Y67067D01*
X395325Y64089D01*
X393182Y61478D01*
X392352Y60797D01*
X392850Y55742D01*
X395297Y54434D01*
X397811Y52371D01*
X399874Y49857D01*
X401407Y46989D01*
X402351Y43877D01*
X402670Y40640D01*
X402351Y37404D01*
X401407Y34291D01*
X399874Y31423D01*
X398772Y30080D01*
X400944Y25488D01*
X407235D01*
X424092Y42345D01*
Y93980D01*
X424441Y96632D01*
X425465Y99104D01*
X427094Y101226D01*
X455831Y129964D01*
X453389Y134533D01*
X450276Y133589D01*
D02*
G37*
G36*
X81280Y504381D02*
X85688Y499010D01*
X89183Y500878D01*
X92976Y502029D01*
X93745Y502105D01*
Y482197D01*
X96917D01*
Y479025D01*
X116825D01*
X117008Y480879D01*
X120599Y477287D01*
X121920Y477417D01*
X123241Y477287D01*
X126832Y480879D01*
X127015Y479025D01*
X146923D01*
Y482197D01*
X150095D01*
Y502105D01*
X150864Y502029D01*
X154657Y500878D01*
X158152Y499010D01*
X161216Y496496D01*
X163730Y493432D01*
X163982Y492961D01*
X168910Y494195D01*
Y499110D01*
X201930D01*
Y499110D01*
X204171Y497767D01*
X204471Y497927D01*
X207584Y498871D01*
X210820Y499190D01*
X214056Y498871D01*
X217169Y497927D01*
X220037Y496394D01*
X222551Y494331D01*
X223768Y492848D01*
X233432D01*
X234649Y494331D01*
X237163Y496394D01*
X240031Y497927D01*
X243144Y498871D01*
X246380Y499190D01*
X249617Y498871D01*
X252729Y497927D01*
X253029Y497767D01*
X255270Y499110D01*
Y499110D01*
X288290D01*
Y492848D01*
X520700D01*
X523352Y492499D01*
X525824Y491475D01*
X527946Y489846D01*
X527946Y489846D01*
X556751Y461041D01*
X559496Y460771D01*
X562609Y459827D01*
X565477Y458294D01*
X567991Y456231D01*
X570054Y453717D01*
X571587Y450849D01*
X572531Y447737D01*
X572850Y444500D01*
X572531Y441264D01*
X571587Y438151D01*
X570054Y435283D01*
X567991Y432769D01*
X565477Y430706D01*
X562609Y429173D01*
X559496Y428229D01*
X556260Y427910D01*
X553023Y428229D01*
X549911Y429173D01*
X547043Y430706D01*
X544529Y432769D01*
X542466Y435283D01*
X540933Y438151D01*
X539989Y441264D01*
X539670Y444500D01*
X539989Y447737D01*
X540241Y448567D01*
X516455Y472352D01*
X288290D01*
Y466090D01*
X255270D01*
Y466090D01*
X253029Y467433D01*
X252729Y467273D01*
X249617Y466329D01*
X246380Y466010D01*
X243144Y466329D01*
X240031Y467273D01*
X237163Y468806D01*
X234649Y470869D01*
X233432Y472352D01*
X223768D01*
X222551Y470869D01*
X221068Y469652D01*
Y441960D01*
X221068Y441960D01*
X220718Y439308D01*
X219695Y436836D01*
X218066Y434714D01*
X177426Y394074D01*
X177426Y394074D01*
X175304Y392445D01*
X175304Y392445D01*
X175304Y392445D01*
D01*
X175304Y392445D01*
X175304Y392445D01*
X172832Y391422D01*
X170180Y391072D01*
X170180Y391072D01*
X169320D01*
X166708Y386715D01*
X167727Y384809D01*
X168671Y381697D01*
X168677Y381635D01*
X152397D01*
Y375285D01*
X168678D01*
X168802Y376550D01*
X182506Y362846D01*
X184135Y360724D01*
X185159Y358252D01*
X185508Y355600D01*
X185508Y355600D01*
Y343148D01*
X186991Y341931D01*
X188208Y340448D01*
X193040D01*
X193040Y340448D01*
X195692Y340098D01*
X198164Y339075D01*
X200286Y337446D01*
X218440Y319292D01*
X223520D01*
X226434Y322206D01*
X228556Y323835D01*
X231028Y324859D01*
X233680Y325208D01*
X233680Y325208D01*
X265560D01*
X267877Y324903D01*
X267985Y325164D01*
X269614Y327286D01*
X274481Y332154D01*
X274088Y333313D01*
X271504Y334383D01*
X269286Y336086D01*
X267583Y338304D01*
X266513Y340888D01*
X266148Y343660D01*
Y359660D01*
X266513Y362432D01*
X266612Y362671D01*
Y375832D01*
X260149D01*
X258562Y373898D01*
X255951Y371755D01*
X252973Y370163D01*
X249741Y369183D01*
X246380Y368852D01*
X243019Y369183D01*
X239787Y370163D01*
X236809Y371755D01*
X234198Y373898D01*
X232055Y376509D01*
X230463Y379487D01*
X229483Y382719D01*
X229152Y386080D01*
X229483Y389441D01*
X230463Y392673D01*
X232055Y395651D01*
X234198Y398262D01*
X236809Y400405D01*
X239787Y401997D01*
X243019Y402977D01*
X246380Y403308D01*
X249741Y402977D01*
X252973Y401997D01*
X255951Y400405D01*
X258562Y398262D01*
X260149Y396328D01*
X271780D01*
X271780Y396328D01*
X274432Y395979D01*
X275089Y395707D01*
X279312Y398529D01*
Y426720D01*
X279662Y429372D01*
X280086Y430396D01*
X280685Y431844D01*
X282314Y433966D01*
X282314Y433966D01*
X300094Y451746D01*
X302216Y453375D01*
X304688Y454398D01*
X307340Y454748D01*
X307340Y454748D01*
X510540D01*
X510540Y454748D01*
X513192Y454398D01*
X515664Y453375D01*
X517786Y451746D01*
X553346Y416186D01*
X554975Y414064D01*
X555998Y411592D01*
X556183Y410190D01*
X561252Y410522D01*
Y414020D01*
X561601Y416672D01*
X562625Y419144D01*
X563332Y420065D01*
X564254Y421266D01*
X564254Y421266D01*
X574414Y431426D01*
X576536Y433055D01*
X579008Y434078D01*
X581660Y434428D01*
X581660Y434428D01*
X683260D01*
X683260Y434428D01*
X685912Y434078D01*
X688384Y433055D01*
X690506Y431426D01*
X695088Y426844D01*
X699870Y428556D01*
X699690Y426720D01*
X700002Y423545D01*
X713105D01*
Y410442D01*
X716280Y410130D01*
X716678Y410169D01*
X713521Y406190D01*
X713828Y403860D01*
X713828Y403860D01*
Y333810D01*
X715762Y332222D01*
X717905Y329611D01*
X719497Y326633D01*
X720477Y323401D01*
X720808Y320040D01*
X720477Y316679D01*
X719497Y313447D01*
X718608Y311785D01*
X720842Y308058D01*
X721610Y307428D01*
X767080D01*
X769732Y307078D01*
X770756Y306654D01*
X772204Y306055D01*
X774326Y304426D01*
X774326Y304426D01*
X792106Y286646D01*
X792106Y286646D01*
X820181Y258571D01*
X823595D01*
X827408Y258069D01*
X830960Y256597D01*
X833556Y254606D01*
X836104Y255862D01*
X838112Y257403D01*
Y329952D01*
X836629Y331169D01*
X834566Y333683D01*
X833033Y336551D01*
X832089Y339664D01*
X831770Y342900D01*
X832089Y346137D01*
X833033Y349249D01*
X834566Y352117D01*
X836629Y354631D01*
X839143Y356694D01*
X842011Y358227D01*
X845124Y359171D01*
X848360Y359490D01*
X851597Y359171D01*
X854709Y358227D01*
X857577Y356694D01*
X860091Y354631D01*
X862154Y352117D01*
X863687Y349249D01*
X864631Y346137D01*
X864950Y342900D01*
X864631Y339664D01*
X863687Y336551D01*
X862154Y333683D01*
X860091Y331169D01*
X858608Y329952D01*
Y312637D01*
X862611Y311422D01*
X863536Y311191D01*
X865046Y314017D01*
X867109Y316531D01*
X869623Y318594D01*
X872491Y320127D01*
X875603Y321071D01*
X878840Y321390D01*
X882076Y321071D01*
X885189Y320127D01*
X888057Y318594D01*
X890571Y316531D01*
X892634Y314017D01*
X894167Y311149D01*
X894555Y309869D01*
X899580Y310614D01*
Y381327D01*
X864435Y416472D01*
X729228D01*
X728011Y414989D01*
X725497Y412926D01*
X722629Y411393D01*
X719517Y410449D01*
X719455Y410443D01*
Y426717D01*
Y442997D01*
X719517Y442991D01*
X722629Y442047D01*
X725497Y440514D01*
X728011Y438451D01*
X729228Y436968D01*
X868680D01*
X868680Y436968D01*
X871332Y436618D01*
X873804Y435595D01*
X875926Y433966D01*
X917074Y392818D01*
X918703Y390696D01*
X919726Y388224D01*
X920076Y385572D01*
X920076Y385572D01*
Y203962D01*
X926338D01*
D01*
X926338D01*
X929640Y207264D01*
Y518160D01*
X81280D01*
Y504381D01*
D02*
G37*
G36*
X116928Y173414D02*
Y138865D01*
X124086Y131706D01*
X124774Y130810D01*
X133350D01*
Y97790D01*
X100330D01*
D01*
X100330D01*
X99148Y96608D01*
Y75365D01*
X116005Y58508D01*
X134996D01*
X137168Y63100D01*
X136066Y64443D01*
X134533Y67311D01*
X133589Y70423D01*
X133583Y70485D01*
X149862D01*
Y76835D01*
X133583D01*
X133589Y76897D01*
X134533Y80009D01*
X136066Y82877D01*
X138129Y85391D01*
X139612Y86608D01*
Y148155D01*
X127374Y160394D01*
X125745Y162516D01*
X124721Y164988D01*
X124372Y167640D01*
X124372Y167640D01*
X124372Y167640D01*
Y167640D01*
Y171666D01*
X120219Y174591D01*
X116928Y173414D01*
D02*
G37*
G36*
X490924Y430859D02*
X490415Y430172D01*
X491251Y427416D01*
X491257Y427355D01*
X474977D01*
Y421005D01*
X491258D01*
X491278Y421209D01*
X494869Y417617D01*
X497840Y417910D01*
X501077Y417591D01*
X504189Y416647D01*
X507057Y415114D01*
X509571Y413051D01*
X511634Y410537D01*
X513167Y407669D01*
X514111Y404557D01*
X514391Y401719D01*
X518370Y398561D01*
X520700Y398868D01*
X523352Y398518D01*
X525824Y397495D01*
X527337Y396334D01*
X528044Y396877D01*
X530628Y397947D01*
X533400Y398312D01*
X535852Y400462D01*
Y404695D01*
X506295Y434252D01*
X497273D01*
X490924Y430859D01*
D02*
G37*
%LPC*%
G36*
X686435Y82317D02*
X686497Y82311D01*
X689609Y81367D01*
X692477Y79834D01*
X694991Y77771D01*
X697054Y75257D01*
X698587Y72389D01*
X699531Y69276D01*
X699537Y69215D01*
X686435D01*
Y82317D01*
D02*
G37*
G36*
Y62865D02*
X699537D01*
X699531Y62804D01*
X698587Y59691D01*
X697054Y56823D01*
X694991Y54309D01*
X692477Y52246D01*
X689609Y50713D01*
X686497Y49769D01*
X686435Y49763D01*
Y62865D01*
D02*
G37*
G36*
X143745Y502105D02*
Y485375D01*
X127015D01*
X127091Y486144D01*
X128242Y489937D01*
X130110Y493432D01*
X132624Y496496D01*
X135688Y499010D01*
X139183Y500878D01*
X142976Y502029D01*
X143745Y502105D01*
D02*
G37*
G36*
X100095D02*
X100864Y502029D01*
X104657Y500878D01*
X108152Y499010D01*
X111216Y496496D01*
X113730Y493432D01*
X115598Y489937D01*
X116749Y486144D01*
X116825Y485375D01*
X100095D01*
Y502105D01*
D02*
G37*
G36*
X713105Y442997D02*
Y429895D01*
X700003D01*
X700009Y429957D01*
X700953Y433069D01*
X702486Y435937D01*
X704549Y438451D01*
X707063Y440514D01*
X709931Y442047D01*
X713044Y442991D01*
X713105Y442997D01*
D02*
G37*
G36*
X386715Y327685D02*
X398660D01*
Y316740D01*
X386715D01*
Y327685D01*
D02*
G37*
G36*
X100095Y429025D02*
X116825D01*
X116749Y428256D01*
X115598Y424463D01*
X113730Y420968D01*
X111216Y417904D01*
X108152Y415390D01*
X104657Y413522D01*
X100864Y412371D01*
X100095Y412295D01*
Y429025D01*
D02*
G37*
%LPD*%
D10*
X478180Y66040D02*
D03*
X497180D02*
D03*
X459080Y175260D02*
D03*
X440080D02*
D03*
X196240Y294640D02*
D03*
X215240D02*
D03*
X497180Y332740D02*
D03*
X478180D02*
D03*
X466700Y200660D02*
D03*
X447700D02*
D03*
D11*
X383540Y330860D02*
D03*
Y349860D02*
D03*
X381000Y123800D02*
D03*
Y104800D02*
D03*
D12*
X196980Y193040D02*
D03*
Y205740D02*
D03*
Y218440D02*
D03*
Y231140D02*
D03*
Y243840D02*
D03*
Y256540D02*
D03*
Y269240D02*
D03*
X244980Y193040D02*
D03*
Y205740D02*
D03*
Y218440D02*
D03*
Y231140D02*
D03*
Y243840D02*
D03*
Y256540D02*
D03*
Y269240D02*
D03*
D13*
X596900Y331600D02*
D03*
X584200D02*
D03*
X571500D02*
D03*
X558800D02*
D03*
X546100D02*
D03*
X533400D02*
D03*
X520700D02*
D03*
X596900Y379600D02*
D03*
X584200D02*
D03*
X571500D02*
D03*
X558800D02*
D03*
X546100D02*
D03*
X533400D02*
D03*
X520700D02*
D03*
X596900Y199520D02*
D03*
X584200D02*
D03*
X571500D02*
D03*
X558800D02*
D03*
X546100D02*
D03*
X533400D02*
D03*
X520700D02*
D03*
X596900Y247520D02*
D03*
X584200D02*
D03*
X571500D02*
D03*
X558800D02*
D03*
X546100D02*
D03*
X533400D02*
D03*
X520700D02*
D03*
X596900Y67440D02*
D03*
X584200D02*
D03*
X571500D02*
D03*
X558800D02*
D03*
X546100D02*
D03*
X533400D02*
D03*
X520700D02*
D03*
X596900Y115440D02*
D03*
X584200D02*
D03*
X571500D02*
D03*
X558800D02*
D03*
X546100D02*
D03*
X533400D02*
D03*
X520700D02*
D03*
X353060Y77600D02*
D03*
X340360D02*
D03*
X327660D02*
D03*
X314960D02*
D03*
X302260D02*
D03*
X289560D02*
D03*
X276860D02*
D03*
X353060Y125600D02*
D03*
X340360D02*
D03*
X327660D02*
D03*
X314960D02*
D03*
X302260D02*
D03*
X289560D02*
D03*
X276860D02*
D03*
X353060Y303660D02*
D03*
X340360D02*
D03*
X327660D02*
D03*
X314960D02*
D03*
X302260D02*
D03*
X289560D02*
D03*
X276860D02*
D03*
X353060Y351660D02*
D03*
X340360D02*
D03*
X327660D02*
D03*
X314960D02*
D03*
X302260D02*
D03*
X289560D02*
D03*
X276860D02*
D03*
D14*
X241300Y187960D02*
Y193040D01*
X149860Y73660D02*
Y76200D01*
X127000Y50800D02*
X116840D01*
X149860Y73660D02*
X127000Y50800D01*
X104140Y20320D02*
X88900Y35560D01*
X264160Y20320D02*
X104140D01*
X302260Y58420D02*
X264160Y20320D01*
X302260Y58420D02*
Y77600D01*
X149860Y73660D02*
Y152400D01*
X134620Y167640D01*
Y185420D01*
X196980Y176400D02*
Y193040D01*
X203200Y170180D02*
X196980Y176400D01*
X116840Y114300D02*
Y124460D01*
X106680Y134620D01*
Y213360D01*
X124460Y231140D02*
X106680Y213360D01*
X196980Y231140D02*
X124460D01*
X246380Y73660D02*
X149860D01*
X244980Y193040D02*
X241300D01*
Y187960D02*
X228600D01*
X198120Y154940D02*
X185420Y142240D01*
X314960D02*
X302260Y154940D01*
X327660Y160020D02*
X317500Y170180D01*
X327660Y125600D02*
Y160020D01*
X439420Y431800D02*
X314960D01*
X302260Y419100D01*
Y351660D02*
Y419100D01*
X574040Y271780D02*
X472440D01*
X584200Y261620D02*
X574040Y271780D01*
X584200Y247520D02*
Y261620D01*
X454660Y416560D02*
X439420Y431800D01*
X472440Y271780D02*
X454660Y289560D01*
Y416560D01*
X355600Y414020D02*
X327660Y386080D01*
Y351660D02*
Y386080D01*
X469900Y254000D02*
X439420Y284480D01*
X469900Y236220D02*
Y254000D01*
X482600Y223520D02*
X469900Y236220D01*
X541020Y223520D02*
X482600D01*
X546100Y228600D02*
X541020Y223520D01*
X546100Y228600D02*
Y247520D01*
X431800Y414020D02*
X355600D01*
X439420Y284480D02*
Y406400D01*
X431800Y414020D01*
X416560Y386080D02*
X406400Y396240D01*
X416560Y246380D02*
Y386080D01*
X340360Y351660D02*
Y375920D01*
X360680Y396240D02*
X340360Y375920D01*
X406400Y396240D02*
X360680D01*
X510540Y287020D02*
X505460Y292100D01*
X662940Y287020D02*
X510540D01*
X558800Y444500D02*
X556260D01*
X558800D02*
X520700Y482600D01*
X271780D01*
X246380D02*
X210820D01*
X106680Y254000D02*
Y294640D01*
X116840Y243840D02*
X106680Y254000D01*
X196980Y243840D02*
X116840D01*
X172720Y457200D02*
X121920D01*
X185420Y469900D02*
Y482600D01*
Y469900D02*
X172720Y457200D01*
X868680Y426720D02*
X716280D01*
X909828Y385572D02*
X868680Y426720D01*
X909828Y187452D02*
Y385572D01*
X703580Y320040D02*
Y403860D01*
X683260Y424180D01*
X523240Y115440D02*
X478660D01*
X454660Y91440D01*
Y22860D02*
Y91440D01*
X477520Y0D02*
X454660Y22860D01*
X754380Y0D02*
X477520D01*
X779780Y25400D02*
X754380Y0D01*
X779780Y25400D02*
Y101600D01*
X795020Y116840D02*
X779780Y101600D01*
X820420Y116840D02*
X795020D01*
X675640Y350520D02*
X612140D01*
X642620Y302260D02*
X594360D01*
X660400Y320040D02*
X642620Y302260D01*
X612140Y350520D02*
X607060Y355600D01*
X631060Y331600D02*
X629920Y332740D01*
X631060Y331600D02*
X596900D01*
X594360Y302260D02*
X584200Y312420D01*
X673100Y297180D02*
X662940Y287020D01*
X607060Y355600D02*
X535940D01*
X767080Y297180D02*
X673100D01*
X683260Y424180D02*
X581660D01*
X571500Y414020D01*
Y379600D02*
Y414020D01*
X478180Y297840D02*
X474980Y294640D01*
Y292100D02*
Y294640D01*
Y375920D02*
Y424180D01*
X478180Y372720D02*
X474980Y375920D01*
X478180Y332740D02*
Y372720D01*
X374520Y303660D02*
X353060D01*
X386080Y292100D02*
X374520Y303660D01*
X386080Y254000D02*
Y292100D01*
Y327660D02*
X284480D01*
X384940Y351660D02*
X353060D01*
X383540Y349860D02*
Y365760D01*
X289560Y351660D02*
Y426720D01*
X307340Y444500D02*
X289560Y426720D01*
X510540Y444500D02*
X307340D01*
X546100Y408940D02*
X510540Y444500D01*
X546100Y379600D02*
Y408940D01*
X322580Y406400D02*
Y411480D01*
Y406400D02*
X314960Y398780D01*
X360680Y177800D02*
X340360Y157480D01*
Y125600D02*
Y157480D01*
X546100Y129540D02*
X538480Y137160D01*
X477520D01*
X434340Y93980D01*
X546100Y115440D02*
Y129540D01*
X314960Y125600D02*
Y142240D01*
X520700Y152400D02*
X497840Y175260D01*
X563880Y152400D02*
X520700D01*
X497840Y175260D02*
X459080D01*
X568960Y157480D02*
X563880Y152400D01*
X574040Y137160D02*
X558800Y121920D01*
X645160Y137160D02*
X574040D01*
X568960Y157480D02*
Y175260D01*
X652780Y129540D02*
X645160Y137160D01*
X774700Y129540D02*
X652780D01*
X812800Y167640D02*
X774700Y129540D01*
X558800Y115440D02*
Y121920D01*
X568960Y175260D02*
X558800Y185420D01*
Y199520D01*
X440080Y175260D02*
X403860D01*
X391160Y187960D01*
X381000Y73660D02*
Y104800D01*
X353060Y50800D02*
Y77600D01*
X363220Y40640D02*
X353060Y50800D01*
X434340Y38100D02*
X411480Y15240D01*
X375920D01*
X355600D01*
X434340Y38100D02*
Y93980D01*
X355600Y15240D02*
X340360Y30480D01*
Y77600D01*
X386080Y40640D02*
X363220D01*
X434340Y226060D02*
X406400D01*
X447040Y238760D02*
X434340Y226060D01*
X447040Y238760D02*
Y251460D01*
X406400Y226060D02*
X393700Y213360D01*
X360680Y231140D02*
X325120D01*
X520700Y199520D02*
X478920D01*
X420980Y123800D02*
X381000D01*
X447040Y149860D02*
X420980Y123800D01*
X391160Y187960D02*
Y190500D01*
X215240Y296520D02*
Y308000D01*
X233680Y314960D02*
X215240Y296520D01*
Y308000D02*
X193040Y330200D01*
X175260D01*
X836930Y11430D02*
X834390D01*
X478180Y297840D02*
Y332740D01*
X498320Y331600D02*
X497180Y332740D01*
X520700Y331600D02*
X498320D01*
X518160Y15240D02*
X500380Y33020D01*
X635000Y15240D02*
X518160D01*
X683260Y63500D02*
X635000Y15240D01*
X683260Y63500D02*
Y66040D01*
X633860Y115440D02*
X596900D01*
X683260Y66040D02*
X633860Y115440D01*
X807720Y20320D02*
Y40640D01*
X820420Y53340D02*
X807720Y40640D01*
X478920Y200660D02*
X466700D01*
X467840Y199520D02*
X466700Y200660D01*
X543560Y170180D02*
X533400Y180340D01*
X604520Y152400D02*
X584200Y172720D01*
X820420Y53340D02*
Y66040D01*
X551180Y38100D02*
X543313D01*
X520700Y60713D01*
Y67440D01*
X848360Y218440D02*
Y342900D01*
X863600Y203200D02*
X848360Y218440D01*
X863600Y66040D02*
Y203200D01*
X848360Y22860D02*
Y187960D01*
X843280Y193040D01*
X848360Y22860D02*
X836930Y11430D01*
X843280Y193040D02*
X820420D01*
X889508Y40132D02*
X863600Y66040D01*
X909828Y40132D02*
X889508D01*
X784860Y279400D02*
X767080Y297180D01*
X642620Y370840D02*
X614680D01*
X605920Y379600D01*
X596900D01*
X642620Y388620D02*
X632460D01*
X647700Y393700D02*
X642620Y388620D01*
X632460D02*
X612140Y408940D01*
X497180Y332740D02*
Y400660D01*
X909828Y113792D02*
X881888D01*
X878840Y116840D01*
Y304800D01*
X497840Y401320D02*
X497180Y400660D01*
X275460Y127000D02*
X246380D01*
X276860Y125600D02*
X275460Y127000D01*
X279400Y193040D02*
X266700Y205740D01*
X244980D01*
X335280Y193040D02*
X317500D01*
X287020D02*
X279400D01*
X579120Y59820D02*
X571500Y67440D01*
X579120Y38100D02*
Y59820D01*
X533400Y115440D02*
X520700D01*
X820420Y167640D02*
X812800D01*
X728980Y152400D02*
X604520D01*
X558800Y307340D02*
Y331600D01*
Y304800D02*
Y307340D01*
X360680Y266700D02*
X355600D01*
X340360Y281940D01*
Y303660D01*
X327660Y256540D02*
Y303660D01*
X284480Y327660D02*
X276860Y320040D01*
X523240Y292100D02*
X505460D01*
X533400Y302260D02*
X523240Y292100D01*
X628520Y67440D02*
X596900D01*
X629920Y66040D02*
X628520Y67440D01*
X576580Y91440D02*
X490220D01*
X584200Y99060D02*
X576580Y91440D01*
X584200Y99060D02*
Y115440D01*
X500380Y33020D02*
X495300D01*
X478180Y50140D01*
Y66040D01*
X584200Y67440D02*
X571500D01*
Y115440D02*
X558800D01*
X596900Y247520D02*
Y259080D01*
X607060Y269240D02*
X596900Y259080D01*
X675640Y269240D02*
X607060D01*
X685800Y279400D02*
X675640Y269240D01*
X728980Y279400D02*
X685800D01*
X744220Y264160D02*
X728980Y279400D01*
X744220Y243840D02*
Y264160D01*
X584200Y312420D02*
Y331600D01*
X662940Y320040D02*
X660400D01*
X665480Y317500D02*
X662940Y320040D01*
X622300Y200660D02*
X598040D01*
X596900Y199520D01*
X571500Y247520D02*
X565020D01*
X558800Y241300D01*
Y231140D02*
Y241300D01*
X568960Y220980D02*
X558800Y231140D01*
X609600Y220980D02*
X568960D01*
X627380Y238760D02*
X609600Y220980D01*
X627380Y238760D02*
Y251460D01*
X668020Y182880D02*
X655320Y170180D01*
X688340Y182880D02*
X668020D01*
X655320Y170180D02*
X624840D01*
X744220Y167640D02*
X728980Y152400D01*
X584200Y172720D02*
Y199520D01*
X563880Y247520D02*
X558800D01*
X520700D02*
X493900D01*
X492760Y248660D01*
X533400Y302260D02*
Y331600D01*
X820420Y243840D02*
X782320Y281940D01*
X533400Y180340D02*
Y199520D01*
X535940Y355600D02*
X533400Y358140D01*
Y379600D01*
X520700D02*
Y388620D01*
X612140Y408940D02*
X589280D01*
X584200Y403860D01*
Y379600D02*
Y403860D01*
X703580Y200660D02*
Y256540D01*
X711200Y193040D02*
X703580Y200660D01*
X744220Y193040D02*
X711200D01*
X498580Y67440D02*
X497180Y66040D01*
X520700Y67440D02*
X498580D01*
X584200Y199520D02*
X571500D01*
X546100D02*
X533400D01*
Y247520D02*
X520700D01*
X533400Y379600D02*
X520700D01*
X546100Y331600D02*
X533400D01*
X584200D02*
X571500D01*
Y379600D02*
X558800D01*
X196980Y218440D02*
X170180D01*
X165100Y213360D01*
Y203200D02*
Y213360D01*
X276860Y77600D02*
X250320D01*
X246380Y73660D01*
X354860Y123800D02*
X353060Y125600D01*
X381000Y123800D02*
X354860D01*
X215240Y294640D02*
Y296520D01*
X265560Y314960D02*
X233680D01*
X276860Y303660D02*
X265560Y314960D01*
X276860Y303660D02*
Y320040D01*
X386080Y350520D02*
X384940Y351660D01*
X302260Y109220D02*
Y125600D01*
Y77600D02*
Y109220D01*
X309880Y101600D02*
X302260Y109220D01*
X347980Y101600D02*
X309880D01*
X353060Y106680D02*
X347980Y101600D01*
X353060Y106680D02*
Y125600D01*
X289560Y77600D02*
Y125600D01*
X327660Y77600D02*
X314960D01*
Y351660D02*
Y398780D01*
X335280Y248920D02*
X327660Y256540D01*
X196980Y293900D02*
X196240Y294640D01*
X175260Y330200D02*
Y355600D01*
X152400Y378460D01*
X210820Y205740D02*
X196980D01*
X393700Y213360D02*
X317500D01*
Y193040D02*
X292100Y218440D01*
X244980D01*
X274320Y231140D02*
X244980D01*
X279400Y256540D02*
X244980D01*
X317500Y213360D02*
X302260Y228600D01*
X325120Y231140D02*
X314960Y241300D01*
Y303660D01*
X289560Y266700D02*
X279400Y256540D01*
X246380Y270640D02*
X244980Y269240D01*
X276860Y351660D02*
Y381000D01*
X271780Y386080D01*
X246380D01*
X210820Y441960D02*
Y482600D01*
Y441960D02*
X170180Y401320D01*
X132080D02*
X124460Y393700D01*
X170180Y401320D02*
X132080D01*
X88900Y35560D02*
Y358140D01*
X93980Y363220D02*
X88900Y358140D01*
X129540Y363220D02*
X93980D01*
X196980Y256540D02*
X165100D01*
X116840Y330200D02*
Y332740D01*
X165100Y256540D02*
X132080Y289560D01*
Y317500D01*
X116840Y332740D01*
X152400Y340360D02*
X129540Y363220D01*
X302260Y154940D02*
X198120D01*
X317500Y170180D02*
X203200D01*
X244980Y243840D02*
X226060D01*
X218440Y236220D01*
Y213360D02*
Y236220D01*
Y213360D02*
X210820Y205740D01*
X152400Y309880D02*
Y340360D01*
X246380Y270640D02*
Y294640D01*
X302260Y228600D02*
Y303660D01*
X289560Y266700D02*
Y303660D01*
X196240Y294640D02*
X167640D01*
X152400Y309880D01*
X196980Y269240D02*
Y293900D01*
D15*
X116840Y50800D02*
D03*
D16*
X146920Y482200D02*
D03*
X96920D02*
D03*
Y432200D02*
D03*
X146920D02*
D03*
X121920Y457200D02*
D03*
D17*
X744220Y66040D02*
D03*
D18*
Y91440D02*
D03*
Y116840D02*
D03*
Y142240D02*
D03*
Y167640D02*
D03*
Y193040D02*
D03*
Y218440D02*
D03*
Y243840D02*
D03*
X820420Y66040D02*
D03*
Y91440D02*
D03*
Y116840D02*
D03*
Y142240D02*
D03*
Y167640D02*
D03*
Y193040D02*
D03*
Y218440D02*
D03*
Y243840D02*
D03*
D19*
X909828Y187452D02*
D03*
X116840Y114300D02*
D03*
X909828Y40132D02*
D03*
Y113792D02*
D03*
X185420Y482600D02*
D03*
X271780D02*
D03*
D20*
X210820D02*
D03*
X246380D02*
D03*
X683260Y66040D02*
D03*
X149860Y73660D02*
D03*
X134620Y185420D02*
D03*
X556260Y444500D02*
D03*
X124460Y393700D02*
D03*
X116840Y330200D02*
D03*
X716280Y426720D02*
D03*
X152400Y378460D02*
D03*
X474980Y424180D02*
D03*
X383540Y365760D02*
D03*
X386080Y254000D02*
D03*
X360680Y231140D02*
D03*
Y266700D02*
D03*
X447040Y149860D02*
D03*
X175260Y330200D02*
D03*
X477520Y294640D02*
D03*
X807720Y20320D02*
D03*
X629920Y66040D02*
D03*
X478920Y200660D02*
D03*
X436880D02*
D03*
X551180Y38100D02*
D03*
X391160Y190500D02*
D03*
X848360Y342900D02*
D03*
X642620Y370840D02*
D03*
X878840Y304800D02*
D03*
X497840Y401320D02*
D03*
X835660Y10160D02*
D03*
X579120Y38100D02*
D03*
X447040Y251460D02*
D03*
X416560Y246380D02*
D03*
X386080Y40640D02*
D03*
X490220Y91440D02*
D03*
X500380Y33020D02*
D03*
X228600Y187960D02*
D03*
D21*
X185420Y142240D02*
D03*
X629920Y332740D02*
D03*
X322580Y411480D02*
D03*
X381000Y73660D02*
D03*
X558800Y307340D02*
D03*
X647700Y393700D02*
D03*
X246380Y127000D02*
D03*
X335280Y248920D02*
D03*
X279400Y238760D02*
D03*
X622300Y200660D02*
D03*
X627380Y251460D02*
D03*
X624840Y170180D02*
D03*
X492760Y248660D02*
D03*
X688340Y182880D02*
D03*
X665480Y317500D02*
D03*
X675640Y350520D02*
D03*
X703580Y320040D02*
D03*
Y256540D02*
D03*
X543560Y170180D02*
D03*
X505460Y292100D02*
D03*
X165100Y203200D02*
D03*
X287020Y193040D02*
D03*
X335280D02*
D03*
X246380Y386080D02*
D03*
X106680Y294640D02*
D03*
X246380Y73660D02*
D03*
X360680Y177800D02*
D03*
X246380Y294640D02*
D03*
M02*
