  0
SECTION
  2
HEADER
  9
$EXTMIN
 10
0.508000
 20
0.660400
  9
$EXTMAX
 10
82.981800
 20
48.945800
  9
$LIMMIN
 10
0.508000
 20
0.660400
  9
$LIMMAX
 10
82.981800
 20
48.945800
  9
$FILLMODE
 70
  1
  0
ENDSEC
  0
SECTION
  2
TABLES
  0
TABLE
  2
LTYPE
 70
  1
  0
LTYPE
  2
CONTINUOUS
 70
 64
  3
Solid line
 72
 65
 73
  0
 40
0.0
  0
ENDTAB
  0
TABLE
  2
LAYER
 70
 1
  0
LAYER
  2
0
 70
  0
 62
7
  6
CONTINUOUS
  0
LAYER
  2
txt
 70
  0
 62
1
  6
CONTINUOUS
  0
ENDTAB
  0
TABLE
  2
STYLE
 70
  1
  0
STYLE
  2
STANDARD
 70
  0
 40
0.0
 41
1.0
 50
0.0
 71
  0
 42
0.2
  3
txt
  4

  0
ENDTAB
  0
ENDSEC
  0
SECTION
  2
BLOCKS
  0
BLOCK
  8
0
  2
D9500
 70
64
 10
0.0
 20
0.0
  3
D9500
  0
CIRCLE
  8
0
 10
0.000000
 20
0.000000
 40
0.355599
 0
ENDBLK
  8
0
  0
BLOCK
  8
0
  2
D9501
 70
64
 10
0.0
 20
0.0
  3
D9501
  0
CIRCLE
  8
0
 10
0.000000
 20
0.000000
 40
0.449999
 0
ENDBLK
  8
0
  0
BLOCK
  8
0
  2
D9502
 70
64
 10
0.0
 20
0.0
  3
D9502
  0
CIRCLE
  8
0
 10
0.000000
 20
0.000000
 40
0.507999
 0
ENDBLK
  8
0
  0
BLOCK
  8
0
  2
D9503
 70
64
 10
0.0
 20
0.0
  3
D9503
  0
CIRCLE
  8
0
 10
0.000000
 20
0.000000
 40
0.749999
 0
ENDBLK
  8
0
  0
ENDSEC
  0
SECTION
  2
ENTITIES
  0
INSERT
  8
txt
  2
D9500
 10
67.310135
 20
7.366015
 41
1.0
 42
1.0
 43
1.0
 50
0.0
  0
INSERT
  8
txt
  2
D9500
 10
67.310135
 20
12.700025
 41
1.0
 42
1.0
 43
1.0
 50
0.0
  0
INSERT
  8
txt
  2
D9500
 10
73.406147
 20
14.224028
 41
1.0
 42
1.0
 43
1.0
 50
0.0
  0
INSERT
  8
txt
  2
D9500
 10
75.438151
 20
20.320041
 41
1.0
 42
1.0
 43
1.0
 50
0.0
  0
INSERT
  8
txt
  2
D9500
 10
78.486157
 20
18.542037
 41
1.0
 42
1.0
 43
1.0
 50
0.0
  0
INSERT
  8
txt
  2
D9500
 10
69.088138
 20
18.796038
 41
1.0
 42
1.0
 43
1.0
 50
0.0
  0
INSERT
  8
txt
  2
D9500
 10
76.962154
 20
7.366015
 41
1.0
 42
1.0
 43
1.0
 50
0.0
  0
INSERT
  8
txt
  2
D9500
 10
53.848108
 20
7.366015
 41
1.0
 42
1.0
 43
1.0
 50
0.0
  0
INSERT
  8
txt
  2
D9500
 10
53.340107
 20
4.064008
 41
1.0
 42
1.0
 43
1.0
 50
0.0
  0
INSERT
  8
txt
  2
D9500
 10
41.910084
 20
3.302007
 41
1.0
 42
1.0
 43
1.0
 50
0.0
  0
INSERT
  8
txt
  2
D9500
 10
36.830074
 20
3.810008
 41
1.0
 42
1.0
 43
1.0
 50
0.0
  0
INSERT
  8
txt
  2
D9500
 10
34.036068
 20
3.810008
 41
1.0
 42
1.0
 43
1.0
 50
0.0
  0
INSERT
  8
txt
  2
D9500
 10
28.956058
 20
6.604013
 41
1.0
 42
1.0
 43
1.0
 50
0.0
  0
INSERT
  8
txt
  2
D9500
 10
29.464059
 20
17.018034
 41
1.0
 42
1.0
 43
1.0
 50
0.0
  0
INSERT
  8
txt
  2
D9500
 10
29.718059
 20
20.066040
 41
1.0
 42
1.0
 43
1.0
 50
0.0
  0
INSERT
  8
txt
  2
D9500
 10
29.210058
 20
25.146050
 41
1.0
 42
1.0
 43
1.0
 50
0.0
  0
INSERT
  8
txt
  2
D9500
 10
42.672085
 20
24.866050
 41
1.0
 42
1.0
 43
1.0
 50
0.0
  0
INSERT
  8
txt
  2
D9500
 10
47.244094
 20
25.146050
 41
1.0
 42
1.0
 43
1.0
 50
0.0
  0
INSERT
  8
txt
  2
D9500
 10
50.292101
 20
24.638049
 41
1.0
 42
1.0
 43
1.0
 50
0.0
  0
INSERT
  8
txt
  2
D9500
 10
53.340107
 20
25.400051
 41
1.0
 42
1.0
 43
1.0
 50
0.0
  0
INSERT
  8
txt
  2
D9500
 10
55.880112
 20
23.114046
 41
1.0
 42
1.0
 43
1.0
 50
0.0
  0
INSERT
  8
txt
  2
D9500
 10
58.420117
 20
24.892050
 41
1.0
 42
1.0
 43
1.0
 50
0.0
  0
INSERT
  8
txt
  2
D9500
 10
58.420117
 20
19.304039
 41
1.0
 42
1.0
 43
1.0
 50
0.0
  0
INSERT
  8
txt
  2
D9500
 10
55.880112
 20
17.780036
 41
1.0
 42
1.0
 43
1.0
 50
0.0
  0
INSERT
  8
txt
  2
D9500
 10
52.832106
 20
19.050038
 41
1.0
 42
1.0
 43
1.0
 50
0.0
  0
INSERT
  8
txt
  2
D9500
 10
48.260097
 20
20.066040
 41
1.0
 42
1.0
 43
1.0
 50
0.0
  0
INSERT
  8
txt
  2
D9500
 10
44.056088
 20
20.066040
 41
1.0
 42
1.0
 43
1.0
 50
0.0
  0
INSERT
  8
txt
  2
D9500
 10
47.244094
 20
14.986030
 41
1.0
 42
1.0
 43
1.0
 50
0.0
  0
INSERT
  8
txt
  2
D9500
 10
42.926086
 20
9.144018
 41
1.0
 42
1.0
 43
1.0
 50
0.0
  0
INSERT
  8
txt
  2
D9500
 10
37.592075
 20
17.018034
 41
1.0
 42
1.0
 43
1.0
 50
0.0
  0
INSERT
  8
txt
  2
D9500
 10
63.246126
 20
19.304039
 41
1.0
 42
1.0
 43
1.0
 50
0.0
  0
INSERT
  8
txt
  2
D9500
 10
64.008128
 20
23.876048
 41
1.0
 42
1.0
 43
1.0
 50
0.0
  0
INSERT
  8
txt
  2
D9500
 10
21.590043
 20
25.654051
 41
1.0
 42
1.0
 43
1.0
 50
0.0
  0
INSERT
  8
txt
  2
D9500
 10
23.114046
 20
18.288037
 41
1.0
 42
1.0
 43
1.0
 50
0.0
  0
INSERT
  8
txt
  2
D9500
 10
23.622047
 20
6.604013
 41
1.0
 42
1.0
 43
1.0
 50
0.0
  0
INSERT
  8
txt
  2
D9500
 10
11.176022
 20
2.032004
 41
1.0
 42
1.0
 43
1.0
 50
0.0
  0
INSERT
  8
txt
  2
D9500
 10
8.382017
 20
1.016002
 41
1.0
 42
1.0
 43
1.0
 50
0.0
  0
INSERT
  8
txt
  2
D9500
 10
4.064008
 20
30.480061
 41
1.0
 42
1.0
 43
1.0
 50
0.0
  0
INSERT
  8
txt
  2
D9500
 10
7.112014
 20
34.290069
 41
1.0
 42
1.0
 43
1.0
 50
0.0
  0
INSERT
  8
txt
  2
D9500
 10
21.590043
 20
32.004064
 41
1.0
 42
1.0
 43
1.0
 50
0.0
  0
INSERT
  8
txt
  2
D9500
 10
25.400051
 20
31.750064
 41
1.0
 42
1.0
 43
1.0
 50
0.0
  0
INSERT
  8
txt
  2
D9500
 10
24.384049
 20
35.052070
 41
1.0
 42
1.0
 43
1.0
 50
0.0
  0
INSERT
  8
txt
  2
D9500
 10
27.178054
 20
39.370079
 41
1.0
 42
1.0
 43
1.0
 50
0.0
  0
INSERT
  8
txt
  2
D9500
 10
20.320041
 20
42.672085
 41
1.0
 42
1.0
 43
1.0
 50
0.0
  0
INSERT
  8
txt
  2
D9500
 10
27.686055
 20
37.084074
 41
1.0
 42
1.0
 43
1.0
 50
0.0
  0
INSERT
  8
txt
  2
D9500
 10
28.956058
 20
33.274067
 41
1.0
 42
1.0
 43
1.0
 50
0.0
  0
INSERT
  8
txt
  2
D9500
 10
36.068072
 20
30.734061
 41
1.0
 42
1.0
 43
1.0
 50
0.0
  0
INSERT
  8
txt
  2
D9500
 10
41.402083
 20
29.210058
 41
1.0
 42
1.0
 43
1.0
 50
0.0
  0
INSERT
  8
txt
  2
D9500
 10
44.196088
 20
29.464059
 41
1.0
 42
1.0
 43
1.0
 50
0.0
  0
INSERT
  8
txt
  2
D9500
 10
42.164084
 20
40.132080
 41
1.0
 42
1.0
 43
1.0
 50
0.0
  0
INSERT
  8
txt
  2
D9500
 10
44.450089
 20
42.418085
 41
1.0
 42
1.0
 43
1.0
 50
0.0
  0
INSERT
  8
txt
  2
D9500
 10
36.322073
 20
44.450089
 41
1.0
 42
1.0
 43
1.0
 50
0.0
  0
INSERT
  8
txt
  2
D9500
 10
53.594107
 20
36.576073
 41
1.0
 42
1.0
 43
1.0
 50
0.0
  0
INSERT
  8
txt
  2
D9500
 10
59.690119
 20
41.148082
 41
1.0
 42
1.0
 43
1.0
 50
0.0
  0
INSERT
  8
txt
  2
D9500
 10
55.880112
 20
26.670053
 41
1.0
 42
1.0
 43
1.0
 50
0.0
  0
INSERT
  8
txt
  2
D9500
 10
67.310135
 20
29.464059
 41
1.0
 42
1.0
 43
1.0
 50
0.0
  0
INSERT
  8
txt
  2
D9500
 10
67.310135
 20
38.608077
 41
1.0
 42
1.0
 43
1.0
 50
0.0
  0
INSERT
  8
txt
  2
D9500
 10
76.708153
 20
37.846076
 41
1.0
 42
1.0
 43
1.0
 50
0.0
  0
INSERT
  8
txt
  2
D9500
 10
79.502159
 20
39.370079
 41
1.0
 42
1.0
 43
1.0
 50
0.0
  0
INSERT
  8
txt
  2
D9500
 10
80.264161
 20
33.020066
 41
1.0
 42
1.0
 43
1.0
 50
0.0
  0
INSERT
  8
txt
  2
D9500
 10
81.280163
 20
29.464059
 41
1.0
 42
1.0
 43
1.0
 50
0.0
  0
INSERT
  8
txt
  2
D9500
 10
74.422149
 20
33.020066
 41
1.0
 42
1.0
 43
1.0
 50
0.0
  0
INSERT
  8
txt
  2
D9501
 10
80.264161
 20
5.080010
 41
1.0
 42
1.0
 43
1.0
 50
0.0
  0
INSERT
  8
txt
  2
D9501
 10
80.264161
 20
11.430023
 41
1.0
 42
1.0
 43
1.0
 50
0.0
  0
INSERT
  8
txt
  2
D9501
 10
0.965202
 20
11.379223
 41
1.0
 42
1.0
 43
1.0
 50
0.0
  0
INSERT
  8
txt
  2
D9501
 10
0.965202
 20
18.745237
 41
1.0
 42
1.0
 43
1.0
 50
0.0
  0
INSERT
  8
txt
  2
D9501
 10
0.965202
 20
4.013208
 41
1.0
 42
1.0
 43
1.0
 50
0.0
  0
INSERT
  8
txt
  2
D9501
 10
64.770130
 20
48.260097
 41
1.0
 42
1.0
 43
1.0
 50
0.0
  0
INSERT
  8
txt
  2
D9501
 10
67.310135
 20
48.260097
 41
1.0
 42
1.0
 43
1.0
 50
0.0
  0
INSERT
  8
txt
  2
D9501
 10
70.866142
 20
48.260097
 41
1.0
 42
1.0
 43
1.0
 50
0.0
  0
INSERT
  8
txt
  2
D9501
 10
73.406147
 20
48.260097
 41
1.0
 42
1.0
 43
1.0
 50
0.0
  0
INSERT
  8
txt
  2
D9502
 10
9.906020
 20
6.604013
 41
1.0
 42
1.0
 43
1.0
 50
0.0
  0
INSERT
  8
txt
  2
D9502
 10
9.906020
 20
9.144018
 41
1.0
 42
1.0
 43
1.0
 50
0.0
  0
INSERT
  8
txt
  2
D9502
 10
9.906020
 20
11.684023
 41
1.0
 42
1.0
 43
1.0
 50
0.0
  0
INSERT
  8
txt
  2
D9502
 10
9.906020
 20
14.224028
 41
1.0
 42
1.0
 43
1.0
 50
0.0
  0
INSERT
  8
txt
  2
D9502
 10
9.906020
 20
16.764034
 41
1.0
 42
1.0
 43
1.0
 50
0.0
  0
INSERT
  8
txt
  2
D9502
 10
9.906020
 20
19.304039
 41
1.0
 42
1.0
 43
1.0
 50
0.0
  0
INSERT
  8
txt
  2
D9502
 10
9.906020
 20
21.844044
 41
1.0
 42
1.0
 43
1.0
 50
0.0
  0
INSERT
  8
txt
  2
D9502
 10
9.906020
 20
24.384049
 41
1.0
 42
1.0
 43
1.0
 50
0.0
  0
INSERT
  8
txt
  2
D9502
 10
17.526035
 20
24.384049
 41
1.0
 42
1.0
 43
1.0
 50
0.0
  0
INSERT
  8
txt
  2
D9502
 10
17.526035
 20
21.844044
 41
1.0
 42
1.0
 43
1.0
 50
0.0
  0
INSERT
  8
txt
  2
D9502
 10
17.526035
 20
19.304039
 41
1.0
 42
1.0
 43
1.0
 50
0.0
  0
INSERT
  8
txt
  2
D9502
 10
17.526035
 20
16.764034
 41
1.0
 42
1.0
 43
1.0
 50
0.0
  0
INSERT
  8
txt
  2
D9502
 10
17.526035
 20
14.224028
 41
1.0
 42
1.0
 43
1.0
 50
0.0
  0
INSERT
  8
txt
  2
D9502
 10
17.526035
 20
11.684023
 41
1.0
 42
1.0
 43
1.0
 50
0.0
  0
INSERT
  8
txt
  2
D9502
 10
17.526035
 20
9.144018
 41
1.0
 42
1.0
 43
1.0
 50
0.0
  0
INSERT
  8
txt
  2
D9502
 10
17.526035
 20
6.604013
 41
1.0
 42
1.0
 43
1.0
 50
0.0
  0
INSERT
  8
txt
  2
D9503
 10
77.256155
 20
43.220086
 41
1.0
 42
1.0
 43
1.0
 50
0.0
  0
INSERT
  8
txt
  2
D9503
 10
77.256155
 20
48.220096
 41
1.0
 42
1.0
 43
1.0
 50
0.0
  0
INSERT
  8
txt
  2
D9503
 10
82.256165
 20
48.220096
 41
1.0
 42
1.0
 43
1.0
 50
0.0
  0
INSERT
  8
txt
  2
D9503
 10
82.256165
 20
43.220086
 41
1.0
 42
1.0
 43
1.0
 50
0.0
  0
INSERT
  8
txt
  2
D9503
 10
79.756160
 20
45.720091
 41
1.0
 42
1.0
 43
1.0
 50
0.0
  0
ENDSEC
  0
EOF
